<svg width="358" height="309" viewBox="0 0 358 309" fill="none" xmlns="http://www.w3.org/2000/svg">
<g clip-path="url(#clip0_125_552)">
<mask id="mask0_125_552" style="mask-type:luminance" maskUnits="userSpaceOnUse" x="0" y="0" width="358" height="309">
<path d="M358 0H0V309H358V0Z" fill="white"/>
</mask>
<g mask="url(#mask0_125_552)">
<path d="M35.3709 281.549H322.332C322.332 288.294 319.651 294.762 314.879 299.532C310.107 304.302 303.635 306.981 296.886 306.981H60.818C54.0693 306.981 47.5971 304.302 42.8251 299.532C38.053 294.762 35.3721 288.294 35.3721 281.549H35.3709Z" fill="#454A5C"/>
<path d="M146.094 281.549C146.094 283.227 146.562 284.873 147.446 286.299H35.836C35.523 284.735 35.366 283.144 35.3671 281.549H146.094Z" fill="white"/>
<path d="M323.518 281.199C323.518 288.215 320.501 294.581 315.615 299.181C313.984 300.721 312.166 302.049 310.202 303.132C314.607 298.611 317.293 292.574 317.293 285.95H211.449C212.334 284.522 212.801 282.877 212.801 281.199H323.518Z" fill="white"/>
<path d="M296.885 308.827H60.818C45.7686 308.827 33.5258 296.59 33.5258 281.55C33.5258 281.061 33.7201 280.591 34.0661 280.245C34.4121 279.899 34.8814 279.705 35.3709 279.704H322.333C322.823 279.705 323.292 279.899 323.638 280.245C323.984 280.591 324.178 281.061 324.178 281.55C324.178 296.588 311.934 308.827 296.885 308.827ZM37.2875 283.395C38.2326 295.548 48.4247 305.139 60.818 305.139H296.885C309.278 305.139 319.472 295.543 320.415 283.395H37.2875Z" fill="#020202"/>
<g opacity="0.3">
<path opacity="0.3" d="M322.297 281.549C322.297 288.565 319.28 294.93 314.4 299.531C309.52 304.131 302.774 306.981 295.327 306.981H62.3122C47.4132 306.981 35.3358 295.595 35.3358 281.549H36.6883C40.227 291.697 50.3664 299.016 62.3122 299.016H295.321C302.768 299.016 309.515 296.17 314.394 291.565C317.351 288.801 319.599 285.365 320.945 281.549H322.297Z" fill="#020202"/>
</g>
<path d="M202.101 292.895H155.597C152.587 292.892 149.701 291.695 147.573 289.568C145.445 287.44 144.247 284.557 144.244 281.548C144.244 281.059 144.438 280.59 144.784 280.244C145.13 279.898 145.6 279.703 146.089 279.703H211.604C212.093 279.703 212.563 279.898 212.908 280.244C213.255 280.59 213.449 281.059 213.449 281.548C213.446 284.555 212.249 287.439 210.122 289.566C207.995 291.693 205.11 292.891 202.101 292.895ZM148.164 283.395C148.578 285.054 149.535 286.526 150.883 287.579C152.23 288.632 153.891 289.206 155.601 289.208H202.106C203.817 289.206 205.478 288.632 206.825 287.579C208.173 286.526 209.13 285.054 209.544 283.395H148.164Z" fill="#020202"/>
<g opacity="0.3">
<path opacity="0.3" d="M202.101 291.05H155.597C154.348 291.05 153.112 290.805 151.958 290.327C150.805 289.85 149.757 289.15 148.874 288.268C147.991 287.386 147.29 286.338 146.813 285.185C146.335 284.032 146.089 282.796 146.089 281.549H211.604C211.604 284.068 210.602 286.484 208.821 288.266C207.039 290.048 204.622 291.049 202.101 291.05Z" fill="#020202"/>
</g>
<g opacity="0.3">
<path opacity="0.3" d="M209.979 281.549C209.979 284.179 208.851 286.545 207.026 288.267C205.094 290.071 202.544 291.067 199.9 291.05H192.388C195.032 291.067 197.582 290.071 199.514 288.267C201.34 286.545 202.467 284.176 202.467 281.549H209.979Z" fill="#020202"/>
</g>
<path d="M289.837 123.771H67.8664C60.2339 123.771 54.0466 129.955 54.0466 137.584V267.735C54.0466 275.363 60.2339 281.548 67.8664 281.548H289.837C297.469 281.548 303.656 275.363 303.656 267.735V137.584C303.656 129.955 297.469 123.771 289.837 123.771Z" fill="#454A5C"/>
<path d="M289.837 281.862H67.8676C64.1205 281.857 60.5279 280.367 57.8782 277.719C55.2286 275.071 53.7379 271.48 53.7333 267.735V137.583C53.7379 133.838 55.2286 130.248 57.8783 127.6C60.5281 124.952 64.1205 123.462 67.8676 123.458H289.837C293.584 123.462 297.176 124.952 299.825 127.6C302.475 130.248 303.965 133.839 303.97 137.583V267.735C303.965 271.48 302.475 275.071 299.825 277.719C297.176 280.367 293.584 281.857 289.837 281.862ZM67.8676 124.084C64.2864 124.088 60.8534 125.511 58.3211 128.042C55.7889 130.573 54.3643 134.004 54.36 137.583V267.735C54.364 271.314 55.7884 274.746 58.3207 277.276C60.853 279.808 64.2864 281.231 67.8676 281.235H289.837C293.417 281.231 296.851 279.807 299.383 277.276C301.915 274.745 303.339 271.314 303.343 267.735V137.583C303.339 134.004 301.915 130.574 299.382 128.043C296.851 125.512 293.417 124.088 289.837 124.084H67.8676Z" fill="#020202"/>
<g opacity="0.3">
<path opacity="0.3" d="M300.902 276.288C298.3 279.169 294.422 280.988 290.093 280.988H68.9428C61.0874 280.988 54.7147 274.975 54.7147 267.573V136.628C54.7147 132.709 56.4984 129.182 59.3389 126.73C59.0237 127.714 58.8638 128.742 58.865 129.776V266.22C58.865 272.108 63.9277 276.892 70.1765 276.892H297.161C298.432 276.894 299.696 276.689 300.902 276.288Z" fill="#020202"/>
</g>
<g opacity="0.6">
<path opacity="0.6" d="M303.135 137.533V268.478C303.135 272.375 301.38 275.89 298.563 278.339C298.845 277.407 298.987 276.439 298.984 275.465V138.371C298.984 132.658 294.075 128.03 288.015 128.03H278.671C277.418 131.697 267.348 131.697 266.091 128.03H60.3441C59.3169 128.031 58.2942 128.167 57.3019 128.432C59.9054 125.778 63.6285 124.118 67.755 124.118H288.905C296.767 124.118 303.135 130.131 303.135 137.533Z" fill="white"/>
</g>
<path d="M289.837 283.395H67.8676C63.7136 283.39 59.7306 281.739 56.7931 278.803C53.8556 275.867 52.2034 271.886 52.199 267.734V137.583C52.203 133.431 53.8551 129.45 56.7927 126.514C59.7303 123.578 63.7136 121.927 67.8676 121.923H289.837C293.991 121.927 297.974 123.577 300.912 126.514C303.85 129.45 305.501 133.43 305.505 137.583V267.734C305.501 271.886 303.849 275.867 300.912 278.804C297.974 281.739 293.991 283.391 289.837 283.395ZM67.8676 125.615C64.6927 125.619 61.6494 126.88 59.4044 129.124C57.1595 131.368 55.8967 134.41 55.893 137.583V267.734C55.8964 270.907 57.1591 273.95 59.404 276.193C61.6488 278.437 64.6927 279.699 67.8676 279.703H289.837C293.011 279.699 296.055 278.437 298.3 276.193C300.545 273.95 301.807 270.907 301.811 267.734V137.583C301.807 134.41 300.544 131.368 298.3 129.125C296.055 126.881 293.011 125.619 289.837 125.615H67.8676Z" fill="#020202"/>
<path d="M287.245 145.709V259.617C287.245 263.289 284.084 266.275 280.184 266.275H77.5195C76.7362 266.275 75.9578 266.152 75.213 265.911C72.4451 265.011 70.4587 262.529 70.4587 259.617V145.709C70.4587 142.035 73.6189 139.051 77.5195 139.051H280.184C284.084 139.048 287.245 142.032 287.245 145.709Z" fill="#C7C7C7"/>
<path opacity="0.3" d="M287.245 145.709V172.97L231.785 266.275H198.803L279.626 139.051H280.184C284.084 139.048 287.245 142.032 287.245 145.709Z" fill="url(#paint0_linear_125_552)"/>
<path opacity="0.3" d="M216.327 139.048L135.498 266.271H76.8727C76.0893 266.272 75.3115 266.149 74.5662 265.908L155.123 139.048H216.327Z" fill="url(#paint1_linear_125_552)"/>
<g opacity="0.3">
<path opacity="0.3" d="M292.261 144.134V251.126C292.261 254.731 290.255 257.891 287.247 259.69V145.709C287.247 142.036 284.087 139.052 280.186 139.052H77.5195C77.3176 139.05 77.1163 139.059 76.9155 139.079C78.7655 136.055 82.2341 134.02 86.2064 134.02H281.529C287.459 134.016 292.261 138.55 292.261 144.134Z" fill="#020202"/>
</g>
<path opacity="0.3" d="M134.634 139.048L70.4587 244.019V180.765L101.657 139.048H134.634Z" fill="url(#paint2_linear_125_552)"/>
<g opacity="0.3">
<path opacity="0.3" d="M287.245 145.709V259.617C287.245 263.166 284.292 266.073 280.575 266.263V148.715C280.575 146.413 278.594 144.546 276.157 144.546H70.5713C71.152 141.427 74.0399 139.051 77.5195 139.051H280.184C284.084 139.048 287.245 142.032 287.245 145.709Z" fill="#020202"/>
</g>
<path d="M280.392 268.111H77.3262C75.0191 268.108 72.8068 267.191 71.1753 265.56C69.5432 263.93 68.6259 261.718 68.6234 259.412V145.906C68.6259 143.6 69.5432 141.388 71.1753 139.758C72.8068 138.126 75.0191 137.209 77.3262 137.206H280.392C282.699 137.209 284.912 138.126 286.543 139.757C288.175 141.388 289.093 143.6 289.096 145.906V259.412C289.093 261.718 288.175 263.93 286.543 265.56C284.912 267.191 282.699 268.108 280.392 268.111ZM77.3262 140.892C75.9964 140.892 74.7217 141.42 73.7811 142.36C72.8405 143.3 72.3123 144.574 72.3123 145.903V259.41C72.3123 260.739 72.8405 262.013 73.7811 262.953C74.7217 263.893 75.9964 264.421 77.3262 264.421H280.392C281.722 264.421 282.997 263.893 283.937 262.953C284.877 262.013 285.406 260.739 285.406 259.41V145.903C285.406 144.574 284.877 143.3 283.937 142.36C282.997 141.42 281.722 140.892 280.392 140.892H77.3262Z" fill="#020202"/>
<g opacity="0.55">
<path opacity="0.55" d="M75.3097 252.153V260.867C72.4855 266.414 70.6826 274.374 73.931 280.106H72.0369C63.2962 272.245 70.5052 255.868 75.3097 252.153Z" fill="white"/>
</g>
<g opacity="0.55">
<path opacity="0.55" d="M156.972 181.526L169.366 171.694C154.357 194.398 142.44 216.67 137.152 238.028C132.603 237.584 127.897 239.503 124.366 243.106C106.558 230.246 88.0937 245.719 79.5727 267.77V255.782C89.1292 238.9 104.853 229.14 120.106 240.152C123.639 236.549 128.345 234.63 132.891 235.074C137.184 217.746 145.842 199.81 156.972 181.526Z" fill="white"/>
</g>
<g opacity="0.55">
<path opacity="0.55" d="M204.662 131.268C185.7 140.256 168.743 156.24 155.452 176.397L143.919 185.549C158.025 159.712 177.786 139.036 200.405 128.312C200.405 128.312 206.98 125.62 210.644 130.818C207.599 130.062 204.662 131.268 204.662 131.268Z" fill="white"/>
</g>
<g opacity="0.55">
<path opacity="0.55" d="M79.5703 255.782V255.107C78.2062 256.162 76.6408 258.246 75.3085 260.87L79.5703 255.782Z" fill="white"/>
<path opacity="0.55" d="M73.789 263.168L75.0301 260.724C76.3599 258.107 77.9442 255.969 79.3787 254.861L79.8799 254.47V255.897L73.789 263.168ZM78.5911 256.463C78.3775 256.701 78.1621 256.958 77.9455 257.234L78.5911 256.463Z" fill="#020202"/>
</g>
<path d="M121.715 241.049C120.787 242.177 119.882 243.338 119.001 244.534C118.108 245.72 117.27 246.959 116.294 248.143C116.252 248.193 116.195 248.226 116.131 248.238C116.067 248.25 116.001 248.239 115.945 248.207C115.889 248.176 115.844 248.125 115.822 248.064C115.799 248.004 115.797 247.937 115.819 247.876V247.864C116.301 246.486 116.663 245.031 117.098 243.591C117.534 242.152 117.976 240.696 118.486 239.251V239.239C118.674 238.802 119.021 238.452 119.457 238.261C119.893 238.069 120.385 238.05 120.834 238.207C121.284 238.364 121.657 238.686 121.878 239.107C122.099 239.529 122.153 240.018 122.027 240.477C121.957 240.684 121.852 240.878 121.715 241.049Z" fill="#020202"/>
<path d="M141.756 241.455C140.285 240.391 138.67 239.522 137.048 238.73C135.438 237.951 133.777 237.281 132.076 236.725C131.841 236.652 131.622 236.533 131.432 236.374C131.244 236.215 131.088 236.02 130.975 235.801C130.862 235.582 130.793 235.342 130.773 235.096C130.753 234.85 130.783 234.603 130.859 234.368C130.936 234.133 131.058 233.916 131.22 233.73C131.38 233.542 131.578 233.389 131.798 233.279C132.019 233.168 132.259 233.103 132.506 233.086C132.752 233.069 133 233.102 133.234 233.181C133.399 233.235 133.557 233.312 133.701 233.41L133.717 233.421C135.3 234.502 136.807 235.69 138.23 236.975C139.631 238.25 140.976 239.572 142.138 241.067C142.177 241.119 142.197 241.184 142.193 241.249C142.19 241.314 142.163 241.376 142.117 241.423C142.072 241.47 142.012 241.5 141.947 241.507C141.881 241.514 141.816 241.497 141.762 241.46L141.756 241.455Z" fill="#020202"/>
<path d="M264.708 281.986H72.0327C71.57 281.985 71.1239 281.813 70.7794 281.503C67.5066 278.558 65.8769 274.278 66.0703 269.126C66.3493 261.609 70.4813 253.514 74.1641 250.666C74.442 250.451 74.7749 250.318 75.1249 250.282C75.4744 250.247 75.8275 250.31 76.1432 250.465C76.459 250.62 76.7246 250.861 76.9106 251.159C77.0967 251.457 77.1952 251.802 77.1946 252.153V256.183C83.1564 245.034 91.4259 237.173 100.236 234.562C106.891 232.588 113.669 233.691 119.916 237.747C123.289 234.79 127.363 233.161 131.448 233.131C135.773 216.54 144.109 198.553 157.396 177.256L145.08 187.027C144.74 187.297 144.318 187.44 143.884 187.434C143.451 187.427 143.033 187.271 142.701 186.992C142.37 186.713 142.144 186.329 142.064 185.903C141.984 185.477 142.054 185.036 142.261 184.656C156.923 157.805 177.28 137.19 199.595 126.614L199.688 126.575C199.914 126.482 205.258 124.346 209.687 127.29C213.107 129.562 214.867 134.076 214.919 140.705C214.922 141.002 214.854 141.295 214.721 141.561C201.34 168.299 197.318 212.521 206.449 229.426C209.48 228.645 212.457 228.852 214.799 230.036C216.166 230.72 217.315 231.77 218.118 233.07C221.98 230.94 226.736 230.65 231.029 232.392C234.701 233.882 237.422 236.557 238.705 239.818C248.199 233.822 259.784 232.902 268.902 237.593C276.463 241.483 281.145 248.787 282.149 258.014L286.286 253.504C286.539 253.227 286.869 253.033 287.234 252.945C287.599 252.858 287.982 252.882 288.333 253.013C288.684 253.145 288.989 253.38 289.206 253.686C289.423 253.992 289.544 254.355 289.552 254.73C290.053 276.265 275.745 280.59 264.942 281.97C264.864 281.98 264.786 281.985 264.708 281.986ZM72.7903 278.227H264.586C277.916 276.497 284.434 270.894 285.611 259.811L281.851 263.91C281.592 264.189 281.254 264.383 280.883 264.466C280.51 264.55 280.122 264.518 279.769 264.376C279.416 264.233 279.114 263.987 278.903 263.67C278.694 263.352 278.585 262.979 278.591 262.598C278.813 252.529 274.763 244.837 267.185 240.939C258.73 236.589 247.279 237.977 238.694 244.393C238.431 244.59 238.121 244.715 237.794 244.755C237.467 244.794 237.136 244.747 236.833 244.619C236.531 244.491 236.267 244.285 236.068 244.023C235.87 243.761 235.743 243.451 235.702 243.125C235.303 239.972 233.029 237.263 229.618 235.879C225.816 234.337 221.549 234.894 218.486 237.335C218.245 237.527 217.96 237.657 217.657 237.713C217.353 237.769 217.04 237.75 216.746 237.656C216.452 237.563 216.185 237.399 215.969 237.178C215.754 236.957 215.596 236.686 215.51 236.39C215.107 235.012 214.298 234 213.103 233.394C211.326 232.495 208.756 232.509 206.228 233.432C205.824 233.579 205.382 233.583 204.976 233.445C204.57 233.307 204.223 233.033 203.994 232.671C198.708 224.318 196.671 208.581 198.405 189.498C200.034 171.542 204.797 153.196 211.155 140.297C211.05 135.323 209.833 131.919 207.627 130.437C205.024 128.691 201.547 129.898 201.147 130.045C182 139.141 164.304 155.936 150.593 177.859L163.939 167.273C164.289 166.996 164.727 166.853 165.173 166.869C165.619 166.885 166.045 167.06 166.375 167.361C166.704 167.662 166.915 168.071 166.97 168.514C167.026 168.957 166.922 169.405 166.676 169.778C149.574 195.651 139.422 216.544 134.725 235.529C134.617 235.967 134.355 236.352 133.986 236.612C133.618 236.872 133.169 236.992 132.719 236.949C128.812 236.563 124.608 238.257 121.457 241.472C121.136 241.785 120.716 241.977 120.269 242.014C119.822 242.052 119.376 241.933 119.007 241.678C113.301 237.559 107.35 236.377 101.305 238.17C91.779 240.994 82.4906 251.465 77.0698 265.498C76.9119 265.908 76.6157 266.25 76.232 266.464C75.8489 266.678 75.4022 266.752 74.9701 266.671C74.5387 266.591 74.1482 266.362 73.868 266.024C73.5871 265.686 73.4341 265.261 73.4341 264.822V257.451C71.6067 260.577 69.9887 264.968 69.8284 269.271C69.6803 273.039 70.6827 276.05 72.7903 278.227Z" fill="#020202"/>
<path d="M238.669 244.362C237.968 244.726 237.237 245.171 236.53 245.631C235.823 246.091 235.122 246.58 234.442 247.096C233.064 248.118 231.799 249.284 230.668 250.576C230.625 250.627 230.566 250.66 230.501 250.671C230.435 250.682 230.368 250.668 230.311 250.633C230.255 250.598 230.213 250.544 230.193 250.481C230.174 250.417 230.177 250.348 230.204 250.288C230.914 248.644 231.868 247.092 232.921 245.621C233.45 244.886 234.008 244.168 234.592 243.467C235.18 242.763 235.778 242.089 236.465 241.401L236.492 241.375C236.664 241.193 236.871 241.048 237.1 240.947C237.33 240.846 237.577 240.793 237.827 240.79C238.078 240.787 238.326 240.834 238.558 240.929C238.79 241.024 239 241.164 239.177 241.341C239.353 241.52 239.492 241.731 239.585 241.963C239.678 242.195 239.724 242.444 239.719 242.694C239.714 242.945 239.659 243.191 239.557 243.42C239.455 243.648 239.307 243.854 239.124 244.025C238.99 244.159 238.837 244.272 238.669 244.362Z" fill="#020202"/>
<path d="M211.638 243.244C211.73 242.452 211.937 241.677 212.251 240.943C212.553 240.213 212.901 239.501 213.291 238.813C213.679 238.127 214.097 237.458 214.545 236.809C215.006 236.121 215.515 235.466 216.069 234.851L215.369 236.296V236.289C215.369 235.8 215.564 235.33 215.909 234.985C216.256 234.639 216.725 234.444 217.214 234.444C217.704 234.444 218.173 234.639 218.519 234.985C218.865 235.33 219.059 235.8 219.059 236.289V236.615C219.06 236.849 218.995 237.079 218.871 237.279C218.748 237.477 218.57 237.638 218.36 237.742C217.759 238.061 217.183 238.422 216.635 238.824C216.053 239.239 215.485 239.683 214.938 240.15C214.391 240.614 213.873 241.112 213.388 241.641C212.899 242.158 212.487 242.744 212.168 243.38V243.391C212.14 243.449 212.092 243.496 212.033 243.522C211.974 243.549 211.907 243.555 211.845 243.537C211.782 243.52 211.728 243.481 211.691 243.428C211.654 243.375 211.637 243.31 211.643 243.246L211.638 243.244Z" fill="#020202"/>
<path d="M206.407 233.31C205.181 233.647 204.059 234.104 203.133 234.967C202.206 235.828 201.438 237.119 200.537 238.293C200.497 238.344 200.44 238.38 200.377 238.394C200.314 238.408 200.247 238.399 200.189 238.369C200.132 238.339 200.086 238.29 200.061 238.231C200.036 238.171 200.032 238.104 200.05 238.042C200.26 237.353 200.427 236.657 200.613 235.938C200.804 235.179 201.072 234.44 201.41 233.734C201.788 232.976 202.276 232.278 202.857 231.661C203.436 231.054 204.07 230.502 204.752 230.013L204.794 229.982C205.196 229.686 205.699 229.562 206.192 229.638C206.685 229.713 207.128 229.981 207.424 230.383C207.72 230.785 207.843 231.287 207.768 231.781C207.693 232.274 207.425 232.717 207.023 233.012C206.837 233.148 206.628 233.248 206.407 233.31Z" fill="#020202"/>
<path d="M217.312 238.072C217.022 238.073 216.735 238.016 216.467 237.905C216.199 237.794 215.955 237.632 215.75 237.427C215.545 237.223 215.382 236.979 215.271 236.712C215.16 236.444 215.102 236.157 215.102 235.868C215.103 235.431 215.233 235.004 215.476 234.641C215.719 234.278 216.064 233.995 216.468 233.829C216.872 233.662 217.316 233.618 217.745 233.704C218.173 233.79 218.567 234 218.876 234.309C219.185 234.618 219.395 235.012 219.48 235.44C219.565 235.868 219.521 236.312 219.354 236.716C219.187 237.119 218.903 237.464 218.54 237.707C218.176 237.949 217.749 238.079 217.312 238.079V238.072Z" fill="#020202"/>
<g opacity="0.2">
<path opacity="0.2" d="M108.475 248.961C106.954 247.539 101.419 248.973 97.3496 253.323C93.2807 257.673 92.2104 263.287 93.7372 264.709C95.2641 266.131 98.8073 262.839 102.876 258.49C106.945 254.141 109.995 250.382 108.475 248.961Z" fill="white"/>
</g>
<path d="M357.45 307.606C350.014 308.578 342.577 308.811 335.138 308.931C331.42 308.996 327.702 309.01 323.981 308.993C320.264 308.993 316.545 308.953 312.825 308.921C305.388 308.863 297.951 308.843 290.514 308.859H45.1356H33.9796L28.4028 308.904L22.826 308.982C19.1082 309.019 15.3903 308.966 11.67 308.795C7.94961 308.623 4.23429 308.308 0.51394 307.602C0.368076 307.574 0.236471 307.497 0.14181 307.382C0.0471507 307.268 -0.00463867 307.124 -0.00463867 306.976C-0.00463867 306.827 0.0471507 306.683 0.14181 306.569C0.236471 306.454 0.368076 306.377 0.51394 306.349C4.23179 305.643 7.94961 305.347 11.67 305.157C15.3903 304.966 19.1069 304.932 22.826 304.97L28.4028 305.048L33.9796 305.092H45.1356H290.525C297.962 305.102 305.4 305.081 312.837 305.03C316.555 304.999 320.273 304.954 323.993 304.958C327.711 304.941 331.428 304.958 335.149 305.02C342.585 305.145 350.022 305.372 357.461 306.346C357.627 306.346 357.786 306.412 357.904 306.529C358.021 306.647 358.087 306.806 358.087 306.972C358.087 307.138 358.021 307.298 357.904 307.415C357.786 307.532 357.627 307.598 357.461 307.598L357.45 307.606Z" fill="#020202"/>
<path d="M210.508 81.9523C210.643 82.2907 210.707 82.6535 210.697 83.0176C210.686 83.3817 210.601 83.7396 210.447 84.07L197.267 112.423C197.096 112.786 196.847 113.106 196.536 113.36C196.226 113.615 195.863 113.796 195.474 113.893C195.084 113.989 194.678 113.997 194.285 113.916C193.892 113.834 193.523 113.667 193.203 113.425C184.631 107.053 171.588 106.409 161.373 107.182C158.98 107.359 156.735 107.615 154.753 107.894C152.121 108.261 150.63 105.002 152.606 103.233C182.778 76.2373 201.993 78.2853 208.83 80.3926C209.21 80.5089 209.558 80.7096 209.849 80.9794C210.139 81.2499 210.365 81.5821 210.508 81.9523Z" fill="#2E68DD"/>
<g opacity="0.6">
<path opacity="0.6" d="M210.01 81.242C182.395 81.0089 161.219 100.737 159.369 102.621C157.586 104.434 159.446 105.78 160.873 106.466C158.481 106.643 156.235 106.899 154.253 107.178C151.621 107.545 150.131 104.286 152.106 102.517C182.277 75.5215 201.493 77.5695 208.331 79.6768C208.711 79.7937 209.06 79.995 209.35 80.266C209.641 80.5371 209.866 80.8706 210.01 81.242Z" fill="white"/>
</g>
<path d="M196.33 118.888L194.428 116.963C184.759 107.178 165.422 108.267 154.756 109.787C153.805 109.921 152.837 109.747 151.993 109.29C151.149 108.833 150.475 108.118 150.069 107.248C149.663 106.379 149.547 105.403 149.738 104.463C149.929 103.523 150.416 102.669 151.129 102.027C190.223 66.9251 211.71 79.3842 212.607 79.9318L214.037 80.8087L196.33 118.888ZM167.895 105.053C177.326 105.053 187.862 106.681 195.134 112.543L209.115 82.4754C206.985 81.7008 202.646 80.6325 196.268 81.4316C187.482 82.5342 172.954 87.4867 153.643 104.826C153.529 104.929 153.452 105.066 153.423 105.216C153.393 105.367 153.412 105.523 153.477 105.661C153.542 105.8 153.65 105.914 153.785 105.988C153.919 106.06 154.073 106.089 154.225 106.068C158.752 105.412 163.32 105.073 167.895 105.053Z" fill="#020202"/>
<path d="M259.55 128.524C260.735 131.769 262.057 137.901 260.246 146.93C258.299 156.577 252.765 169.545 239.635 185.823C237.971 187.887 234.636 186.564 234.872 183.92C235.499 176.71 235.685 166.296 233.049 157.181C231.83 152.97 230.009 149.038 227.354 145.83C227.096 145.524 226.909 145.164 226.807 144.776C226.706 144.389 226.692 143.983 226.768 143.589C226.843 143.195 227.005 142.824 227.242 142.501C227.48 142.178 227.787 141.912 228.14 141.723L255.786 127.098C256.122 126.919 256.493 126.814 256.873 126.79C257.254 126.765 257.635 126.823 257.991 126.958C258.347 127.093 258.671 127.302 258.94 127.572C259.209 127.843 259.417 128.167 259.55 128.524Z" fill="#2E68DD"/>
<g opacity="0.35">
<path opacity="0.35" d="M259.55 128.524C260.735 131.769 260.328 131.782 260.779 140.446C255.837 146.061 243.504 153.708 233.046 157.181C231.827 152.97 230.006 149.038 227.351 145.83C227.093 145.524 226.906 145.164 226.805 144.776C226.703 144.389 226.69 143.983 226.765 143.59C226.84 143.196 227.003 142.824 227.24 142.501C227.477 142.178 227.784 141.912 228.137 141.723L255.783 127.098C256.119 126.919 256.491 126.813 256.871 126.789C257.252 126.764 257.633 126.822 257.99 126.956C258.347 127.092 258.671 127.301 258.94 127.572C259.208 127.842 259.417 128.167 259.55 128.524Z" fill="#020202"/>
</g>
<path d="M237.449 188.893C236.868 188.893 236.292 188.78 235.754 188.562C234.861 188.205 234.108 187.57 233.606 186.75C233.105 185.931 232.882 184.971 232.972 184.015C233.939 173.29 234.024 153.932 223.748 144.788L221.728 142.989L258.863 123.344L259.811 124.722C260.405 125.588 273.967 146.396 240.916 187.228C240.499 187.748 239.972 188.167 239.372 188.455C238.772 188.743 238.115 188.893 237.449 188.893ZM228.127 143.854C237.752 154.58 237.687 173.583 236.718 184.352C236.705 184.504 236.742 184.657 236.822 184.788C236.902 184.917 237.022 185.019 237.164 185.077C237.306 185.134 237.462 185.145 237.61 185.109C237.759 185.071 237.892 184.988 237.99 184.871C254.315 164.7 258.512 149.939 259.158 141.112C259.626 134.706 258.335 130.435 257.45 128.343L228.127 143.854Z" fill="#020202"/>
<path d="M194.094 148.59C198.521 152.637 205.155 153.778 213.231 152.403C214.069 152.255 214.93 152.086 215.802 151.889C217.353 151.538 218.949 151.101 220.589 150.578C224.535 149.324 228.724 147.601 233.084 145.432C236.227 143.866 239.452 142.071 242.758 140.045C245.724 138.232 248.747 136.24 251.799 134.084C254.623 132.085 257.472 129.947 260.344 127.669C269.495 120.411 278.79 111.767 287.743 101.986C302.372 86.0003 312.368 68.0048 318.698 51.8509C328.115 27.8379 329.433 7.88286 325.843 4.60294C322.134 1.22031 302.818 4.22083 280.129 15.4499C279.857 15.5827 279.587 15.7156 279.316 15.8533C265.184 22.9443 249.806 33.205 236.115 47.0863C234.791 48.4286 233.483 49.8041 232.193 51.2132C223.733 60.4578 216.315 69.9182 210.106 79.16C209.745 79.701 209.388 80.2388 209.034 80.7785C208.798 81.1297 208.57 81.4791 208.346 81.826C206.591 84.5299 204.944 87.2063 203.406 89.8551C201.526 93.0865 199.814 96.2738 198.267 99.3907C196.548 102.855 195.046 106.225 193.763 109.5C192.575 112.531 191.58 115.47 190.786 118.291C190.41 119.64 190.068 120.961 189.783 122.256C189.207 124.768 188.807 127.319 188.589 129.887C187.938 138.047 189.664 144.55 194.094 148.59Z" fill="white"/>
<g opacity="0.35">
<path opacity="0.35" d="M220.401 150.085C220.466 150.252 220.526 150.416 220.59 150.587C218.949 151.109 217.352 151.545 215.802 151.897C214.98 152.083 214.172 152.245 213.38 152.384L213.828 151.69L213.815 151.678C216.042 151.285 218.241 150.753 220.401 150.085Z" fill="black"/>
<path opacity="0.35" d="M212.927 152.679L213.554 151.716L213.381 151.544L213.782 151.46C215.999 151.069 218.19 150.54 220.342 149.878L220.533 149.819L220.606 150.005C220.673 150.174 220.732 150.34 220.798 150.507L220.876 150.72L220.66 150.787C219.03 151.307 217.411 151.751 215.853 152.102C215.011 152.291 214.192 152.457 213.421 152.591L212.927 152.679ZM213.969 151.867L213.834 152.076C214.451 151.961 215.095 151.826 215.754 151.68C217.231 151.346 218.762 150.929 220.308 150.444L220.272 150.351C218.203 150.981 216.098 151.487 213.969 151.867Z" fill="#020202"/>
</g>
<g opacity="0.35">
<path opacity="0.35" d="M319.169 51.01C312.858 67.1718 302.874 85.1709 288.27 101.176C279.326 110.973 270.043 119.627 260.899 126.895C258.037 129.175 255.192 131.316 252.364 133.317C249.312 135.479 246.3 137.471 243.326 139.292C240.032 141.313 236.81 143.109 233.66 144.679C229.013 146.998 224.569 148.813 220.401 150.081C218.241 150.747 216.041 151.277 213.815 151.668L213.828 151.681L213.38 152.375C207.614 153.377 202.567 153.103 198.536 151.403C196.905 150.728 195.403 149.776 194.098 148.589C189.669 144.545 187.942 138.043 188.595 129.88C188.812 127.313 189.211 124.764 189.788 122.252C195.365 123.818 201.907 127.583 207.953 133.087C208.843 133.899 209.698 134.723 210.517 135.562C212.877 137.98 216.517 138.648 219.542 137.129C246.492 123.58 266.783 106.642 282.023 89.432C283.025 88.3043 281.945 86.5641 280.483 86.9472C276.798 87.9207 272.928 87.9543 269.227 87.0451C265.526 86.1358 262.112 84.3124 259.299 81.7431C249.994 73.2624 249.335 58.8439 257.822 49.5454C260.903 46.1707 264.928 43.7993 269.374 42.7388C273.82 41.6784 278.482 41.9779 282.756 43.5986C287.029 45.2192 290.717 48.0862 293.34 51.8274C295.963 55.5685 297.401 60.0114 297.467 64.5792C297.491 66.0753 299.472 66.6192 300.278 65.3612C304.615 58.6477 308.548 51.6813 312.054 44.4991C323.46 21.1175 326.266 3.73828 326.266 3.73828C329.853 7.0282 328.557 26.982 319.169 51.01Z" fill="#020202"/>
</g>
<path d="M327.029 4.66135C327.069 4.75781 327.105 4.8618 327.142 4.96829C327.211 5.16749 327.276 5.37922 327.335 5.60724C327.368 5.72625 327.395 5.84402 327.427 5.96805C327.649 6.96772 327.791 7.98375 327.849 9.00614C327.863 9.17276 327.875 9.34066 327.882 9.50728C327.948 10.7088 327.95 12.0506 327.882 13.5238C327.873 13.7318 327.862 13.9473 327.849 14.1628C327.824 14.6552 327.789 15.165 327.747 15.6812C327.731 15.908 327.709 16.1398 327.687 16.3741C327.563 17.8022 327.381 19.3207 327.143 20.9293C327.11 21.1636 327.073 21.4004 327.036 21.6422C326.809 23.1272 326.532 24.6753 326.205 26.2864C326.148 26.5721 326.091 26.8627 326.028 27.1521C325.694 28.7515 325.312 30.4066 324.882 32.1171C324.804 32.4303 324.724 32.7452 324.64 33.0617C323.659 36.8577 322.442 40.8894 320.967 45.0826C320.842 45.4347 320.716 45.7842 320.592 46.135C320.341 46.8403 320.081 47.5457 319.814 48.2647C319.682 48.6193 319.546 48.9764 319.409 49.3335C319.372 49.4387 319.328 49.5427 319.291 49.6479C317.559 47.1222 315.354 44.4437 313.113 41.9267C311.066 39.629 308.988 37.4679 307.222 35.6889C302.007 28.2963 295.059 22.2942 286.985 18.2082L284.665 17.0356L279.581 14.4597C301.245 3.56011 319.991 0.132377 325.26 2.61673C325.442 2.70089 325.617 2.79977 325.783 2.9124C325.892 2.98572 325.996 3.06696 326.094 3.15545C326.453 3.4862 326.77 3.99359 327.029 4.66135Z" fill="#2E68DD"/>
<g opacity="0.6">
<path opacity="0.6" d="M324.401 2.77958C320.49 3.76681 309.558 6.64833 299.651 10.4632C293.247 12.9262 287.667 15.4018 283.806 17.1984L278.721 14.6225C300.386 3.72045 319.131 0.295224 324.401 2.77958Z" fill="white"/>
</g>
<g opacity="0.35">
<path opacity="0.35" d="M327.03 4.66161C327.069 4.75808 327.105 4.86206 327.142 4.96856C327.211 5.16775 327.276 5.37949 327.335 5.6075C327.368 5.72652 327.395 5.84429 327.427 5.96831C327.649 6.96798 327.791 7.98401 327.849 9.0064C327.863 9.17308 327.875 9.34092 327.882 9.50753C327.948 10.709 327.951 12.0508 327.882 13.5241C327.873 13.7321 327.862 13.9476 327.849 14.1631C327.824 14.6554 327.789 15.1654 327.747 15.6815C327.731 15.9082 327.709 16.14 327.687 16.3743C327.563 17.8026 327.381 19.3209 327.143 20.9296C327.11 21.1639 327.073 21.4007 327.036 21.6425C326.809 23.1275 326.532 24.6756 326.205 26.2867C326.148 26.5723 326.091 26.863 326.028 27.1524C325.694 28.7518 325.312 30.4068 324.882 32.1173C324.804 32.4306 324.724 32.7454 324.64 33.062C323.659 36.8581 322.442 40.8896 320.967 45.0829C320.842 45.4349 320.716 45.7844 320.592 46.1352C320.341 46.8406 320.081 47.5459 319.814 48.2651C319.682 48.6196 319.546 48.9767 319.409 49.3337C319.372 49.439 319.332 49.5404 319.284 49.6457C317.553 47.12 315.348 44.4414 313.107 41.9245C317.389 32.2777 326.207 11.2565 325.767 2.91016C325.877 2.98348 325.981 3.06471 326.078 3.15321C326.452 3.48646 326.77 3.99385 327.03 4.66161Z" fill="#020202"/>
</g>
<path d="M207.377 153.527C201.514 153.527 196.775 151.898 193.234 148.676C188.451 144.312 186.389 137.502 187.105 128.434C187.591 122.281 189.362 115.24 192.379 107.512C193.679 104.189 195.212 100.737 196.934 97.2472C198.497 94.085 200.242 90.839 202.12 87.6003C203.897 84.5372 205.807 81.4503 207.793 78.4257C214.451 68.2856 222.292 58.2553 231.108 48.5998C247.669 30.4588 266.149 19.1081 278.741 12.7801C299.943 2.11106 322.213 -2.93282 327.366 1.76654C332.43 6.38445 329.404 28.9742 320.76 51.0954C315.621 64.2589 306.019 83.7491 289.498 101.845C280.69 111.492 271.407 120.217 261.91 127.771C259.074 130.026 256.174 132.208 253.29 134.254C250.222 136.427 247.148 138.459 244.148 140.297C240.832 142.329 237.533 144.171 234.341 145.768C226.91 149.476 220.057 151.885 213.971 152.93C211.795 153.316 209.588 153.515 207.377 153.527ZM320.552 3.66958C313.431 3.66958 298.622 6.97454 280.422 16.134C268.118 22.3192 250.057 33.4117 233.887 51.1292C225.21 60.6332 217.491 70.5092 210.948 80.4841C208.997 83.4523 207.125 86.4787 205.382 89.4806C203.548 92.6489 201.843 95.8215 200.316 98.9097C198.642 102.302 197.152 105.655 195.893 108.876C193.01 116.268 191.32 122.943 190.865 128.729C190.238 136.582 191.897 142.358 195.778 145.893C199.661 149.428 205.558 150.557 213.33 149.217C219.054 148.235 225.555 145.941 232.655 142.398C235.749 140.849 238.955 139.06 242.181 137.084C245.109 135.289 248.115 133.304 251.112 131.18C253.94 129.175 256.785 127.035 259.566 124.822C268.909 117.392 278.044 108.806 286.719 99.3031C302.85 81.6381 312.229 62.5866 317.255 49.7198C327.158 24.3801 327.052 6.5611 324.83 4.53404C324.215 3.98405 322.748 3.66958 320.552 3.66958Z" fill="#020202"/>
<path d="M287.83 76.5248C286 78.533 283.792 80.1612 281.332 81.3153C278.872 82.4699 276.208 83.1277 273.493 83.2519C270.778 83.3755 268.065 82.9631 265.511 82.0385C262.955 81.1133 260.607 79.6938 258.602 77.8606C257.836 77.1636 257.124 76.4098 256.471 75.6052C253.355 71.7601 251.722 66.9263 251.868 61.9798C252.014 57.034 253.93 52.3043 257.267 48.6496C257.721 48.1479 258.202 47.6708 258.707 47.2201C262.655 43.6669 267.818 41.7675 273.129 41.9152C278.439 42.063 283.489 44.2465 287.233 48.0136C290.976 51.7808 293.127 56.8428 293.239 62.1511C293.351 67.4598 291.415 72.6076 287.833 76.5285L287.83 76.5248Z" fill="#EBEBEB"/>
<path d="M272.559 83.5872C269.428 83.5817 266.339 82.8804 263.513 81.5337C260.688 80.1869 258.198 78.2289 256.223 75.801C249.732 67.8129 250.081 56.0489 257.032 48.4367C257.494 47.9272 257.982 47.4421 258.494 46.9835C264.856 41.243 274.289 39.9676 281.95 43.8113C284.852 45.2639 287.379 47.3692 289.331 49.962C291.283 52.5548 292.607 55.5645 293.199 58.7547C293.791 61.9449 293.635 65.2289 292.744 68.3489C291.853 71.4689 290.25 74.3398 288.061 76.7365C286.097 78.894 283.703 80.6177 281.034 81.7974C278.364 82.9771 275.478 83.5866 272.559 83.5872ZM272.59 42.2352C267.543 42.2241 262.671 44.0812 258.913 47.4482C258.416 47.8925 257.943 48.3625 257.496 48.8564C250.751 56.2481 250.412 67.6562 256.71 75.4051C259.069 78.3036 262.173 80.5039 265.69 81.7693C269.474 83.124 273.573 83.329 277.472 82.3579C281.371 81.3868 284.895 79.2838 287.599 76.3131C290.266 73.4024 292.028 69.7795 292.671 65.8848C293.313 61.9908 292.808 57.9935 291.217 54.3811C289.626 50.7687 287.017 47.697 283.71 45.5406C280.403 43.3842 276.539 42.2361 272.59 42.2365V42.2352Z" fill="#020202"/>
<path d="M287.83 76.5248C286 78.533 283.792 80.1612 281.332 81.3153C278.872 82.4699 276.208 83.1277 273.493 83.2519C270.778 83.3755 268.065 82.9631 265.511 82.0385C262.955 81.1133 260.607 79.6938 258.602 77.8606C257.836 77.1636 257.124 76.4098 256.471 75.6052C253.355 71.7601 251.722 66.9263 251.868 61.9798C252.014 57.034 253.93 52.3043 257.267 48.6496C257.721 48.1479 258.202 47.6708 258.707 47.2201C262.655 43.6669 267.818 41.7675 273.129 41.9152C278.439 42.063 283.489 44.2465 287.233 48.0136C290.976 51.7808 293.127 56.8428 293.239 62.1511C293.351 67.4598 291.415 72.6076 287.833 76.5285L287.83 76.5248Z" fill="#EBEBEB"/>
<g opacity="0.6">
<path opacity="0.6" d="M287.285 49.9366C283.492 46.4748 278.545 44.5479 273.409 44.531C268.272 44.5141 263.312 46.4084 259.496 49.8452C258.991 50.2959 258.51 50.7736 258.056 51.2759C255.801 53.7408 254.178 56.7156 253.327 59.9451C252.475 63.1746 252.421 66.5625 253.167 69.8178C251.834 66.2535 251.512 62.3901 252.236 58.6546C252.959 54.9188 254.7 51.4551 257.267 48.6449C257.721 48.1433 258.202 47.6661 258.707 47.2155C261.386 44.8025 264.651 43.1316 268.176 42.3687C271.701 41.6057 275.364 41.7774 278.802 42.8664C282.24 43.9554 285.333 45.9241 287.774 48.577C290.216 51.2299 291.921 54.4748 292.721 57.9898C291.578 54.9106 289.714 52.1493 287.285 49.9366Z" fill="white"/>
</g>
<path d="M272.524 84.5905C267.474 84.585 262.58 82.8448 258.663 79.6624C254.744 76.4794 252.04 72.0469 251.002 67.1084C249.965 62.1699 250.657 57.0248 252.963 52.5357C255.27 48.0466 259.05 44.4863 263.67 42.4515C268.291 40.4167 273.471 40.0311 278.342 41.3594C283.213 42.6876 287.479 45.6489 290.425 49.747C293.372 53.845 294.819 58.8308 294.525 63.8685C294.231 68.9061 292.213 73.6898 288.81 77.418C286.866 79.559 284.518 81.2937 281.899 82.5211C279.281 83.7491 276.445 84.4461 273.555 84.5715C273.21 84.5825 272.871 84.5905 272.524 84.5905ZM272.568 43.2295C272.268 43.2295 271.966 43.2366 271.662 43.2508C268.48 43.3961 265.384 44.3235 262.647 45.9507C259.909 47.578 257.616 49.8548 255.969 52.5796C254.323 55.3044 253.374 58.3931 253.207 61.5721C253.04 64.7509 253.66 67.9216 255.012 70.8042C256.364 73.6862 258.406 76.1906 260.958 78.0954C263.51 80.0002 266.493 81.2466 269.641 81.7238C272.79 82.2017 276.008 81.8951 279.01 80.8329C282.013 79.7701 284.707 77.984 286.853 75.6325C289.383 72.8613 291.052 69.4146 291.658 65.7127C292.264 62.0108 291.781 58.2122 290.267 54.7795C288.754 51.3469 286.274 48.4278 283.131 46.3772C279.988 44.3267 276.317 43.2331 272.563 43.2295H272.568Z" fill="#020202"/>
<path d="M286.311 63.3824C286.113 66.7533 284.683 69.9345 282.292 72.3208C279.901 74.7071 276.715 76.1316 273.342 76.3237C269.969 76.5165 266.642 75.4628 263.995 73.3641C261.348 71.2653 259.565 68.2671 258.985 64.9397C258.405 61.6129 259.068 58.1889 260.85 55.3189C262.63 52.4489 265.405 50.3331 268.644 49.3739C271.884 48.4145 275.364 48.6787 278.421 50.1159C281.478 51.5533 283.901 54.0635 285.228 57.1694C286.064 59.1288 286.435 61.2555 286.311 63.3824Z" fill="#262F6A"/>
<path d="M272.555 76.6791C272.282 76.6791 272.009 76.6718 271.732 76.6552C268.035 76.4405 264.572 74.7798 262.09 72.0337C259.609 69.2876 258.308 65.675 258.469 61.978C258.629 58.2807 260.24 54.7954 262.951 52.2751C265.662 49.7547 269.257 48.4019 272.958 48.5088C276.659 48.6158 280.169 50.1741 282.731 52.8468C285.292 55.5195 286.698 59.092 286.645 62.7925C286.592 66.4925 285.084 70.0237 282.448 72.6223C279.811 75.2204 276.258 76.6779 272.555 76.6791ZM272.529 49.1168C269.021 49.1163 265.651 50.4832 263.135 52.927C260.62 55.3709 259.157 58.6989 259.058 62.2038C258.959 65.7087 260.232 69.1138 262.605 71.6953C264.979 74.2769 268.267 75.8316 271.769 76.0287C279.175 76.4484 285.569 70.7744 285.998 63.3615C286.101 61.5956 285.855 59.8267 285.274 58.156C284.693 56.4852 283.788 54.9453 282.611 53.6245C281.434 52.3037 280.007 51.2278 278.414 50.4584C276.82 49.689 275.091 49.2412 273.323 49.1407C273.059 49.1268 272.793 49.1168 272.529 49.1168Z" fill="#020202"/>
<g opacity="0.3">
<path opacity="0.3" d="M278.315 74.5491C280.333 73.3999 282.013 71.5294 283.063 69.129L276.159 50.1863C275.966 50.1036 275.764 50.026 275.563 49.9545C273.546 49.2098 271.342 49.136 269.28 49.7441L278.315 74.5491Z" fill="white"/>
</g>
<g opacity="0.3">
<path opacity="0.3" d="M270.255 76.066C271.659 76.4484 273.135 76.4759 274.552 76.1479L264.988 51.7852C263.733 52.5365 262.681 53.5818 261.921 54.8308L270.255 76.066Z" fill="white"/>
</g>
<g opacity="0.35">
<path opacity="0.35" d="M275.126 52.8753C272.958 52.7499 270.792 53.1379 268.802 54.0079C266.813 54.8778 265.058 56.205 263.678 57.8815C262.299 59.558 261.336 61.5363 260.867 63.6552C260.397 65.7742 260.435 67.9739 260.978 70.0751C259.889 68.3992 259.178 66.5066 258.894 64.5284C258.609 62.5502 258.759 60.5342 259.332 58.6196C259.905 56.7051 260.888 54.938 262.213 53.4409C263.537 51.9438 265.171 50.7525 267.002 49.9497C268.833 49.1468 270.817 48.7515 272.816 48.7913C274.815 48.8311 276.782 49.3049 278.58 50.18C280.377 51.0551 281.963 52.3104 283.227 53.859C284.491 55.4076 285.402 57.2123 285.899 59.1482C284.724 57.3289 283.136 55.8126 281.264 54.7226C279.392 53.6326 277.289 52.9996 275.126 52.8753Z" fill="#020202"/>
</g>
<path d="M272.557 77.6907C272.263 77.6907 271.97 77.6822 271.679 77.6644C268.694 77.4931 265.826 76.4401 263.439 74.6393C261.053 72.8391 259.254 70.3714 258.271 67.5488C257.287 64.7262 257.164 61.6754 257.915 58.7828C258.667 55.89 260.26 53.2849 262.493 51.2971C264.726 49.3094 267.499 48.0283 270.461 47.6158C273.422 47.2033 276.44 47.678 279.132 48.9799C281.824 50.2817 284.068 52.3523 285.583 54.9295C287.097 57.5067 287.812 60.475 287.638 63.4584C287.411 67.3047 285.724 70.9191 282.921 73.5636C280.118 76.2088 276.411 77.6846 272.557 77.6907ZM272.53 50.1286C269.251 50.1303 266.104 51.4215 263.769 53.7232C261.435 56.0249 260.1 59.1522 260.053 62.4292C260.006 65.7064 261.252 68.8705 263.52 71.2378C265.788 73.6046 268.898 74.985 272.175 75.0799C275.453 75.1747 278.637 73.9766 281.038 71.7445C283.44 69.513 284.866 66.426 285.009 63.1518C285.153 59.8774 284.002 56.6781 281.804 54.2452C279.606 51.8124 276.54 50.3413 273.266 50.1499C273.02 50.1374 272.775 50.1307 272.53 50.1298V50.1286Z" fill="#020202"/>
<g opacity="0.3">
<path opacity="0.3" d="M283.254 60.373C283.765 62.2148 283.6 64.2291 282.95 66.0862C282.277 67.9677 281.142 69.6504 279.649 70.98C278.157 72.3096 276.354 73.244 274.407 73.6968C272.486 74.1275 270.464 74.0578 268.693 73.3345C270.527 72.8126 272.147 72.2435 273.634 71.4854C276.565 70.0224 279.055 67.808 280.849 65.0686C281.77 63.6778 282.522 62.1334 283.254 60.373Z" fill="#020202"/>
</g>
<path d="M202.093 157.404L183.084 140.79C180.787 138.786 181.101 134.902 183.745 132.647L187.567 129.39L212.812 151.455L210.086 155.674C208.199 158.583 204.39 159.412 202.093 157.404Z" fill="#262F6A"/>
<g opacity="0.5">
<path opacity="0.5" d="M184.249 133.351L188.069 130.093L213.315 152.16L213.207 152.327L189.921 131.975L186.101 135.239C183.844 137.167 183.29 140.277 184.606 142.398L183.589 141.507C181.286 139.492 181.6 135.607 184.249 133.351Z" fill="white"/>
</g>
<g opacity="0.35">
<path opacity="0.35" d="M212.812 151.443L210.086 155.662C208.205 158.582 204.39 159.42 202.095 157.405L195.21 151.392C197.25 151.676 199.539 150.659 200.868 148.599L203.597 144.38L186.994 129.863L187.566 129.377L212.812 151.443Z" fill="#020202"/>
</g>
<path d="M205.324 160.844C203.952 160.857 202.623 160.366 201.588 159.466L181.115 141.563C179.862 140.47 179.18 138.909 179.188 137.166C179.203 136.165 179.433 135.18 179.863 134.276C180.292 133.372 180.912 132.571 181.679 131.928L187.581 126.889L215.273 151.096L211.063 157.611C210.529 158.457 209.819 159.177 208.98 159.723C208.142 160.27 207.196 160.63 206.206 160.778C205.914 160.82 205.619 160.843 205.324 160.844ZM187.552 131.862L184.123 134.791C183.394 135.417 182.955 136.31 182.949 137.187C182.949 137.554 183.028 138.243 183.59 138.735L204.067 156.631C204.628 157.123 205.32 157.111 205.686 157.06C206.555 156.934 207.386 156.383 207.906 155.577L210.353 151.789L187.552 131.862Z" fill="#020202"/>
<path d="M258.79 127.841L249.152 115.85C240.596 105.2 230.424 95.9551 219.005 88.4504L207.798 81.084L209.177 78.9907L220.384 86.3572C232.021 94.0038 242.389 103.426 251.109 114.28L260.747 126.271L258.79 127.841Z" fill="#020202"/>
<g opacity="0.35">
<path opacity="0.35" d="M287.829 76.5257C286.305 78.5786 284.362 80.2839 282.128 81.5297C279.895 82.7749 277.422 83.5324 274.874 83.7502C272.326 83.9686 269.76 83.6431 267.348 82.7951C264.935 81.9476 262.73 80.5972 260.879 78.8337C260.776 78.7395 260.676 78.6459 260.577 78.5504C265.044 80.115 269.913 80.1022 274.372 78.5131C278.83 76.9241 282.609 73.8549 285.078 69.8183C287.547 65.7817 288.556 61.0208 287.938 56.3302C287.32 51.6395 285.111 47.3026 281.68 44.0425C281.722 44.0588 281.767 44.0726 281.806 44.0901C284.665 45.5222 287.153 47.5968 289.075 50.1513C290.996 52.7057 292.3 55.6704 292.883 58.8129C293.466 61.9556 293.312 65.19 292.434 68.2635C291.556 71.3364 289.978 74.1645 287.823 76.5257H287.829Z" fill="#020202"/>
</g>
<g opacity="0.3">
<path opacity="0.3" d="M159.141 106.611C159.141 106.611 167.797 102.1 177.213 102.255C184.068 102.368 190.533 99.1402 194.784 93.7654C197.655 90.1327 201.63 85.6647 207.09 80.4233L209.034 80.7788C209.034 80.7788 193.382 102.761 192.546 112.894C192.546 112.894 176.979 103.07 159.141 106.611Z" fill="#020202"/>
</g>
<path d="M318.324 50.9294C298.823 21.0833 279.152 15.8039 278.957 15.7538L279.566 13.3232C280.404 13.5325 300.33 18.8069 320.423 49.5588L318.324 50.9294Z" fill="#020202"/>
</g>
</g>
<defs>
<linearGradient id="paint0_linear_125_552" x1="294.852" y1="138.745" x2="227.257" y2="247.208" gradientUnits="userSpaceOnUse">
<stop stop-color="white"/>
<stop offset="1" stop-color="white"/>
</linearGradient>
<linearGradient id="paint1_linear_125_552" x1="358184" y1="162960" x2="233391" y2="359268" gradientUnits="userSpaceOnUse">
<stop stop-color="white"/>
<stop offset="1" stop-color="white"/>
</linearGradient>
<linearGradient id="paint2_linear_125_552" x1="70938.5" y1="93526" x2="18801" y2="140889" gradientUnits="userSpaceOnUse">
<stop stop-color="white"/>
<stop offset="1" stop-color="white"/>
</linearGradient>
<clipPath id="clip0_125_552">
<rect width="358" height="309" fill="white"/>
</clipPath>
</defs>
</svg>
