<svg width="805" height="721" viewBox="0 0 805 721" fill="none" xmlns="http://www.w3.org/2000/svg">
<g clip-path="url(#clip0_802_888)">
<path d="M720.821 406.635C720.821 230.801 578.301 88.2578 402.501 88.2578C226.702 88.2578 84.1813 230.803 84.1813 406.635C84.1813 530.005 154.345 636.979 256.937 689.836H548.066C650.657 636.979 720.821 530.005 720.821 406.635Z" fill="#2E68DD"/>
<g opacity="0.25">
<path opacity="0.25" d="M805.005 699.19C805.005 711.223 624.8 721 402.501 721C180.203 721 -0.00256348 711.218 -0.00256348 699.19C-0.00256348 695.775 14.4584 692.548 40.2322 689.674H764.781C790.555 692.548 805.005 695.775 805.005 699.19Z" fill="#0D0D0D"/>
</g>
<path d="M596.771 616.939C579.103 621.661 561.49 625.745 543.931 629.192C506.058 636.63 468.432 641.13 431.055 642.692C407.707 643.684 384.457 643.53 361.303 642.23C359.072 642.107 356.853 641.968 354.632 641.825C305.412 638.624 256.62 630.337 208.255 616.963C208.233 616.954 208.211 616.946 208.188 616.939C207.973 616.939 207.759 616.939 207.545 616.939C178.203 617.425 169.245 582.622 192.706 572.333C193.808 571.846 194.942 571.435 196.099 571.103C196.11 571.098 196.122 571.095 196.133 571.095C196.145 571.095 196.157 571.098 196.167 571.103C197.297 570.764 198.444 570.481 199.602 570.257C197.799 562.062 205.225 556.721 211.411 557.047H211.445C212.666 557.113 213.86 557.432 214.951 557.984L214.747 557.441C209.756 544.03 216.258 529.232 227.718 521.478C236.18 515.753 247.349 513.871 258.605 519.191C257.433 495.478 273.301 480.206 293.786 478.109C320.964 473.815 342.217 498.52 338.038 521.478C356.078 516.552 369.361 535.352 363.64 549.914C371.1 556.405 385.984 554.24 384.926 539.127V394.044H420.037V539.116C419.959 540.182 419.967 541.253 420.061 542.317C421.199 554.512 434.417 555.893 441.324 549.904C440.791 548.534 440.413 547.108 440.196 545.654C438.181 531.971 450.609 517.017 466.925 521.468C464.289 506.952 471.804 491.748 484.55 483.613C492.44 478.55 501.924 476.587 511.175 478.101C531.66 480.19 547.525 495.47 546.356 519.184C573.218 506.503 599.485 534.77 589.919 558.258C596.296 555.125 607.509 560.501 605.369 570.249C606.784 570.519 608.18 570.885 609.545 571.343C617.977 574.082 622.91 579.671 624.748 586.015C628.841 599.978 618.024 617.65 596.771 616.939Z" fill="white"/>
<path d="M400.875 646.968C387.563 646.968 374.276 646.6 361.1 645.864C358.857 645.738 356.621 645.602 354.394 645.454C305.459 642.274 256.109 633.907 207.72 620.589H207.545C189.506 620.947 178.848 609.311 176.313 597.704C173.635 585.433 179.495 574.163 191.244 569.009C191.677 568.821 192.101 568.647 192.515 568.487V568.393L194.361 567.834L194.734 567.722L195.689 567.229C195.808 564.167 196.96 561.236 198.957 558.914C200.328 557.321 202.001 556.015 203.878 555.072C205.756 554.129 207.801 553.567 209.897 553.418C207.652 540.534 213.758 526.528 225.666 518.455L226.632 517.831C235.303 512.349 245.355 510.986 254.995 513.9C256.274 492.648 271.39 476.78 293.314 474.493C306.955 472.366 320.343 476.843 330.064 486.811C338.281 495.222 342.619 506.248 342.17 517.095C349.581 516.607 356.665 519.468 361.815 525.204C367.636 531.689 369.888 540.531 367.913 548.439C370.784 549.946 374.438 550.16 377.114 548.815C380.176 547.291 381.619 544.022 381.29 539.37V539.109V390.407H423.678V539.37C423.613 540.239 423.618 541.112 423.694 541.98C424.023 545.5 425.665 547.954 428.442 549.066C431.052 550.11 434.396 549.82 437.056 548.426C436.871 547.69 436.719 546.941 436.607 546.184C435.367 537.777 438.677 528.953 445.239 523.123C447.612 520.991 450.389 519.357 453.405 518.32C456.422 517.282 459.616 516.862 462.798 517.085C462.219 502.95 469.76 488.73 482.6 480.535C491.308 474.974 501.35 472.877 511.655 474.483C533.581 476.77 548.697 492.643 549.974 513.905C561.95 510.318 574.625 513.33 584.093 522.301C593.161 530.893 597.144 542.727 595.032 553.768C598.283 553.991 601.393 555.18 603.965 557.183C607.324 559.822 609.167 563.448 609.282 567.435C609.786 567.579 610.275 567.733 610.749 567.894C619.676 570.795 625.914 576.875 628.266 585C630.615 593.01 628.788 601.97 623.367 608.932C617.363 616.678 608.091 620.822 597.209 620.587C579.592 625.286 561.908 629.38 544.641 632.758C506.792 640.193 468.635 644.767 431.219 646.334C421.133 646.758 411.019 646.97 400.875 646.968ZM209.56 613.551C257.506 626.751 306.401 635.045 354.869 638.196C357.08 638.342 359.288 638.478 361.507 638.601C384.477 639.885 407.826 640.042 430.901 639.06C467.951 637.507 505.745 632.985 543.231 625.623C560.506 622.229 578.209 618.138 595.831 613.425L596.353 613.287L596.893 613.305C605.64 613.608 612.967 610.462 617.608 604.476C621.592 599.343 622.962 592.824 621.263 587.036C619.603 581.293 615.045 576.951 608.431 574.802C607.197 574.388 605.937 574.06 604.659 573.818L601.005 573.1L601.803 569.469C602.532 566.148 600.926 564.07 599.454 562.911C597.105 561.057 593.685 560.459 591.514 561.524L582.947 565.717L586.544 556.885C590.511 547.147 587.588 535.647 579.073 527.59C570.326 519.301 558.671 517.39 547.901 522.473L542.42 525.063L542.717 519.003C543.719 498.76 530.893 483.777 510.801 481.722L510.606 481.696C502.057 480.349 493.72 482.067 486.502 486.68C474.602 494.277 468.17 507.999 470.499 520.821L471.543 526.499L465.975 524.979C460.131 523.387 454.49 524.666 450.053 528.582C445.378 532.728 442.921 539.221 443.788 545.126C443.964 546.309 444.272 547.468 444.704 548.583L445.636 550.969L443.702 552.653C438.81 556.906 431.58 558.188 425.717 555.836C420.397 553.703 417.012 548.902 416.43 542.659C416.322 541.444 416.309 540.222 416.39 539.004V397.683H388.56V538.996C389.05 546.539 386.067 552.486 380.361 555.332C374.357 558.321 366.5 557.219 361.248 552.648L359.312 550.964L360.249 548.575C362.598 542.57 361.097 535.302 356.401 530.07C351.891 525.045 345.545 523.188 338.993 524.977L333.42 526.499L334.464 520.815C336.292 510.735 332.71 499.93 324.867 491.894C316.79 483.623 305.668 479.905 294.358 481.694L294.162 481.72C274.063 483.774 261.244 498.757 262.244 519.001L262.544 525.063L257.062 522.471C247.96 518.171 238.007 518.904 229.767 524.481L229.281 524.81C220.234 531.206 213.585 543.868 218.156 556.162L221.68 565.537L213.283 561.206C212.66 560.9 211.981 560.722 211.288 560.684H211.221C208.809 560.543 206.12 561.741 204.517 563.631C203.123 565.279 202.664 567.244 203.155 569.477L203.956 573.111L200.302 573.829L199.801 573.933V577.066L195.828 575.03C195.306 575.218 194.745 575.437 194.168 575.687C183.941 580.175 181.915 589.206 183.434 596.161C185.334 604.873 193.523 613.569 207.496 613.324C207.705 613.324 207.853 613.324 208.005 613.324L208.986 613.271L209.56 613.551Z" fill="#0D0D0D"/>
<path d="M445.973 560.477C445.022 560.475 444.11 560.1 443.433 559.433C441.03 557.118 439.154 554.312 437.933 551.207C437.583 550.306 437.606 549.304 437.995 548.42C438.384 547.537 439.108 546.844 440.008 546.494C440.908 546.145 441.91 546.167 442.794 546.556C443.677 546.945 444.37 547.67 444.72 548.57C445.563 550.705 446.857 552.633 448.515 554.222C449.033 554.727 449.389 555.375 449.537 556.084C449.684 556.792 449.618 557.528 449.345 558.199C449.073 558.869 448.606 559.443 448.006 559.847C447.406 560.251 446.699 560.467 445.975 560.467L445.973 560.477Z" fill="#0D0D0D"/>
<path d="M543.92 536.714C543.574 536.715 543.229 536.664 542.897 536.566C542.439 536.431 542.012 536.208 541.639 535.909C541.267 535.61 540.958 535.24 540.728 534.821C540.499 534.402 540.355 533.942 540.303 533.468C540.251 532.993 540.294 532.513 540.428 532.054C541.703 527.808 542.471 523.427 542.717 519.001C542.786 518.054 543.222 517.171 543.932 516.541C544.642 515.911 545.57 515.584 546.519 515.629C547.467 515.674 548.36 516.087 549.007 516.782C549.655 517.476 550.005 518.396 549.984 519.345C549.711 524.343 548.847 529.291 547.41 534.085C547.192 534.842 546.733 535.508 546.104 535.982C545.475 536.456 544.708 536.713 543.92 536.714Z" fill="#0D0D0D"/>
<path d="M470.368 534.858C469.715 534.858 469.073 534.682 468.511 534.349C467.949 534.015 467.487 533.537 467.173 532.963C465.315 529.576 464.018 525.911 463.331 522.11C463.233 521.634 463.231 521.144 463.326 520.668C463.42 520.191 463.609 519.739 463.881 519.337C464.153 518.934 464.503 518.591 464.91 518.326C465.316 518.061 465.772 517.88 466.25 517.794C466.728 517.708 467.218 517.718 467.692 517.825C468.165 517.931 468.613 518.131 469.008 518.413C469.404 518.695 469.738 519.053 469.993 519.467C470.248 519.88 470.417 520.34 470.491 520.82C471.041 523.851 472.077 526.772 473.558 529.472C473.86 530.026 474.013 530.65 474.002 531.281C473.991 531.912 473.816 532.529 473.494 533.072C473.173 533.615 472.716 534.066 472.167 534.379C471.619 534.692 471 534.857 470.368 534.858Z" fill="#0D0D0D"/>
<path d="M586.419 568.101C585.746 568.1 585.087 567.913 584.515 567.56C583.943 567.208 583.479 566.704 583.176 566.104C582.872 565.504 582.741 564.831 582.797 564.161C582.852 563.491 583.092 562.849 583.49 562.308C584.728 560.627 585.756 558.8 586.549 556.869C586.73 556.427 586.997 556.025 587.334 555.686C587.671 555.346 588.071 555.077 588.512 554.892C588.953 554.708 589.426 554.612 589.903 554.61C590.381 554.609 590.855 554.701 591.297 554.883C591.739 555.064 592.141 555.331 592.481 555.667C592.82 556.004 593.089 556.405 593.274 556.846C593.458 557.287 593.554 557.76 593.556 558.238C593.557 558.716 593.465 559.189 593.284 559.632C592.263 562.112 590.942 564.459 589.35 566.618C589.013 567.078 588.571 567.453 588.062 567.71C587.552 567.968 586.989 568.102 586.419 568.101Z" fill="#0D0D0D"/>
<path d="M358.983 560.477C358.259 560.477 357.552 560.261 356.952 559.857C356.352 559.453 355.886 558.879 355.613 558.209C355.34 557.539 355.274 556.802 355.422 556.094C355.569 555.386 355.925 554.738 356.443 554.232C358.102 552.641 359.398 550.709 360.241 548.57C360.414 548.124 360.673 547.717 361.004 547.371C361.334 547.026 361.729 546.749 362.167 546.556C362.604 546.363 363.076 546.259 363.554 546.248C364.031 546.237 364.507 546.321 364.952 546.494C365.398 546.667 365.805 546.927 366.151 547.257C366.496 547.588 366.773 547.983 366.966 548.42C367.159 548.858 367.263 549.329 367.274 549.807C367.284 550.285 367.201 550.761 367.028 551.207C365.807 554.312 363.931 557.118 361.528 559.433C360.849 560.102 359.935 560.477 358.983 560.477Z" fill="#0D0D0D"/>
<path d="M261.048 536.715C260.263 536.712 259.5 536.457 258.871 535.986C258.243 535.516 257.782 534.856 257.558 534.104C256.111 529.308 255.243 524.356 254.971 519.353C254.936 518.869 254.998 518.383 255.154 517.923C255.31 517.463 255.556 517.039 255.878 516.675C256.2 516.312 256.592 516.017 257.03 515.807C257.468 515.598 257.943 515.478 258.428 515.455C258.913 515.432 259.398 515.506 259.854 515.673C260.309 515.841 260.727 516.097 261.082 516.428C261.437 516.76 261.722 517.159 261.921 517.602C262.12 518.045 262.227 518.523 262.238 519.009C262.482 523.429 263.254 527.804 264.538 532.041C264.806 532.968 264.697 533.963 264.234 534.81C263.772 535.656 262.993 536.286 262.069 536.561C261.737 536.659 261.394 536.711 261.048 536.715Z" fill="#0D0D0D"/>
<path d="M334.579 534.858C333.948 534.857 333.328 534.692 332.78 534.379C332.232 534.065 331.775 533.615 331.453 533.071C331.132 532.527 330.958 531.91 330.948 531.278C330.937 530.647 331.091 530.024 331.395 529.47C332.876 526.771 333.91 523.85 334.457 520.821C334.541 520.35 334.718 519.901 334.975 519.499C335.233 519.097 335.568 518.75 335.96 518.477C336.352 518.205 336.795 518.012 337.261 517.91C337.728 517.808 338.21 517.799 338.68 517.884C339.15 517.968 339.599 518.144 340.001 518.402C340.403 518.66 340.75 518.995 341.023 519.387C341.296 519.78 341.489 520.222 341.59 520.688C341.692 521.155 341.701 521.637 341.617 522.108C340.933 525.911 339.636 529.579 337.774 532.966C337.461 533.539 336.999 534.017 336.437 534.35C335.874 534.683 335.233 534.859 334.579 534.858Z" fill="#0D0D0D"/>
<path d="M218.55 568.101C217.979 568.102 217.416 567.968 216.906 567.71C216.396 567.453 215.954 567.078 215.616 566.618C213.949 564.364 212.584 561.902 211.555 559.295C211.203 558.394 211.223 557.391 211.61 556.506C211.998 555.62 212.721 554.925 213.621 554.573C214.521 554.221 215.524 554.241 216.409 554.628C217.294 555.016 217.99 555.739 218.342 556.639C219.141 558.657 220.199 560.563 221.49 562.307C221.887 562.849 222.127 563.49 222.183 564.16C222.238 564.83 222.107 565.502 221.804 566.102C221.501 566.702 221.038 567.206 220.466 567.559C219.894 567.912 219.235 568.099 218.563 568.101H218.55Z" fill="#0D0D0D"/>
<path d="M401.862 646.85C336.795 646.85 271.954 638.099 207.746 620.592C207.475 620.592 207.203 620.592 206.932 620.592C188.399 620.592 177.297 607.843 175.87 594.923C174.656 584.023 180.393 571.706 195.708 567.422C195.825 563.229 197.796 559.37 201.325 556.673C203.804 554.768 206.787 553.631 209.905 553.405C207.934 542.398 211.993 530.647 221.051 522.152C230.503 513.294 243.118 510.338 255.018 513.902C256.292 492.643 271.408 476.77 293.34 474.48C306.981 472.355 320.369 476.845 330.09 486.8C338.304 495.212 342.642 506.234 342.194 517.084C349.599 516.609 356.694 519.465 361.844 525.209C367.659 531.694 369.909 540.529 367.931 548.429C370.802 549.935 374.438 550.147 377.132 548.805C380.194 547.28 381.64 544.014 381.308 539.356C381.308 539.27 381.308 539.187 381.308 539.095V394.049C381.308 393.084 381.691 392.159 382.373 391.477C383.055 390.794 383.98 390.41 384.945 390.41H420.053C421.018 390.41 421.943 390.793 422.626 391.476C423.308 392.158 423.691 393.084 423.691 394.049V539.114C423.691 539.197 423.691 539.281 423.691 539.375C423.368 544.032 424.814 547.298 427.868 548.823C430.562 550.165 434.195 549.953 437.069 548.447C435.093 540.547 437.33 531.712 443.156 525.225C448.306 519.481 455.401 516.63 462.809 517.103C462.365 506.247 466.709 495.222 474.926 486.818C484.649 476.869 498.042 472.389 511.671 474.504C533.597 476.791 548.708 492.666 549.982 513.925C561.957 510.341 574.633 513.348 584.103 522.322C593.171 530.913 597.154 542.745 595.043 553.786C598.297 554.009 601.41 555.199 603.983 557.203C607.334 559.84 609.175 563.453 609.295 567.445C624.591 571.729 630.331 584.047 629.117 594.947C627.661 608.052 616.293 621.025 597.227 620.607C532.198 638.094 466.912 646.85 401.862 646.85ZM208.18 613.302C208.503 613.303 208.825 613.346 209.138 613.43C272.865 630.854 337.268 639.569 401.856 639.569C466.445 639.569 531.25 630.857 595.813 613.428C596.161 613.334 596.522 613.292 596.883 613.302C611.788 613.825 620.754 604.037 621.855 594.127C622.712 586.433 618.723 576.499 604.68 573.826C604.202 573.734 603.748 573.548 603.344 573.278C602.94 573.008 602.594 572.66 602.326 572.254C602.058 571.848 601.875 571.393 601.786 570.915C601.697 570.437 601.705 569.946 601.809 569.471C602.534 566.15 600.929 564.07 599.459 562.908C597.11 561.054 593.683 560.459 591.508 561.519C590.847 561.841 590.103 561.955 589.375 561.845C588.647 561.736 587.969 561.408 587.432 560.905C586.894 560.402 586.522 559.747 586.364 559.028C586.207 558.309 586.271 557.559 586.549 556.877C590.516 547.142 587.593 535.647 579.078 527.587C570.329 519.298 558.674 517.39 547.906 522.473C547.338 522.741 546.71 522.857 546.084 522.811C545.457 522.764 544.853 522.556 544.331 522.206C543.809 521.857 543.386 521.378 543.104 520.817C542.821 520.256 542.689 519.631 542.72 519.003C543.719 498.757 530.898 483.774 510.812 481.717C510.746 481.712 510.681 481.703 510.616 481.691C499.308 479.91 488.186 483.625 480.107 491.891C472.263 499.919 468.672 510.733 470.501 520.815C470.611 521.42 470.565 522.042 470.369 522.625C470.173 523.207 469.832 523.73 469.379 524.145C468.926 524.561 468.376 524.854 467.779 524.999C467.182 525.144 466.558 525.135 465.965 524.974C459.408 523.183 453.062 525.047 448.552 530.078C443.853 535.299 442.355 542.565 444.712 548.567C444.987 549.266 445.039 550.033 444.861 550.762C444.683 551.492 444.283 552.149 443.717 552.642C438.466 557.214 430.606 558.321 424.605 555.329C418.896 552.488 415.908 546.536 416.396 538.991V397.686H388.562V538.991C389.05 546.536 386.062 552.488 380.353 555.329C374.349 558.323 366.493 557.214 361.243 552.642C360.677 552.149 360.276 551.493 360.098 550.763C359.919 550.033 359.971 549.266 360.246 548.567C362.595 542.562 361.097 535.307 356.406 530.078C351.893 525.047 345.545 523.183 338.993 524.974C338.4 525.136 337.776 525.146 337.178 525.001C336.58 524.856 336.029 524.562 335.576 524.146C335.123 523.731 334.782 523.207 334.587 522.624C334.391 522.041 334.346 521.418 334.457 520.813C336.284 510.735 332.705 499.927 324.864 491.896C316.79 483.625 305.665 479.908 294.355 481.691C294.289 481.703 294.223 481.712 294.157 481.717C274.058 483.774 261.236 498.757 262.238 519.003C262.27 519.631 262.138 520.257 261.856 520.818C261.574 521.38 261.151 521.859 260.628 522.209C260.106 522.558 259.502 522.766 258.875 522.812C258.248 522.859 257.62 522.742 257.052 522.473C246.35 517.411 234.742 519.28 226.005 527.47C217.49 535.451 214.476 546.896 218.326 556.629C218.599 557.32 218.655 558.077 218.485 558.801C218.315 559.524 217.928 560.178 217.376 560.674C216.824 561.171 216.133 561.487 215.396 561.58C214.659 561.672 213.912 561.537 213.254 561.193C211.268 560.148 208.033 560.699 205.726 562.464C204.405 563.474 202.314 565.725 203.139 569.469C203.244 569.944 203.253 570.435 203.164 570.914C203.076 571.392 202.892 571.848 202.625 572.254C202.357 572.661 202.01 573.009 201.606 573.279C201.201 573.549 200.746 573.735 200.268 573.826C186.222 576.499 182.236 586.433 183.092 594.127C184.194 604.048 193.144 613.814 208.065 613.302H208.18Z" fill="#0D0D0D"/>
<path d="M456.724 472.073C463.516 472.073 469.021 466.566 469.021 459.774C469.021 452.981 463.516 447.475 456.724 447.475C449.933 447.475 444.427 452.981 444.427 459.774C444.427 466.566 449.933 472.073 456.724 472.073Z" fill="white"/>
<path d="M456.724 475.71C453.576 475.707 450.5 474.771 447.883 473.02C445.267 471.269 443.228 468.782 442.024 465.873C440.821 462.963 440.507 459.762 441.121 456.674C441.736 453.586 443.252 450.75 445.478 448.523C447.704 446.297 450.54 444.78 453.628 444.166C456.715 443.551 459.916 443.865 462.825 445.069C465.734 446.272 468.221 448.312 469.971 450.928C471.722 453.545 472.658 456.623 472.66 459.771C472.656 463.997 470.976 468.049 467.988 471.037C465.001 474.025 460.95 475.706 456.724 475.71ZM456.724 451.111C455.011 451.111 453.336 451.619 451.912 452.57C450.487 453.522 449.377 454.875 448.721 456.458C448.065 458.041 447.893 459.783 448.227 461.463C448.561 463.144 449.386 464.687 450.598 465.899C451.809 467.111 453.353 467.936 455.033 468.27C456.713 468.604 458.455 468.432 460.037 467.776C461.62 467.12 462.973 466.01 463.924 464.585C464.876 463.16 465.383 461.485 465.383 459.771C465.381 457.475 464.468 455.274 462.845 453.65C461.221 452.027 459.02 451.114 456.724 451.111Z" fill="#0D0D0D"/>
<g opacity="0.3">
<path opacity="0.3" d="M469.027 459.777C469.026 462.101 468.366 464.377 467.125 466.342C465.884 468.307 464.111 469.88 462.013 470.879C459.915 471.878 457.577 472.262 455.269 471.986C452.962 471.711 450.78 470.787 448.976 469.322C447.171 467.857 445.819 465.912 445.075 463.71C444.331 461.508 444.226 459.14 444.772 456.881C445.318 454.622 446.492 452.564 448.16 450.945C449.827 449.326 451.919 448.212 454.193 447.733C453.118 448.646 452.272 449.797 451.724 451.096C451.175 452.395 450.939 453.804 451.034 455.211C451.13 456.617 451.554 457.982 452.273 459.195C452.992 460.407 453.986 461.434 455.174 462.193C456.362 462.952 457.711 463.421 459.114 463.562C460.516 463.704 461.932 463.515 463.248 463.009C464.564 462.503 465.743 461.696 466.69 460.652C467.637 459.607 468.326 458.355 468.7 456.996C468.919 457.907 469.029 458.84 469.027 459.777Z" fill="#0D0D0D"/>
</g>
<path d="M456.724 475.71C453.576 475.707 450.5 474.771 447.883 473.02C445.267 471.269 443.228 468.782 442.024 465.873C440.821 462.963 440.507 459.762 441.121 456.674C441.736 453.586 443.252 450.75 445.478 448.523C447.704 446.297 450.54 444.78 453.628 444.166C456.715 443.551 459.916 443.865 462.825 445.069C465.734 446.272 468.221 448.312 469.971 450.928C471.722 453.545 472.658 456.623 472.66 459.771C472.656 463.997 470.976 468.049 467.988 471.037C465.001 474.025 460.95 475.706 456.724 475.71ZM456.724 451.111C455.011 451.111 453.336 451.619 451.912 452.57C450.487 453.522 449.377 454.875 448.721 456.458C448.065 458.041 447.893 459.783 448.227 461.463C448.561 463.144 449.386 464.687 450.598 465.899C451.809 467.111 453.353 467.936 455.033 468.27C456.713 468.604 458.455 468.432 460.037 467.776C461.62 467.12 462.973 466.01 463.924 464.585C464.876 463.16 465.383 461.485 465.383 459.771C465.381 457.475 464.468 455.274 462.845 453.65C461.221 452.027 459.02 451.114 456.724 451.111Z" fill="#0D0D0D"/>
<path d="M598.444 511.665C609.935 511.665 619.251 502.348 619.251 490.855C619.251 479.361 609.935 470.044 598.444 470.044C586.953 470.044 577.637 479.361 577.637 490.855C577.637 502.348 586.953 511.665 598.444 511.665Z" fill="white"/>
<path d="M598.444 515.304C593.609 515.304 588.883 513.87 584.863 511.183C580.843 508.497 577.71 504.678 575.86 500.211C574.009 495.743 573.525 490.827 574.469 486.084C575.412 481.342 577.74 476.985 581.159 473.566C584.577 470.147 588.933 467.818 593.675 466.875C598.417 465.931 603.332 466.415 607.799 468.266C612.265 470.116 616.083 473.25 618.769 477.271C621.455 481.292 622.889 486.019 622.889 490.854C622.882 497.336 620.305 503.551 615.722 508.135C611.139 512.719 604.925 515.297 598.444 515.304ZM598.444 473.681C595.048 473.681 591.728 474.688 588.905 476.575C586.081 478.462 583.88 481.144 582.581 484.282C581.281 487.42 580.941 490.873 581.604 494.205C582.266 497.536 583.901 500.596 586.303 502.998C588.704 505.399 591.763 507.035 595.094 507.698C598.425 508.36 601.877 508.02 605.015 506.72C608.152 505.42 610.834 503.219 612.721 500.395C614.607 497.571 615.614 494.251 615.614 490.854C615.609 486.301 613.798 481.936 610.579 478.717C607.36 475.498 602.996 473.686 598.444 473.681Z" fill="#0D0D0D"/>
<g opacity="0.3">
<path opacity="0.3" d="M619.185 492.439C618.928 495.849 617.835 499.143 616.002 502.03C614.169 504.916 611.653 507.307 608.676 508.989C605.699 510.671 602.354 511.594 598.936 511.675C595.518 511.756 592.132 510.993 589.079 509.453C586.026 507.914 583.4 505.646 581.432 502.849C579.464 500.053 578.216 496.814 577.798 493.42C577.38 490.026 577.804 486.582 579.034 483.391C580.264 480.2 582.262 477.362 584.85 475.127C584.805 475.65 584.785 476.172 584.785 476.694C584.781 480.681 585.923 484.586 588.076 487.942C590.228 491.299 593.3 493.965 596.925 495.625C600.551 497.284 604.576 497.866 608.523 497.301C612.47 496.736 616.171 495.049 619.185 492.439Z" fill="#0D0D0D"/>
</g>
<path d="M598.444 515.304C593.609 515.304 588.883 513.87 584.863 511.183C580.843 508.497 577.71 504.678 575.86 500.211C574.009 495.743 573.525 490.827 574.469 486.084C575.412 481.342 577.74 476.985 581.159 473.566C584.577 470.147 588.933 467.818 593.675 466.875C598.417 465.931 603.332 466.415 607.799 468.266C612.265 470.116 616.083 473.25 618.769 477.271C621.455 481.292 622.889 486.019 622.889 490.854C622.882 497.336 620.305 503.551 615.722 508.135C611.139 512.719 604.925 515.297 598.444 515.304ZM598.444 473.681C595.048 473.681 591.728 474.688 588.905 476.575C586.081 478.462 583.88 481.144 582.581 484.282C581.281 487.42 580.941 490.873 581.604 494.205C582.266 497.536 583.901 500.596 586.303 502.998C588.704 505.399 591.763 507.035 595.094 507.698C598.425 508.36 601.877 508.02 605.015 506.72C608.152 505.42 610.834 503.219 612.721 500.395C614.607 497.571 615.614 494.251 615.614 490.854C615.609 486.301 613.798 481.936 610.579 478.717C607.36 475.498 602.996 473.686 598.444 473.681Z" fill="#0D0D0D"/>
<path d="M210.845 521.17C218.97 513.043 218.97 499.867 210.845 491.74C202.719 483.613 189.545 483.613 181.42 491.74C173.294 499.867 173.294 513.043 181.42 521.17C189.545 529.297 202.719 529.297 210.845 521.17Z" fill="white"/>
<path d="M196.133 530.9C191.298 530.9 186.572 529.466 182.552 526.78C178.532 524.093 175.399 520.274 173.549 515.807C171.699 511.339 171.215 506.423 172.158 501.68C173.101 496.937 175.43 492.581 178.849 489.162C182.268 485.742 186.624 483.414 191.366 482.471C196.108 481.528 201.023 482.012 205.49 483.863C209.957 485.714 213.774 488.848 216.46 492.869C219.146 496.89 220.579 501.618 220.579 506.453C220.571 512.935 217.993 519.149 213.41 523.732C208.827 528.315 202.614 530.893 196.133 530.9ZM196.133 489.28C192.737 489.28 189.418 490.287 186.594 492.174C183.77 494.061 181.57 496.743 180.27 499.881C178.97 503.02 178.63 506.472 179.293 509.804C179.955 513.135 181.591 516.195 183.992 518.597C186.393 520.999 189.453 522.634 192.784 523.297C196.114 523.959 199.567 523.619 202.704 522.32C205.842 521.02 208.523 518.819 210.41 515.994C212.297 513.17 213.304 509.85 213.304 506.453C213.299 501.9 211.488 497.535 208.269 494.315C205.05 491.096 200.686 489.285 196.133 489.28Z" fill="#0D0D0D"/>
<g opacity="0.3">
<path opacity="0.3" d="M216.874 508.023C216.617 511.433 215.524 514.727 213.691 517.613C211.858 520.5 209.342 522.89 206.365 524.572C203.388 526.255 200.043 527.177 196.625 527.258C193.207 527.339 189.821 526.576 186.768 525.037C183.715 523.498 181.089 521.229 179.121 518.433C177.153 515.636 175.905 512.398 175.487 509.004C175.069 505.61 175.493 502.165 176.723 498.974C177.953 495.784 179.951 492.946 182.539 490.711C182.494 491.233 182.474 491.755 182.474 492.277C182.472 496.264 183.616 500.167 185.769 503.522C187.922 506.877 190.994 509.542 194.619 511.2C198.244 512.858 202.269 513.439 206.215 512.874C210.16 512.309 213.86 510.621 216.874 508.012V508.023Z" fill="#0D0D0D"/>
</g>
<path d="M196.133 530.9C191.298 530.9 186.572 529.466 182.552 526.78C178.532 524.093 175.399 520.274 173.549 515.807C171.699 511.339 171.215 506.423 172.158 501.68C173.101 496.937 175.43 492.581 178.849 489.162C182.268 485.742 186.624 483.414 191.366 482.471C196.108 481.528 201.023 482.012 205.49 483.863C209.957 485.714 213.774 488.848 216.46 492.869C219.146 496.89 220.579 501.618 220.579 506.453C220.571 512.935 217.993 519.149 213.41 523.732C208.827 528.315 202.614 530.893 196.133 530.9ZM196.133 489.28C192.737 489.28 189.418 490.287 186.594 492.174C183.77 494.061 181.57 496.743 180.27 499.881C178.97 503.02 178.63 506.472 179.293 509.804C179.955 513.135 181.591 516.195 183.992 518.597C186.393 520.999 189.453 522.634 192.784 523.297C196.114 523.959 199.567 523.619 202.704 522.32C205.842 521.02 208.523 518.819 210.41 515.994C212.297 513.17 213.304 509.85 213.304 506.453C213.299 501.9 211.488 497.535 208.269 494.315C205.05 491.096 200.686 489.285 196.133 489.28Z" fill="#0D0D0D"/>
<path d="M641.495 538.536C642.351 533.261 638.77 528.291 633.496 527.435C628.223 526.579 623.254 530.161 622.398 535.435C621.542 540.71 625.123 545.679 630.396 546.536C635.67 547.392 640.639 543.81 641.495 538.536Z" fill="white"/>
<path d="M631.921 550.264C629.288 550.264 626.714 549.483 624.525 548.02C622.336 546.557 620.629 544.478 619.622 542.045C618.614 539.612 618.351 536.935 618.864 534.352C619.378 531.769 620.646 529.397 622.508 527.535C624.369 525.672 626.741 524.404 629.324 523.891C631.906 523.377 634.583 523.641 637.015 524.648C639.448 525.656 641.527 527.363 642.99 529.552C644.452 531.742 645.233 534.316 645.233 536.949C645.233 540.481 643.831 543.867 641.334 546.364C638.837 548.861 635.451 550.264 631.921 550.264ZM631.921 530.911C630.726 530.91 629.559 531.264 628.566 531.927C627.573 532.59 626.798 533.533 626.341 534.637C625.884 535.74 625.764 536.954 625.996 538.126C626.229 539.297 626.804 540.374 627.648 541.218C628.492 542.063 629.568 542.639 630.739 542.872C631.911 543.105 633.125 542.986 634.228 542.529C635.331 542.072 636.274 541.298 636.938 540.305C637.601 539.311 637.956 538.144 637.956 536.949C637.954 535.349 637.318 533.814 636.187 532.682C635.055 531.55 633.521 530.913 631.921 530.911Z" fill="#0D0D0D"/>
<g opacity="0.3">
<path opacity="0.3" d="M641.602 536.949C641.604 538.807 641.07 540.625 640.067 542.188C639.063 543.751 637.63 544.991 635.94 545.762C634.251 546.532 632.375 546.8 630.537 546.534C628.699 546.267 626.977 545.477 625.576 544.258C624.174 543.039 623.153 541.442 622.635 539.659C622.116 537.875 622.122 535.98 622.651 534.2C623.179 532.419 624.21 530.829 625.618 529.618C627.026 528.407 628.753 527.627 630.592 527.371C629.668 528.017 628.914 528.877 628.394 529.878C627.874 530.878 627.604 531.99 627.606 533.117C627.608 534.245 627.883 535.355 628.407 536.354C628.93 537.353 629.688 538.21 630.614 538.853C631.54 539.495 632.608 539.905 633.727 540.046C634.846 540.187 635.982 540.055 637.039 539.662C638.096 539.27 639.042 538.627 639.797 537.79C640.552 536.952 641.093 535.945 641.375 534.853C641.528 535.541 641.604 536.244 641.602 536.949Z" fill="#0D0D0D"/>
</g>
<path d="M631.921 550.264C629.288 550.264 626.714 549.483 624.525 548.02C622.336 546.557 620.629 544.478 619.622 542.045C618.614 539.612 618.351 536.935 618.864 534.352C619.378 531.769 620.646 529.397 622.508 527.535C624.369 525.672 626.741 524.404 629.324 523.891C631.906 523.377 634.583 523.641 637.015 524.648C639.448 525.656 641.527 527.363 642.99 529.552C644.452 531.742 645.233 534.316 645.233 536.949C645.233 540.481 643.831 543.867 641.334 546.364C638.837 548.861 635.451 550.264 631.921 550.264ZM631.921 530.911C630.726 530.91 629.559 531.264 628.566 531.927C627.573 532.59 626.798 533.533 626.341 534.637C625.884 535.74 625.764 536.954 625.996 538.126C626.229 539.297 626.804 540.374 627.648 541.218C628.492 542.063 629.568 542.639 630.739 542.872C631.911 543.105 633.125 542.986 634.228 542.529C635.331 542.072 636.274 541.298 636.938 540.305C637.601 539.311 637.956 538.144 637.956 536.949C637.954 535.349 637.318 533.814 636.187 532.682C635.055 531.55 633.521 530.913 631.921 530.911Z" fill="#0D0D0D"/>
<path d="M348.912 466.217C354.255 466.217 358.586 461.885 358.586 456.542C358.586 451.198 354.255 446.866 348.912 446.866C343.57 446.866 339.239 451.198 339.239 456.542C339.239 461.885 343.57 466.217 348.912 466.217Z" fill="white"/>
<path d="M348.915 469.857C346.282 469.857 343.708 469.076 341.519 467.613C339.33 466.15 337.624 464.07 336.616 461.637C335.608 459.205 335.345 456.527 335.858 453.945C336.372 451.362 337.64 448.989 339.502 447.127C341.364 445.265 343.736 443.997 346.318 443.483C348.9 442.97 351.577 443.233 354.009 444.241C356.442 445.249 358.521 446.955 359.984 449.145C361.447 451.335 362.227 453.909 362.227 456.542C362.223 460.072 360.819 463.456 358.324 465.952C355.828 468.449 352.444 469.853 348.915 469.857ZM348.915 450.504C347.721 450.503 346.553 450.857 345.56 451.52C344.567 452.183 343.793 453.126 343.335 454.23C342.878 455.333 342.758 456.547 342.991 457.719C343.223 458.89 343.798 459.966 344.642 460.811C345.487 461.656 346.562 462.231 347.734 462.465C348.905 462.698 350.119 462.578 351.222 462.121C352.326 461.664 353.269 460.89 353.932 459.897C354.596 458.904 354.95 457.737 354.95 456.542C354.949 454.942 354.312 453.407 353.181 452.275C352.05 451.143 350.515 450.506 348.915 450.504Z" fill="#0D0D0D"/>
<g opacity="0.3">
<path opacity="0.3" d="M358.586 456.539C358.588 458.397 358.054 460.215 357.05 461.778C356.046 463.34 354.614 464.581 352.924 465.352C351.235 466.122 349.359 466.39 347.521 466.124C345.683 465.857 343.961 465.067 342.559 463.848C341.158 462.629 340.137 461.032 339.619 459.249C339.1 457.465 339.105 455.57 339.634 453.79C340.163 452.009 341.193 450.418 342.602 449.207C344.01 447.997 345.737 447.216 347.576 446.96C346.652 447.607 345.898 448.467 345.378 449.467C344.858 450.468 344.588 451.58 344.59 452.707C344.592 453.835 344.867 454.945 345.391 455.944C345.914 456.942 346.672 457.8 347.598 458.442C348.524 459.085 349.592 459.495 350.711 459.636C351.83 459.777 352.966 459.645 354.023 459.252C355.079 458.859 356.026 458.217 356.781 457.38C357.536 456.542 358.077 455.535 358.359 454.443C358.512 455.131 358.588 455.834 358.586 456.539Z" fill="#0D0D0D"/>
</g>
<path d="M348.915 469.857C346.282 469.857 343.708 469.076 341.519 467.613C339.33 466.15 337.624 464.07 336.616 461.637C335.608 459.205 335.345 456.527 335.858 453.945C336.372 451.362 337.64 448.989 339.502 447.127C341.364 445.265 343.736 443.997 346.318 443.483C348.9 442.97 351.577 443.233 354.009 444.241C356.442 445.249 358.521 446.955 359.984 449.145C361.447 451.335 362.227 453.909 362.227 456.542C362.223 460.072 360.819 463.456 358.324 465.952C355.828 468.449 352.444 469.853 348.915 469.857ZM348.915 450.504C347.721 450.503 346.553 450.857 345.56 451.52C344.567 452.183 343.793 453.126 343.335 454.23C342.878 455.333 342.758 456.547 342.991 457.719C343.223 458.89 343.798 459.966 344.642 460.811C345.487 461.656 346.562 462.231 347.734 462.465C348.905 462.698 350.119 462.578 351.222 462.121C352.326 461.664 353.269 460.89 353.932 459.897C354.596 458.904 354.95 457.737 354.95 456.542C354.949 454.942 354.312 453.407 353.181 452.275C352.05 451.143 350.515 450.506 348.915 450.504Z" fill="#0D0D0D"/>
<g opacity="0.3">
<path opacity="0.3" d="M199.587 570.252C199.305 570.307 199.023 570.359 198.751 570.424C198.846 569.131 199.057 567.848 199.38 566.592C199.247 567.815 199.317 569.052 199.587 570.252Z" fill="#262F6A"/>
<path opacity="0.3" d="M194.768 575.118L195.123 570.158C195.233 568.648 195.478 567.151 195.856 565.686L202.995 566.991C202.907 567.816 202.956 568.649 203.142 569.458L203.925 573.097L200.195 573.821C199.991 573.86 199.785 573.901 199.586 573.948L194.768 575.118Z" fill="#0D0D0D"/>
</g>
<g opacity="0.3">
<path opacity="0.3" d="M420.032 394.049V396.545L418.837 398.665C418.837 398.665 397.913 401.177 397.913 415.658V539.114C397.913 539.114 398.325 550.789 381.7 549.899C382.225 549.339 382.69 548.727 383.089 548.071C384.459 545.858 385.177 542.881 384.916 539.101V394.049H420.032Z" fill="#0D0D0D"/>
</g>
<g opacity="0.3">
<path opacity="0.3" d="M596.771 616.939C579.103 621.661 561.489 625.745 543.931 629.191C522.725 620.895 477.808 603.946 462.201 598.061C460.298 605.512 455.396 626.239 448.319 630.826C444.375 633.371 437.975 638.24 431.055 642.692C407.707 643.684 384.456 643.53 361.303 642.229C359.072 642.107 356.853 641.968 354.631 641.825C354.6 641.801 354.577 641.767 354.543 641.746C305.705 638.488 257.295 630.221 209.315 616.945C208.955 616.945 208.605 616.968 208.255 616.968C208.007 616.968 207.77 616.968 207.545 616.968C179.093 616.553 170.675 582.506 193.831 572.361C194.933 571.876 196.067 571.465 197.224 571.132C197.235 571.127 197.246 571.124 197.258 571.124C197.27 571.124 197.282 571.127 197.292 571.132C198.422 570.777 199.568 570.479 200.727 570.239C199.025 562.54 205.483 557.368 211.409 557.028H211.442C212.558 556.965 213.675 557.098 214.744 557.423C215.205 557.558 215.651 557.74 216.076 557.966C210.712 544.406 217.224 529.316 228.842 521.46C221.192 547.63 242.05 567.884 266.952 557.141C267.643 556.838 268.393 556.694 269.147 556.718C269.901 556.741 270.64 556.933 271.31 557.279C271.981 557.624 272.565 558.115 273.022 558.716C273.479 559.316 273.796 560.01 273.951 560.749C275.551 568.288 282.491 570.67 290.471 567.521C293.311 566.396 296.613 567.398 298.067 570.093C302.243 577.768 310.99 579.335 319.881 573.382C320.781 572.79 321.795 572.392 322.858 572.216C323.92 572.04 325.008 572.089 326.051 572.36C327.094 572.631 328.068 573.117 328.911 573.788C329.755 574.458 330.448 575.299 330.946 576.254C336.323 586.342 344.368 595.21 352.888 594.344C353.362 594.302 353.832 594.226 354.295 594.116C355.13 594.464 355.953 594.78 356.764 595.064C371.233 600.304 383.911 599.199 393.376 586.692C398.424 593.576 403.585 594.14 408.868 589.227C422.266 594.15 433.49 594.646 432.848 570.844C430.348 564.871 432.961 558.378 441.929 551.264L440.183 545.641C438.168 531.958 450.596 517.003 466.912 521.455C464.276 506.939 471.791 491.734 484.537 483.599L484.874 483.409C476.954 520.455 485.641 539.772 515.074 536.942C513.79 549.564 519.773 552.191 529.353 549.938C528.789 569.142 535.774 577.732 553.759 570.824C558.086 582.386 564.461 587.652 574.797 580.585C591.046 597.221 607.353 611.444 624.75 586.005C628.841 599.977 618.024 617.649 596.771 616.939Z" fill="#0D0D0D"/>
</g>
<path d="M417.766 364.582C417.717 364.481 417.641 364.396 417.546 364.336C417.451 364.277 417.341 364.245 417.228 364.245H383.869C383.75 364.244 383.633 364.28 383.534 364.346C383.435 364.413 383.358 364.508 383.313 364.618L383.201 364.88C383.12 365.07 383.042 365.263 382.976 365.436C375.621 383.481 375.903 407.693 383.681 425.678C387.886 435.408 393.749 441.95 400.632 444.598C400.702 444.624 400.775 444.637 400.849 444.637C400.917 444.637 400.985 444.626 401.05 444.603C403.535 443.721 405.939 442.178 408.202 440.039C410.465 437.901 412.582 435.163 414.498 431.889C424.146 415.376 428.006 385.679 417.766 364.582ZM413.464 431.291C409.836 437.502 405.482 441.684 400.859 443.405C394.37 440.823 388.816 434.528 384.783 425.211C377.124 407.499 376.848 383.664 384.099 365.877C384.151 365.731 384.211 365.587 384.271 365.443H416.858C426.709 386.16 422.898 415.131 413.464 431.291Z" fill="#390075"/>
<path d="M413.464 431.291C409.836 437.502 405.482 441.684 400.859 443.405C394.37 440.823 388.816 434.528 384.783 425.211C377.124 407.499 376.847 383.664 384.099 365.877C384.151 365.731 384.211 365.587 384.271 365.443H416.858C426.709 386.159 422.898 415.131 413.464 431.291Z" fill="white"/>
<path d="M411.721 369.038C417.249 380.429 415.534 396.636 408.81 410.577C406.166 416.06 398.22 415.775 395.866 410.165C390.199 396.662 388.296 380.554 393.018 369.422L385.187 364.845H418.533L411.721 369.038Z" fill="#F7C414"/>
<path d="M402.154 447.423C401.74 447.422 401.329 447.346 400.943 447.198C393.237 444.237 386.774 437.04 382.256 426.385C374.219 407.434 374.141 382.17 382.063 363.524C382.234 363.112 382.484 362.737 382.801 362.422C383.117 362.108 383.493 361.858 383.906 361.689C384.319 361.52 384.762 361.435 385.208 361.438C385.654 361.441 386.096 361.532 386.506 361.706C386.917 361.881 387.29 362.135 387.602 362.454C387.914 362.773 388.16 363.151 388.325 363.566C388.491 363.98 388.572 364.424 388.566 364.87C388.559 365.316 388.464 365.757 388.286 366.166C381.149 382.969 381.238 406.646 388.481 423.746C391.961 431.949 396.793 437.797 402.188 440.376C407.315 437.982 412.036 431.983 415.584 423.31C421.655 408.465 424.216 384.303 415.49 366.32C415.286 365.92 415.165 365.483 415.132 365.035C415.1 364.587 415.156 364.137 415.3 363.711C415.443 363.285 415.67 362.892 415.966 362.555C416.263 362.218 416.624 361.943 417.028 361.747C417.433 361.551 417.872 361.438 418.32 361.413C418.769 361.389 419.218 361.454 419.641 361.605C420.064 361.756 420.452 361.99 420.784 362.293C421.115 362.596 421.383 362.963 421.572 363.37C431.204 383.212 428.463 409.682 421.833 425.868C417.281 437.001 410.692 444.585 403.282 447.227C402.92 447.355 402.538 447.422 402.154 447.423Z" fill="#0D0D0D"/>
<path d="M452.096 349.774L448.353 365.266C447.523 368.707 445.777 371.859 443.3 374.387C440.822 376.915 437.707 378.725 434.284 379.625C413.518 385.081 391.655 384.75 371.063 378.667C367.67 377.664 364.611 375.762 362.211 373.16C359.812 370.559 358.161 367.357 357.435 363.893L354.162 348.291" fill="#434343"/>
<path d="M404.391 384.168C393.043 384.167 381.754 382.534 370.87 379.319C367.358 378.283 364.193 376.315 361.711 373.622C359.229 370.93 357.523 367.616 356.775 364.031L353.501 348.429C353.464 348.252 353.499 348.067 353.598 347.914C353.697 347.762 353.852 347.656 354.03 347.619C354.207 347.581 354.393 347.616 354.545 347.715C354.697 347.814 354.803 347.97 354.84 348.147L358.111 363.749C358.81 367.093 360.402 370.185 362.718 372.696C365.034 375.208 367.988 377.043 371.264 378.009C391.736 384.055 413.471 384.385 434.117 378.962C437.42 378.095 440.427 376.349 442.817 373.909C445.207 371.469 446.891 368.427 447.69 365.107L451.433 349.612C451.476 349.436 451.587 349.284 451.741 349.19C451.896 349.096 452.081 349.067 452.257 349.109C452.433 349.152 452.585 349.263 452.679 349.417C452.773 349.572 452.802 349.757 452.759 349.933L449.019 365.428C448.161 368.99 446.354 372.252 443.789 374.868C441.225 377.485 438 379.357 434.456 380.285C424.642 382.863 414.538 384.168 404.391 384.168Z" fill="#0D0D0D"/>
<g opacity="0.6">
<path opacity="0.6" d="M363.577 349.145L366.819 364.595C367.621 368.425 369.446 371.967 372.1 374.843C374.754 377.718 378.137 379.821 381.891 380.928C384.837 381.798 387.81 382.562 390.81 383.22C384.735 382.42 378.732 381.144 372.856 379.406C369.463 378.401 366.405 376.498 364.005 373.897C361.606 371.296 359.954 368.095 359.226 364.631L355.958 349.03L363.577 349.145Z" fill="white"/>
</g>
<g opacity="0.35">
<path opacity="0.35" d="M405.138 382.006C412.307 381.479 419.412 380.294 426.364 378.468C429.788 377.571 432.905 375.761 435.382 373.233C437.86 370.704 439.605 367.551 440.434 364.109L443.921 349.662L354.162 348.299L354.861 351.63L421.402 352.635L417.662 368.135C416.896 371.308 415.348 374.239 413.161 376.661C410.974 379.084 408.216 380.921 405.138 382.006ZM413.229 352.505L354.861 351.622L354.639 350.578L413.483 351.468L413.229 352.505Z" fill="#0D0D0D"/>
</g>
<path d="M346.587 303.214C328.638 304.663 298.32 322.5 309.636 386.875C309.669 387.062 309.758 387.235 309.891 387.37C310.024 387.506 310.195 387.598 310.381 387.636C310.567 387.673 310.76 387.653 310.935 387.579C311.11 387.505 311.258 387.379 311.361 387.219C316.378 379.356 339.656 342.229 363.439 343.487" fill="#17346E"/>
<path d="M310.573 388.339C310.464 388.34 310.355 388.328 310.249 388.305C309.928 388.243 309.633 388.086 309.403 387.853C309.173 387.62 309.02 387.322 308.962 387C303.689 357 306.999 333.253 318.534 318.338C328.599 305.313 341.468 302.956 346.532 302.549C346.709 302.54 346.882 302.601 347.015 302.719C347.148 302.836 347.231 303 347.245 303.177C347.259 303.354 347.204 303.529 347.092 303.666C346.979 303.803 346.818 303.891 346.642 303.911C341.758 304.303 329.348 306.582 319.615 319.174C308.323 333.794 305.104 357.16 310.309 386.773C310.319 386.824 310.343 386.872 310.38 386.909C310.417 386.946 310.464 386.972 310.515 386.982C310.565 386.99 310.616 386.984 310.662 386.964C310.709 386.944 310.748 386.911 310.776 386.87L311.014 386.496C334.676 349.356 352.598 342.237 363.48 342.822C363.661 342.831 363.831 342.912 363.953 343.047C364.074 343.181 364.137 343.358 364.128 343.539C364.126 343.63 364.106 343.72 364.068 343.802C364.03 343.884 363.975 343.958 363.908 344.019C363.84 344.079 363.761 344.125 363.675 344.154C363.589 344.182 363.498 344.193 363.407 344.184C352.906 343.628 335.483 350.633 312.186 387.227L311.948 387.601C311.8 387.83 311.596 388.018 311.356 388.147C311.115 388.276 310.846 388.343 310.573 388.339Z" fill="#0D0D0D"/>
<g opacity="0.6">
<path opacity="0.6" d="M316.84 379.231C314.546 382.567 312.825 385.29 311.831 386.849C311.728 387.009 311.58 387.134 311.405 387.208C311.23 387.282 311.037 387.302 310.851 387.265C310.664 387.228 310.494 387.135 310.361 387C310.228 386.864 310.139 386.691 310.105 386.504C298.787 322.129 329.108 304.293 347.057 302.844L348.884 307.204C332.212 311.778 311.199 330.021 316.84 379.231Z" fill="white"/>
</g>
<path d="M310.586 391.9C309.363 391.902 308.178 391.473 307.24 390.688C306.302 389.903 305.671 388.813 305.457 387.608C299.925 356.152 303.368 332.107 315.718 316.143C326.652 301.998 340.708 299.434 346.258 298.982C346.818 298.928 347.384 298.985 347.922 299.152C348.46 299.318 348.96 299.59 349.392 299.951C349.823 300.313 350.179 300.757 350.438 301.257C350.697 301.757 350.853 302.304 350.899 302.865C350.944 303.427 350.877 303.992 350.702 304.527C350.527 305.062 350.247 305.557 349.879 305.984C349.511 306.41 349.061 306.758 348.557 307.009C348.053 307.26 347.504 307.407 346.942 307.444C342.53 307.801 331.311 309.866 322.447 321.335C312.851 333.749 309.476 353.134 312.559 377.727C334.984 345.093 352.614 338.644 363.676 339.253C364.239 339.273 364.792 339.405 365.303 339.642C365.815 339.878 366.274 340.214 366.654 340.63C367.034 341.046 367.328 341.533 367.518 342.064C367.708 342.594 367.79 343.157 367.76 343.719C367.73 344.282 367.589 344.833 367.344 345.34C367.099 345.848 366.756 346.301 366.334 346.675C365.912 347.048 365.42 347.333 364.887 347.515C364.353 347.696 363.789 347.769 363.227 347.73C355.417 347.338 338.758 352.144 315.198 389.133L314.961 389.509C314.494 390.246 313.847 390.852 313.082 391.27C312.317 391.688 311.458 391.905 310.586 391.9Z" fill="#0D0D0D"/>
<path d="M459.144 304.919C477.04 306.911 507.81 325.674 494.547 389.676C494.509 389.862 494.415 390.033 494.278 390.165C494.141 390.297 493.968 390.385 493.78 390.417C493.593 390.449 493.4 390.423 493.227 390.344C493.054 390.264 492.909 390.134 492.812 389.971C488.037 381.959 464.827 344.124 441.016 344.662" fill="#D25658"/>
<path d="M493.623 391.112C493.344 391.114 493.068 391.043 492.825 390.905C492.581 390.768 492.378 390.569 492.235 390.329C485.915 379.727 463.697 345.349 441.522 345.349H441.039C440.859 345.348 440.686 345.277 440.557 345.151C440.429 345.025 440.354 344.853 440.35 344.673C440.348 344.583 440.364 344.494 440.396 344.41C440.429 344.327 440.478 344.25 440.54 344.185C440.602 344.121 440.676 344.069 440.758 344.033C440.84 343.997 440.929 343.977 441.019 343.976C463.467 343.485 485.132 375.725 493.414 389.616C493.441 389.66 493.481 389.694 493.527 389.716C493.573 389.737 493.625 389.744 493.675 389.736C493.728 389.73 493.777 389.706 493.815 389.67C493.853 389.633 493.878 389.585 493.887 389.533C499.909 360.478 497.335 337.183 486.442 322.176C476.8 308.888 464.093 306.154 459.079 305.595C458.986 305.59 458.895 305.566 458.812 305.525C458.729 305.483 458.655 305.425 458.595 305.354C458.535 305.283 458.49 305.2 458.463 305.112C458.436 305.023 458.428 304.929 458.438 304.837C458.448 304.744 458.477 304.655 458.523 304.574C458.569 304.493 458.631 304.423 458.705 304.367C458.78 304.311 458.864 304.27 458.955 304.248C459.045 304.226 459.139 304.223 459.23 304.238C464.425 304.815 477.586 307.632 487.547 321.372C498.672 336.702 501.329 360.371 495.226 389.812C495.161 390.134 494.999 390.428 494.763 390.656C494.526 390.883 494.226 391.033 493.903 391.086C493.81 391.103 493.717 391.111 493.623 391.112Z" fill="#0D0D0D"/>
<path d="M494.558 389.676C494.518 389.862 494.424 390.032 494.287 390.163C494.149 390.295 493.976 390.382 493.788 390.414C493.601 390.445 493.408 390.42 493.235 390.34C493.063 390.261 492.918 390.131 492.82 389.968C490.374 385.867 483.091 373.939 473.365 363.352C464.18 353.343 452.804 344.537 441.28 344.665C441.196 344.665 441.107 344.665 441.019 344.665L441.128 344.422L459.139 304.919C464.161 305.478 470.202 307.357 475.994 311.185C490.854 321.009 504.093 343.628 494.558 389.676Z" fill="#17346E"/>
<g opacity="0.35">
<path opacity="0.35" d="M473.365 363.353C464.179 353.343 452.804 344.537 441.279 344.665C441.232 344.584 441.18 344.506 441.133 344.425L459.144 304.922C464.166 305.481 470.206 307.36 475.999 311.188C480.175 324.119 480.564 341.258 473.365 363.353Z" fill="#0D0D0D"/>
</g>
<path d="M493.613 394.676C492.717 394.676 491.837 394.443 491.059 393.999C490.281 393.556 489.631 392.917 489.175 392.146C483.104 381.964 461.82 348.902 441.541 348.902H441.12C440.56 348.92 440.001 348.827 439.476 348.628C438.951 348.429 438.471 348.128 438.064 347.743C437.656 347.357 437.329 346.894 437.101 346.381C436.873 345.868 436.75 345.315 436.737 344.754C436.725 344.193 436.823 343.635 437.028 343.113C437.232 342.59 437.538 342.113 437.928 341.709C438.318 341.306 438.784 340.983 439.299 340.761C439.815 340.539 440.369 340.421 440.93 340.414C441.126 340.414 441.324 340.414 441.52 340.414C462.107 340.414 481.405 364.563 491.898 380.52C495.646 356.355 492.801 337.02 483.545 324.27C474.493 311.79 462.217 309.532 458.672 309.127C458.117 309.067 457.579 308.898 457.089 308.629C456.6 308.361 456.168 307.998 455.819 307.563C455.469 307.127 455.21 306.627 455.054 306.09C454.898 305.554 454.85 304.992 454.912 304.437C454.974 303.882 455.144 303.345 455.414 302.856C455.684 302.367 456.048 301.936 456.484 301.588C456.921 301.24 457.422 300.981 457.958 300.827C458.495 300.673 459.057 300.626 459.612 300.69C465.276 301.321 479.622 304.394 490.413 319.273C502.308 335.668 505.095 359.642 498.695 390.527C498.488 391.552 497.973 392.49 497.219 393.216C496.466 393.942 495.509 394.421 494.477 394.589C494.192 394.642 493.903 394.67 493.613 394.676Z" fill="#0D0D0D"/>
<path d="M407.983 3.12744C407.983 3.12744 487.335 51.4884 494.383 183.035C500.387 295.103 451.684 350.766 451.684 350.766C419.91 361.988 385.168 361.459 353.749 349.275C353.749 349.275 332.765 323.789 321.643 273.517C321.262 271.789 320.888 270.021 320.531 268.236C316.644 248.788 314.266 225.885 315.049 199.555C315.223 193.342 315.588 186.939 316.143 180.346C316.161 180.085 316.187 179.824 316.214 179.562C318.503 152.98 323.661 129.922 330.411 110.044C330.625 109.407 330.844 108.781 331.061 108.154C357.735 31.694 407.983 3.12744 407.983 3.12744Z" fill="white"/>
<path d="M404.589 359.483C387.116 359.485 369.794 356.239 353.506 349.912C353.396 349.87 353.299 349.8 353.225 349.708C353.013 349.447 332.011 323.52 320.988 273.663C320.607 271.93 320.231 270.16 319.876 268.369C315.522 246.601 313.674 223.441 314.394 199.535C314.569 193.345 314.94 186.867 315.49 180.288C315.509 180.027 315.535 179.766 315.564 179.505C317.686 154.834 322.476 131.39 329.792 109.838C330.006 109.198 330.225 108.572 330.445 107.943C356.882 32.1091 407.15 2.82725 407.657 2.54008C407.761 2.47805 407.881 2.44531 408.002 2.44531C408.124 2.44531 408.244 2.47805 408.348 2.54008C408.549 2.66017 428.539 15.0298 449.1 43.3456C468.058 69.4528 491.425 114.879 495.08 182.993C501.036 294.053 452.705 350.651 452.214 351.21C452.138 351.299 452.04 351.366 451.929 351.405C436.72 356.756 420.713 359.488 404.589 359.483ZM354.172 348.703C385.337 360.739 419.772 361.264 451.29 350.184C453.9 347.066 499.489 290.92 493.707 183.071C490.071 115.326 466.86 70.1682 448.027 44.215C429.1 18.1287 410.7 5.69122 407.97 3.93159C403.459 6.66502 356.808 36.3959 331.721 108.386C331.504 109.01 331.288 109.634 331.074 110.269C323.791 131.721 319.025 155.056 316.91 179.63C316.884 179.892 316.858 180.153 316.84 180.393C316.289 186.959 315.924 193.407 315.746 199.574C315.042 223.378 316.879 246.436 321.212 268.1C321.567 269.883 321.94 271.645 322.322 273.371C332.854 321.017 352.52 346.62 354.169 348.703H354.172Z" fill="#0D0D0D"/>
<path d="M477.998 97.6148C431.314 86.8979 382.893 86.1639 335.906 95.461C363.306 27.7754 408.388 2.146 408.388 2.146C408.388 2.146 452.66 29.1278 477.998 97.6148Z" fill="#17346E"/>
<path d="M477.998 98.2986C477.946 98.2992 477.894 98.293 477.844 98.2803C431.262 87.517 382.925 86.7846 336.039 96.1317C335.918 96.1552 335.793 96.1456 335.677 96.1041C335.562 96.0625 335.459 95.9905 335.381 95.8957C335.303 95.8008 335.251 95.6866 335.232 95.565C335.214 95.4434 335.228 95.319 335.274 95.2049C362.447 28.0728 407.597 1.80901 408.048 1.55055C408.154 1.48959 408.273 1.45752 408.395 1.45752C408.517 1.45752 408.637 1.48959 408.742 1.55055C409.186 1.81162 453.509 29.4435 478.638 97.364C478.676 97.4673 478.689 97.5782 478.675 97.6875C478.661 97.7968 478.621 97.9011 478.558 97.9916C478.495 98.0821 478.412 98.156 478.314 98.2072C478.217 98.2584 478.108 98.2853 477.998 98.2856V98.2986ZM401.979 88.2604C427.191 88.2733 452.322 91.0929 476.91 96.6669C453.065 33.2264 412.527 5.64677 408.369 2.94206C404.135 5.51101 362.768 31.848 337.012 94.5418C358.417 90.372 380.172 88.2685 401.979 88.2604Z" fill="#0D0D0D"/>
<g opacity="0.35">
<path opacity="0.35" d="M485.038 181.257C478.933 67.4504 418.737 15.9174 402.601 4.08303C403.086 3.75669 403.519 3.47212 403.906 3.23193C402.379 4.21356 399.917 5.8766 396.756 8.29412C418.421 30.869 448.63 73.9642 457.669 144.399C453.784 135.505 447.421 127.917 439.341 122.542C431.261 117.166 421.805 114.23 412.102 114.083C384.172 113.66 361.202 135.958 360.771 163.888C360.34 191.817 382.642 214.797 410.57 215.228C434.266 215.588 454.396 199.582 460.209 177.659C461.533 225.958 452.666 263.174 442.634 289.338C429.003 324.896 393.371 347.215 355.501 343.252L354.874 343.184C353.374 343.021 351.876 342.83 350.379 342.612C349.745 342.56 349.113 342.521 348.479 342.453L347.853 342.388L347.184 342.304C349.795 346.278 351.439 348.288 351.439 348.288C361.562 352.214 372.104 354.955 382.856 356.457C402.994 358.263 423.285 355.712 442.35 348.977C442.35 348.977 491.047 293.317 485.038 181.257Z" fill="#0D0D0D"/>
</g>
<g opacity="0.35">
<path opacity="0.35" d="M347.164 342.306L347.046 342.127L347.164 342.306Z" fill="#0D0D0D"/>
</g>
<g opacity="0.35">
<path opacity="0.35" d="M347.041 342.104L347.057 342.128L347.041 342.104Z" fill="#0D0D0D"/>
</g>
<g opacity="0.6">
<path opacity="0.6" d="M414.441 7.08525C410.932 4.40926 408.855 3.14307 408.855 3.14307C408.855 3.14307 363.775 28.7699 336.375 96.458C339.408 95.8576 342.448 95.2997 345.493 94.7846C369.886 37.8891 406.417 12.2023 414.441 7.08525Z" fill="white"/>
</g>
<path d="M477.998 101.86C477.678 101.861 477.36 101.825 477.048 101.753C430.955 91.1035 383.125 90.3782 336.73 99.6252C335.98 99.7738 335.203 99.7167 334.482 99.4598C333.761 99.2029 333.123 98.7558 332.635 98.1659C332.147 97.5759 331.828 96.8651 331.712 96.1086C331.595 95.3521 331.685 94.5781 331.972 93.8686C353.744 40.0877 386.707 12.2052 399.868 2.71528C402.349 0.907595 405.35 -0.0444469 408.419 0.00264298C411.489 0.0497329 414.459 1.0934 416.884 2.97635C429.75 12.8501 461.848 41.7273 481.976 96.1321C482.214 96.7736 482.293 97.4632 482.207 98.1421C482.121 98.8209 481.872 99.4687 481.481 100.03C481.09 100.592 480.569 101.051 479.963 101.368C479.356 101.684 478.682 101.85 477.998 101.85V101.86ZM401.979 84.6997C425.225 84.7084 448.41 87.0825 471.175 91.7852C451.773 44.1605 423.407 18.6851 411.708 9.70418C410.726 8.94583 409.525 8.52583 408.285 8.507C407.044 8.48818 405.831 8.87154 404.827 9.59975C392.859 18.2308 363.728 42.8238 342.891 89.8428C362.402 86.427 382.172 84.7061 401.979 84.6997Z" fill="#0D0D0D"/>
<path d="M405.148 362.078C404.407 362.078 403.668 362.078 402.924 362.063C385.708 361.808 368.675 358.483 352.627 352.244C351.948 351.979 351.349 351.545 350.886 350.983C348.92 348.596 302.901 291.247 312.34 178.996C314.922 148.302 321.526 119.657 331.972 93.8606C332.237 93.2077 332.66 92.6309 333.203 92.1821C333.746 91.7332 334.392 91.4263 335.083 91.2891C382.63 81.8122 431.648 82.5508 478.889 93.456C479.589 93.6055 480.24 93.9294 480.781 94.3976C481.323 94.8659 481.738 95.4633 481.987 96.1346C491.645 122.242 497.388 151.062 499.032 181.826C505.067 294.309 457.322 350.239 455.286 352.567C454.806 353.115 454.193 353.531 453.506 353.774C437.977 359.275 421.623 362.083 405.148 362.078ZM356.79 344.753C386.607 356.029 419.426 356.527 449.57 346.161C455.347 338.9 496.007 283.9 490.551 182.288C488.985 153.228 483.697 125.975 474.809 101.246C430.154 91.2479 383.92 90.5468 338.983 99.1865C329.349 123.638 323.233 150.717 320.795 179.717C312.251 281.368 351.231 337.363 356.79 344.753Z" fill="#0D0D0D"/>
<path d="M404.391 387.162C392.756 387.165 381.181 385.494 370.022 382.202C365.99 381.013 362.357 378.753 359.507 375.664C356.657 372.574 354.698 368.77 353.838 364.655L350.557 349.043C350.357 348.088 350.544 347.094 351.077 346.277C351.611 345.461 352.446 344.89 353.401 344.69C354.355 344.489 355.35 344.677 356.166 345.21C356.982 345.744 357.553 346.579 357.753 347.534L361.024 363.136C361.611 365.952 362.951 368.556 364.901 370.671C366.851 372.786 369.338 374.332 372.097 375.145C392.044 381.038 413.224 381.36 433.342 376.074C436.123 375.346 438.655 373.876 440.668 371.823C442.68 369.769 444.099 367.208 444.772 364.412L448.515 348.918C448.744 347.97 449.34 347.152 450.172 346.643C451.004 346.135 452.003 345.978 452.951 346.206C453.899 346.435 454.717 347.031 455.225 347.863C455.734 348.695 455.891 349.695 455.662 350.643L451.919 366.138C450.937 370.225 448.864 373.969 445.922 376.972C442.98 379.974 439.279 382.122 435.213 383.186C425.152 385.828 414.793 387.164 404.391 387.162Z" fill="#0D0D0D"/>
<path d="M438.132 193.4C455.891 175.637 455.891 146.838 438.132 129.076C420.372 111.313 391.578 111.313 373.819 129.076C356.059 146.838 356.059 175.637 373.819 193.4C391.578 211.162 420.372 211.162 438.132 193.4Z" fill="#2E68DD"/>
<path d="M405.994 207.403C405.754 207.403 405.516 207.403 405.276 207.403C393.062 207.308 381.384 202.377 372.798 193.688C364.212 185 359.417 173.263 359.465 161.047C359.512 148.831 364.398 137.131 373.051 128.51C381.704 119.888 393.421 115.048 405.635 115.048C417.849 115.048 429.565 119.888 438.219 128.51C446.872 137.131 451.758 148.831 451.805 161.047C451.853 173.263 447.058 185 438.472 193.688C429.886 202.377 418.208 207.308 405.994 207.403ZM405.955 116.438C394.102 116.531 382.769 121.317 374.437 129.748C366.105 138.18 361.453 149.57 361.5 161.425C361.546 173.279 366.287 184.633 374.684 192.999C383.082 201.365 394.452 206.063 406.304 206.063C418.157 206.063 429.527 201.365 437.925 192.999C446.322 184.633 451.063 173.279 451.109 161.425C451.156 149.57 446.504 138.18 438.172 129.748C429.84 121.317 418.507 116.531 406.654 116.438H405.955Z" fill="#0D0D0D"/>
<g opacity="0.6">
<path opacity="0.6" d="M417.67 117.106C416.625 117.015 415.605 116.963 414.561 116.947C389.453 116.563 368.787 136.622 368.403 161.734C368.243 172.286 371.756 182.566 378.34 190.812C384.925 199.059 394.171 204.759 404.496 206.936C392.738 205.966 381.817 200.464 374.039 191.592C366.261 182.72 362.235 171.171 362.811 159.386C363.387 147.6 368.52 136.499 377.126 128.428C385.731 120.356 397.137 115.946 408.933 116.127C411.87 116.174 414.795 116.502 417.67 117.106Z" fill="white"/>
</g>
<g opacity="0.35">
<path opacity="0.35" d="M451.441 161.922C451.06 187.032 430.402 207.088 405.289 206.709C397.67 206.604 390.201 204.576 383.574 200.814C394.243 203.439 405.502 202.112 415.269 197.078C425.035 192.044 432.65 183.643 436.704 173.43C440.758 163.216 440.978 151.879 437.323 141.516C433.668 131.153 426.385 122.463 416.821 117.054C426.816 119.513 435.681 125.289 441.969 133.438C448.258 141.588 451.597 151.629 451.441 161.922Z" fill="#0D0D0D"/>
</g>
<path d="M405.986 210.398H405.229C378.132 209.985 356.417 187.601 356.829 160.499C357.242 133.397 379.659 111.702 406.719 112.089C433.819 112.498 455.531 134.883 455.119 161.987C454.707 188.833 432.744 210.398 405.986 210.398ZM405.957 119.43C394.883 119.516 384.295 123.987 376.51 131.864C368.725 139.742 364.379 150.383 364.422 161.459C364.465 172.535 368.894 183.143 376.74 190.959C384.585 198.776 395.208 203.165 406.282 203.165C417.356 203.165 427.979 198.776 435.825 190.959C443.67 183.143 448.1 172.535 448.143 161.459C448.186 150.383 443.839 139.742 436.054 131.864C428.269 123.987 417.681 119.516 406.607 119.43H405.957Z" fill="#0D0D0D"/>
<path d="M425.896 181.148C437.194 169.849 437.194 151.528 425.896 140.229C414.598 128.929 396.281 128.929 384.983 140.229C373.686 151.528 373.686 169.849 384.983 181.148C396.281 192.448 414.598 192.448 425.896 181.148Z" fill="white"/>
<path d="M405.449 190.23H404.994C397.191 190.128 389.745 186.94 384.284 181.364C378.823 175.788 375.791 168.277 375.849 160.472C375.907 152.667 379.052 145.202 384.595 139.708C390.139 134.215 397.631 131.139 405.435 131.152H405.895C413.671 131.296 421.077 134.501 426.505 140.073C431.933 145.644 434.945 153.132 434.887 160.911C434.828 168.69 431.705 176.132 426.195 181.621C420.684 187.111 413.231 190.206 405.454 190.233L405.449 190.23ZM405.449 132.359C397.992 132.387 390.848 135.356 385.566 140.62C380.284 145.884 377.291 153.018 377.235 160.476C377.179 167.933 380.066 175.112 385.269 180.454C390.471 185.796 397.571 188.871 405.026 189.011H405.462C412.895 189.002 420.028 186.073 425.324 180.855C430.62 175.637 433.655 168.547 433.775 161.113H434.381H433.775C433.881 153.603 431.003 146.358 425.775 140.967C420.546 135.576 413.393 132.479 405.884 132.356L405.449 132.359Z" fill="#0D0D0D"/>
<g opacity="0.3">
<path opacity="0.3" d="M434.373 161.139C434.315 164.939 433.509 168.689 432.002 172.177C430.495 175.666 428.316 178.822 425.589 181.468C422.861 184.114 419.64 186.196 416.108 187.597C412.576 188.997 408.803 189.688 405.005 189.63C401.643 189.587 398.315 188.951 395.174 187.753C395.495 187.771 395.814 187.782 396.145 187.789C402.949 187.889 409.57 185.588 414.845 181.29C420.121 176.991 423.713 170.971 424.99 164.287C426.268 157.603 425.149 150.682 421.831 144.74C418.513 138.799 413.208 134.217 406.847 131.8C414.344 132.164 421.406 135.428 426.542 140.902C431.678 146.377 434.486 153.633 434.373 161.139Z" fill="white"/>
</g>
<g opacity="0.35">
<path opacity="0.35" d="M417.978 134.22C417.482 134.193 416.986 134.167 416.482 134.162C409.795 134.056 403.279 136.271 398.04 140.429C392.802 144.587 389.166 150.432 387.751 156.969C386.335 163.507 387.228 170.332 390.277 176.285C393.326 182.239 398.343 186.951 404.475 189.622C400.266 189.339 396.17 188.14 392.473 186.107C388.776 184.075 385.569 181.258 383.075 177.855C380.582 174.452 378.862 170.545 378.037 166.407C377.212 162.27 377.302 158.002 378.3 153.902C379.298 149.803 381.181 145.971 383.815 142.676C386.45 139.381 389.773 136.702 393.552 134.827C397.331 132.952 401.474 131.926 405.691 131.821C409.908 131.716 414.097 132.535 417.965 134.22H417.978Z" fill="#0D0D0D"/>
</g>
<path d="M405.448 193.039H404.952C396.402 192.933 388.243 189.445 382.257 183.337C376.271 177.23 372.947 169.001 373.01 160.45C373.074 151.898 376.52 143.719 382.596 137.702C388.671 131.684 396.882 128.318 405.433 128.338H405.931C414.451 128.489 422.567 131.997 428.516 138.099C434.465 144.201 437.766 152.404 437.703 160.926C437.639 169.449 434.216 177.602 428.176 183.614C422.137 189.627 413.969 193.013 405.448 193.037V193.039ZM405.448 135.17C398.735 135.202 392.305 137.879 387.552 142.62C382.798 147.361 380.104 153.785 380.054 160.499C380.004 167.213 382.602 173.677 387.284 178.489C391.966 183.3 398.355 186.073 405.067 186.205C419.1 186.395 430.752 175.143 430.966 161.074L434.38 161.126L430.966 161.074C431.06 154.309 428.468 147.784 423.758 142.928C419.049 138.072 412.605 135.284 405.842 135.173L405.448 135.17Z" fill="#0D0D0D"/>
<g opacity="0.2">
<path opacity="0.2" d="M386.853 49.7317C380.385 47.2985 369.907 58.5011 366.869 66.0304C363.736 73.8286 363.133 79.0605 366.869 80.6504C372.089 82.8669 376.454 77.575 379.695 70.4921C382 65.4769 394.835 52.734 386.853 49.7317Z" fill="white"/>
</g>
<g opacity="0.2">
<path opacity="0.2" d="M402.958 33.5765C397.252 31.7099 389.335 36.2734 387.414 39.7431C385.425 43.3354 385.383 45.8991 388.719 47.0687C393.358 48.703 396.589 46.4865 398.722 43.2623C400.217 40.9805 410.001 35.8818 402.958 33.5765Z" fill="white"/>
</g>
<path d="M420.102 344.046C419.758 366.462 401.682 388.269 401.682 388.269C401.682 388.269 401.614 388.183 401.499 388.026C399.632 385.554 384.292 364.564 384.603 343.513C384.903 323.312 399.742 307.303 402.517 304.499C402.801 304.212 402.958 304.065 402.958 304.065C402.958 304.065 420.449 321.782 420.102 344.046Z" fill="#17346E"/>
<path d="M401.679 388.95C401.578 388.948 401.479 388.923 401.389 388.878C401.299 388.833 401.219 388.768 401.157 388.689L400.961 388.428C399.194 386.079 383.621 364.856 383.934 343.508C384.237 323.111 399.074 307.036 402.047 304.024C402.342 303.723 402.501 303.572 402.501 303.572C402.631 303.448 402.804 303.381 402.983 303.384C403.162 303.387 403.333 303.46 403.459 303.588C403.637 303.768 421.149 321.766 420.802 344.054C420.457 366.454 402.405 388.483 402.222 388.697C402.157 388.778 402.074 388.843 401.98 388.886C401.886 388.93 401.783 388.952 401.679 388.95ZM402.94 305.044C399.891 308.148 385.579 323.787 385.273 343.524C384.981 363.404 398.847 383.277 401.687 387.146C404.691 383.288 419.105 363.76 419.408 344.035C419.729 324.364 405.704 308.062 402.94 305.044Z" fill="#0D0D0D"/>
<g opacity="0.6">
<path opacity="0.6" d="M405.589 303.533C405.589 303.533 406.654 304.614 408.249 306.566C403.36 312.093 392.499 326.28 392.243 343.532C391.982 360.459 401.865 377.348 406.701 384.598C405.253 386.611 404.316 387.744 404.316 387.744L404.13 387.499C402.269 385.026 386.929 364.036 387.239 342.986C387.537 322.784 402.379 306.778 405.151 303.977L405.589 303.533Z" fill="white"/>
</g>
<g opacity="0.35">
<path opacity="0.35" d="M420.102 344.046C419.758 366.462 401.682 388.269 401.682 388.269C401.682 388.269 401.614 388.183 401.499 388.026L402.517 304.499C402.802 304.212 402.958 304.065 402.958 304.065C402.958 304.065 420.45 321.782 420.102 344.046Z" fill="#0D0D0D"/>
</g>
<path d="M401.682 391.945H401.627C401.077 391.937 400.536 391.806 400.043 391.561C399.551 391.316 399.12 390.964 398.782 390.53C398.038 389.577 380.58 366.898 380.93 343.456C381.277 319.915 399.638 302.149 400.421 301.405C401.118 300.74 402.049 300.375 403.012 300.39C403.975 300.405 404.894 300.797 405.571 301.484C406.331 302.251 424.143 320.563 423.78 344.106C423.42 367.545 405.284 389.687 404.511 390.616C404.166 391.032 403.734 391.367 403.245 391.596C402.756 391.826 402.222 391.945 401.682 391.945ZM402.872 309.569C398.113 315.106 388.515 328.155 388.281 343.566C388.051 359.063 397.048 374.819 401.773 382.001C406.709 374.952 416.19 359.452 416.43 343.991C416.667 328.583 407.461 315.25 402.872 309.569Z" fill="#0D0D0D"/>
<path d="M687.412 670.553H420.948C418.502 658.753 410.794 649.803 401.893 649.534C401.747 649.521 401.611 649.521 401.465 649.521C392.381 649.521 384.462 658.562 381.992 670.553H119.177L125.591 646.072L183.938 625.247L230.623 608.588C332.006 576.162 381.214 591.49 402.379 632.515C402.423 632.593 402.457 632.674 402.501 632.752C413.545 611.191 432.723 596.675 463.046 592.393C490.676 588.503 527.559 593.103 575.98 608.58L681.002 646.065L687.412 670.553Z" fill="white"/>
<g opacity="0.3">
<path opacity="0.3" d="M550.412 670.553H420.943C418.497 658.753 410.789 649.803 401.888 649.534L402.373 632.515C402.418 632.593 402.452 632.674 402.496 632.753C413.54 611.191 432.718 596.675 463.041 592.394V592.414C463.723 642.624 496.21 665.82 550.412 670.553Z" fill="#0D0D0D"/>
</g>
<path d="M719.044 680.171C719.042 682.721 718.029 685.166 716.227 686.97C714.424 688.773 711.98 689.787 709.43 689.789H432.757C431.311 689.789 429.879 689.504 428.543 688.95C427.207 688.396 425.993 687.584 424.971 686.561C423.949 685.537 423.138 684.322 422.586 682.985C422.034 681.648 421.75 680.216 421.752 678.769V678.456C421.758 675.801 421.486 673.152 420.943 670.553C418.468 658.56 410.549 649.524 401.465 649.524C392.381 649.524 384.464 658.56 381.99 670.553C381.446 673.152 381.175 675.801 381.181 678.456V678.769C381.182 680.216 380.899 681.648 380.347 682.985C379.794 684.322 378.984 685.537 377.962 686.561C376.94 687.584 375.726 688.396 374.39 688.95C373.054 689.504 371.622 689.789 370.176 689.789H95.5751C93.0247 689.789 90.5788 688.776 88.7754 686.972C86.972 685.168 85.9589 682.722 85.9589 680.171C85.9589 677.62 86.972 675.174 88.7754 673.37C90.5788 671.567 93.0247 670.553 95.5751 670.553H364.968C368.004 649.083 383.185 632.758 401.457 632.758C419.729 632.758 434.918 649.08 437.957 670.553H709.425C711.975 670.554 714.421 671.567 716.225 673.371C718.029 675.174 719.042 677.62 719.044 680.171Z" fill="#2E68DD"/>
<g opacity="0.55">
<path opacity="0.55" d="M95.5698 670.553H362.791C362.747 670.665 362.723 670.767 362.689 670.88C362.159 672.81 361.01 674.513 359.418 675.727C357.825 676.94 355.879 677.597 353.877 677.597H91.9076C89.7518 677.592 87.6582 678.319 85.9692 679.659C86.1014 677.201 87.1704 674.888 88.9561 673.194C90.7419 671.5 93.1087 670.555 95.5698 670.553Z" fill="white"/>
</g>
<g opacity="0.55">
<path opacity="0.55" d="M719.044 680.165C719.046 681.624 718.715 683.065 718.077 684.377C717.439 685.688 716.51 686.838 715.361 687.737C715.433 686.432 715.238 685.127 714.789 683.9C714.34 682.673 713.645 681.551 712.747 680.602C711.85 679.652 710.768 678.896 709.569 678.379C708.369 677.862 707.077 677.595 705.771 677.594H441.726C439.725 677.594 437.779 676.937 436.187 675.723C434.595 674.509 433.446 672.807 432.916 670.877C427.957 652.81 414.122 639.793 397.803 639.793C385.913 639.793 375.334 646.712 368.55 657.455C374.712 642.78 387.143 632.75 401.465 632.75C419.737 632.75 434.931 649.08 437.965 670.55H709.433C711.982 670.552 714.426 671.566 716.228 673.369C718.03 675.172 719.043 677.616 719.044 680.165Z" fill="white"/>
</g>
<path d="M709.43 693.425H432.754C430.83 693.426 428.924 693.047 427.146 692.309C425.368 691.572 423.753 690.492 422.393 689.13C421.034 687.768 419.956 686.151 419.221 684.372C418.487 682.592 418.11 680.686 418.113 678.761V678.456C418.119 676.054 417.874 673.658 417.382 671.307C415.213 660.786 408.508 653.163 401.46 653.163C394.412 653.163 387.714 660.786 385.537 671.289C385.044 673.646 384.798 676.048 384.804 678.456V678.758C384.806 680.683 384.43 682.59 383.695 684.369C382.961 686.148 381.883 687.765 380.523 689.127C379.163 690.49 377.548 691.57 375.771 692.308C373.993 693.045 372.087 693.425 370.163 693.425H95.562C92.0473 693.425 88.6765 692.029 86.1912 689.543C83.7059 687.058 82.3097 683.686 82.3097 680.171C82.3097 676.655 83.7059 673.284 86.1912 670.798C88.6765 668.313 92.0473 666.916 95.562 666.916H361.893C366.229 644.832 382.47 629.118 401.465 629.118C420.46 629.118 436.704 644.832 441.039 666.916H709.43C712.945 666.916 716.316 668.313 718.801 670.798C721.286 673.284 722.682 676.655 722.682 680.171C722.682 683.686 721.286 687.058 718.801 689.543C716.316 692.029 712.945 693.425 709.43 693.425ZM401.457 645.887C412.115 645.887 421.59 655.727 424.498 669.817C425.092 672.658 425.388 675.553 425.383 678.456V678.766C425.379 679.736 425.568 680.697 425.937 681.594C426.306 682.491 426.848 683.306 427.533 683.993C428.218 684.679 429.032 685.224 429.928 685.595C430.824 685.966 431.785 686.156 432.754 686.155H709.43C711.015 686.155 712.536 685.525 713.657 684.404C714.778 683.282 715.408 681.762 715.408 680.176C715.408 678.59 714.778 677.07 713.657 675.949C712.536 674.827 711.015 674.197 709.43 674.197H437.962C437.085 674.197 436.237 673.88 435.575 673.304C434.913 672.729 434.482 671.933 434.36 671.065C431.517 650.978 417.683 636.397 401.47 636.397C385.258 636.397 371.416 650.978 368.581 671.065C368.459 671.933 368.027 672.729 367.365 673.304C366.703 673.88 365.856 674.197 364.979 674.197H95.5725C93.9871 674.197 92.4667 674.827 91.3457 675.949C90.2247 677.07 89.595 678.59 89.595 680.176C89.595 681.762 90.2247 683.282 91.3457 684.404C92.4667 685.525 93.9871 686.155 95.5725 686.155H370.173C371.141 686.154 372.1 685.963 372.994 685.592C373.888 685.221 374.7 684.677 375.384 683.992C376.068 683.307 376.61 682.494 376.979 681.599C377.349 680.704 377.538 679.745 377.537 678.777V678.466C377.53 675.556 377.828 672.654 378.424 669.806C381.335 655.727 390.807 645.887 401.457 645.887Z" fill="#0D0D0D"/>
<path d="M119.18 674.192C118.868 674.193 118.557 674.153 118.256 674.072C117.323 673.828 116.526 673.223 116.039 672.391C115.552 671.558 115.415 670.567 115.658 669.634L122.069 645.153C122.219 644.581 122.507 644.053 122.907 643.617C123.308 643.18 123.809 642.848 124.366 642.65L229.393 605.168C319.774 576.246 376.482 582.838 402.506 625.333C414.451 605.961 433.229 593.905 458.426 589.454C488.207 584.193 528.121 589.454 577.087 605.118L682.228 642.639C682.786 642.838 683.287 643.17 683.687 643.606C684.088 644.043 684.375 644.57 684.525 645.143L690.936 669.624C691.181 670.558 691.044 671.552 690.556 672.386C690.068 673.22 689.268 673.825 688.334 674.07C687.399 674.314 686.406 674.177 685.572 673.689C684.739 673.201 684.133 672.402 683.889 671.467L677.963 648.848L574.756 612.01C527.05 596.751 488.298 591.555 459.692 596.607C434.091 601.129 416.443 613.493 405.738 634.405C405.433 635.001 404.969 635.501 404.397 635.85C403.826 636.199 403.169 636.384 402.5 636.384C401.83 636.384 401.174 636.199 400.603 635.85C400.031 635.501 399.567 635.001 399.262 634.405C388.542 613.459 371.152 601.095 346.099 596.604C317.978 591.563 279.5 596.761 231.724 612.047L128.618 648.858L122.693 671.477C122.49 672.255 122.035 672.943 121.399 673.434C120.764 673.925 119.983 674.192 119.18 674.192Z" fill="#0D0D0D"/>
<g opacity="0.3">
<path opacity="0.3" d="M261.714 670.553H119.177L125.591 646.072L183.938 625.247L184.162 625.301C192.152 653.398 220.988 666.313 261.714 670.553Z" fill="#0D0D0D"/>
</g>
<path d="M344.175 670.383L343.849 670.553H341.708L344.175 670.383Z" fill="#262F6A"/>
<path d="M343.997 671.159H341.708L341.666 669.948L347.15 669.574L343.997 671.159Z" fill="#0D0D0D"/>
<path d="M445.973 630.808C450.113 626.845 455.145 623.772 460.496 621.459C465.847 619.145 471.606 617.759 477.382 616.952C488.969 615.3 500.689 616.031 512.073 617.736C523.477 619.493 534.633 622.286 545.547 625.704C556.465 629.096 567.183 633.101 577.65 637.7C566.426 635.496 555.374 632.81 544.33 630.293C533.276 627.834 522.253 625.45 511.18 623.748C500.107 622.046 488.961 621.023 477.888 621.66C466.816 622.297 455.834 624.944 445.973 630.808Z" fill="#0D0D0D"/>
<path d="M452.734 646.717C454.156 645.38 455.853 644.394 457.547 643.417C458.408 642.958 459.291 642.537 460.173 642.112L462.882 640.979C463.788 640.582 464.73 640.339 465.66 640.023C466.589 639.707 467.523 639.391 468.468 639.151C469.413 638.911 470.369 638.679 471.324 638.454C472.27 638.206 473.229 638.007 474.195 637.856C476.124 637.569 478.058 637.165 480.006 637.016C481.953 636.867 483.9 636.674 485.853 636.559L491.702 636.507C492.681 636.481 493.652 636.535 494.623 636.606L497.534 636.786C501.431 636.969 505.26 637.608 509.097 638.164C511.021 638.425 512.898 638.903 514.793 639.303C516.688 639.702 518.567 640.146 520.441 640.608C524.153 641.687 527.832 642.845 531.478 644.083C535.067 645.519 538.648 646.931 542.125 648.605C538.256 648.223 534.495 647.584 530.739 646.968C526.975 646.399 523.206 645.923 519.491 645.281C515.735 644.871 512.018 644.268 508.291 643.861C504.555 643.535 500.841 642.992 497.111 642.838C493.386 642.483 489.666 642.449 485.939 642.297L480.361 642.336C479.424 642.313 478.502 642.391 477.576 642.438L474.806 642.556C472.937 642.61 471.11 642.905 469.238 643.02C467.39 643.24 465.534 643.482 463.694 643.804L460.922 644.305C460.014 644.521 459.095 644.756 458.176 644.952C456.354 645.472 454.506 645.95 452.734 646.717Z" fill="#0D0D0D"/>
<path d="M356.038 630.808C346.177 624.933 335.201 622.278 324.146 621.641C313.092 621.004 301.925 622.049 290.855 623.73C279.785 625.411 268.746 627.816 257.704 630.275C246.663 632.792 235.611 635.478 224.382 637.682C234.85 633.09 245.569 629.092 256.488 625.706C267.399 622.289 278.555 619.495 289.959 617.738C301.343 616.023 313.063 615.292 324.65 616.955C330.426 617.762 336.156 619.177 341.536 621.461C346.916 623.746 351.904 626.855 356.038 630.808Z" fill="#0D0D0D"/>
<path d="M349.288 646.717C347.516 645.955 345.668 645.472 343.856 644.971C342.924 644.775 342.029 644.54 341.108 644.323L338.338 643.822C336.511 643.49 334.642 643.247 332.797 643.039C330.922 642.924 329.095 642.629 327.229 642.574L324.438 642.438C323.512 642.391 322.59 642.313 321.653 642.336L316.075 642.297C312.348 642.449 308.628 642.483 304.903 642.838C301.173 642.992 297.461 643.535 293.723 643.861C289.996 644.268 286.279 644.871 282.523 645.281C278.808 645.926 275.039 646.399 271.275 646.968C267.521 647.584 263.757 648.223 259.889 648.605C263.366 646.931 266.937 645.519 270.536 644.083C274.175 642.84 277.854 641.682 281.573 640.608C283.447 640.149 285.334 639.72 287.221 639.303C289.108 638.885 290.993 638.425 292.917 638.164C296.754 637.608 300.583 636.969 304.48 636.786L307.391 636.606C308.362 636.535 309.333 636.481 310.312 636.507L316.161 636.559C318.114 636.674 320.077 636.838 322.008 637.016C323.94 637.193 325.89 637.569 327.819 637.856C328.785 638.007 329.744 638.206 330.69 638.454C331.645 638.679 332.598 638.903 333.543 639.151C334.488 639.399 335.422 639.736 336.357 640.023C337.291 640.31 338.226 640.582 339.132 640.979L341.841 642.112C342.723 642.545 343.606 642.966 344.467 643.417C346.166 644.383 347.863 645.38 349.288 646.717Z" fill="#0D0D0D"/>
<path d="M36.2801 688.373C51.5397 686.175 66.7994 685.648 82.059 685.379C89.6889 685.23 97.3187 685.201 104.949 685.238C112.578 685.238 120.208 685.329 127.838 685.4C143.098 685.53 158.356 685.578 173.614 685.543H677.17H700.059L711.505 685.444L722.949 685.267C730.578 685.183 738.208 685.301 745.838 685.69C753.468 686.118 761.098 686.786 768.728 688.384C769.052 688.452 769.343 688.631 769.552 688.888C769.76 689.146 769.874 689.467 769.874 689.799C769.874 690.13 769.76 690.452 769.552 690.71C769.343 690.967 769.052 691.145 768.728 691.214C761.098 692.809 753.468 693.48 745.838 693.905C738.208 694.331 730.578 694.412 722.949 694.328L711.505 694.153L700.059 694.052H677.17H173.609C158.353 694.031 143.094 694.078 127.833 694.193C120.203 694.263 112.573 694.365 104.943 694.354C97.3135 694.391 89.6836 694.355 82.0538 694.214C66.7942 693.952 51.5345 693.417 36.2749 691.222C35.9358 691.171 35.6262 691 35.4024 690.741C35.1786 690.481 35.0555 690.15 35.0555 689.807C35.0555 689.464 35.1786 689.132 35.4024 688.873C35.6262 688.613 35.9358 688.442 36.2749 688.392L36.2801 688.373Z" fill="#0D0D0D"/>
</g>
<defs>
<clipPath id="clip0_802_888">
<rect width="805" height="721" fill="white"/>
</clipPath>
</defs>
</svg>
