<svg width="585" height="505" viewBox="0 0 585 505" fill="none" xmlns="http://www.w3.org/2000/svg">
<g clip-path="url(#clip0_802_185)">
<path d="M57.7989 460.136H526.716C526.716 471.159 522.335 481.731 514.537 489.526C506.739 497.321 496.163 501.7 485.135 501.7H99.3814C88.3536 501.7 77.7774 497.321 69.9796 489.526C62.1817 481.731 57.8009 471.159 57.8009 460.136H57.7989Z" fill="#DBE3EE"/>
<path d="M238.729 460.136C238.729 462.879 239.494 465.568 240.939 467.9H58.5588C58.0474 465.343 57.7908 462.743 57.7927 460.136H238.729Z" fill="white"/>
<path d="M528.653 459.564C528.653 471.03 523.723 481.434 515.739 488.952C513.075 491.469 510.103 493.639 506.894 495.41C514.092 488.021 518.482 478.154 518.482 467.329H345.525C346.97 464.996 347.734 462.307 347.733 459.564H528.653Z" fill="white"/>
<path d="M485.133 504.717H99.3814C74.7895 504.717 54.7838 484.717 54.7838 460.137C54.7838 459.338 55.1013 458.571 55.6667 458.005C56.2321 457.44 56.999 457.122 57.7988 457.121H526.718C527.518 457.122 528.285 457.44 528.85 458.005C529.415 458.571 529.733 459.338 529.733 460.137C529.733 484.715 509.725 504.717 485.133 504.717ZM60.9307 463.153C62.4751 483.014 79.1298 498.689 99.3814 498.689H485.133C505.385 498.689 522.042 483.006 523.584 463.153H60.9307Z" fill="#020202"/>
<g opacity="0.3">
<path opacity="0.3" d="M526.658 460.136C526.658 471.602 521.728 482.005 513.754 489.524C505.78 497.042 494.756 501.7 482.587 501.7H101.823C77.4769 501.7 57.7415 483.092 57.7415 460.136H59.9516C65.734 476.721 82.3026 488.682 101.823 488.682H482.577C494.746 488.682 505.772 484.032 513.744 476.506C518.577 471.988 522.249 466.373 524.45 460.136H526.658Z" fill="#020202"/>
</g>
<path d="M330.249 478.679H254.257C249.339 478.674 244.623 476.718 241.145 473.242C237.668 469.765 235.711 465.052 235.706 460.135C235.706 459.336 236.023 458.569 236.589 458.003C237.154 457.438 237.921 457.12 238.721 457.119H345.777C346.577 457.12 347.344 457.438 347.909 458.003C348.475 458.569 348.792 459.336 348.792 460.135C348.787 465.05 346.832 469.763 343.356 473.239C339.88 476.715 335.166 478.672 330.249 478.679ZM242.111 463.153C242.788 465.864 244.352 468.271 246.554 469.992C248.756 471.713 251.47 472.65 254.265 472.654H330.257C333.053 472.65 335.767 471.713 337.969 469.992C340.171 468.271 341.735 465.864 342.412 463.153H242.111Z" fill="#020202"/>
<g opacity="0.3">
<path opacity="0.3" d="M330.249 475.664H254.257C252.217 475.664 250.197 475.263 248.312 474.483C246.427 473.702 244.714 472.559 243.272 471.117C241.829 469.675 240.684 467.963 239.904 466.079C239.123 464.194 238.721 462.175 238.721 460.136H345.777C345.777 464.253 344.141 468.202 341.23 471.114C338.318 474.026 334.368 475.662 330.249 475.664Z" fill="#020202"/>
</g>
<g opacity="0.3">
<path opacity="0.3" d="M343.123 460.136C343.123 464.435 341.279 468.301 338.297 471.116C335.139 474.064 330.973 475.691 326.652 475.664H314.377C318.697 475.691 322.864 474.064 326.021 471.116C329.006 468.301 330.847 464.429 330.847 460.136H343.123Z" fill="#020202"/>
</g>
<path d="M473.616 202.279H110.899C98.4269 202.279 88.3164 212.386 88.3164 224.853V437.56C88.3164 450.027 98.4269 460.134 110.899 460.134H473.616C486.088 460.134 496.198 450.027 496.198 437.56V224.853C496.198 212.386 486.088 202.279 473.616 202.279Z" fill="#DBE3EE"/>
<path d="M473.616 460.648H110.901C104.778 460.64 98.9074 458.205 94.5776 453.877C90.2478 449.549 87.812 443.681 87.8044 437.56V224.853C87.812 218.732 90.2478 212.865 94.5777 208.537C98.9076 204.209 104.778 201.775 110.901 201.768H473.616C479.739 201.775 485.609 204.209 489.938 208.537C494.268 212.865 496.703 218.733 496.71 224.853V437.56C496.703 443.681 494.268 449.549 489.938 453.877C485.609 458.205 479.739 460.64 473.616 460.648ZM110.901 202.791C105.049 202.798 99.4392 205.124 95.3013 209.26C91.1634 213.396 88.8356 219.004 88.8285 224.853V437.56C88.835 443.41 91.1626 449.018 95.3006 453.154C99.4386 457.291 105.049 459.617 110.901 459.624H473.616C479.467 459.617 485.077 457.29 489.215 453.154C493.352 449.017 495.68 443.409 495.686 437.56V224.853C495.679 219.004 493.352 213.397 489.214 209.261C485.077 205.125 479.467 202.798 473.616 202.791H110.901Z" fill="#020202"/>
<g opacity="0.3">
<path opacity="0.3" d="M491.698 451.538C487.446 456.247 481.108 459.22 474.035 459.22H112.658C99.8217 459.22 89.4082 449.392 89.4082 437.295V223.291C89.4082 216.886 92.3229 211.122 96.9644 207.115C96.4494 208.724 96.1882 210.403 96.1901 212.093V435.084C96.1901 444.707 104.463 452.525 114.674 452.525H485.584C487.662 452.528 489.726 452.194 491.698 451.538Z" fill="#020202"/>
</g>
<g opacity="0.6">
<path opacity="0.6" d="M495.346 224.77V438.775C495.346 445.143 492.478 450.888 487.876 454.891C488.336 453.368 488.568 451.785 488.564 450.194V226.14C488.564 216.804 480.541 209.24 470.639 209.24H455.371C453.323 215.233 436.867 215.233 434.813 209.24H98.6071C96.9285 209.242 95.2574 209.463 93.6359 209.897C97.8902 205.559 103.974 202.846 110.717 202.846H472.094C484.94 202.846 495.346 212.674 495.346 224.77Z" fill="white"/>
</g>
<path d="M473.616 463.153H110.901C104.113 463.146 97.6044 460.447 92.8043 455.649C88.0042 450.851 85.3044 444.345 85.2973 437.559V224.853C85.3038 218.067 88.0034 211.561 92.8037 206.762C97.6039 201.964 104.113 199.265 110.901 199.259H473.616C480.404 199.265 486.913 201.963 491.714 206.762C496.514 211.56 499.213 218.066 499.219 224.853V437.559C499.213 444.345 496.513 450.851 491.713 455.65C486.913 460.448 480.404 463.147 473.616 463.153ZM110.901 205.293C105.713 205.299 100.74 207.361 97.0714 211.028C93.4031 214.695 91.3396 219.667 91.3336 224.853V437.559C91.3391 442.745 93.4024 447.717 97.0708 451.384C100.739 455.051 105.713 457.114 110.901 457.119H473.616C478.803 457.113 483.777 455.05 487.445 451.384C491.114 447.717 493.177 442.745 493.183 437.559V224.853C493.177 219.667 491.113 214.696 487.445 211.029C483.777 207.362 478.803 205.299 473.616 205.293H110.901Z" fill="#020202"/>
<path d="M469.38 238.132V424.293C469.38 430.295 464.216 435.174 457.842 435.174H126.673C125.393 435.174 124.121 434.974 122.904 434.58C118.381 433.108 115.135 429.052 115.135 424.293V238.132C115.135 232.129 120.299 227.252 126.673 227.252H457.842C464.216 227.246 469.38 232.123 469.38 238.132Z" fill="#C7C7C7"/>
<path opacity="0.3" d="M469.38 238.132V282.686L378.755 435.174H324.86L456.93 227.252H457.842C464.216 227.246 469.38 232.123 469.38 238.132Z" fill="url(#paint0_linear_802_185)"/>
<path opacity="0.3" d="M353.495 227.246L221.415 435.168H125.616C124.336 435.169 123.065 434.968 121.847 434.574L253.483 227.246H353.495Z" fill="url(#paint1_linear_802_185)"/>
<g opacity="0.3">
<path opacity="0.3" d="M477.577 235.559V410.415C477.577 416.308 474.3 421.472 469.384 424.412V238.133C469.384 232.129 464.22 227.252 457.846 227.252H126.673C126.343 227.249 126.014 227.264 125.686 227.297C128.709 222.354 134.377 219.029 140.868 219.029H460.041C469.73 219.023 477.577 226.433 477.577 235.559Z" fill="#020202"/>
</g>
<path opacity="0.3" d="M220.002 227.246L115.135 398.8V295.424L166.115 227.246H220.002Z" fill="url(#paint2_linear_802_185)"/>
<g opacity="0.3">
<path opacity="0.3" d="M469.38 238.132V424.293C469.38 430.094 464.556 434.844 458.481 435.155V243.046C458.481 239.283 455.244 236.232 451.262 236.232H115.319C116.268 231.134 120.987 227.252 126.673 227.252H457.842C464.216 227.246 469.38 232.123 469.38 238.132Z" fill="#020202"/>
</g>
<path d="M458.182 438.174H126.357C122.587 438.17 118.972 436.671 116.306 434.006C113.639 431.341 112.14 427.727 112.136 423.958V238.454C112.14 234.685 113.639 231.071 116.306 228.406C118.972 225.74 122.587 224.241 126.357 224.236H458.182C461.953 224.241 465.568 225.74 468.234 228.405C470.901 231.071 472.401 234.685 472.405 238.454V423.958C472.401 427.727 470.901 431.341 468.234 434.006C465.568 436.671 461.953 438.17 458.182 438.174ZM126.357 230.26C124.184 230.26 122.101 231.123 120.564 232.659C119.027 234.195 118.164 236.278 118.164 238.45V423.954C118.164 426.126 119.027 428.209 120.564 429.745C122.101 431.281 124.184 432.144 126.357 432.144H458.182C460.355 432.144 462.439 431.281 463.975 429.745C465.512 428.209 466.375 426.126 466.375 423.954V238.45C466.375 236.278 465.512 234.195 463.975 232.659C462.439 231.123 460.355 230.26 458.182 230.26H126.357Z" fill="#020202"/>
<g opacity="0.55">
<path opacity="0.55" d="M123.062 412.095V426.335C118.447 435.401 115.501 448.411 120.809 457.779H117.714C103.431 444.931 115.211 418.166 123.062 412.095Z" fill="white"/>
</g>
<g opacity="0.55">
<path opacity="0.55" d="M256.504 296.668L276.758 280.6C252.232 317.706 232.758 354.105 224.117 389.011C216.683 388.284 208.994 391.421 203.224 397.309C174.124 376.292 143.952 401.58 130.028 437.618V418.026C145.644 390.436 171.338 374.484 196.262 392.481C202.036 386.593 209.725 383.456 217.154 384.183C224.17 355.864 238.317 326.55 256.504 296.668Z" fill="white"/>
</g>
<g opacity="0.55">
<path opacity="0.55" d="M334.434 214.531C303.449 229.22 275.74 255.344 254.02 288.286L235.175 303.243C258.225 261.017 290.516 227.227 327.478 209.701C327.478 209.701 338.221 205.301 344.208 213.796C339.233 212.561 334.434 214.531 334.434 214.531Z" fill="white"/>
</g>
<g opacity="0.55">
<path opacity="0.55" d="M130.024 418.026V416.923C127.795 418.647 125.237 422.052 123.06 426.341L130.024 418.026Z" fill="white"/>
<path opacity="0.55" d="M120.577 430.097L122.605 426.102C124.778 421.825 127.367 418.332 129.711 416.52L130.53 415.881V418.213L120.577 430.097ZM128.424 419.138C128.075 419.527 127.723 419.947 127.369 420.398L128.424 419.138Z" fill="#020202"/>
</g>
<path d="M198.892 393.947C197.375 395.79 195.897 397.688 194.457 399.642C192.997 401.581 191.629 403.606 190.033 405.54C189.965 405.622 189.871 405.677 189.767 405.696C189.663 405.715 189.555 405.698 189.463 405.646C189.371 405.594 189.299 405.511 189.262 405.412C189.224 405.313 189.222 405.204 189.257 405.104V405.084C190.045 402.832 190.637 400.454 191.348 398.102C192.059 395.749 192.782 393.37 193.615 391.009V390.989C193.922 390.274 194.489 389.703 195.202 389.39C195.914 389.077 196.718 389.045 197.453 389.302C198.187 389.559 198.797 390.085 199.158 390.773C199.52 391.462 199.607 392.262 199.402 393.012C199.287 393.351 199.115 393.667 198.892 393.947Z" fill="#020202"/>
<path d="M231.64 394.611C229.237 392.872 226.597 391.451 223.947 390.157C221.316 388.884 218.602 387.789 215.823 386.881C215.438 386.761 215.08 386.566 214.771 386.306C214.463 386.047 214.208 385.729 214.023 385.37C213.838 385.012 213.726 384.62 213.694 384.218C213.661 383.816 213.709 383.412 213.834 383.028C213.959 382.645 214.159 382.29 214.423 381.985C214.686 381.679 215.008 381.429 215.369 381.248C215.729 381.068 216.122 380.961 216.525 380.934C216.928 380.906 217.332 380.959 217.714 381.089C217.985 381.176 218.242 381.302 218.478 381.462L218.504 381.48C221.09 383.248 223.554 385.189 225.878 387.289C228.168 389.373 230.366 391.533 232.265 393.976C232.329 394.061 232.361 394.167 232.355 394.274C232.349 394.38 232.305 394.481 232.231 394.559C232.157 394.636 232.058 394.684 231.952 394.695C231.845 394.707 231.738 394.679 231.65 394.619L231.64 394.611Z" fill="#020202"/>
<path d="M432.553 460.85H117.707C116.951 460.848 116.222 460.567 115.659 460.061C110.311 455.248 107.648 448.253 107.964 439.834C108.42 427.549 115.172 414.318 121.19 409.664C121.644 409.313 122.188 409.095 122.76 409.037C123.331 408.979 123.908 409.083 124.424 409.336C124.94 409.589 125.374 409.982 125.678 410.469C125.982 410.957 126.143 411.52 126.142 412.094V418.681C135.884 400.459 149.397 387.613 163.794 383.346C174.669 380.119 185.744 381.922 195.952 388.55C201.464 383.718 208.121 381.056 214.797 381.007C221.863 353.892 235.485 324.496 257.197 289.689L237.072 305.659C236.517 306.099 235.827 306.334 235.118 306.323C234.41 306.313 233.727 306.058 233.185 305.602C232.643 305.146 232.275 304.517 232.144 303.821C232.013 303.125 232.127 302.405 232.465 301.783C256.424 257.901 289.689 224.209 326.154 206.926L326.306 206.861C326.675 206.709 335.407 203.218 342.645 208.03C348.233 211.744 351.109 219.121 351.195 229.955C351.199 230.44 351.088 230.919 350.871 231.353C329.006 275.051 322.433 347.324 337.353 374.951C342.307 373.675 347.172 374.013 350.998 375.948C353.232 377.066 355.11 378.783 356.422 380.907C362.733 377.426 370.504 376.951 377.52 379.799C383.519 382.234 387.966 386.605 390.063 391.935C405.577 382.135 424.508 380.633 439.407 388.298C451.762 394.656 459.413 406.593 461.053 421.673L467.813 414.302C468.227 413.85 468.767 413.532 469.363 413.389C469.96 413.246 470.585 413.285 471.159 413.5C471.733 413.716 472.23 414.099 472.585 414.599C472.94 415.099 473.137 415.693 473.151 416.306C473.97 451.501 450.589 458.569 432.936 460.825C432.809 460.841 432.681 460.849 432.553 460.85ZM118.945 454.707H432.355C454.136 451.88 464.787 442.723 466.711 424.609L460.566 431.308C460.143 431.765 459.591 432.082 458.984 432.218C458.376 432.354 457.742 432.302 457.164 432.07C456.587 431.837 456.094 431.435 455.75 430.916C455.407 430.397 455.229 429.787 455.24 429.165C455.603 412.709 448.985 400.137 436.601 393.767C422.785 386.658 404.074 388.927 390.045 399.412C389.615 399.734 389.108 399.938 388.574 400.003C388.04 400.067 387.499 399.991 387.004 399.781C386.51 399.572 386.078 399.236 385.754 398.807C385.43 398.379 385.223 397.873 385.156 397.34C384.504 392.187 380.787 387.76 375.213 385.497C369.001 382.977 362.028 383.888 357.024 387.877C356.63 388.191 356.164 388.403 355.668 388.495C355.172 388.586 354.661 388.555 354.18 388.402C353.699 388.249 353.263 387.981 352.911 387.62C352.559 387.259 352.301 386.817 352.16 386.333C351.502 384.081 350.179 382.426 348.227 381.437C345.324 379.967 341.123 379.99 336.992 381.499C336.333 381.739 335.611 381.746 334.947 381.52C334.283 381.294 333.717 380.847 333.342 380.254C324.704 366.603 321.376 340.884 324.209 309.697C326.871 280.352 334.655 250.368 345.044 229.287C344.872 221.159 342.883 215.596 339.278 213.173C335.026 210.319 329.344 212.293 328.69 212.533C297.403 227.399 268.485 254.846 246.08 290.676L267.889 273.374C268.461 272.922 269.176 272.688 269.905 272.715C270.634 272.741 271.33 273.026 271.869 273.519C272.407 274.011 272.752 274.679 272.842 275.403C272.933 276.127 272.763 276.859 272.362 277.469C244.415 319.752 227.826 353.898 220.151 384.926C219.974 385.642 219.546 386.27 218.944 386.695C218.342 387.121 217.608 387.317 216.874 387.246C210.489 386.615 203.619 389.384 198.47 394.638C197.945 395.149 197.259 395.463 196.529 395.524C195.799 395.586 195.07 395.392 194.467 394.975C185.142 388.243 175.418 386.312 165.541 389.242C149.974 393.857 134.796 410.97 125.938 433.904C125.68 434.574 125.196 435.133 124.569 435.483C123.943 435.833 123.213 435.953 122.507 435.821C121.802 435.69 121.164 435.316 120.706 434.764C120.247 434.212 119.997 433.516 119.997 432.799V420.753C117.011 425.862 114.367 433.038 114.105 440.07C113.863 446.228 115.501 451.149 118.945 454.707Z" fill="#020202"/>
<path d="M390.004 399.361C388.859 399.957 387.663 400.684 386.508 401.435C385.353 402.187 384.208 402.987 383.097 403.829C380.844 405.5 378.777 407.406 376.93 409.517C376.86 409.6 376.763 409.655 376.656 409.673C376.548 409.69 376.439 409.668 376.346 409.61C376.254 409.553 376.186 409.464 376.154 409.361C376.122 409.257 376.128 409.145 376.172 409.046C377.331 406.36 378.89 403.823 380.611 401.419C381.476 400.218 382.387 399.044 383.341 397.899C384.302 396.748 385.279 395.647 386.403 394.523L386.446 394.48C386.727 394.182 387.065 393.945 387.44 393.78C387.815 393.616 388.219 393.529 388.628 393.524C389.038 393.519 389.444 393.596 389.823 393.751C390.201 393.906 390.545 394.135 390.834 394.425C391.122 394.716 391.349 395.061 391.501 395.441C391.653 395.82 391.728 396.227 391.72 396.636C391.712 397.045 391.622 397.448 391.455 397.822C391.288 398.195 391.047 398.532 390.748 398.81C390.528 399.029 390.278 399.215 390.004 399.361Z" fill="#020202"/>
<path d="M345.833 397.535C345.983 396.24 346.321 394.973 346.834 393.774C347.329 392.58 347.897 391.417 348.534 390.293C349.168 389.171 349.851 388.079 350.583 387.017C351.336 385.893 352.169 384.823 353.073 383.817L351.93 386.18V386.167C351.93 385.368 352.248 384.601 352.813 384.036C353.379 383.471 354.146 383.153 354.945 383.153C355.745 383.153 356.512 383.471 357.077 384.036C357.643 384.601 357.96 385.368 357.96 386.167V386.7C357.962 387.083 357.855 387.459 357.653 387.785C357.451 388.11 357.161 388.373 356.817 388.542C355.836 389.063 354.894 389.654 353.999 390.311C353.047 390.989 352.119 391.714 351.226 392.478C350.331 393.236 349.485 394.05 348.692 394.914C347.893 395.759 347.221 396.717 346.699 397.756V397.775C346.653 397.87 346.575 397.946 346.478 397.989C346.382 398.033 346.273 398.042 346.171 398.013C346.069 397.985 345.98 397.922 345.92 397.835C345.859 397.748 345.831 397.642 345.841 397.537L345.833 397.535Z" fill="#020202"/>
<path d="M337.285 381.3C335.282 381.851 333.448 382.598 331.935 384.007C330.421 385.415 329.166 387.524 327.693 389.443C327.628 389.527 327.535 389.585 327.432 389.608C327.328 389.631 327.22 389.617 327.125 389.568C327.031 389.519 326.956 389.439 326.915 389.342C326.874 389.244 326.868 389.135 326.898 389.033C327.24 387.907 327.513 386.769 327.818 385.595C328.13 384.354 328.567 383.147 329.12 381.992C329.738 380.754 330.535 379.613 331.484 378.605C332.43 377.613 333.467 376.711 334.581 375.911L334.649 375.86C335.306 375.377 336.128 375.175 336.934 375.298C337.74 375.421 338.464 375.859 338.947 376.516C339.43 377.173 339.632 377.994 339.509 378.8C339.386 379.606 338.948 380.33 338.291 380.813C337.988 381.034 337.647 381.199 337.285 381.3Z" fill="#020202"/>
<path d="M355.105 389.082C354.631 389.083 354.162 388.99 353.724 388.809C353.286 388.628 352.888 388.363 352.553 388.028C352.217 387.694 351.951 387.296 351.77 386.859C351.588 386.421 351.494 385.952 351.494 385.479C351.495 384.765 351.707 384.067 352.105 383.474C352.502 382.881 353.066 382.419 353.726 382.147C354.386 381.874 355.112 381.803 355.812 381.943C356.512 382.083 357.156 382.427 357.66 382.932C358.165 383.437 358.508 384.08 358.647 384.78C358.786 385.48 358.715 386.206 358.441 386.865C358.168 387.525 357.705 388.088 357.111 388.485C356.517 388.881 355.819 389.093 355.105 389.093V389.082Z" fill="#020202"/>
<g opacity="0.2">
<path opacity="0.2" d="M177.256 406.878C174.771 404.554 165.726 406.898 159.077 414.007C152.428 421.116 150.679 430.291 153.174 432.615C155.669 434.939 161.459 429.558 168.108 422.451C174.757 415.344 179.74 409.2 177.256 406.878Z" fill="white"/>
</g>
<path d="M584.101 502.722C571.95 504.31 559.798 504.691 547.641 504.888C541.566 504.994 535.491 505.017 529.411 504.988C523.336 504.988 517.259 504.923 511.181 504.871C499.028 504.777 486.875 504.743 474.722 504.769H73.7551H55.5253L46.4124 504.843L37.2995 504.97C31.2243 505.031 25.149 504.945 19.0697 504.665C12.9903 504.384 6.91918 503.87 0.83983 502.715C0.601477 502.67 0.386423 502.543 0.231741 502.356C0.0770595 502.169 -0.00756836 501.934 -0.00756836 501.692C-0.00756836 501.449 0.0770595 501.214 0.231741 501.027C0.386423 500.84 0.601477 500.713 0.83983 500.668C6.91508 499.513 12.9903 499.03 19.0697 498.719C25.149 498.408 31.2222 498.352 37.2995 498.414L46.4124 498.541L55.5253 498.614H73.7551H474.74C486.893 498.629 499.047 498.595 511.2 498.512C517.275 498.461 523.352 498.387 529.43 498.395C535.505 498.367 541.58 498.395 547.66 498.496C559.81 498.7 571.963 499.071 584.119 500.662C584.391 500.662 584.651 500.77 584.843 500.962C585.035 501.154 585.143 501.414 585.143 501.686C585.143 501.957 585.035 502.218 584.843 502.409C584.651 502.601 584.391 502.709 584.119 502.709L584.101 502.722Z" fill="#020202"/>
<path d="M343.987 133.935C344.207 134.488 344.312 135.081 344.295 135.676C344.278 136.271 344.139 136.856 343.887 137.396L322.349 183.733C322.071 184.326 321.663 184.85 321.156 185.265C320.649 185.681 320.056 185.978 319.42 186.135C318.783 186.292 318.119 186.305 317.477 186.173C316.835 186.04 316.231 185.766 315.708 185.371C301.702 174.957 280.389 173.905 263.696 175.168C259.786 175.457 256.117 175.876 252.879 176.331C248.577 176.931 246.142 171.605 249.37 168.714C298.673 124.595 330.073 127.942 341.244 131.386C341.865 131.576 342.434 131.904 342.909 132.345C343.384 132.787 343.753 133.33 343.987 133.935Z" fill="#ED1B24"/>
<g opacity="0.6">
<path opacity="0.6" d="M343.172 132.774C298.048 132.393 263.444 164.635 260.421 167.714C257.508 170.677 260.548 172.876 262.879 173.998C258.97 174.287 255.3 174.706 252.061 175.161C247.76 175.761 245.325 170.435 248.553 167.544C297.855 123.425 329.256 126.772 340.429 130.216C341.05 130.407 341.62 130.736 342.095 131.179C342.57 131.622 342.938 132.167 343.172 132.774Z" fill="white"/>
</g>
<path d="M320.819 194.3L317.711 191.153C301.911 175.162 270.312 176.942 252.883 179.425C251.33 179.645 249.748 179.36 248.369 178.613C246.99 177.866 245.888 176.697 245.224 175.276C244.561 173.856 244.371 172.26 244.683 170.724C244.995 169.188 245.792 167.792 246.957 166.743C310.839 109.376 345.951 129.738 347.416 130.633L349.753 132.066L320.819 194.3ZM274.353 171.688C289.764 171.688 306.982 174.349 318.865 183.93L341.711 134.79C338.229 133.524 331.14 131.778 320.718 133.084C306.36 134.886 282.62 142.98 251.064 171.317C250.879 171.486 250.753 171.71 250.705 171.955C250.656 172.201 250.687 172.456 250.794 172.682C250.9 172.909 251.076 173.096 251.296 173.216C251.516 173.335 251.768 173.382 252.016 173.348C259.414 172.276 266.878 171.721 274.353 171.688Z" fill="#020202"/>
<path d="M424.125 210.047C426.062 215.35 428.221 225.373 425.262 240.129C422.081 255.895 413.037 277.089 391.583 303.692C388.863 307.064 383.413 304.902 383.8 300.582C384.824 288.798 385.127 271.779 380.82 256.882C378.829 250 375.852 243.573 371.514 238.331C371.092 237.831 370.787 237.242 370.621 236.608C370.455 235.975 370.433 235.312 370.556 234.669C370.679 234.025 370.944 233.418 371.332 232.89C371.72 232.362 372.221 231.927 372.798 231.618L417.974 207.717C418.523 207.424 419.129 207.253 419.751 207.213C420.373 207.173 420.995 207.267 421.578 207.488C422.16 207.708 422.689 208.051 423.128 208.492C423.567 208.934 423.907 209.464 424.125 210.047Z" fill="#ED1B24"/>
<g opacity="0.35">
<path opacity="0.35" d="M424.125 210.047C426.062 215.35 425.397 215.371 426.134 229.531C418.058 238.708 397.904 251.206 380.815 256.882C378.824 250 375.848 243.573 371.51 238.331C371.088 237.831 370.782 237.242 370.617 236.608C370.451 235.975 370.429 235.312 370.552 234.669C370.675 234.025 370.94 233.417 371.328 232.89C371.716 232.362 372.217 231.927 372.794 231.618L417.969 207.717C418.519 207.424 419.126 207.251 419.748 207.211C420.37 207.171 420.993 207.265 421.576 207.485C422.159 207.706 422.688 208.049 423.128 208.491C423.567 208.932 423.907 209.463 424.125 210.047Z" fill="#020202"/>
</g>
<path d="M388.011 308.709C387.061 308.709 386.12 308.524 385.24 308.167C383.781 307.585 382.551 306.546 381.731 305.207C380.912 303.868 380.548 302.299 380.695 300.736C382.274 283.208 382.413 251.572 365.621 236.627L362.321 233.687L423.002 201.582L424.551 203.834C425.522 205.249 447.684 239.256 393.675 305.988C392.995 306.837 392.133 307.522 391.153 307.993C390.172 308.464 389.099 308.709 388.011 308.709ZM372.778 235.102C388.505 252.63 388.4 283.687 386.815 301.287C386.795 301.536 386.855 301.786 386.986 301.999C387.117 302.211 387.312 302.377 387.544 302.472C387.776 302.566 388.031 302.584 388.274 302.524C388.517 302.463 388.734 302.327 388.894 302.135C415.571 269.17 422.429 245.046 423.484 230.62C424.25 220.151 422.14 213.171 420.694 209.752L372.778 235.102Z" fill="#020202"/>
<path d="M317.165 242.841C324.399 249.455 335.239 251.32 348.436 249.072C349.806 248.83 351.212 248.554 352.637 248.233C355.172 247.659 357.779 246.945 360.46 246.089C366.908 244.041 373.753 241.224 380.877 237.68C386.014 235.12 391.284 232.186 396.686 228.875C401.532 225.913 406.472 222.657 411.46 219.133C416.074 215.867 420.729 212.373 425.423 208.65C440.376 196.787 455.564 182.661 470.195 166.676C494.099 140.55 510.434 111.14 520.778 84.7395C536.165 45.495 538.319 12.8824 532.453 7.52202C526.392 1.99376 494.828 6.89753 457.752 25.2493C457.309 25.4663 456.867 25.6834 456.424 25.9086C433.332 37.4974 408.203 54.2665 385.83 76.9528C383.667 79.1464 381.53 81.3945 379.421 83.6973C365.597 98.8058 353.475 114.267 343.33 129.371C342.74 130.255 342.156 131.134 341.578 132.016C341.193 132.59 340.82 133.161 340.454 133.728C337.586 138.147 334.895 142.521 332.382 146.85C329.309 152.131 326.511 157.34 323.984 162.434C321.175 168.096 318.721 173.603 316.624 178.955C314.682 183.91 313.056 188.712 311.759 193.323C311.145 195.528 310.586 197.686 310.121 199.803C309.179 203.909 308.526 208.077 308.169 212.274C307.106 225.61 309.926 236.238 317.165 242.841Z" fill="white"/>
<g opacity="0.35">
<path opacity="0.35" d="M360.152 245.285C360.259 245.557 360.357 245.826 360.462 246.104C357.78 246.957 355.171 247.671 352.637 248.246C351.295 248.549 349.974 248.815 348.68 249.042L349.411 247.908L349.39 247.888C353.029 247.246 356.623 246.376 360.152 245.285Z" fill="black"/>
<path opacity="0.35" d="M347.94 249.523L348.964 247.949L348.682 247.668L349.337 247.531C352.96 246.892 356.54 246.028 360.056 244.945L360.369 244.849L360.488 245.154C360.597 245.43 360.693 245.7 360.802 245.973L360.928 246.321L360.576 246.431C357.913 247.281 355.267 248.006 352.721 248.581C351.344 248.89 350.007 249.161 348.747 249.38L347.94 249.523ZM349.642 248.196L349.421 248.538C350.429 248.35 351.482 248.129 352.559 247.891C354.972 247.345 357.475 246.663 360.001 245.87L359.941 245.719C356.56 246.748 353.121 247.575 349.642 248.196Z" fill="#020202"/>
</g>
<g opacity="0.35">
<path opacity="0.35" d="M521.548 83.3657C511.235 109.779 494.92 139.195 471.055 165.352C456.441 181.363 441.271 195.507 426.329 207.385C421.653 211.111 417.004 214.61 412.382 217.88C407.396 221.414 402.473 224.669 397.614 227.645C392.231 230.948 386.966 233.883 381.819 236.449C374.226 240.239 366.963 243.206 360.152 245.278C356.623 246.367 353.028 247.233 349.39 247.872L349.411 247.893L348.68 249.027C339.258 250.665 331.011 250.217 324.424 247.438C321.758 246.336 319.304 244.78 317.171 242.84C309.934 236.23 307.112 225.604 308.179 212.264C308.534 208.068 309.185 203.902 310.129 199.797C319.242 202.356 329.932 208.509 339.811 217.504C341.266 218.831 342.663 220.179 344.001 221.55C347.858 225.501 353.805 226.593 358.749 224.111C402.788 201.967 435.945 174.285 460.847 146.159C462.485 144.316 460.72 141.472 458.331 142.098C452.31 143.689 445.986 143.744 439.938 142.258C433.89 140.772 428.312 137.792 423.715 133.593C408.51 119.733 407.433 96.1688 421.302 80.9722C426.336 75.4568 432.913 71.5812 440.178 69.8481C447.443 68.1151 455.062 68.6046 462.045 71.2532C469.028 73.9018 475.054 78.5873 479.341 84.7016C483.627 90.8158 485.976 98.0768 486.084 105.542C486.123 107.987 489.361 108.876 490.678 106.82C497.765 95.8481 504.191 84.4628 509.92 72.7249C528.559 34.5123 533.145 6.10938 533.145 6.10938C539.005 11.4861 536.888 44.0967 521.548 83.3657Z" fill="#020202"/>
</g>
<path d="M534.393 7.61698C534.458 7.77463 534.516 7.94458 534.577 8.11862C534.69 8.44417 534.796 8.7902 534.893 9.16285C534.946 9.35736 534.991 9.54983 535.042 9.75253C535.406 11.3863 535.637 13.0468 535.732 14.7177C535.755 14.99 535.775 15.2644 535.786 15.5367C535.894 17.5003 535.898 19.6932 535.786 22.101C535.771 22.4409 535.753 22.7931 535.732 23.1452C535.691 23.9499 535.634 24.7832 535.566 25.6268C535.54 25.9974 535.503 26.3762 535.468 26.7591C535.265 29.0932 534.968 31.5748 534.579 34.2038C534.524 34.5867 534.464 34.9737 534.403 35.3688C534.033 37.7958 533.58 40.3258 533.045 42.9589C532.953 43.4258 532.859 43.9008 532.756 44.3737C532.21 46.9877 531.586 49.6925 530.884 52.488C530.757 52.9999 530.625 53.5145 530.489 54.0318C528.885 60.2357 526.896 66.8246 524.487 73.6776C524.282 74.253 524.077 74.8242 523.873 75.3975C523.463 76.5502 523.039 77.703 522.603 78.8782C522.386 79.4577 522.164 80.0412 521.941 80.6248C521.88 80.7968 521.808 80.9667 521.747 81.1387C518.918 77.0109 515.315 72.6334 511.653 68.5199C508.308 64.7648 504.912 61.2329 502.026 58.3254C493.505 46.2437 482.151 36.4344 468.958 29.7566L465.166 27.8402L456.859 23.6305C492.259 5.81723 522.892 0.215266 531.501 4.27546C531.799 4.413 532.085 4.5746 532.357 4.75867C532.535 4.8785 532.705 5.01126 532.865 5.15589C533.451 5.69643 533.969 6.52566 534.393 7.61698Z" fill="#ED1B24"/>
<g opacity="0.6">
<path opacity="0.6" d="M530.097 4.5415C523.707 6.15493 505.843 10.8642 489.654 17.0988C479.189 21.1242 470.072 25.1701 463.763 28.1062L455.453 23.8965C490.856 6.07917 521.486 0.4813 530.097 4.5415Z" fill="white"/>
</g>
<g opacity="0.35">
<path opacity="0.35" d="M534.393 7.61729C534.458 7.77495 534.516 7.94489 534.577 8.11893C534.69 8.44448 534.796 8.79052 534.892 9.16316C534.946 9.35768 534.991 9.55014 535.042 9.75284C535.406 11.3866 535.637 13.0471 535.732 14.718C535.755 14.9904 535.775 15.2647 535.786 15.537C535.894 17.5006 535.898 19.6935 535.786 22.1013C535.771 22.4412 535.753 22.7934 535.732 23.1456C535.691 23.9502 535.634 24.7836 535.566 25.6271C535.54 25.9977 535.503 26.3765 535.468 26.7594C535.265 29.0936 534.968 31.5751 534.579 34.2041C534.524 34.587 534.464 34.974 534.403 35.3692C534.033 37.7961 533.58 40.3262 533.045 42.9592C532.953 43.4261 532.859 43.9011 532.756 44.3741C532.21 46.988 531.586 49.6928 530.884 52.4883C530.757 53.0002 530.625 53.5148 530.489 54.0321C528.885 60.2361 526.896 66.8249 524.487 73.6779C524.282 74.2533 524.077 74.8245 523.873 75.3978C523.463 76.5506 523.039 77.7033 522.603 78.8786C522.386 79.458 522.164 80.0416 521.941 80.6251C521.88 80.7971 521.814 80.9629 521.736 81.1349C518.908 77.0072 515.305 72.6296 511.642 68.5162C518.639 52.7504 533.049 18.3953 532.33 4.75488C532.509 4.87471 532.679 5.00747 532.838 5.1521C533.45 5.69673 533.969 6.52597 534.393 7.61729Z" fill="#020202"/>
</g>
<path d="M338.87 250.909C329.29 250.909 321.546 248.247 315.759 242.981C307.943 235.849 304.574 224.719 305.745 209.899C306.538 199.844 309.432 188.337 314.362 175.706C316.487 170.276 318.992 164.635 321.806 158.931C324.36 153.763 327.211 148.458 330.28 143.165C333.184 138.159 336.304 133.114 339.55 128.171C350.429 111.599 363.243 95.2064 377.649 79.4263C404.711 49.7784 434.909 31.228 455.484 20.8861C490.131 3.44959 526.521 -4.79365 534.942 2.88653C543.217 10.4336 538.272 47.3521 524.147 83.5049C515.749 105.018 500.059 136.871 473.062 166.445C458.669 182.211 443.501 196.47 427.981 208.816C423.348 212.502 418.608 216.068 413.895 219.412C408.883 222.962 403.859 226.283 398.957 229.287C393.539 232.608 388.148 235.618 382.931 238.228C370.789 244.289 359.591 248.226 349.646 249.934C346.089 250.564 342.483 250.89 338.87 250.909ZM523.807 5.99669C512.171 5.99669 487.972 11.398 458.231 26.3673C438.125 36.4758 408.613 54.6044 382.19 83.5602C368.011 99.0925 355.398 115.233 344.706 131.535C341.517 136.386 338.459 141.332 335.611 146.238C332.613 151.416 329.827 156.601 327.332 161.648C324.596 167.192 322.162 172.672 320.104 177.936C315.393 190.016 312.632 200.925 311.888 210.382C310.864 223.216 313.574 232.655 319.917 238.433C326.261 244.211 335.898 246.056 348.598 243.865C357.952 242.26 368.575 238.511 380.176 232.721C385.233 230.19 390.471 227.266 395.743 224.037C400.528 221.103 405.44 217.858 410.337 214.387C414.958 211.111 419.606 207.614 424.151 203.996C439.419 191.853 454.345 177.821 468.521 162.291C494.881 133.421 510.206 102.285 518.42 81.2567C534.602 39.8439 534.429 10.7223 530.798 7.40947C529.792 6.51062 527.396 5.99669 523.807 5.99669Z" fill="#020202"/>
<path d="M470.336 125.065C467.346 128.347 463.738 131.008 459.718 132.894C455.698 134.781 451.345 135.856 446.909 136.059C442.473 136.261 438.04 135.587 433.865 134.076C429.689 132.564 425.853 130.244 422.576 127.248C421.324 126.109 420.16 124.877 419.094 123.562C414.002 117.278 411.333 109.378 411.572 101.294C411.811 93.2111 414.941 85.4813 420.395 79.5084C421.137 78.6885 421.923 77.9087 422.748 77.1722C429.199 71.3652 437.636 68.2609 446.314 68.5024C454.991 68.7438 463.243 72.3124 469.361 78.469C475.478 84.6257 478.992 92.8985 479.175 101.574C479.358 110.25 476.195 118.663 470.342 125.071L470.336 125.065Z" fill="#EBEBEB"/>
<path d="M445.382 136.607C440.267 136.598 435.218 135.452 430.601 133.251C425.984 131.05 421.915 127.85 418.689 123.882C408.082 110.827 408.652 91.6011 420.01 79.1604C420.765 78.3277 421.562 77.5349 422.4 76.7854C432.795 67.4037 448.209 65.3194 460.728 71.6011C465.471 73.9751 469.6 77.4159 472.789 81.6533C475.979 85.8907 478.142 90.8094 479.11 96.0232C480.078 101.237 479.823 106.604 478.367 111.703C476.91 116.802 474.291 121.494 470.715 125.411C467.505 128.937 463.593 131.754 459.231 133.682C454.869 135.61 450.152 136.606 445.382 136.607ZM445.433 69.0253C437.186 69.0072 429.225 72.0422 423.084 77.545C422.272 78.271 421.499 79.0392 420.768 79.8464C409.746 91.9266 409.193 110.571 419.485 123.235C423.339 127.972 428.412 131.568 434.159 133.636C440.341 135.85 447.039 136.185 453.411 134.598C459.782 133.011 465.54 129.574 469.96 124.719C474.318 119.962 477.197 114.041 478.247 107.676C479.297 101.312 478.472 94.7792 475.872 88.8754C473.272 82.9717 469.009 77.9516 463.605 74.4274C458.2 70.9031 451.886 69.0268 445.433 69.0274V69.0253Z" fill="#020202"/>
<path d="M470.336 125.065C467.346 128.347 463.738 131.008 459.718 132.894C455.698 134.781 451.345 135.856 446.909 136.059C442.473 136.261 438.04 135.587 433.865 134.076C429.689 132.564 425.853 130.244 422.576 127.248C421.324 126.109 420.16 124.877 419.094 123.562C414.002 117.278 411.333 109.378 411.572 101.294C411.811 93.2111 414.941 85.4813 420.395 79.5084C421.137 78.6885 421.923 77.9087 422.748 77.1722C429.199 71.3652 437.636 68.2609 446.314 68.5024C454.991 68.7438 463.243 72.3124 469.361 78.469C475.478 84.6257 478.992 92.8985 479.175 101.574C479.358 110.25 476.195 118.663 470.342 125.071L470.336 125.065Z" fill="#EBEBEB"/>
<g opacity="0.6">
<path opacity="0.6" d="M469.447 81.6112C463.248 75.9536 455.165 72.8044 446.771 72.7768C438.377 72.7491 430.273 75.845 424.037 81.4617C423.211 82.1984 422.425 82.979 421.683 83.8C417.999 87.8283 415.347 92.6901 413.956 97.9681C412.564 103.246 412.475 108.783 413.695 114.103C411.517 108.278 410.991 101.964 412.173 95.859C413.355 89.7536 416.2 84.0928 420.395 79.5002C421.137 78.6804 421.923 77.9005 422.748 77.164C427.126 73.2204 432.46 70.4897 438.22 69.2429C443.98 67.996 449.966 68.2765 455.584 70.0563C461.202 71.8361 466.256 75.0535 470.246 79.3891C474.236 83.7248 477.022 89.028 478.329 94.7725C476.461 89.7401 473.416 85.2274 469.447 81.6112Z" fill="white"/>
</g>
<path d="M445.325 138.246C437.074 138.237 429.077 135.393 422.675 130.192C416.272 124.99 411.853 117.746 410.157 109.675C408.462 101.604 409.593 93.1952 413.362 85.8587C417.131 78.5221 423.308 72.7035 430.858 69.3781C438.409 66.0526 446.873 65.4224 454.832 67.5932C462.792 69.7639 469.763 74.6036 474.578 81.3011C479.392 87.9986 481.758 96.1468 481.277 104.38C480.796 112.613 477.499 120.431 471.938 126.524C468.762 130.023 464.924 132.858 460.645 134.864C456.367 136.871 451.732 138.01 447.01 138.215C446.447 138.233 445.892 138.246 445.325 138.246ZM445.398 70.6495C444.907 70.6495 444.413 70.6611 443.917 70.6843C438.718 70.9219 433.658 72.4375 429.185 75.0969C424.712 77.7563 420.964 81.4773 418.274 85.9305C415.583 90.3837 414.033 95.4315 413.76 100.627C413.487 105.822 414.5 111.004 416.709 115.715C418.919 120.425 422.256 124.518 426.426 127.631C430.596 130.744 435.47 132.781 440.615 133.561C445.761 134.342 451.019 133.841 455.925 132.105C460.831 130.368 465.233 127.449 468.741 123.606C472.874 119.077 475.602 113.444 476.592 107.394C477.583 101.344 476.793 95.1359 474.319 89.5258C471.846 83.9158 467.794 79.1451 462.659 75.7939C457.523 72.4427 451.523 70.6555 445.39 70.6495H445.398Z" fill="#020202"/>
<path d="M467.856 103.585C467.533 109.094 465.195 114.293 461.288 118.193C457.381 122.093 452.176 124.421 446.664 124.735C441.151 125.05 435.715 123.328 431.39 119.898C427.064 116.468 424.151 111.568 423.203 106.13C422.255 100.693 423.339 95.0972 426.25 90.4067C429.16 85.7163 433.693 82.2584 438.987 80.6907C444.281 79.1229 449.967 79.5546 454.963 81.9035C459.959 84.2525 463.918 88.355 466.086 93.431C467.453 96.6333 468.059 100.109 467.856 103.585Z" fill="#FA3669"/>
<path d="M445.378 125.316C444.931 125.316 444.485 125.304 444.032 125.277C437.992 124.926 432.332 122.212 428.277 117.724C424.222 113.236 422.096 107.332 422.359 101.29C422.622 95.2475 425.254 89.5514 429.684 85.4324C434.114 81.3134 439.988 79.1024 446.036 79.2772C452.084 79.452 457.82 81.9987 462.005 86.3667C466.19 90.7348 468.488 96.5734 468.401 102.621C468.315 108.668 465.851 114.439 461.543 118.686C457.235 122.932 451.428 125.314 445.378 125.316ZM445.335 80.2709C439.602 80.27 434.096 82.5039 429.985 86.4979C425.875 90.4919 423.484 95.9309 423.323 101.659C423.161 107.387 425.241 112.952 429.119 117.171C432.998 121.39 438.37 123.931 444.093 124.253C456.195 124.939 466.643 115.666 467.344 103.551L467.856 103.582L467.344 103.551C467.513 100.665 467.111 97.7741 466.162 95.0436C465.212 92.313 463.733 89.7964 461.809 87.6377C459.886 85.4791 457.555 83.7208 454.951 82.4634C452.347 81.2059 449.521 80.4741 446.633 80.3098C446.201 80.2872 445.767 80.2709 445.335 80.2709Z" fill="#020202"/>
<g opacity="0.3">
<path opacity="0.3" d="M454.79 121.835C458.087 119.957 460.832 116.9 462.549 112.977L451.267 82.0189C450.951 81.8837 450.621 81.7568 450.292 81.64C446.996 80.423 443.395 80.3024 440.026 81.2961L454.79 121.835Z" fill="white"/>
</g>
<g opacity="0.3">
<path opacity="0.3" d="M441.619 124.314C443.913 124.939 446.325 124.984 448.641 124.448L433.012 84.6318C430.962 85.8598 429.242 87.5681 428 89.6093L441.619 124.314Z" fill="white"/>
</g>
<g opacity="0.35">
<path opacity="0.35" d="M449.579 86.4133C446.036 86.2083 442.496 86.8425 439.245 88.2643C435.994 89.686 433.126 91.8551 430.872 94.5949C428.619 97.3348 427.045 100.568 426.278 104.031C425.511 107.494 425.573 111.089 426.46 114.523C424.68 111.784 423.518 108.691 423.054 105.458C422.589 102.225 422.834 98.9302 423.77 95.8012C424.707 92.6723 426.313 89.7843 428.477 87.3376C430.641 84.8909 433.312 82.944 436.304 81.6319C439.296 80.3198 442.538 79.6738 445.804 79.7388C449.071 79.8038 452.284 80.5782 455.222 82.0084C458.159 83.4385 460.75 85.4901 462.816 88.0209C464.881 90.5518 466.371 93.5013 467.182 96.6651C465.262 93.6919 462.667 91.2137 459.608 89.4323C456.549 87.6509 453.113 86.6165 449.579 86.4133Z" fill="#020202"/>
</g>
<path d="M445.38 126.969C444.9 126.969 444.421 126.955 443.946 126.926C439.068 126.646 434.382 124.925 430.482 121.982C426.582 119.04 423.642 115.007 422.036 110.394C420.429 105.781 420.227 100.795 421.455 96.0676C422.683 91.3399 425.286 87.0824 428.935 83.8338C432.584 80.5853 437.115 78.4915 441.955 77.8174C446.795 77.1432 451.726 77.9191 456.124 80.0467C460.523 82.1743 464.191 85.5582 466.666 89.7702C469.14 93.9822 470.309 98.8332 470.025 103.709C469.653 109.995 466.896 115.902 462.316 120.224C457.736 124.547 451.679 126.959 445.38 126.969ZM445.337 81.924C439.978 81.9269 434.836 84.0371 431.021 87.7988C427.206 91.5604 425.025 96.6714 424.949 102.027C424.872 107.383 426.907 112.554 430.614 116.423C434.32 120.291 439.401 122.547 444.757 122.702C450.113 122.857 455.316 120.899 459.24 117.251C463.164 113.604 465.495 108.559 465.729 103.208C465.963 97.8565 464.082 92.6279 460.491 88.6519C456.9 84.6759 451.889 82.2717 446.539 81.9589C446.138 81.9384 445.737 81.9275 445.337 81.9261V81.924Z" fill="#020202"/>
<g opacity="0.3">
<path opacity="0.3" d="M462.86 98.667C463.696 101.677 463.425 104.969 462.364 108.004C461.264 111.079 459.409 113.829 456.97 116.002C454.531 118.175 451.585 119.702 448.403 120.442C445.265 121.146 441.961 121.032 439.067 119.85C442.064 118.997 444.71 118.067 447.141 116.828C451.93 114.437 455.999 110.818 458.931 106.341C460.435 104.068 461.664 101.544 462.86 98.667Z" fill="#020202"/>
</g>
<path d="M330.235 257.246L299.174 230.094C295.42 226.818 295.934 220.471 300.254 216.785L306.499 211.462L347.752 247.523L343.297 254.419C340.214 259.173 333.989 260.528 330.235 257.246Z" fill="#FA3669"/>
<g opacity="0.5">
<path opacity="0.5" d="M301.077 217.936L307.32 212.612L348.573 248.675L348.397 248.949L310.346 215.688L304.103 221.021C300.416 224.173 299.51 229.256 301.661 232.721L299.998 231.265C296.235 227.973 296.749 221.623 301.077 217.936Z" fill="white"/>
</g>
<g opacity="0.35">
<path opacity="0.35" d="M347.752 247.504L343.297 254.398C340.224 259.171 333.989 260.54 330.239 257.248L318.988 247.42C322.322 247.885 326.062 246.222 328.234 242.856L332.693 235.96L305.563 212.236L306.497 211.441L347.752 247.504Z" fill="#020202"/>
</g>
<path d="M335.515 262.868C333.274 262.888 331.102 262.087 329.411 260.616L295.956 231.357C293.908 229.57 292.794 227.019 292.808 224.171C292.832 222.535 293.207 220.924 293.91 219.447C294.612 217.97 295.625 216.661 296.878 215.61L306.522 207.375L351.773 246.937L344.894 257.584C344.021 258.966 342.86 260.143 341.49 261.036C340.12 261.929 338.574 262.517 336.957 262.76C336.48 262.829 335.998 262.866 335.515 262.868ZM306.474 215.502L300.872 220.289C299.68 221.312 298.963 222.772 298.953 224.205C298.953 224.805 299.082 225.931 300 226.734L333.461 255.983C334.378 256.787 335.509 256.767 336.107 256.683C337.527 256.478 338.885 255.577 339.735 254.259L343.733 248.069L306.474 215.502Z" fill="#020202"/>
<path d="M422.883 208.931L407.134 189.334C393.153 171.929 376.531 156.82 357.872 144.555L339.559 132.516L341.812 129.095L360.124 141.134C379.141 153.631 396.082 169.03 410.331 186.769L426.081 206.365L422.883 208.931Z" fill="#020202"/>
<g opacity="0.35">
<path opacity="0.35" d="M470.336 125.065C467.846 128.42 464.671 131.207 461.021 133.243C457.372 135.278 453.331 136.516 449.167 136.872C445.004 137.229 440.811 136.697 436.869 135.311C432.926 133.926 429.323 131.719 426.298 128.837C426.13 128.683 425.966 128.53 425.804 128.374C433.104 130.931 441.06 130.91 448.346 128.313C455.632 125.716 461.807 120.7 465.841 114.103C469.875 107.506 471.525 99.7253 470.514 92.0593C469.504 84.3934 465.895 77.3055 460.289 71.9775C460.357 72.0042 460.431 72.0267 460.494 72.0553C465.166 74.3958 469.231 77.7863 472.372 81.9611C475.512 86.1358 477.642 90.9811 478.595 96.1168C479.547 101.253 479.296 106.539 477.862 111.562C476.427 116.584 473.848 121.206 470.326 125.065H470.336Z" fill="#020202"/>
</g>
<g opacity="0.3">
<path opacity="0.3" d="M260.048 174.234C260.048 174.234 274.193 166.863 289.58 167.115C300.782 167.3 311.345 162.025 318.293 153.241C322.984 147.304 329.479 140.002 338.401 131.436L341.578 132.017C341.578 132.017 316.001 167.942 314.635 184.503C314.635 184.503 289.197 168.448 260.048 174.234Z" fill="#020202"/>
</g>
<path d="M520.167 83.2333C488.302 34.4557 456.158 25.8275 455.838 25.7456L456.834 21.7734C458.204 22.1154 490.764 30.7354 523.598 80.9934L520.167 83.2333Z" fill="#020202"/>
</g>
<defs>
<linearGradient id="paint0_linear_802_185" x1="481.811" y1="226.752" x2="371.334" y2="404" gradientUnits="userSpaceOnUse">
<stop stop-color="white"/>
<stop offset="1" stop-color="white"/>
</linearGradient>
<linearGradient id="paint1_linear_802_185" x1="585300" y1="266326" x2="381339" y2="587128" gradientUnits="userSpaceOnUse">
<stop stop-color="white"/>
<stop offset="1" stop-color="white"/>
</linearGradient>
<linearGradient id="paint2_linear_802_185" x1="115919" y1="152850" x2="30711.7" y2="230243" gradientUnits="userSpaceOnUse">
<stop stop-color="white"/>
<stop offset="1" stop-color="white"/>
</linearGradient>
<clipPath id="clip0_802_185">
<rect width="585" height="505" fill="white"/>
</clipPath>
</defs>
</svg>
