<svg width="669" height="506" viewBox="0 0 669 506" fill="none" xmlns="http://www.w3.org/2000/svg">
<g clip-path="url(#clip0_105_1797)">
<mask id="mask0_105_1797" style="mask-type:luminance" maskUnits="userSpaceOnUse" x="0" y="0" width="669" height="506">
<path d="M669 0H0V506H669V0Z" fill="white"/>
</mask>
<g mask="url(#mask0_105_1797)">
<path d="M490.669 478.702C545.929 433.397 581.206 364.557 581.206 287.462C581.206 151.022 470.752 40.4155 334.504 40.4155C198.257 40.4155 87.8019 151.025 87.8019 287.462C87.8019 364.557 123.076 433.397 178.339 478.702C224.334 477.794 277.655 477.274 334.508 477.274C391.361 477.274 444.675 477.794 490.669 478.702Z" fill="#2E68DD"/>
<g opacity="0.3">
<path opacity="0.3" d="M0 489.187C0 482.607 149.761 477.274 334.5 477.274C519.238 477.274 669 482.607 669 489.187C669 492.989 618.955 496.375 541.042 498.557C524.224 502.821 459.038 506 381.176 506C315.99 506 259.67 503.77 233.208 500.542C97.9925 499.013 0 494.516 0 489.187Z" fill="black"/>
</g>
<g opacity="0.5">
<path opacity="0.5" d="M518.709 460.792C518.505 461.289 518.446 461.833 518.538 462.363C518.631 462.893 518.87 463.385 519.23 463.783C519.589 464.182 520.055 464.471 520.571 464.617C521.088 464.762 521.635 464.758 522.15 464.605C536.934 460.219 548.932 465.03 556.984 472.084C549.238 463.219 535.859 455.781 518.721 460.706C518.716 460.733 518.713 460.769 518.709 460.792Z" fill="white"/>
</g>
<path d="M43.4032 481.6C55.5331 479.786 67.6629 479.351 79.7907 479.127C91.9183 478.904 104.049 479.008 116.178 479.146L134.372 479.256H152.566H552.822H571.016L580.111 479.172L589.21 479.026C595.273 478.95 601.338 479.062 607.403 479.361C613.467 479.742 619.531 480.274 625.597 481.6C625.863 481.658 626.1 481.806 626.271 482.019C626.441 482.231 626.534 482.495 626.534 482.768C626.534 483.041 626.441 483.305 626.271 483.517C626.1 483.73 625.863 483.878 625.597 483.937C619.531 485.26 613.467 485.794 607.403 486.173C601.338 486.467 595.273 486.58 589.21 486.509L580.111 486.364L571.016 486.28H552.822H152.566H134.372L116.178 486.39C104.049 486.525 91.9208 486.658 79.7907 486.408C67.6609 486.159 55.5331 485.752 43.4032 483.937C43.1226 483.896 42.8659 483.756 42.6802 483.541C42.4946 483.327 42.3925 483.052 42.3925 482.768C42.3925 482.484 42.4946 482.21 42.6802 481.995C42.8659 481.781 43.1226 481.64 43.4032 481.6Z" fill="black"/>
<path d="M174.042 302.109C182.867 281.23 212.414 281.23 221.241 302.109L247.532 364.296L297.428 482.302H97.8574L147.753 364.296L174.042 302.109Z" fill="#797F89"/>
<path d="M297.424 485.617H97.8574C97.3096 485.617 96.77 485.482 96.2869 485.222C95.8037 484.962 95.3927 484.587 95.0897 484.13C94.7876 483.672 94.6025 483.146 94.5525 482.599C94.5018 482.053 94.5878 481.502 94.8015 480.997L170.985 300.801C175.597 289.894 185.811 283.116 197.641 283.116C209.472 283.116 219.686 289.894 224.299 300.801L300.48 480.997C300.695 481.502 300.781 482.053 300.731 482.6C300.681 483.146 300.496 483.673 300.193 484.131C299.891 484.588 299.479 484.963 298.995 485.223C298.512 485.482 297.973 485.617 297.424 485.617ZM102.871 478.968H292.417L218.177 303.394C214.621 294.987 206.751 289.764 197.633 289.764C188.515 289.764 180.645 294.987 177.091 303.394L102.871 478.968Z" fill="black"/>
<path d="M185.229 332.916L194.284 336.916C195.924 337.644 197.711 337.981 199.504 337.898C201.296 337.816 203.045 337.318 204.612 336.443L210.154 333.386C211.61 332.571 213.224 332.082 214.887 331.952C216.55 331.821 218.221 332.053 219.787 332.63L232.516 337.31L218.177 303.395C214.622 294.987 206.751 289.765 197.633 289.765C188.515 289.765 180.645 294.987 177.091 303.395L161.897 339.329L175.683 332.993C177.177 332.299 178.802 331.934 180.448 331.92C182.095 331.907 183.725 332.246 185.229 332.916Z" fill="#FFF2E9"/>
<g opacity="0.3">
<path opacity="0.3" d="M214.992 295.662C214.992 295.662 224.79 452.51 100.232 476.116L95.8054 482.899H292.773L214.992 295.662Z" fill="black"/>
</g>
<g opacity="0.5">
<path opacity="0.5" d="M232.685 337.69L220.613 333.257C218.729 332.567 216.718 332.291 214.718 332.447C212.717 332.603 210.774 333.187 209.019 334.16L203.478 337.218C202.23 337.916 200.836 338.313 199.408 338.38C197.98 338.445 196.556 338.178 195.249 337.599L186.195 333.6C184.384 332.801 182.423 332.396 180.443 332.412C178.464 332.427 176.51 332.863 174.711 333.69L172.386 334.76L185.642 303.4C188.628 296.339 194.662 291.54 201.918 290.178C200.511 289.912 199.082 289.777 197.649 289.775C188.533 289.775 180.66 294.997 177.107 303.404L160.458 342.782L159.05 346.119L152.9 360.663L138.326 395.139L102.87 478.968H111.404L146.915 394.988C151.089 393.014 155.081 388.6 157.453 382.724C159.7 377.162 159.99 371.531 158.63 367.276L166.611 348.397C168.554 343.8 172.142 340.095 176.671 338.01C177.861 337.463 179.154 337.175 180.464 337.165C181.774 337.154 183.071 337.423 184.27 337.952L193.324 341.949C195.297 342.825 197.448 343.229 199.604 343.131C201.76 343.034 203.865 342.434 205.751 341.382L211.294 338.324C212.452 337.672 213.738 337.279 215.062 337.175C216.387 337.071 217.718 337.256 218.964 337.72L235.204 343.693L232.685 337.69Z" fill="white"/>
</g>
<path d="M157.524 343.72C156.982 343.721 156.457 343.536 156.035 343.197C155.613 342.858 155.319 342.384 155.203 341.855C155.088 341.325 155.156 340.771 155.398 340.287C155.64 339.802 156.039 339.414 156.531 339.189L174.703 330.836C176.502 330.009 178.456 329.572 180.436 329.557C182.415 329.541 184.375 329.946 186.188 330.745L195.241 334.744C196.548 335.323 197.972 335.59 199.4 335.524C200.828 335.458 202.221 335.06 203.469 334.363L209.01 331.306C210.765 330.333 212.709 329.747 214.71 329.592C216.71 329.436 218.72 329.712 220.605 330.402L238.573 337.008C239.153 337.233 239.622 337.678 239.877 338.245C240.133 338.812 240.156 339.458 239.942 340.042C239.728 340.626 239.292 341.103 238.731 341.37C238.169 341.636 237.525 341.671 236.938 341.467L218.972 334.859C217.726 334.396 216.394 334.21 215.069 334.315C213.744 334.419 212.459 334.811 211.3 335.463L205.757 338.52C203.871 339.573 201.767 340.172 199.61 340.27C197.453 340.369 195.303 339.964 193.33 339.088L184.276 335.088C183.08 334.553 181.783 334.281 180.473 334.292C179.163 334.301 177.87 334.594 176.683 335.149L158.514 343.502C158.203 343.645 157.865 343.719 157.524 343.72Z" fill="black"/>
<path d="M517.546 458.073C519.122 454.707 514.702 422.933 483.879 421.508C477.781 421.48 471.775 423.005 466.427 425.941C461.309 421.365 454.463 418.284 446.813 417.529C444.015 404.145 430.682 394.003 414.642 394.003C409.019 393.982 403.466 395.275 398.428 397.781C396.819 398.586 394.94 398.651 393.212 398.117L392.902 398.025C391.319 397.579 389.947 396.584 389.029 395.218C383.396 386.528 372.773 380.668 360.583 380.668C347.747 380.668 336.64 387.163 331.285 396.616C326.004 393.78 320.101 392.309 314.109 392.335C296.038 392.335 281.387 405.209 281.387 421.089C281.387 421.935 281.438 422.771 281.52 423.6C270.34 425.852 261.067 432.491 256.186 441.353C249.313 434.066 238.938 429.424 227.327 429.424C207.207 429.424 190.803 443.358 189.905 460.842C188.945 460.735 187.982 460.681 187.016 460.679C174.184 460.679 163.781 469.822 163.781 481.098C163.781 481.66 163.812 482.216 163.863 482.766H566.484C562.108 468.603 543.154 450.476 517.546 458.073Z" fill="#E0E0E0"/>
<path d="M566.484 485.617H163.865C163.156 485.617 162.473 485.352 161.949 484.874C161.425 484.396 161.098 483.739 161.032 483.032C160.968 482.335 160.936 481.702 160.936 481.102C160.936 468.27 172.637 457.832 187.018 457.832H187.34C189.841 440.088 206.822 426.575 227.327 426.575C237.99 426.575 248.11 430.288 255.624 436.866C260.856 429.348 268.962 423.845 278.545 421.353C278.545 421.262 278.545 421.171 278.545 421.081C278.545 403.655 294.499 389.478 314.111 389.478C319.671 389.463 325.17 390.63 330.244 392.903C336.683 383.524 348.06 377.793 360.584 377.793C373.27 377.793 385.086 383.867 391.417 393.643C391.968 394.44 392.782 395.016 393.717 395.268L394.055 395.371C395.07 395.719 396.181 395.661 397.155 395.21C402.591 392.511 408.578 391.113 414.645 391.128C431 391.128 445.141 401.018 449.107 414.922C455.668 415.919 461.833 418.563 466.812 422.512C472.138 419.943 477.976 418.617 483.887 418.633C483.929 418.633 483.974 418.633 484.018 418.633C500.934 419.415 510.008 428.731 514.64 436.409C518.386 442.618 520.25 449.579 520.594 454.34C545.216 449.247 564.454 466.499 569.211 481.894C569.343 482.32 569.372 482.771 569.298 483.211C569.223 483.652 569.047 484.068 568.783 484.427C568.518 484.786 568.173 485.078 567.775 485.279C567.378 485.48 566.938 485.585 566.492 485.585L566.484 485.617ZM166.674 479.917H562.278C556.674 468.532 540.684 454.183 518.355 460.805C517.841 460.959 517.293 460.964 516.777 460.819C516.26 460.674 515.795 460.385 515.435 459.986C515.075 459.587 514.835 459.094 514.743 458.565C514.651 458.036 514.711 457.49 514.915 456.993C515.372 455.001 514.144 445.084 508.004 436.753C502.306 429.023 494.166 424.852 483.812 424.359C478.22 424.345 472.714 425.747 467.808 428.435C467.291 428.722 466.698 428.841 466.112 428.775C465.525 428.709 464.973 428.462 464.532 428.068C459.736 423.779 453.342 421.044 446.534 420.366C445.931 420.307 445.364 420.056 444.914 419.652C444.463 419.246 444.153 418.708 444.029 418.116C441.452 405.796 429.094 396.854 414.642 396.854C409.462 396.837 404.349 398.027 399.707 400.329C397.493 401.44 394.896 401.621 392.375 400.843L392.1 400.76C389.866 400.121 387.932 398.707 386.643 396.771C381.346 388.596 371.352 383.518 360.583 383.518C349.115 383.518 338.833 389.077 333.76 398.025C333.392 398.671 332.786 399.149 332.072 399.354C331.357 399.559 330.591 399.476 329.937 399.123C325.072 396.516 319.635 395.165 314.117 395.188C297.644 395.188 284.242 406.807 284.242 421.091C284.242 421.785 284.281 422.516 284.359 423.321C284.428 424.024 284.234 424.727 283.815 425.295C283.396 425.863 282.781 426.254 282.09 426.394C271.943 428.439 263.194 434.545 258.685 442.731C258.468 443.124 258.162 443.46 257.791 443.712C257.421 443.964 256.996 444.125 256.551 444.181C256.107 444.238 255.655 444.189 255.234 444.037C254.812 443.886 254.431 443.638 254.123 443.312C247.51 436.298 237.746 432.275 227.335 432.275C208.771 432.275 193.581 444.887 192.756 460.989C192.737 461.376 192.638 461.756 192.467 462.104C192.296 462.452 192.056 462.762 191.761 463.013C191.466 463.265 191.123 463.453 190.753 463.567C190.382 463.682 189.993 463.719 189.608 463.676C188.751 463.582 187.888 463.533 187.026 463.531C176.236 463.531 167.382 470.778 166.674 479.917Z" fill="black"/>
<g opacity="0.15">
<path opacity="0.15" d="M356.313 412.487C356.313 412.487 380.026 413.436 392.355 424.833C392.355 424.833 438.83 420.084 458.748 446.676C458.748 446.676 487.201 440.978 519.448 482.482H388.09L356.313 412.487Z" fill="black"/>
</g>
<g opacity="0.5">
<path opacity="0.5" d="M447.821 421.916C447.946 422.508 448.256 423.046 448.707 423.451C449.157 423.855 449.724 424.106 450.326 424.166C457.137 424.843 463.529 427.579 468.327 431.868C468.767 432.262 469.319 432.509 469.905 432.575C470.492 432.641 471.084 432.522 471.601 432.234C476.507 429.546 482.012 428.143 487.605 428.157C495.212 428.52 501.618 430.874 506.745 435.16C501.132 428.451 493.43 424.816 483.809 424.357C478.216 424.345 472.71 425.747 467.804 428.435C467.288 428.722 466.695 428.841 466.108 428.775C465.521 428.709 464.969 428.462 464.528 428.068C459.955 423.978 453.923 421.323 447.469 420.497C447.602 420.964 447.723 421.436 447.821 421.916Z" fill="white"/>
</g>
<g opacity="0.5">
<path opacity="0.5" d="M391.556 402.479C391.75 402.846 392.021 403.167 392.352 403.418C392.682 403.669 393.062 403.845 393.467 403.934C395.272 404.325 397.04 404.87 398.753 405.56C399.163 405.726 399.607 405.794 400.048 405.76C400.489 405.724 400.917 405.587 401.296 405.358C406.339 402.284 412.267 400.66 418.435 400.66C426.356 400.66 433.641 403.349 439.039 407.804C433.587 401.117 424.614 396.86 414.642 396.86C408.472 396.86 402.545 398.484 397.501 401.559C397.122 401.787 396.696 401.925 396.254 401.96C395.814 401.994 395.37 401.926 394.961 401.76C393.419 401.141 391.833 400.641 390.216 400.262C390.701 400.978 391.148 401.717 391.556 402.479Z" fill="white"/>
</g>
<g opacity="0.5">
<path opacity="0.5" d="M190.812 467.33C191.675 467.331 192.537 467.379 193.394 467.474C193.779 467.516 194.169 467.479 194.539 467.366C194.909 467.252 195.252 467.063 195.547 466.811C195.842 466.56 196.082 466.251 196.254 465.903C196.425 465.555 196.523 465.176 196.543 464.789C197.367 448.687 212.555 436.075 231.122 436.075C241.531 436.075 251.295 440.104 257.911 447.112C258.218 447.438 258.598 447.686 259.019 447.837C259.441 447.989 259.893 448.038 260.337 447.981C260.781 447.925 261.206 447.764 261.577 447.512C261.947 447.26 262.253 446.924 262.469 446.531C266.978 438.345 275.728 432.239 285.874 430.193C286.565 430.054 287.18 429.663 287.6 429.095C288.02 428.527 288.214 427.824 288.146 427.121C288.069 426.38 288.029 425.636 288.027 424.891C288.027 410.607 301.428 398.985 317.902 398.985C323.42 398.963 328.857 400.316 333.724 402.922C334.378 403.275 335.144 403.357 335.858 403.153C336.573 402.947 337.178 402.471 337.546 401.824C342.621 392.877 352.897 387.318 364.367 387.318C372.147 387.318 379.477 389.979 384.943 394.483C379.4 387.709 370.34 383.519 360.575 383.519C349.107 383.519 338.826 389.077 333.752 398.025C333.384 398.671 332.778 399.147 332.064 399.353C331.349 399.557 330.583 399.475 329.929 399.123C325.064 396.517 319.627 395.164 314.109 395.185C297.635 395.185 284.232 406.807 284.232 421.091C284.232 421.786 284.273 422.516 284.351 423.321C284.42 424.024 284.226 424.727 283.807 425.296C283.387 425.863 282.772 426.254 282.081 426.393C271.935 428.439 263.186 434.545 258.677 442.731C258.46 443.124 258.154 443.46 257.784 443.712C257.413 443.964 256.988 444.125 256.543 444.181C256.099 444.238 255.647 444.189 255.226 444.037C254.804 443.887 254.424 443.638 254.116 443.312C247.503 436.298 237.737 432.275 227.327 432.275C208.763 432.275 193.573 444.889 192.748 460.989C192.729 461.376 192.629 461.755 192.458 462.103C192.287 462.451 192.046 462.76 191.752 463.011C191.457 463.263 191.115 463.452 190.744 463.566C190.374 463.68 189.985 463.718 189.6 463.676C188.742 463.58 187.881 463.532 187.018 463.531C176.236 463.531 167.382 470.785 166.674 479.919H171.275C173.775 472.652 181.58 467.33 190.812 467.33Z" fill="white"/>
</g>
<path d="M436.215 452.376H405.865L396.379 180.746H445.699L436.215 452.376Z" fill="#E0E0E0"/>
<path d="M436.215 455.229H405.865C405.127 455.229 404.418 454.942 403.888 454.429C403.357 453.916 403.046 453.217 403.02 452.479L393.536 180.848C393.522 180.466 393.586 180.084 393.722 179.727C393.859 179.37 394.067 179.044 394.333 178.769C394.598 178.494 394.916 178.274 395.268 178.125C395.62 177.975 395.998 177.898 396.38 177.899H445.699C446.081 177.899 446.459 177.976 446.811 178.125C447.162 178.275 447.48 178.494 447.745 178.77C448.011 179.045 448.219 179.371 448.355 179.727C448.492 180.085 448.555 180.466 448.542 180.848L439.057 452.479C439.032 453.216 438.722 453.916 438.191 454.429C437.66 454.942 436.952 455.229 436.215 455.229ZM408.611 449.529H433.466L442.751 183.599H399.326L408.611 449.529Z" fill="black"/>
<g opacity="0.5">
<path opacity="0.5" d="M408 269.033C411.082 265.713 413.221 258.476 413.221 250.077C413.221 240.487 410.434 232.411 406.636 229.956L405.026 183.594H399.334L400.976 230.582L402.37 270.53L408.619 449.527H414.311L408 269.033Z" fill="white"/>
</g>
<path d="M324.068 482.192C333.607 461.557 366.117 458.968 366.117 458.968C376.6 432.352 407.199 435.383 407.199 435.383C446.717 435.383 446.717 462.058 446.717 462.058C478.739 460.549 493.15 482.292 493.15 482.292L324.068 482.192Z" fill="#E0E0E0"/>
<path d="M493.142 485.141L324.066 485.04C323.589 485.04 323.119 484.919 322.7 484.689C322.282 484.459 321.927 484.127 321.67 483.725C321.413 483.322 321.262 482.861 321.229 482.383C321.197 481.907 321.285 481.429 321.484 480.995C330.399 461.71 356.971 457.191 364.137 456.312C375.404 430.756 404.801 432.352 407.306 432.538C441.106 432.583 447.87 451.693 449.222 459.133C480.607 458.809 494.91 479.796 495.518 480.713C495.804 481.142 495.968 481.642 495.993 482.157C496.018 482.673 495.903 483.186 495.659 483.641C495.415 484.096 495.053 484.476 494.61 484.741C494.167 485.007 493.661 485.146 493.146 485.145L493.142 485.141ZM329.007 479.345L486.993 479.44C481.094 473.516 468.135 463.898 446.841 464.905C446.457 464.924 446.072 464.863 445.712 464.729C445.351 464.594 445.022 464.387 444.743 464.121C444.464 463.855 444.243 463.535 444.092 463.18C443.94 462.825 443.861 462.444 443.862 462.058C443.862 461.099 443.202 438.235 407.191 438.235C407.096 438.235 407.003 438.235 406.909 438.221C405.752 438.112 378.305 435.763 368.755 460.014C368.56 460.508 368.23 460.939 367.803 461.256C367.377 461.574 366.87 461.765 366.34 461.809C366.051 461.831 339.873 464.131 329.007 479.345Z" fill="black"/>
<g opacity="0.5">
<path opacity="0.5" d="M448.538 466.594C448.815 466.861 449.145 467.068 449.506 467.203C449.867 467.338 450.252 467.398 450.636 467.379C463.963 466.751 474.019 470.279 481.126 474.458C474.121 469.421 463.146 464.352 447.693 464.877C447.766 465.531 448.065 466.137 448.538 466.594Z" fill="white"/>
</g>
<g opacity="0.5">
<path opacity="0.5" d="M407.191 438.234C407.096 438.234 407.003 438.234 406.911 438.221C406.497 438.18 402.753 437.864 397.678 438.557C391.401 439.413 383.088 441.83 376.478 448.25C373.41 451.23 370.706 455.059 368.757 460.014C368.562 460.508 368.232 460.939 367.805 461.256C367.378 461.573 366.872 461.764 366.343 461.809C366.059 461.831 339.881 464.132 329.015 479.338H334.812C346.577 466.344 369.869 464.291 370.137 464.269C370.667 464.226 371.174 464.035 371.601 463.718C372.028 463.4 372.357 462.97 372.551 462.474C374.519 457.481 377.249 453.631 380.347 450.641C382.837 450.714 386.209 449.803 389.574 447.966C392.793 446.211 395.31 443.993 396.652 441.938C404.038 440.109 410.171 440.63 410.705 440.68C410.799 440.69 410.892 440.695 410.985 440.695C421.882 440.695 429.525 442.794 434.909 445.731C429.535 441.575 420.948 438.234 407.191 438.234Z" fill="white"/>
</g>
<path d="M373.896 93.443C373.896 93.443 333.02 125.81 352.167 181.759C353.593 185.926 359.438 186.016 360.932 181.874C363.506 174.746 368.538 166.022 378.36 158.257C378.36 158.257 368.317 113.559 373.896 93.443Z" fill="#17346E"/>
<path d="M356.595 188.257H356.525C354.865 188.254 353.248 187.729 351.903 186.756C350.558 185.783 349.552 184.412 349.028 182.835C338.755 152.815 345.464 129.429 352.905 115.087C360.967 99.5478 371.397 91.1848 371.837 90.8361C372.387 90.4013 373.059 90.1516 373.759 90.1229C374.458 90.0942 375.149 90.2875 375.732 90.6756C376.316 91.0637 376.762 91.6262 377.006 92.2836C377.251 92.9403 377.282 93.6583 377.094 94.3338C371.799 113.421 381.5 157.088 381.597 157.528C381.735 158.139 381.697 158.778 381.488 159.368C381.279 159.959 380.907 160.478 380.416 160.866C372.644 167.011 367.137 174.46 364.055 183.004C363.513 184.549 362.502 185.885 361.165 186.827C359.828 187.769 358.229 188.269 356.595 188.257ZM369.093 102.953C365.024 107.676 361.525 112.862 358.667 118.404C348.836 137.522 347.706 158.475 355.307 180.681C355.387 180.955 355.556 181.195 355.786 181.363C356.016 181.53 356.296 181.616 356.58 181.608C356.851 181.616 357.117 181.536 357.339 181.381C357.56 181.225 357.726 181.001 357.81 180.744C361.101 171.627 366.773 163.636 374.684 156.97C373.08 149.346 367.808 122.373 369.093 102.953Z" fill="black"/>
<g opacity="0.2">
<path opacity="0.2" d="M363.902 102.865C363.902 102.865 368.644 168.397 347.778 169.35L354.392 184.483L361.055 181.697L374.996 162.557C374.996 162.557 365.339 105.719 372.211 99.5477L363.902 102.865Z" fill="black"/>
</g>
<g opacity="0.5">
<path opacity="0.5" d="M362.465 119.353C364.339 115.719 366.492 112.238 368.904 108.939C368.904 106.888 368.972 104.881 369.105 102.953C365.037 107.676 361.538 112.863 358.679 118.404C348.849 137.521 347.718 158.475 355.319 180.681C355.399 180.956 355.567 181.195 355.797 181.363C356.028 181.53 356.308 181.616 356.593 181.608C356.865 181.625 357.135 181.548 357.359 181.391C357.583 181.234 357.746 181.006 357.824 180.744C357.997 180.26 358.182 179.781 358.371 179.303C351.616 157.961 352.975 137.8 362.465 119.353Z" fill="white"/>
</g>
<path d="M468.182 93.443C468.182 93.443 509.061 125.81 489.911 181.759C488.485 185.926 482.64 186.016 481.145 181.874C478.572 174.746 473.54 166.022 463.718 158.257C463.718 158.257 473.761 113.559 468.182 93.443Z" fill="#17346E"/>
<path d="M485.484 188.257C483.849 188.269 482.251 187.769 480.913 186.828C479.576 185.886 478.564 184.549 478.022 183.004C474.94 174.46 469.436 167.011 461.662 160.866C461.17 160.478 460.799 159.958 460.591 159.368C460.382 158.777 460.343 158.14 460.481 157.528C460.579 157.088 470.274 113.405 464.983 94.3338C464.795 93.6575 464.826 92.9395 465.07 92.282C465.314 91.6245 465.761 91.0612 466.345 90.6731C466.928 90.285 467.62 90.0918 468.32 90.1205C469.02 90.1499 469.693 90.4005 470.242 90.8361C470.681 91.1849 481.107 99.5478 489.172 115.088C496.617 129.429 503.325 152.822 493.051 182.835C492.526 184.412 491.521 185.784 490.175 186.757C488.829 187.729 487.213 188.254 485.553 188.257H485.484ZM467.394 156.968C475.304 163.637 480.976 171.625 484.268 180.742C484.353 180.999 484.519 181.222 484.74 181.378C484.962 181.534 485.228 181.613 485.499 181.606C485.783 181.615 486.062 181.528 486.293 181.36C486.523 181.192 486.691 180.953 486.77 180.68C494.371 158.473 493.241 137.52 483.41 118.402C480.552 112.86 477.053 107.674 472.985 102.951C474.27 122.373 468.997 149.346 467.394 156.968Z" fill="black"/>
<g opacity="0.5">
<path opacity="0.5" d="M473.182 109.005C480.425 117.534 490.734 133.458 491.581 155.578C492.52 130.234 480.849 112.176 472.986 102.993C473.121 104.927 473.174 106.944 473.182 109.005Z" fill="white"/>
</g>
<path d="M454.606 148.761H387.47V178.205H454.606V148.761Z" fill="#C0C0C0"/>
<path d="M454.611 181.054H387.474C386.719 181.054 385.996 180.753 385.462 180.22C384.929 179.685 384.629 178.96 384.629 178.205V148.762C384.629 148.006 384.929 147.281 385.462 146.747C385.996 146.213 386.719 145.913 387.474 145.913H454.611C455.366 145.913 456.09 146.213 456.623 146.747C457.157 147.281 457.457 148.006 457.457 148.762V178.203C457.457 178.577 457.383 178.948 457.241 179.294C457.097 179.64 456.889 179.954 456.624 180.219C456.36 180.483 456.046 180.694 455.701 180.837C455.356 180.98 454.986 181.054 454.611 181.054ZM390.321 175.356H451.765V151.608H390.321V175.356Z" fill="black"/>
<g opacity="0.2">
<path opacity="0.2" d="M453.44 166.248C453.44 166.248 420.808 170.297 387.613 170.297L388.56 172.197H454.008L453.44 166.248Z" fill="black"/>
</g>
<g opacity="0.2">
<path opacity="0.2" d="M388.56 170.218C388.56 170.218 428.397 159.944 454.002 171.248V166.115L420.153 158.775L389.509 165.087L388.56 170.218Z" fill="black"/>
</g>
<g opacity="0.5">
<path opacity="0.5" d="M396.956 151.611H390.317V175.354H396.956V151.611Z" fill="white"/>
</g>
<path d="M456.456 186.753H385.621C385.03 186.754 384.447 186.612 383.923 186.337C383.399 186.064 382.949 185.667 382.612 185.181C382.273 184.696 382.058 184.136 381.983 183.548C381.909 182.961 381.977 182.365 382.182 181.81L382.218 181.713C383.849 177.31 387.921 174.405 392.46 174.405H449.61C454.149 174.405 458.221 177.31 459.85 181.713L459.887 181.81C460.092 182.364 460.161 182.96 460.086 183.546C460.012 184.132 459.797 184.692 459.461 185.178C459.123 185.663 458.674 186.061 458.151 186.335C457.629 186.609 457.047 186.752 456.456 186.753Z" fill="#A0A0A0"/>
<path d="M456.457 189.603H385.621C384.572 189.603 383.538 189.348 382.607 188.862C381.677 188.375 380.879 187.67 380.279 186.807C379.68 185.944 379.298 184.95 379.166 183.907C379.033 182.865 379.154 181.806 379.519 180.821L379.553 180.727C381.585 175.24 386.772 171.556 392.464 171.556H449.614C455.306 171.556 460.492 175.24 462.522 180.724L462.557 180.812C462.923 181.798 463.045 182.858 462.914 183.901C462.783 184.945 462.401 185.94 461.802 186.804C461.202 187.668 460.403 188.374 459.472 188.861C458.542 189.348 457.507 189.603 456.457 189.603ZM392.464 177.256C389.089 177.256 386.116 179.393 384.89 182.696L384.857 182.789C384.81 182.912 384.794 183.046 384.81 183.177C384.826 183.308 384.874 183.433 384.949 183.542C385.025 183.651 385.125 183.74 385.242 183.802C385.359 183.862 385.489 183.895 385.621 183.895H456.457C456.588 183.895 456.718 183.863 456.835 183.802C456.952 183.741 457.052 183.653 457.128 183.545C457.203 183.436 457.25 183.311 457.268 183.18C457.284 183.049 457.269 182.917 457.223 182.793L457.189 182.702C455.962 179.386 452.988 177.248 449.614 177.248L392.464 177.256Z" fill="black"/>
<g opacity="0.2">
<path opacity="0.2" d="M453.055 176.946C453.055 176.946 452.105 180.746 382.87 183.594L387.184 186.687H457.802C457.802 186.687 461.59 179.795 453.055 176.946Z" fill="black"/>
</g>
<g opacity="0.5">
<path opacity="0.5" d="M395.288 183.441L395.324 183.342C396.55 180.032 399.522 177.903 402.898 177.903H452.662C451.699 177.487 450.663 177.27 449.614 177.264H397.206C393.831 177.264 390.86 179.402 389.633 182.704L389.596 182.803C389.551 182.926 389.537 183.059 389.553 183.19C389.57 183.32 389.618 183.445 389.694 183.553C389.769 183.661 389.869 183.749 389.985 183.81C390.102 183.871 390.232 183.902 390.363 183.902H395.26C395.223 183.749 395.233 183.589 395.288 183.441Z" fill="white"/>
</g>
<path d="M406.917 10.8594C388.083 38.8884 358.916 95.9476 375.329 163.174C375.51 163.897 375.845 164.572 376.311 165.153C376.777 165.734 377.364 166.208 378.029 166.54C378.696 166.874 379.425 167.058 380.17 167.082C380.913 167.105 381.653 166.967 382.34 166.677C389.727 163.586 403.867 158.733 419.819 158.733H422.258C438.211 158.733 452.35 163.586 459.738 166.677C460.423 166.967 461.165 167.105 461.908 167.082C462.652 167.058 463.383 166.874 464.049 166.54C464.715 166.208 465.301 165.735 465.767 165.153C466.234 164.572 466.569 163.897 466.75 163.174C483.161 95.946 453.994 38.8864 435.162 10.8594C428.408 0.811991 413.669 0.811991 406.917 10.8594Z" fill="white"/>
<path d="M380.333 170.408C379 170.407 377.685 170.094 376.495 169.491C375.407 168.943 374.452 168.165 373.694 167.211C372.936 166.256 372.394 165.149 372.105 163.965C355.394 95.5185 385.017 37.4981 404.163 9.00376C406.023 6.23216 408.535 3.96119 411.478 2.39095C414.421 0.820708 417.704 -0.000610352 421.039 -0.000610352C424.374 -0.000610352 427.657 0.820708 430.6 2.39095C433.543 3.96119 436.055 6.23216 437.915 9.00376C457.061 37.4981 486.684 95.5185 469.973 163.965C469.684 165.149 469.142 166.257 468.384 167.211C467.626 168.166 466.67 168.943 465.583 169.491C464.484 170.046 463.279 170.357 462.049 170.401C460.819 170.445 459.594 170.222 458.459 169.747C451.596 166.874 437.768 162.059 422.259 162.059H419.82C404.312 162.059 390.481 166.874 383.62 169.747C382.579 170.183 381.462 170.407 380.333 170.408ZM421.039 6.64856C418.79 6.63217 416.572 7.17844 414.587 8.2378C412.602 9.29712 410.913 10.8361 409.671 12.7149C391.137 40.2986 362.45 96.4233 378.553 162.387C378.614 162.639 378.729 162.874 378.891 163.076C379.053 163.277 379.257 163.441 379.488 163.556C379.73 163.68 379.996 163.75 380.268 163.76C380.54 163.77 380.81 163.72 381.06 163.612C388.381 160.55 403.153 155.41 419.82 155.41H422.259C438.927 155.41 453.697 160.55 461.018 163.612C461.269 163.719 461.539 163.769 461.811 163.759C462.082 163.749 462.349 163.68 462.591 163.556C462.823 163.441 463.026 163.277 463.187 163.075C463.348 162.873 463.464 162.639 463.524 162.387C479.62 96.4233 450.94 40.2946 432.407 12.7149C431.165 10.8361 429.476 9.29712 427.491 8.2378C425.506 7.17844 423.288 6.63217 421.039 6.64856Z" fill="black"/>
<path d="M406.917 10.8594C388.083 38.8884 358.916 95.9476 375.329 163.174C375.51 163.897 375.845 164.572 376.311 165.153C376.777 165.734 377.364 166.208 378.029 166.54C378.696 166.874 379.425 167.058 380.17 167.082C380.913 167.105 381.653 166.967 382.34 166.677C389.727 163.586 403.867 158.733 419.819 158.733H422.258C438.211 158.733 452.35 163.586 459.738 166.677C460.423 166.967 461.165 167.105 461.908 167.082C462.652 167.058 463.383 166.874 464.049 166.54C464.715 166.208 465.301 165.735 465.767 165.153C466.234 164.572 466.569 163.897 466.75 163.174C483.161 95.946 453.994 38.8864 435.162 10.8594C428.408 0.811991 413.669 0.811991 406.917 10.8594Z" fill="white"/>
<path d="M380.333 170.408C379 170.407 377.685 170.094 376.495 169.491C375.407 168.943 374.452 168.165 373.694 167.211C372.936 166.256 372.394 165.149 372.105 163.965C355.394 95.5185 385.017 37.4981 404.163 9.00376C406.023 6.23216 408.535 3.96119 411.478 2.39095C414.421 0.820708 417.704 -0.000610352 421.039 -0.000610352C424.374 -0.000610352 427.657 0.820708 430.6 2.39095C433.543 3.96119 436.055 6.23216 437.915 9.00376C457.061 37.4981 486.684 95.5185 469.973 163.965C469.684 165.149 469.142 166.257 468.384 167.211C467.626 168.166 466.67 168.943 465.583 169.491C464.484 170.046 463.279 170.357 462.049 170.401C460.819 170.445 459.594 170.222 458.459 169.747C451.596 166.874 437.768 162.059 422.259 162.059H419.82C404.312 162.059 390.481 166.874 383.62 169.747C382.579 170.183 381.462 170.407 380.333 170.408ZM421.039 6.64856C418.79 6.63217 416.572 7.17844 414.587 8.2378C412.602 9.29712 410.913 10.8361 409.671 12.7149C391.137 40.2986 362.45 96.4233 378.553 162.387C378.614 162.639 378.729 162.874 378.891 163.076C379.053 163.277 379.257 163.441 379.488 163.556C379.73 163.68 379.996 163.75 380.268 163.76C380.54 163.77 380.81 163.72 381.06 163.612C388.381 160.55 403.153 155.41 419.82 155.41H422.259C438.927 155.41 453.697 160.55 461.018 163.612C461.269 163.719 461.539 163.769 461.811 163.759C462.082 163.749 462.349 163.68 462.591 163.556C462.823 163.441 463.026 163.277 463.187 163.075C463.348 162.873 463.464 162.639 463.524 162.387C479.62 96.4233 450.94 40.2946 432.407 12.7149C431.165 10.8361 429.476 9.29712 427.491 8.2378C425.506 7.17844 423.288 6.63217 421.039 6.64856Z" fill="black"/>
<path d="M463.524 162.388C479.62 96.4208 450.94 40.2946 432.406 12.7149C431.154 10.8475 429.462 9.31738 427.48 8.25928C425.497 7.20124 423.285 6.64783 421.038 6.64783C418.792 6.64783 416.581 7.20124 414.598 8.25928C412.616 9.31738 410.924 10.8475 409.671 12.7149C391.137 40.2987 362.45 96.4208 378.553 162.388C378.614 162.639 378.729 162.873 378.891 163.075C379.052 163.278 379.255 163.441 379.487 163.556C379.728 163.68 379.995 163.749 380.267 163.759C380.539 163.769 380.809 163.719 381.06 163.612C388.381 160.55 403.152 155.41 419.819 155.41H422.258C438.925 155.41 453.697 160.55 461.018 163.612C461.268 163.719 461.539 163.769 461.811 163.759C462.082 163.749 462.349 163.68 462.591 163.556C462.822 163.441 463.026 163.278 463.187 163.075C463.348 162.873 463.464 162.639 463.524 162.388Z" fill="white"/>
<g opacity="0.2">
<path opacity="0.2" d="M459.73 162.085C472.492 109.815 457.128 63.7299 440.977 33.1222L419.981 29.2115C421.9 35.8843 446.003 124.266 387.613 160.812L387.687 161.112C395.72 158.356 407.227 155.422 419.819 155.422H422.258C437.695 155.422 451.497 159.829 459.267 162.913C459.496 162.686 459.656 162.399 459.73 162.085Z" fill="black"/>
</g>
<g opacity="0.2">
<path opacity="0.2" d="M461.018 163.612C460.676 163.468 460.306 163.319 459.927 163.165C460.301 163.316 460.676 163.469 461.018 163.612Z" fill="black"/>
</g>
<path d="M445.267 34.3653C441.38 26.9173 437.087 19.6896 432.407 12.7149C431.154 10.8475 429.462 9.31738 427.48 8.25928C425.497 7.20124 423.285 6.64783 421.039 6.64783C418.792 6.64783 416.581 7.20124 414.598 8.25928C412.616 9.31738 410.924 10.8475 409.671 12.7149C404.951 19.7479 400.623 27.0384 396.71 34.5526C405.678 32.0342 425.157 28.1398 445.267 34.3653Z" fill="#17346E"/>
<g opacity="0.5">
<path opacity="0.5" d="M421.053 13.3557C422.603 11.0225 424.839 9.22879 427.451 8.22219C426.332 7.51116 425.068 7.06146 423.752 6.9064C422.436 6.75134 421.102 6.89491 419.849 7.32646C418.597 7.75802 417.457 8.46643 416.515 9.39926C415.573 10.3321 414.853 11.4653 414.407 12.715C395.874 40.2987 367.186 96.4209 383.289 162.388C383.318 162.484 383.355 162.577 383.4 162.668C385.13 161.995 387.126 161.269 389.357 160.542C374.567 95.6553 402.753 40.5969 421.053 13.3557Z" fill="white"/>
</g>
<path d="M421.038 199.575C426.539 199.575 430.998 179.377 430.998 154.462C430.998 129.546 426.539 109.348 421.038 109.348C415.538 109.348 411.08 129.546 411.08 154.462C411.08 179.377 415.538 199.575 421.038 199.575Z" fill="#17346E"/>
<path d="M421.038 202.9C408.134 202.9 407.76 159.42 407.76 154.462C407.76 149.503 408.133 106.023 421.038 106.023C433.945 106.023 434.318 149.503 434.318 154.462C434.318 159.42 433.945 202.9 421.038 202.9ZM421.038 112.908C418.471 115.583 414.399 130.541 414.399 154.462C414.399 178.382 418.471 193.346 421.038 196.014C423.608 193.34 427.679 178.382 427.679 154.462C427.679 130.541 423.608 115.583 421.038 112.908Z" fill="black"/>
<g opacity="0.5">
<path opacity="0.5" d="M417.244 154.462C417.244 134.63 420.043 120.971 422.461 115.352C421.962 114.191 421.477 113.365 421.038 112.908C418.471 115.581 414.399 130.538 414.399 154.462C414.399 178.385 418.471 193.346 421.038 196.014C421.477 195.556 421.962 194.73 422.461 193.571C420.043 187.952 417.244 174.291 417.244 154.462Z" fill="white"/>
</g>
<g opacity="0.2">
<path opacity="0.2" d="M423.884 96.5256C435.145 96.5256 444.274 87.384 444.274 76.1064C444.274 64.8292 435.145 55.6871 423.884 55.6871C412.622 55.6871 403.493 64.8292 403.493 76.1064C403.493 87.384 412.622 96.5256 423.884 96.5256Z" fill="black"/>
</g>
<path d="M433.782 86.0176C440.819 78.9699 440.819 67.5438 433.782 60.4965C426.745 53.4491 415.334 53.4491 408.297 60.4965C401.259 67.5439 401.259 78.9699 408.297 86.0176C415.334 93.0647 426.745 93.0647 433.782 86.0176Z" fill="#2E68DD"/>
<path d="M421.038 93.6771C417.006 93.6771 413.062 92.4801 409.709 90.2366C406.355 87.9924 403.74 84.8033 402.197 81.072C400.653 77.3405 400.249 73.2344 401.036 69.2729C401.822 65.3114 403.764 61.6725 406.616 58.8163C409.468 55.9601 413.101 54.015 417.057 53.2269C421.013 52.4388 425.114 52.8431 428.84 54.3887C432.566 55.9342 435.752 58.5517 437.993 61.91C440.233 65.2683 441.429 69.2166 441.429 73.2557C441.424 78.6696 439.273 83.8601 435.451 87.6886C431.628 91.5172 426.445 93.6706 421.038 93.6771ZM421.038 57.5851C417.943 57.5851 414.918 58.5043 412.343 60.2265C409.769 61.9488 407.763 64.3966 406.579 67.2605C405.394 70.1244 405.085 73.2757 405.689 76.316C406.293 79.3562 407.784 82.1488 409.973 84.3407C412.161 86.5325 414.95 88.0251 417.987 88.6294C421.023 89.2336 424.17 88.9233 427.029 87.7369C429.889 86.5505 432.333 84.5413 434.052 81.9638C435.772 79.3859 436.69 76.3555 436.689 73.2557C436.684 69.1007 435.034 65.1173 432.1 62.1795C429.166 59.2417 425.188 57.5893 421.038 57.5851Z" fill="black"/>
<path d="M450.506 38.5821C450.203 38.583 449.905 38.5255 449.625 38.4129C421.658 27.209 392.729 38.3041 392.439 38.4129C391.858 38.625 391.217 38.6011 390.653 38.3465C390.088 38.0918 389.646 37.6264 389.419 37.0497C389.193 36.4728 389.202 35.8303 389.442 35.2592C389.681 34.6881 390.135 34.2336 390.705 33.9926C391.953 33.499 421.63 22.0775 451.387 33.9926C451.898 34.1982 452.321 34.5754 452.585 35.0595C452.848 35.5438 452.936 36.1047 452.831 36.6462C452.727 37.1877 452.438 37.676 452.014 38.0274C451.59 38.3788 451.056 38.5713 450.506 38.5721V38.5821Z" fill="black"/>
<g opacity="0.2">
<path opacity="0.2" d="M427.922 6.4653C427.922 6.4653 441.2 31.1578 396.622 31.1578L394.725 33.0577C394.725 33.0577 435.508 25.4602 449.735 34.9577C449.735 34.9556 437.406 5.51435 427.922 6.4653Z" fill="black"/>
</g>
<g opacity="0.5">
<path opacity="0.5" d="M430.298 72.4296C430.298 72.4296 428.66 83.174 418.914 82.7998C418.914 82.7998 420.576 83.9395 423.14 83.8634C428.837 83.698 432.595 77.819 430.356 72.5807C430.342 72.5304 430.32 72.482 430.298 72.4296Z" fill="white"/>
</g>
<g opacity="0.5">
<path opacity="0.5" d="M420.627 72.1919C423.43 72.1919 425.703 69.916 425.703 67.1087C425.703 64.3014 423.43 62.0255 420.627 62.0255C417.823 62.0255 415.551 64.3014 415.551 67.1087C415.551 69.916 417.823 72.1919 420.627 72.1919Z" fill="white"/>
</g>
<g opacity="0.5">
<path opacity="0.5" d="M414.276 75.5322C414.059 75.8006 413.766 75.9983 413.436 76.1003C413.106 76.2022 412.753 76.2039 412.423 76.1051C412.092 76.0061 411.797 75.8113 411.577 75.5449C411.356 75.2786 411.22 74.9528 411.184 74.6087C411.149 74.2646 411.216 73.9178 411.378 73.612C411.539 73.3062 411.787 73.0552 412.091 72.8907C412.396 72.7263 412.741 72.6557 413.085 72.6881C413.429 72.7203 413.756 72.854 414.023 73.0722C414.383 73.3648 414.611 73.7883 414.659 74.2497C414.706 74.711 414.569 75.1724 414.276 75.5322Z" fill="white"/>
</g>
<g opacity="0.2">
<path opacity="0.2" d="M423.177 114.739C423.177 114.739 428.869 169.824 410.849 172.675C410.849 172.675 412.746 199.269 421.283 199.269C421.283 199.265 439.301 168.873 423.177 114.739Z" fill="black"/>
</g>
<g opacity="0.2">
<path opacity="0.2" d="M478.171 104.879C478.171 104.879 483.463 141.277 473.001 167.66L467.83 161.615C467.83 161.615 476.765 114.269 471.075 99.0647L478.171 104.879Z" fill="black"/>
</g>
<g opacity="0.2">
<path opacity="0.2" d="M490.991 126.608C490.991 126.608 490.044 173.148 469.178 157L468.228 161.749C468.228 161.749 480.3 175.902 484.217 184.972L488.581 183.516C488.581 183.516 497.63 153.203 490.991 126.608Z" fill="black"/>
</g>
<path d="M388.41 153.178C389.706 151.879 389.706 149.775 388.41 148.477C387.114 147.179 385.012 147.179 383.714 148.477C382.418 149.775 382.418 151.879 383.714 153.178C385.012 154.477 387.114 154.477 388.41 153.178Z" fill="black"/>
<path d="M457.286 153.898C458.981 153.195 459.785 151.251 459.083 149.554C458.381 147.858 456.44 147.052 454.746 147.755C453.052 148.458 452.248 150.402 452.949 152.098C453.651 153.795 455.593 154.6 457.286 153.898Z" fill="black"/>
<path d="M420.812 110.462C420.309 110.462 419.827 110.262 419.47 109.906C419.115 109.55 418.915 109.068 418.914 108.564V91.4689C418.914 90.9653 419.114 90.4814 419.47 90.1253C419.826 89.7691 420.308 89.5693 420.812 89.5693C421.314 89.5693 421.798 89.7691 422.153 90.1253C422.509 90.4814 422.709 90.9653 422.709 91.4689V108.564C422.708 109.068 422.508 109.55 422.152 109.906C421.797 110.262 421.314 110.462 420.812 110.462Z" fill="black"/>
<path d="M420.812 57.2768C420.308 57.2768 419.826 57.0766 419.47 56.7203C419.114 56.3641 418.914 55.8807 418.914 55.3769V31.6333C418.914 31.1294 419.114 30.6462 419.47 30.2898C419.826 29.9336 420.308 29.7334 420.812 29.7334C421.314 29.7334 421.798 29.9336 422.153 30.2898C422.509 30.6462 422.709 31.1294 422.709 31.6333V55.3769C422.709 55.8807 422.509 56.3641 422.153 56.7203C421.798 57.0766 421.314 57.2768 420.812 57.2768Z" fill="black"/>
<g opacity="0.2">
<path opacity="0.2" d="M437.879 187.392C437.879 187.392 431.994 384.534 403.736 393.499L405.254 431.747C405.254 431.747 433.899 436.31 437.311 442.447L444.955 187.141L437.879 187.392Z" fill="black"/>
</g>
<path d="M191.12 458.185C191.328 458.268 191.531 458.367 191.724 458.48C191.896 458.574 192.057 458.668 192.207 458.764C192.523 458.954 192.81 459.167 193.102 459.369C194.751 460.562 196.21 461.996 197.432 463.625C198.21 464.658 198.884 465.766 199.444 466.932C199.988 468.057 200.432 469.228 200.774 470.43C200.029 469.477 199.202 468.592 198.303 467.785C197.44 467.005 196.501 466.313 195.5 465.721C194.541 465.149 193.526 464.677 192.471 464.311C191.965 464.135 191.449 463.984 190.927 463.862C190.672 463.811 190.419 463.751 190.173 463.721C190.048 463.699 189.93 463.684 189.815 463.675C189.7 463.665 189.557 463.648 189.56 463.675C189.197 463.575 188.857 463.404 188.561 463.173C188.264 462.941 188.017 462.652 187.833 462.324C187.648 461.995 187.53 461.634 187.486 461.26C187.443 460.886 187.473 460.507 187.576 460.145C187.68 459.782 187.854 459.444 188.089 459.15C188.323 458.855 188.614 458.61 188.944 458.429C189.274 458.249 189.636 458.135 190.01 458.095C190.384 458.054 190.762 458.089 191.123 458.196L191.12 458.185Z" fill="black"/>
<path d="M366.58 456.284C366.788 456.37 366.989 456.468 367.184 456.581C367.353 456.673 367.514 456.768 367.667 456.865C367.983 457.066 368.27 457.268 368.562 457.469C370.209 458.663 371.668 460.097 372.889 461.724C373.667 462.758 374.341 463.866 374.901 465.033C375.446 466.157 375.89 467.328 376.231 468.53C375.487 467.578 374.66 466.693 373.761 465.884C372.897 465.106 371.958 464.415 370.958 463.822C370 463.248 368.984 462.776 367.928 462.411C367.423 462.233 366.908 462.082 366.385 461.96C366.13 461.91 365.876 461.851 365.63 461.819C365.506 461.797 365.387 461.783 365.275 461.773C365.162 461.763 365.015 461.746 365.017 461.773C364.291 461.565 363.677 461.077 363.311 460.417C362.944 459.756 362.855 458.976 363.062 458.25C363.269 457.523 363.757 456.909 364.417 456.541C365.076 456.175 365.855 456.085 366.58 456.293V456.284Z" fill="black"/>
<path d="M446.588 464.497C446.386 464.505 446.186 464.542 445.995 464.607C445.761 464.666 445.526 464.745 445.286 464.823C444.801 464.993 444.327 465.188 443.862 465.407C442.899 465.861 441.99 466.421 441.152 467.077C440.272 467.75 439.479 468.528 438.788 469.394C438.062 470.298 437.439 471.281 436.931 472.324C436.994 471.115 437.191 469.917 437.52 468.752C437.858 467.534 438.342 466.362 438.961 465.26C439.59 464.114 440.343 463.042 441.206 462.061C441.651 461.556 442.121 461.076 442.614 460.621C442.868 460.393 443.121 460.161 443.4 459.943C443.699 459.691 444.016 459.462 444.351 459.258L445.655 458.47C446.117 458.191 446.64 458.031 447.179 458.002C447.717 457.973 448.255 458.077 448.744 458.307C449.233 458.535 449.659 458.881 449.983 459.312C450.307 459.744 450.52 460.25 450.603 460.783C450.687 461.317 450.637 461.863 450.46 462.373C450.283 462.884 449.983 463.343 449.587 463.71C449.191 464.077 448.711 464.34 448.188 464.478C447.667 464.614 447.119 464.621 446.594 464.497H446.588Z" fill="black"/>
<path d="M395.2 399.189C395.2 399.189 387.613 401.089 384.768 411.535L395.2 399.189Z" fill="#E0E0E0"/>
<path d="M395.89 401.953C395.936 401.925 395.853 401.935 395.811 401.935C395.753 401.935 395.695 401.94 395.638 401.949C395.508 401.96 395.378 401.98 395.25 402.008C394.972 402.06 394.696 402.128 394.425 402.209C393.849 402.378 393.288 402.593 392.747 402.854C391.602 403.403 390.533 404.1 389.568 404.927C388.565 405.819 387.663 406.821 386.88 407.913C386.449 408.459 386.132 409.069 385.746 409.662C385.404 410.266 385.098 410.906 384.766 411.541C384.868 410.842 384.951 410.131 385.078 409.414C385.251 408.719 385.361 407.985 385.599 407.292C386.025 405.848 386.612 404.457 387.349 403.144C388.143 401.779 389.11 400.523 390.226 399.407C390.807 398.821 391.434 398.282 392.1 397.795C392.448 397.551 392.789 397.307 393.174 397.086C393.361 396.973 393.552 396.862 393.763 396.757C393.867 396.703 393.964 396.651 394.085 396.598C394.223 396.532 394.364 396.474 394.509 396.425C395.241 396.241 396.016 396.357 396.664 396.746C397.311 397.135 397.777 397.765 397.96 398.498C398.143 399.231 398.028 400.007 397.639 400.655C397.251 401.303 396.622 401.77 395.89 401.953Z" fill="black"/>
<path d="M518.959 460.548C518.751 460.591 518.548 460.658 518.355 460.749C518.122 460.837 517.889 460.95 517.654 461.054C517.183 461.271 516.72 461.527 516.259 461.797C515.331 462.358 514.463 463.015 513.672 463.757C512.845 464.516 512.117 465.378 511.509 466.322C510.865 467.305 510.347 468.365 509.966 469.477C509.887 468.248 509.96 467.015 510.183 465.804C510.41 464.54 510.795 463.309 511.328 462.141C511.865 460.935 512.526 459.787 513.3 458.716C513.702 458.181 514.104 457.648 514.567 457.139C514.794 456.885 515.028 456.631 515.277 456.383C515.548 456.106 515.837 455.845 516.142 455.606L517.031 454.916C517.427 454.612 517.89 454.406 518.38 454.316C518.871 454.225 519.376 454.253 519.853 454.397C520.331 454.541 520.768 454.797 521.127 455.143C521.487 455.489 521.759 455.917 521.921 456.389C522.082 456.862 522.13 457.366 522.058 457.86C521.987 458.355 521.8 458.825 521.511 459.233C521.221 459.64 520.84 459.973 520.398 460.203C519.955 460.434 519.464 460.555 518.965 460.558L518.959 460.548Z" fill="black"/>
<path d="M468.11 428.008C467.934 428.051 467.768 428.125 467.619 428.227C467.417 428.33 467.231 428.463 467.033 428.586C466.647 428.852 466.255 429.138 465.88 429.455C465.107 430.101 464.397 430.819 463.76 431.6C463.093 432.411 462.502 433.282 461.993 434.201C461.464 435.156 461.011 436.152 460.641 437.179C460.547 436.054 460.543 434.923 460.629 433.798C460.81 431.417 461.423 429.088 462.44 426.928C462.706 426.358 463 425.803 463.321 425.264C463.494 424.99 463.66 424.716 463.854 424.441C463.947 424.305 464.045 424.168 464.157 424.026C464.279 423.86 464.413 423.704 464.559 423.557L466.384 421.708C466.848 421.237 467.428 420.896 468.066 420.721C468.703 420.546 469.375 420.542 470.015 420.709C470.654 420.876 471.239 421.209 471.709 421.674C472.18 422.139 472.52 422.72 472.695 423.358C472.87 423.996 472.874 424.669 472.708 425.31C472.541 425.95 472.208 426.536 471.744 427.007C471.281 427.478 470.7 427.819 470.063 427.994C469.426 428.17 468.754 428.175 468.114 428.008H468.11Z" fill="black"/>
<g opacity="0.2">
<path opacity="0.2" d="M443.57 454.276C443.57 454.276 409.426 476.12 328.811 475.171L324.068 481.819H490.991C490.991 481.819 485.302 464.724 447.363 461.873L443.57 454.276Z" fill="black"/>
</g>
<g opacity="0.2">
<path opacity="0.2" d="M239.656 432.43C239.656 432.43 221.161 479.418 164.255 477.056L161.411 481.344H223.06L249.526 433.897L239.656 432.43Z" fill="black"/>
</g>
<path d="M286.633 369.963C296.513 352.941 321.066 352.941 330.947 369.963L352.475 407.034L396.153 482.284H221.43L265.111 407.034L286.633 369.963Z" fill="#797F89"/>
<path d="M396.147 485.617H221.43C220.846 485.617 220.273 485.463 219.768 485.17C219.262 484.878 218.843 484.457 218.553 483.951C218.261 483.445 218.109 482.87 218.11 482.286C218.111 481.701 218.266 481.127 218.559 480.622L283.762 368.291C286.286 363.885 289.932 360.229 294.329 357.695C298.726 355.162 303.715 353.843 308.787 353.872C319.218 353.872 328.573 359.261 333.814 368.291L399.018 480.614C399.311 481.119 399.467 481.693 399.468 482.278C399.469 482.862 399.316 483.436 399.025 483.943C398.734 484.449 398.315 484.87 397.809 485.162C397.304 485.455 396.731 485.609 396.147 485.609V485.617ZM227.2 478.968H390.379L328.076 371.633C326.113 368.253 323.3 365.447 319.915 363.497C316.53 361.548 312.694 360.521 308.79 360.521C304.885 360.521 301.048 361.548 297.664 363.497C294.28 365.447 291.465 368.253 289.503 371.633L227.2 478.968Z" fill="black"/>
<path d="M297.098 389.903L305.633 393.902C307.169 394.63 308.86 394.967 310.557 394.884C312.254 394.801 313.905 394.301 315.363 393.426L320.584 390.371C321.938 389.559 323.459 389.07 325.032 388.939C326.605 388.808 328.186 389.039 329.656 389.615L341.109 394.088L328.076 371.633C326.113 368.253 323.3 365.447 319.915 363.497C316.53 361.548 312.694 360.521 308.79 360.521C304.885 360.521 301.048 361.548 297.664 363.497C294.28 365.447 291.465 368.253 289.503 371.633L275.195 396.281L288.113 389.978C289.508 389.286 291.041 388.921 292.597 388.908C294.154 388.895 295.692 389.235 297.098 389.903Z" fill="#FFF2E9"/>
<g opacity="0.3">
<path opacity="0.3" d="M326.913 364.997C326.913 364.997 345.881 469.471 225.43 475.171L221.43 482.292H399.942L326.913 364.997Z" fill="black"/>
</g>
<g opacity="0.5">
<path opacity="0.5" d="M342.049 395.703L330.516 391.203C328.713 390.5 326.774 390.218 324.846 390.377C322.917 390.535 321.05 391.131 319.386 392.12L314.156 395.178C313.028 395.853 311.752 396.241 310.439 396.306C309.126 396.371 307.818 396.111 306.629 395.55L298.113 391.563C296.383 390.752 294.493 390.34 292.584 390.354C290.674 390.369 288.792 390.812 287.075 391.65L286.166 392.093L298.036 371.641C299.62 368.877 301.782 366.489 304.375 364.64C306.967 362.791 309.928 361.526 313.055 360.931C310.434 360.429 307.745 360.395 305.111 360.829C298.43 361.923 292.678 366.168 289.276 372.026L274.255 397.906L272.309 401.26L255.23 430.683L241.891 453.665L227.205 478.968H235.739L249.195 455.771C252.514 454.834 255.981 451.991 258.361 447.865C260.717 443.777 261.449 439.403 260.637 436.058L277.818 406.458C280.468 401.894 284.413 398.222 289.153 395.909C290.232 395.382 291.415 395.104 292.614 395.094C293.815 395.084 295.001 395.344 296.089 395.852L304.623 399.852C306.506 400.745 308.579 401.16 310.66 401.059C312.742 400.959 314.766 400.346 316.553 399.276L321.785 396.219C322.83 395.587 324.006 395.204 325.222 395.102C326.438 394.998 327.663 395.179 328.798 395.627L345.855 402.276V402.263L342.049 395.703Z" fill="white"/>
</g>
<path d="M271 400.706C270.464 400.705 269.944 400.524 269.525 400.189C269.106 399.855 268.812 399.388 268.691 398.866C268.57 398.342 268.63 397.794 268.86 397.31C269.091 396.825 269.478 396.433 269.96 396.197L287.075 387.844C288.789 387.002 290.67 386.556 292.58 386.541C294.489 386.525 296.377 386.939 298.105 387.753L306.639 391.75C307.828 392.311 309.136 392.571 310.449 392.506C311.761 392.441 313.038 392.053 314.166 391.378L319.396 388.321C321.061 387.333 322.927 386.736 324.856 386.577C326.784 386.418 328.723 386.7 330.527 387.403L347.453 394.011C348.04 394.239 348.512 394.692 348.765 395.269C349.019 395.848 349.033 396.502 348.805 397.09C348.577 397.677 348.124 398.15 347.548 398.404C346.971 398.658 346.318 398.672 345.731 398.443L328.804 391.835C327.668 391.388 326.444 391.208 325.227 391.311C324.011 391.413 322.834 391.795 321.789 392.428L316.57 395.486C314.781 396.556 312.757 397.168 310.676 397.268C308.596 397.369 306.522 396.954 304.639 396.06L296.105 392.061C295.019 391.542 293.83 391.277 292.627 391.288C291.424 391.298 290.24 391.583 289.164 392.121L272.048 400.472C271.721 400.629 271.363 400.709 271 400.706Z" fill="black"/>
<path d="M229.751 225.859C258.168 225.859 281.204 202.791 281.204 174.335C281.204 145.879 258.168 122.81 229.751 122.81C201.335 122.81 178.299 145.879 178.299 174.335C178.299 202.791 201.335 225.859 229.751 225.859Z" fill="white"/>
<path d="M229.751 228.709C199.812 228.709 175.453 204.316 175.453 174.335C175.453 144.353 199.812 119.961 229.751 119.961C259.691 119.961 284.049 144.356 284.049 174.335C284.049 204.314 259.691 228.709 229.751 228.709ZM229.751 125.659C202.949 125.659 181.143 147.495 181.143 174.335C181.143 201.175 202.949 223.008 229.751 223.008C256.555 223.008 278.367 201.171 278.367 174.335C278.367 147.499 256.555 125.659 229.751 125.659Z" fill="black"/>
<g opacity="0.5">
<path opacity="0.5" d="M237.507 143.451C227.687 150.826 217.907 143.763 217.481 143.451C216.976 143.087 216.349 142.937 215.735 143.031C215.121 143.126 214.568 143.458 214.195 143.956C213.823 144.455 213.662 145.08 213.744 145.697C213.827 146.313 214.149 146.873 214.64 147.255C217.255 149.219 222.178 151.517 227.86 151.517C231.784 151.517 236.071 150.42 240.209 147.36L258.807 137.248C259.258 137 259.617 136.612 259.827 136.142C258.589 135.163 257.303 134.244 255.972 133.385L237.799 143.258C237.697 143.315 237.6 143.38 237.507 143.451Z" fill="white"/>
</g>
<g opacity="0.5">
<path opacity="0.5" d="M182.399 178.765C182.847 177.949 183.345 177.161 183.891 176.408C187.223 171.731 191.916 168.2 197.328 166.295C202.741 164.39 208.608 164.205 214.128 165.766C222.848 168.232 239.048 171.134 249.562 162.865C250.057 162.476 250.377 161.907 250.452 161.281C250.528 160.657 250.353 160.027 249.964 159.532C249.575 159.036 249.007 158.715 248.382 158.64C247.758 158.565 247.13 158.741 246.635 159.13C237.768 166.101 223.271 163.415 215.418 161.197C209.271 159.462 202.75 159.574 196.666 161.519C190.581 163.464 185.202 167.156 181.196 172.137C181.163 172.866 181.139 173.597 181.139 174.335C181.142 176.139 181.245 177.942 181.447 179.734C181.852 179.511 182.183 179.174 182.399 178.765Z" fill="white"/>
</g>
<g opacity="0.5">
<path opacity="0.5" d="M255.532 199.559C252.853 199.142 250.47 199.095 248.253 199.412C238.465 200.822 234.546 207.183 234.383 207.453C234.08 207.992 233.999 208.628 234.157 209.226C234.315 209.824 234.699 210.336 235.229 210.655C235.759 210.973 236.391 211.072 236.993 210.93C237.594 210.788 238.117 210.418 238.449 209.897C238.477 209.848 241.466 205.181 248.923 204.114C250.669 203.862 252.595 203.913 254.805 204.254C258.409 204.819 261.897 205.971 265.129 207.665C266.236 206.491 267.281 205.262 268.267 203.979C264.318 201.76 260.006 200.263 255.532 199.559Z" fill="white"/>
</g>
<g opacity="0.3">
<path opacity="0.3" d="M200.075 217.061C207.466 220.975 215.701 223.017 224.062 223.008C252.478 223.008 275.513 199.94 275.513 171.484C275.524 159.443 271.304 147.782 263.592 138.545C263.403 146.179 259.741 207.449 190.935 209.208C195.31 213.963 200.537 217.856 206.344 220.682C204.173 219.624 202.078 218.413 200.075 217.061Z" fill="black"/>
</g>
<g opacity="0.5">
<path opacity="0.5" d="M229.751 125.659C221.249 125.653 212.896 127.894 205.536 132.159C198.896 135.999 193.249 141.348 189.052 147.775C183.886 155.666 181.138 164.899 181.145 174.335C181.145 190.757 189.318 205.294 201.794 214.113C193.107 206.216 187.572 195.432 186.215 183.762C184.859 172.091 187.771 160.323 194.414 150.637C196.983 150.14 200.047 148.407 202.762 145.695C205.377 143.076 207.095 140.101 207.653 137.58C215.798 132.155 225.392 129.326 235.174 129.463C244.955 129.602 254.466 132.701 262.455 138.353C253.522 130.179 241.854 125.649 229.751 125.659Z" fill="white"/>
</g>
<path d="M226.911 148.665C221.231 148.665 216.31 146.366 213.692 144.4C213.189 144.022 212.856 143.461 212.766 142.838C212.676 142.215 212.837 141.582 213.214 141.077C213.589 140.573 214.15 140.24 214.773 140.15C215.395 140.06 216.027 140.221 216.531 140.598C216.966 140.919 226.739 147.976 236.56 140.598C236.652 140.528 236.748 140.466 236.85 140.411L255.596 130.216C256.149 129.916 256.799 129.847 257.401 130.026C258.004 130.205 258.512 130.616 258.811 131.169C259.112 131.722 259.18 132.372 259.001 132.976C258.823 133.58 258.413 134.088 257.86 134.389L239.262 144.502C235.123 147.567 230.836 148.665 226.911 148.665Z" fill="black"/>
<path d="M179.347 177.196C178.941 177.195 178.541 177.089 178.187 176.89C177.834 176.691 177.537 176.403 177.326 176.055C177.115 175.708 176.996 175.313 176.981 174.906C176.966 174.5 177.057 174.096 177.242 173.734C177.791 172.722 178.405 171.746 179.079 170.813C182.978 165.338 188.471 161.203 194.806 158.972C201.141 156.74 208.01 156.523 214.473 158.348C222.319 160.564 236.825 163.255 245.69 156.283C246.185 155.911 246.808 155.748 247.422 155.829C248.036 155.91 248.595 156.229 248.978 156.717C249.36 157.205 249.537 157.824 249.47 158.44C249.403 159.058 249.097 159.623 248.619 160.018C238.103 168.279 221.902 165.385 213.185 162.917C207.664 161.357 201.797 161.542 196.385 163.447C190.973 165.351 186.28 168.883 182.948 173.559C182.403 174.315 181.903 175.103 181.453 175.919C181.252 176.303 180.949 176.627 180.578 176.852C180.207 177.077 179.781 177.196 179.347 177.196Z" fill="black"/>
<path d="M270.119 208.244C269.58 208.244 269.058 208.06 268.637 207.723C263.22 203.375 257.055 201.894 253.865 201.399C251.651 201.056 249.728 201.01 247.98 201.262C240.523 202.327 237.535 206.996 237.517 207.044C237.362 207.321 237.153 207.563 236.902 207.758C236.651 207.952 236.364 208.094 236.057 208.176C235.751 208.257 235.431 208.276 235.117 208.231C234.803 208.186 234.501 208.079 234.229 207.916C233.958 207.752 233.721 207.536 233.534 207.28C233.348 207.023 233.213 206.731 233.141 206.423C233.068 206.113 233.058 205.793 233.112 205.48C233.165 205.167 233.28 204.868 233.451 204.6C233.614 204.33 237.532 197.952 247.32 196.56C249.533 196.243 251.921 196.291 254.601 196.706C258.259 197.275 265.334 198.979 271.613 204.018C271.999 204.325 272.28 204.744 272.416 205.218C272.552 205.692 272.538 206.197 272.374 206.663C272.211 207.128 271.907 207.53 271.504 207.815C271.102 208.099 270.621 208.251 270.129 208.248L270.119 208.244Z" fill="black"/>
<path d="M166.086 198.578C164.622 198.567 163.194 198.13 161.975 197.319C160.756 196.508 159.8 195.359 159.223 194.012C158.646 192.664 158.475 191.178 158.729 189.734C158.983 188.292 159.652 186.954 160.654 185.885C165.577 180.647 175.21 175.85 175.619 175.648C176.406 175.275 177.309 175.226 178.132 175.512C178.955 175.8 179.632 176.399 180.017 177.181C180.403 177.964 180.465 178.867 180.193 179.695C179.919 180.524 179.331 181.212 178.556 181.61C178.467 181.654 169.587 186.076 165.49 190.439C165.364 190.572 165.283 190.741 165.258 190.923C165.233 191.106 165.265 191.291 165.35 191.454C165.435 191.617 165.569 191.749 165.733 191.832C165.896 191.915 166.082 191.945 166.263 191.917C181.522 189.622 259.214 176.972 290.222 153.234C290.437 153.094 290.599 152.886 290.684 152.642C290.769 152.399 290.77 152.135 290.688 151.891C290.614 151.64 290.457 151.422 290.245 151.27C290.033 151.118 289.776 151.041 289.516 151.051C285.804 150.899 281.406 151.353 276.438 152.407C275.576 152.588 274.678 152.421 273.94 151.94C273.202 151.459 272.685 150.704 272.502 149.841C272.321 148.978 272.488 148.079 272.968 147.34C273.448 146.601 274.202 146.083 275.064 145.901C280.572 144.734 285.526 144.235 289.787 144.408C291.408 144.458 292.974 145.011 294.267 145.99C295.561 146.969 296.519 148.327 297.009 149.875C297.499 151.423 297.498 153.085 297.004 154.632C296.51 156.18 295.55 157.535 294.254 158.511C262.757 182.621 189.081 195.21 167.249 198.491C166.864 198.549 166.475 198.578 166.086 198.578Z" fill="black"/>
<path d="M217.924 198.295C224.036 195.761 226.938 188.745 224.406 182.624C221.875 176.505 214.869 173.599 208.757 176.134C202.646 178.669 199.744 185.685 202.275 191.804C204.807 197.924 211.813 200.83 217.924 198.295Z" fill="#2E68DD"/>
<path d="M213.34 201.574C210.502 201.574 207.729 200.731 205.369 199.153C203.01 197.574 201.171 195.33 200.085 192.705C198.999 190.08 198.715 187.191 199.269 184.404C199.822 181.617 201.189 179.057 203.195 177.048C205.202 175.038 207.758 173.67 210.541 173.116C213.324 172.562 216.209 172.847 218.83 173.934C221.452 175.021 223.692 176.863 225.269 179.225C226.846 181.588 227.687 184.366 227.687 187.207C227.683 191.016 226.169 194.668 223.48 197.361C220.79 200.055 217.144 201.57 213.34 201.574ZM213.34 177.599C211.44 177.599 209.584 178.163 208.004 179.22C206.425 180.277 205.193 181.778 204.467 183.536C203.74 185.293 203.549 187.227 203.92 189.093C204.291 190.959 205.205 192.673 206.548 194.018C207.892 195.364 209.603 196.28 211.466 196.651C213.329 197.022 215.261 196.832 217.016 196.103C218.771 195.375 220.27 194.143 221.326 192.561C222.381 190.979 222.945 189.12 222.945 187.217C222.942 184.667 221.929 182.222 220.129 180.418C218.328 178.616 215.886 177.601 213.34 177.599Z" fill="black"/>
<g opacity="0.5">
<path opacity="0.5" d="M206.58 189.115C206.579 187.522 206.974 185.953 207.729 184.551C208.483 183.149 209.574 181.956 210.903 181.08C212.232 180.205 213.757 179.673 215.342 179.533C216.926 179.394 218.521 179.651 219.981 180.283C218.968 179.307 217.752 178.567 216.421 178.114C215.09 177.662 213.675 177.508 212.279 177.662C210.882 177.817 209.535 178.277 208.335 179.01C207.135 179.744 206.11 180.731 205.334 181.905C204.557 183.078 204.047 184.407 203.839 185.8C203.632 187.192 203.733 188.614 204.135 189.962C204.536 191.311 205.229 192.556 206.163 193.607C207.098 194.658 208.252 195.492 209.544 196.047C208.607 195.153 207.862 194.077 207.352 192.885C206.843 191.694 206.58 190.411 206.58 189.115Z" fill="white"/>
</g>
<g opacity="0.3">
<path opacity="0.3" d="M219.74 177.895C219.74 177.895 220.687 193.092 204.564 194.992C204.564 194.992 216.895 202.589 225.43 192.141C225.43 192.141 227.327 180.746 219.74 177.895Z" fill="black"/>
</g>
<path d="M81.2213 417.886C84.1212 417.886 86.4721 415.532 86.4721 412.627C86.4721 409.723 84.1212 407.369 81.2213 407.369C78.3212 407.369 75.9702 409.723 75.9702 412.627C75.9702 415.532 78.3212 417.886 81.2213 417.886Z" fill="black"/>
<path d="M521.137 358.121C521.673 354.815 519.431 351.7 516.13 351.163C512.829 350.627 509.718 352.872 509.182 356.177C508.646 359.484 510.888 362.599 514.189 363.135C517.491 363.672 520.602 361.427 521.137 358.121Z" fill="black"/>
<path d="M586.56 101.199C586.71 98.408 584.572 96.0238 581.784 95.8731C578.997 95.7233 576.616 97.8644 576.466 100.656C576.316 103.446 578.454 105.831 581.241 105.981C584.029 106.131 586.409 103.99 586.56 101.199Z" fill="black"/>
<path d="M556.227 62.4366C557.394 61.268 556.656 58.4897 554.594 55.3427C554.294 54.886 554.134 54.3512 554.134 53.8045C554.134 53.2577 554.294 52.7229 554.594 52.2662C556.656 49.1192 557.394 46.3428 556.227 45.1723C555.06 44.0017 552.286 44.7412 549.143 46.8083C548.687 47.1088 548.153 47.269 547.608 47.269C547.062 47.269 546.528 47.1088 546.072 46.8083C542.929 44.7412 540.155 44.0038 538.988 45.1723C537.82 46.3409 538.557 49.1192 540.622 52.2662C540.921 52.7229 541.081 53.2577 541.081 53.8045C541.081 54.3512 540.921 54.886 540.622 55.3427C538.557 58.4897 537.819 61.268 538.988 62.4366C540.157 63.6051 542.929 62.8678 546.072 60.8006C546.528 60.5001 547.062 60.3399 547.608 60.3399C548.153 60.3399 548.687 60.5001 549.143 60.8006C552.286 62.8678 555.059 63.6051 556.227 62.4366Z" fill="black"/>
<path d="M53.0323 383.883C54.3763 383.883 55.5472 381.869 56.1668 378.862C56.2563 378.427 56.4716 378.026 56.786 377.712C57.1003 377.397 57.5 377.183 57.9353 377.094C60.9291 376.471 62.9491 375.298 62.9491 373.953C62.9491 372.607 60.9371 371.436 57.9353 370.814C57.5003 370.724 57.1008 370.509 56.7866 370.195C56.4723 369.88 56.2568 369.48 56.1668 369.044C55.5472 366.044 54.3763 364.024 53.0323 364.024C51.6883 364.024 50.5194 366.039 49.8977 369.044C49.8079 369.48 49.5928 369.879 49.2789 370.194C48.9649 370.508 48.566 370.724 48.1312 370.814C45.1355 371.436 43.1175 372.608 43.1175 373.953C43.1175 375.296 45.1295 376.471 48.1312 377.094C48.5662 377.183 48.9654 377.398 49.2794 377.713C49.5934 378.027 49.8084 378.427 49.8977 378.862C50.5114 381.86 51.6823 383.883 53.0323 383.883Z" fill="black"/>
<path d="M112.565 100.312C116.99 100.312 120.576 96.7197 120.576 92.2885C120.576 87.8582 116.99 84.2662 112.565 84.2662C108.141 84.2662 104.553 87.8582 104.553 92.2885C104.553 96.7197 108.141 100.312 112.565 100.312Z" fill="black"/>
<path d="M78.0085 136.564C78.5048 133.711 76.5972 130.995 73.7478 130.498C70.8984 130.001 68.1861 131.911 67.6898 134.765C67.1936 137.618 69.1011 140.334 71.9506 140.831C74.8 141.328 77.5123 139.418 78.0085 136.564Z" fill="black"/>
<path d="M176.564 330.066L196.504 323.683L178.51 334.397C177.965 334.721 177.315 334.815 176.701 334.658C176.088 334.502 175.561 334.108 175.239 333.563C174.915 333.018 174.821 332.367 174.977 331.753C175.133 331.138 175.527 330.611 176.071 330.287C176.228 330.197 176.392 330.122 176.564 330.066Z" fill="black"/>
<path d="M207.576 332.116L224.007 324.634L210.089 336.144C209.598 336.532 208.975 336.712 208.353 336.646C207.731 336.579 207.161 336.272 206.763 335.789C206.364 335.306 206.171 334.687 206.223 334.063C206.276 333.439 206.57 332.86 207.043 332.451C207.206 332.317 207.385 332.205 207.576 332.116Z" fill="black"/>
<path d="M289.447 387.042L305.573 382.567L291.348 391.392C291.081 391.558 290.783 391.669 290.473 391.72C290.163 391.771 289.846 391.76 289.539 391.688C289.233 391.616 288.944 391.484 288.689 391.3C288.433 391.117 288.216 390.884 288.051 390.616C287.885 390.349 287.774 390.051 287.723 389.74C287.672 389.429 287.683 389.111 287.755 388.805C287.827 388.498 287.958 388.208 288.142 387.953C288.326 387.697 288.558 387.48 288.825 387.314C289.019 387.195 289.228 387.103 289.447 387.042Z" fill="black"/>
<path d="M319.475 388.164L331.18 383.516L322.026 392.167C321.558 392.593 320.942 392.817 320.31 392.793C319.678 392.767 319.081 392.496 318.648 392.035C318.214 391.574 317.978 390.962 317.99 390.329C318.003 389.696 318.263 389.093 318.714 388.65C318.936 388.443 319.194 388.277 319.475 388.164Z" fill="black"/>
</g>
</g>
<defs>
<clipPath id="clip0_105_1797">
<rect width="669" height="506" fill="white"/>
</clipPath>
</defs>
</svg>
