<svg width="0" height="0">
			<symbol
				fill="none"
				xmlns="http://www.w3.org/2000/svg"
				viewBox="0 0 24 24"
				id="button-arrow"
			>
				<g clip-path="url(#clip0_125_135)">
					<path
						d="M12.2333 23.1666C18.4005 23.1666 23.4 18.1672 23.4 12C23.4 5.8328 18.4005 0.833313 12.2333 0.833313C6.06615 0.833313 1.06667 5.8328 1.06667 12C1.06667 18.1672 6.06615 23.1666 12.2333 23.1666Z"
						stroke="white"
						stroke-width="1.11667"
					></path>
					<path
						fill-rule="evenodd"
						clip-rule="evenodd"
						d="M16.0226 12.0175L12.8931 8.888L12.3189 9.46219L14.7553 11.8986H7.61435C7.38976 11.8986 7.20827 12.0805 7.20827 12.3046C7.20827 12.5287 7.38976 12.7107 7.61435 12.7107H14.7553L12.3189 15.147L12.8931 15.7212L16.0226 12.5917C16.1814 12.4329 16.1814 12.1763 16.0226 12.0175Z"
						fill="white"
					></path>
				</g>
				<defs>
					<clipPath id="clip0_125_135">
						<rect width="24" height="24" fill="white"></rect>
					</clipPath>
				</defs>
			</symbol>
		</svg>