<svg width="0" height="0">
			<symbol
				fill="none"
				xmlns="http://www.w3.org/2000/svg"
				viewBox="0 0 24 24"
				id="button-arrow"
			>
				<g clip-path="url(#clip0_125_135)">
					<path
						d="M12.2333 23.1666C18.4005 23.1666 23.4 18.1672 23.4 12C23.4 5.8328 18.4005 0.833313 12.2333 0.833313C6.06615 0.833313 1.06667 5.8328 1.06667 12C1.06667 18.1672 6.06615 23.1666 12.2333 23.1666Z"
						stroke="white"
						stroke-width="1.11667"
					></path>
					<path
						fill-rule="evenodd"
						clip-rule="evenodd"
						d="M16.0226 12.0175L12.8931 8.888L12.3189 9.46219L14.7553 11.8986H7.61435C7.38976 11.8986 7.20827 12.0805 7.20827 12.3046C7.20827 12.5287 7.38976 12.7107 7.61435 12.7107H14.7553L12.3189 15.147L12.8931 15.7212L16.0226 12.5917C16.1814 12.4329 16.1814 12.1763 16.0226 12.0175Z"
						fill="white"
					></path>
				</g>
				<defs>
					<clipPath id="clip0_125_135">
						<rect width="24" height="24" fill="white"></rect>
					</clipPath>
				</defs>
			</symbol>
			<symbol fill="none" xmlns="http://www.w3.org/2000/svg" viewBox="0 0 30 30" id="dot-line">
   				<path d="M18.7509 19.7018L23.4528 14.9999L18.7509 10.298L14.0491 14.9999L18.7509 19.7018ZM18.7509 22.3556L12.3328 15.9374H3.17406V14.0625H12.3328L18.7509 7.64429L26.1066 14.9999L18.7509 22.3556Z" fill="#2E68DD"></path>
			</symbol>

			<symbol fill="none" xmlns="http://www.w3.org/2000/svg" viewBox="0 0 85 85" id="website-tracking">
				<g id="Layer_1 (3) 1" clip-path="url(#clip0_125_668)">
				<g id="Clip path group">
					<mask id="mask0_125_668" maskUnits="userSpaceOnUse" x="0" y="0" width="85" height="85">
					<g id="clip0_1_97">
						<path id="Vector" d="M85 0H0V85H85V0Z" fill="white"></path>
					</g>
					</mask>
					<g mask="url(#mask0_125_668)">
					<g id="Group">
						<path id="Vector_2" fill-rule="evenodd" clip-rule="evenodd" d="M21.25 7.58929V10.625H25.8036V7.58929H21.25ZM13.6607 7.58929V10.625H18.2143V7.58929H13.6607ZM6.07143 7.58929V10.625H10.625V7.58929H6.07143ZM6.07143 7.58929V10.625H10.625V7.58929H6.07143ZM13.6607 7.58929V10.625H18.2143V7.58929H13.6607ZM21.25 7.58929V10.625H25.8036V7.58929H21.25ZM6.07143 7.58929V10.625H10.625V7.58929H6.07143ZM13.6607 7.58929V10.625H18.2143V7.58929H13.6607ZM21.25 7.58929V10.625H25.8036V7.58929H21.25ZM21.25 7.58929V10.625H25.8036V7.58929H21.25ZM13.6607 10.625H18.2143V7.58929H13.6607V10.625ZM6.07143 10.625H10.625V7.58929H6.07143V10.625ZM83.4821 0H1.51786C0.683036 0 0 0.683036 0 1.51786V83.4821C0 84.317 0.683036 85 1.51786 85H51.6071V81.9643H3.03571V18.2143H81.9643V81.9643H71.3393V85H83.4821C84.317 85 85 84.317 85 83.4821V1.51786C85 0.683036 84.317 0 83.4821 0ZM81.9643 15.1786H3.03571V3.03571H81.9643V15.1786ZM25.8036 7.58929H21.25V10.625H25.8036V7.58929ZM18.2143 7.58929H13.6607V10.625H18.2143V7.58929ZM10.625 7.58929H6.07143V10.625H10.625V7.58929Z" fill="white"></path>
						<path id="Vector_3" fill-rule="evenodd" clip-rule="evenodd" d="M68.8208 44.2911C68.5172 44.0027 68.1074 43.8509 67.6975 43.8813L64.7377 44.0482C64.252 42.3634 63.5842 40.7393 62.7342 39.2063L64.935 37.2331C65.2538 36.9598 65.4359 36.5652 65.4511 36.1402C65.4511 35.7304 65.2993 35.3206 64.9958 35.0322L57.8922 27.9286C57.6038 27.625 57.2091 27.4581 56.7841 27.4732C56.3591 27.4884 55.9645 27.6706 55.6913 27.9893L53.7181 30.2054C52.185 29.3402 50.5609 28.6723 48.8761 28.1866L49.0431 25.2268C49.0583 24.817 48.9216 24.4072 48.6333 24.1036C48.3449 23.8 47.935 23.6331 47.5252 23.6331H37.477C37.0672 23.6331 36.6574 23.8 36.369 24.1036C36.0806 24.4072 35.944 24.817 35.9592 25.2268L36.1261 28.1866C34.4413 28.6723 32.8172 29.3402 31.2842 30.1902L29.3109 27.9893C29.0377 27.6706 28.6431 27.4884 28.2181 27.4732C27.8083 27.4732 27.3984 27.625 27.11 27.9286L20.0065 35.0322C19.7029 35.3206 19.5511 35.7304 19.5663 36.1402C19.5663 36.5652 19.7484 36.9598 20.0672 37.2331L22.2681 39.2063C21.4181 40.7393 20.7502 42.3634 20.2645 44.0482L17.3047 43.8813C16.8949 43.8509 16.485 44.0027 16.1815 44.2911C15.8779 44.5795 15.7109 44.9741 15.7109 45.3991V55.4473C15.7109 55.8572 15.8779 56.2518 16.1815 56.5402C16.485 56.8286 16.8949 56.9804 17.3047 56.9652L20.2493 56.7982C20.735 58.4831 21.4029 60.1072 22.2681 61.6402L20.0672 63.6134C19.7484 63.8866 19.5663 64.2813 19.5663 64.6911C19.5511 65.1161 19.7029 65.5259 20.0065 65.8143L27.11 72.9179C27.3984 73.2063 27.7931 73.3732 28.2181 73.3581C28.6431 73.3429 29.0377 73.1607 29.3109 72.8572L31.269 70.6563C32.8172 71.5215 34.4413 72.1893 36.1261 72.675L35.9592 75.6045C35.944 76.0295 36.0806 76.4393 36.369 76.7429C36.6574 77.0465 37.0672 77.2134 37.477 77.2134H47.5252C47.935 77.2134 48.3449 77.0465 48.6333 76.7429C48.9216 76.4393 49.0583 76.0295 49.0431 75.6045L48.8761 72.675C50.5609 72.1893 52.2002 71.5215 53.7333 70.6563L55.6913 72.8572C55.9645 73.1607 56.3591 73.3429 56.7841 73.3581C57.1636 73.3884 57.6038 73.2063 57.8922 72.9179L64.9958 65.8143C65.2993 65.5259 65.4511 65.1161 65.4511 64.6911C65.4359 64.2813 65.2538 63.8866 64.935 63.6134L62.7342 61.6402C63.5842 60.1072 64.2672 58.4831 64.7377 56.7982L67.6975 56.9652C68.1074 56.9652 68.5172 56.8286 68.8208 56.5402C69.1243 56.2518 69.2913 55.8572 69.2913 55.4473V45.3991C69.2913 44.9741 69.1243 44.5795 68.8208 44.2911ZM66.2556 53.8384L63.6752 53.6866C62.977 53.6563 62.2636 54.142 62.0966 54.8706C61.5958 57.0866 60.7306 59.1964 59.5163 61.1393C59.1065 61.7616 59.2279 62.5813 59.7743 63.0822L61.7172 64.7973L56.8904 69.6393L55.16 67.7116C54.6743 67.15 53.8547 67.0438 53.2172 67.4384C51.2895 68.6527 49.1797 69.5331 46.9484 70.034C46.235 70.2009 45.7341 70.8536 45.7645 71.5973L45.9163 74.1777H39.0859L39.2377 71.5973C39.2833 70.8536 38.7824 70.2009 38.0538 70.034C35.8225 69.5331 33.7127 68.6527 31.785 67.4232C31.1627 67.0286 30.3279 67.15 29.8422 67.6964L28.1118 69.6393L23.285 64.7973L25.2127 63.0822C25.7743 62.5813 25.8806 61.7616 25.4859 61.1393C24.2717 59.2116 23.4065 57.1018 22.8904 54.8706C22.7386 54.142 22.0404 53.6563 21.327 53.6866L18.7467 53.8384V47.0081L21.3422 47.1447C22.0404 47.175 22.7386 46.6893 22.9056 45.9759C23.4065 43.7447 24.2868 41.65 25.5011 39.7072C25.8958 39.0848 25.7895 38.2652 25.2279 37.7643L23.285 36.0339L28.1118 31.2072L29.8574 33.15C30.3431 33.6965 31.1627 33.8179 31.785 33.4232C33.7279 32.209 35.8225 31.3286 38.0538 30.8277C38.7824 30.6607 39.2833 30.0081 39.2377 29.2643L39.0859 26.6688H45.9163L45.7645 29.2643C45.7341 30.0081 46.235 30.6607 46.9484 30.8277C49.1797 31.3286 51.2743 32.209 53.202 33.4232C53.8243 33.8179 54.6592 33.6965 55.1449 33.15L56.8904 31.2072L61.7172 36.0339L59.7743 37.7643C59.2279 38.2652 59.1065 39.0848 59.5011 39.7072C60.7306 41.6348 61.5958 43.7447 62.0966 45.9759C62.2636 46.6893 62.977 47.175 63.66 47.1447L66.2556 47.0081V53.8384Z" fill="#2E68DD"></path>
						<path id="Vector_4" fill-rule="evenodd" clip-rule="evenodd" d="M42.5018 38.7964C36.0812 38.7964 30.875 44.0026 30.875 50.4232C30.875 56.8437 36.0812 62.05 42.5018 62.05C48.9223 62.05 54.1286 56.8285 54.1286 50.4232C54.1286 44.0178 48.9071 38.7964 42.5018 38.7964ZM42.5018 59.0142C37.7661 59.0142 33.9107 55.1589 33.9107 50.4232C33.9107 45.6875 37.7661 41.8321 42.5018 41.8321C47.2375 41.8321 51.0929 45.6875 51.0929 50.4232C51.0929 55.1589 47.2375 59.0142 42.5018 59.0142Z" fill="#2E68DD"></path>
					</g>
					</g>
				</g>
				</g>
			</symbol>
			<symbol fill="none" xmlns="http://www.w3.org/2000/svg" viewBox="0 0 101 94" id="tracking-strategy">
				<g id="Icon-Service_64_Amazon-Inspector 1" clip-path="url(#clip0_122_1156)">
				<path id="Vector" fill-rule="evenodd" clip-rule="evenodd" d="M97.844 77.0266L74.235 56.2548C77.1026 50.9341 78.7259 44.8735 78.7259 38.4604C78.7259 17.2482 61.0689 0 39.3539 0C17.6389 0 0 17.2482 0 38.4604C0 59.6728 17.657 76.9209 39.3539 76.9209C47.5421 76.9209 55.1532 74.4544 61.4657 70.2613L84.9844 90.9805C86.8057 92.5834 89.1145 93.3766 91.405 93.3766C94.0201 93.3766 96.6537 92.3369 98.5468 90.2755C102.082 86.4347 101.757 80.4974 97.844 77.0266ZM39.3539 73.2563C19.7311 73.2563 3.75143 57.6467 3.75143 38.4604C3.75143 19.2743 19.7311 3.66458 39.3539 3.66458C58.9767 3.66458 74.9745 19.2743 74.9745 38.4604C74.9745 57.6467 58.9949 73.2563 39.3539 73.2563ZM95.7697 87.8265C93.6053 90.1699 89.89 90.3637 87.491 88.2495L64.5137 68.0061C67.5257 65.5572 70.1409 62.6855 72.2871 59.4789L95.3365 79.7398C97.7171 81.854 97.9157 85.4831 95.7697 87.8265Z" fill="white"></path>
				<path id="Vector_2" fill-rule="evenodd" clip-rule="evenodd" d="M39.3518 9.9015C23.2459 9.9015 10.1339 22.7099 10.1339 38.4606C10.1339 54.2112 23.2459 67.0196 39.3518 67.0196C55.4577 67.0196 68.5877 54.2112 68.5877 38.4606C68.5877 22.7099 55.4757 9.9015 39.3518 9.9015ZM44.2755 40.7333V33.1223C47.7564 32.2942 50.3536 29.2463 50.3536 25.5817C50.3536 21.3005 46.7824 17.8121 42.3998 17.8121C38.0171 17.8121 34.4461 21.3005 34.4461 25.5817C34.4461 29.2463 37.0432 32.2942 40.5241 33.1223V39.6586C40.1453 39.6234 39.7486 39.5882 39.3518 39.5882C36.5743 39.5882 34.0312 40.6276 32.0834 42.3013L27.5564 37.8263C28.7648 36.135 29.4682 34.0912 29.4682 31.8714C29.4682 28.2949 27.6286 25.0003 24.5444 23.0623L22.5966 26.0398C24.6527 27.3083 25.8791 29.4929 25.8791 31.8714C25.8791 35.6945 22.6868 38.8129 18.7549 38.8129V42.3366C21.0455 42.3366 23.1737 41.6319 24.9232 40.4162L29.7207 45.1731C28.8549 46.7059 28.368 48.4677 28.368 50.3353C28.368 56.255 33.2918 61.0647 39.3518 61.0647C45.4118 61.0647 50.3355 56.255 50.3536 50.3528L60.8143 51.8327C56.2873 58.7567 48.3697 63.3551 39.3518 63.3551C25.3019 63.3551 13.8673 52.1852 13.8673 38.4606C13.8673 24.736 25.3019 13.5661 39.3518 13.5661C53.4016 13.5661 64.8362 24.736 64.8362 38.4606C64.8362 42.0018 64.0607 45.3493 62.708 48.3972L49.6322 46.5473C48.6582 44.0103 46.7284 41.949 44.2755 40.7333ZM46.6021 50.3353C46.6021 54.2465 43.3557 57.4178 39.3518 57.4178C35.3478 57.4178 32.1194 54.2465 32.1194 50.3353C32.1194 46.424 35.3659 43.2527 39.3518 43.2527C43.3377 43.2527 46.6021 46.424 46.6021 50.3353ZM42.3998 29.7043C40.0732 29.7043 38.1974 27.8544 38.1974 25.5817C38.1974 23.3089 40.0732 21.4767 42.3998 21.4767C44.7264 21.4767 46.6021 23.3266 46.6021 25.5817C46.6021 27.8369 44.7084 29.7043 42.3998 29.7043Z" fill="#2E68DD"></path>
				</g>				
  			</symbol>
			<symbol fill="none" xmlns="http://www.w3.org/2000/svg" viewBox="0 0 101 101" id="tracking-audit">
				<g id="Layer_1 (8) 3" clip-path="url(#clip0_122_1136)">
				<g id="Clip path group">
					<mask id="mask0_122_1136" maskUnits="userSpaceOnUse" x="0" y="0" width="101" height="101">
					<g id="clip0_1_603">
						<path id="Vector" d="M101 0H0V101H101V0Z" fill="white"></path>
					</g>
					</mask>
					<g mask="url(#mask0_122_1136)">
					<g id="Group">
						<path id="Vector_2" d="M88.3783 0H1.81374C0.809439 0 0 0.809439 0 1.81374V88.3783C0 89.3683 0.809439 90.1771 1.81374 90.1771H64.92V86.5653H3.61249V12.6212H86.5653V86.5653H79.355V90.1771H88.3783C89.3683 90.1771 90.1771 89.3683 90.1771 88.3783V1.81374C90.1771 0.809439 89.3683 0 88.3783 0ZM86.5653 9.02372H3.61249V3.61249H86.5653V9.02372ZM12.6212 97.3874V93.7898H9.02372V99.1862C9.02372 100.19 9.83323 101 10.8225 101H73.9438V97.3874H12.6212ZM99.1862 9.02372H93.7898V12.6212H97.3874V97.3874H88.3783V101H99.1862C100.19 101 101 100.19 101 99.1862V10.8225C101 9.83323 100.19 9.02372 99.1862 9.02372Z" fill="white"></path>
						<path id="Vector_3" d="M64.9234 64.92V81.1537C64.9234 81.7683 64.6235 82.3379 64.1139 82.6677C63.8141 82.8625 63.4694 82.9674 63.1246 82.9674C62.8848 82.9674 62.6449 82.9075 62.4051 82.8176L45.9915 75.6525L29.5779 82.8176C29.0232 83.0574 28.3787 82.9974 27.8691 82.6677C27.3594 82.3379 27.0596 81.7683 27.0596 81.1537V64.92H30.6721V78.4106L45.272 72.04C45.7367 71.8302 46.2613 71.8302 46.711 72.04L61.3258 78.4106V64.92H64.9234Z" fill="#2E68DD"></path>
						<path id="Vector_4" d="M45.9869 16.2336C32.5712 16.2336 21.6438 27.1611 21.6438 40.5768C21.6438 53.9925 32.5712 64.92 45.9869 64.92C59.4026 64.92 70.3301 54.0075 70.3301 40.5768C70.3301 27.1461 59.4176 16.2336 45.9869 16.2336ZM45.9869 61.3224C34.5498 61.3224 25.2563 52.0138 25.2563 40.5768C25.2563 29.1398 34.5498 19.8462 45.9869 19.8462C57.424 19.8462 66.7325 29.1398 66.7325 40.5768C66.7325 52.0138 57.424 61.3224 45.9869 61.3224Z" fill="#2E68DD"></path>
						<path id="Vector_5" d="M58.0837 35.5403L43.6638 49.9753C43.304 50.32 42.8393 50.4999 42.3897 50.4999C41.9399 50.4999 41.4603 50.32 41.1155 49.9753L33.8906 42.7503L36.4388 40.2021L42.3897 46.1529L55.5355 32.992L58.0837 35.5403Z" fill="#2E68DD"></path>
					</g>
					</g>
				</g>
				</g>
  			</symbol>
			  <symbol fill="none" xmlns="http://www.w3.org/2000/svg" viewBox="0 0 101 101" id="analysis">
    			<g id="AWS-Cost-and-Usage-Report_64 1 1">
				<path id="Vector" fill-rule="evenodd" clip-rule="evenodd" d="M56.8125 50.5H67.8594V47.3438H56.8125V50.5ZM80.4844 50.5H86.7969V47.3438H80.4844V50.5ZM56.8125 42.6094H75.75V39.4531H56.8125V42.6094ZM15.7812 88.375C13.3935 88.375 11.0469 86.0299 11.0469 83.6406C11.0469 81.2513 13.3935 78.9062 15.7812 78.9062C18.1705 78.9062 20.5156 81.2513 20.5156 83.6406C20.5156 86.0299 18.1705 88.375 15.7812 88.375ZM15.7812 66.2812C13.3935 66.2812 11.0469 63.9362 11.0469 61.5469C11.0469 59.1576 13.3935 56.8125 15.7812 56.8125C18.1705 56.8125 20.5156 59.1576 20.5156 61.5469C20.5156 63.9362 18.1705 66.2812 15.7812 66.2812ZM15.7812 44.1875C13.3935 44.1875 11.0469 41.8424 11.0469 39.4531C11.0469 37.0638 13.3935 34.7188 15.7812 34.7188C18.1705 34.7188 20.5156 37.0638 20.5156 39.4531C20.5156 41.8424 18.1705 44.1875 15.7812 44.1875ZM15.7812 22.0938C13.4803 22.0938 11.0469 19.6603 11.0469 17.3594C11.0469 15.0585 13.4803 12.625 15.7812 12.625C18.0822 12.625 20.5156 15.0585 20.5156 17.3594C20.5156 19.6603 18.0822 22.0938 15.7812 22.0938ZM72.5938 63.125V59.9688H36.2969V17.3594C36.2969 16.4883 35.5915 15.7812 34.7188 15.7812H23.4778C22.6587 12.363 19.3052 9.46875 15.7812 9.46875C11.7255 9.46875 7.89062 13.3036 7.89062 17.3594C7.89062 21.4152 11.7255 25.25 15.7812 25.25C19.3052 25.25 22.6587 22.3557 23.4778 18.9375H33.1406V37.875H23.4841C22.6855 34.4142 19.3778 31.5625 15.7812 31.5625C11.6513 31.5625 7.89062 35.3232 7.89062 39.4531C7.89062 43.5831 11.6513 47.3438 15.7812 47.3438C19.3778 47.3438 22.6855 44.4921 23.4841 41.0312H33.1406V59.9688H23.4841C22.6855 56.5079 19.3778 53.6562 15.7812 53.6562C11.6513 53.6562 7.89062 57.4169 7.89062 61.5469C7.89062 65.6768 11.6513 69.4375 15.7812 69.4375C19.3778 69.4375 22.6855 66.5858 23.4841 63.125H33.1406V82.0625H23.4841C22.6855 78.6017 19.3778 75.75 15.7812 75.75C11.6513 75.75 7.89062 79.5107 7.89062 83.6406C7.89062 87.7706 11.6513 91.5312 15.7812 91.5312C19.3778 91.5312 22.6855 88.6796 23.4841 85.2188H34.7188C35.5915 85.2188 36.2969 84.5117 36.2969 83.6406V63.125H72.5938ZM75.75 63.125H86.7969V59.9688H75.75V63.125ZM80.4844 42.6094H86.4844V39.4531H80.4844V42.6094ZM78.9062 29.9844V21.169L87.7217 29.9844H78.9062ZM93.092 31.4647C93.0825 31.3258 93.0541 31.1901 93.0084 31.0559C92.9926 31.0054 92.9784 30.9581 92.9579 30.9092C92.8805 30.7419 92.7827 30.5825 92.647 30.4468L78.4439 16.2436C78.3081 16.1095 78.1503 16.0117 77.983 15.9359C77.9341 15.9122 77.8836 15.8996 77.8316 15.8807C77.7021 15.8365 77.568 15.8112 77.4307 15.8018C77.3944 15.7986 77.3644 15.7812 77.3281 15.7812H50.5C49.6289 15.7812 48.9219 16.4883 48.9219 17.3594V56.8125H52.0781V18.9375H75.75V31.5625C75.75 32.4336 76.457 33.1406 77.3281 33.1406H89.9531V82.0625H52.0781V66.2812H48.9219V83.6406C48.9219 84.5117 49.6289 85.2188 50.5 85.2188H91.5312C92.404 85.2188 93.1094 84.5117 93.1094 83.6406V31.5625C93.1094 31.5294 93.0936 31.4978 93.092 31.4647Z" fill="white"></path>
				</g>
  			</symbol>
			 <symbol fill="none" xmlns="http://www.w3.org/2000/svg" viewBox="0 0 101 104" id="reporting-visualization">
				<g id="AWS-SageMaker_Icon_64_Squid 1" clip-path="url(#clip0_122_1065)">
				<path id="Vector" fill-rule="evenodd" clip-rule="evenodd" d="M76.7413 24.6369C76.7413 25.6958 75.881 26.5656 74.8335 26.5656C73.7861 26.5656 72.9445 25.6958 72.9445 24.6369C72.9445 23.5779 73.8048 22.7082 74.8335 22.7082C75.8622 22.7082 76.7413 23.5779 76.7413 24.6369ZM65.4629 43.4893C65.4629 42.4492 66.3047 41.5984 67.3334 41.5984C68.3621 41.5984 69.2037 42.4492 69.2037 43.4893C69.2037 44.5293 68.3621 45.3802 67.3334 45.3802C66.3047 45.3802 65.4629 44.5293 65.4629 43.4893ZM65.4629 79.4166C65.4629 78.3766 66.3047 77.5256 67.3334 77.5256C68.3621 77.5256 69.2037 78.3766 69.2037 79.4166C69.2037 80.4566 68.3621 81.3074 67.3334 81.3074C66.3047 81.3074 65.4629 80.4566 65.4629 79.4166ZM84.1664 54.8347C84.1664 55.8747 83.325 56.7256 82.2963 56.7256C81.2676 56.7256 80.426 55.8747 80.426 54.8347C80.426 53.7947 81.2676 52.9438 82.2963 52.9438C83.325 52.9438 84.1664 53.7947 84.1664 54.8347ZM97.2597 61.018L87.8324 55.5533C87.87 55.3074 87.9076 55.0806 87.9076 54.8347C87.9076 51.7147 85.3826 49.1619 82.2963 49.1619C79.2102 49.1619 76.6852 51.7147 76.6852 54.8347C76.6852 57.9547 79.2102 60.5074 82.2963 60.5074C83.7924 60.5074 85.1397 59.9024 86.1497 58.938L95.1829 64.1758L87.0845 68.2791C86.4485 68.6006 86.0553 69.2624 86.0553 69.962V85.9215L63.5739 99.9137L52.389 93.4473V81.3074H62.0776C62.8445 83.5009 64.9018 85.0895 67.3521 85.0895C70.4381 85.0895 72.9632 82.5366 72.9632 79.4166C72.9632 76.2966 70.4381 73.7438 67.3521 73.7438C64.9205 73.7438 62.8632 75.3322 62.0776 77.5256H52.389V51.0529C52.389 50.3911 52.0524 49.7671 51.4726 49.4267L42.1208 43.7539L40.1942 46.9874L48.6484 52.1118V57.6711L37.4261 66.4071V58.6166C37.4261 58.0493 37.1642 57.5009 36.7153 57.1416L28.0742 50.1453V40.7286L38.4548 33.7322C38.9785 33.3729 39.2965 32.7867 39.2965 32.1627V20.8172H35.5558V31.1416L26.2226 37.4194L16.8521 31.1227V16.2034L26.2039 10.6819V26.4711H29.9447V8.48855L37.4261 4.08271L48.6484 10.6252V34.0347C48.6484 34.7154 49.0037 35.3394 49.6022 35.6798L61.8345 42.7329C61.7971 42.9787 61.7597 43.2246 61.7597 43.4893C61.7597 46.6092 64.2847 49.1619 67.3708 49.1619C70.4568 49.1619 72.9818 46.6092 72.9818 43.4893C72.9818 40.3693 70.4568 37.8166 67.3708 37.8166C65.8932 37.8166 64.5465 38.4027 63.5365 39.3671L52.4078 32.9379V10.6252L63.5552 4.12053L84.2039 18.0376V22.6893H80.1828C79.3972 20.4958 77.3211 18.9452 74.8897 18.9452C71.7848 18.9452 69.2598 21.4979 69.2598 24.6558C69.2598 27.8136 71.7848 30.3664 74.8897 30.3664C77.3772 30.3664 79.4721 28.7402 80.2389 26.4899H84.2231V32.1627C84.2231 32.8434 84.5779 33.4674 85.158 33.8078L97.2964 40.8231V61.0369L97.2597 61.018ZM37.4448 99.8953L31.5532 96.2267L42.2516 88.5114L40.0821 85.43L28.1116 94.0713L14.9816 85.9022V71.0209L23.4171 65.8966L21.4905 62.6631L13.0178 67.8064L3.74074 63.1169V52.2253L13.9342 47.082L12.2697 43.6973L3.75945 48.0086V40.8231L14.9068 34.3751L24.3335 40.6907V50.0696L13.9529 57.0471L16.029 60.2049L26.1291 53.4166L33.6853 59.5242V69.3191L25.0629 76.0129L27.3448 79.0006L48.6484 62.4362V93.428L37.4635 99.8953H37.4448ZM100.065 38.0624L87.9259 31.0471V17.0166C87.9259 16.3926 87.6079 15.7874 87.0845 15.4471L64.64 0.319801C64.0415 -0.0772901 63.2934 -0.0961993 62.6761 0.263074L50.5187 7.35399L38.3426 0.244164C37.7628 -0.0961993 37.0334 -0.0961993 36.4722 0.244164L14.0278 13.4994C13.4479 13.8398 13.0926 14.4638 13.0926 15.1256V31.0471L0.953891 38.0624C0.355371 38.4027 0 39.0267 0 39.7074V40.5016C0 40.5016 0 40.5773 0 40.6151V61.1882C0 61.1882 0 61.2638 0 61.3016V64.2893C0 65.0078 0.392778 65.6507 1.02871 65.9722L11.2222 71.1154V86.9615C11.2222 87.6232 11.5589 88.228 12.12 88.5685L36.4348 103.695C36.734 103.885 37.0708 103.98 37.4261 103.98C37.7441 103.98 38.0621 103.903 38.3613 103.734L50.5187 96.6998L62.6761 103.734C63.256 104.074 64.004 104.055 64.5839 103.695L88.8984 88.5685C89.4601 88.228 89.7965 87.6232 89.7965 86.9615V71.1154L99.9716 65.9722C100.607 65.6507 101 65.0078 101 64.2893V39.7074C101 39.0267 100.644 38.4027 100.065 38.0624Z" fill="white"></path>
				</g>				
  			</symbol>
			<symbol fill="none" xmlns="http://www.w3.org/2000/svg" viewBox="0 0 101 98" id="server-side-tracking">
				<g id="Isolation_Mode (1) 3" clip-path="url(#clip0_122_1145)">
				<g id="Clip path group">
					<mask id="mask0_122_1145" maskUnits="userSpaceOnUse" x="0" y="0" width="101" height="98">
					<g id="clip0_1_648">
						<path id="Vector" d="M101 0H0V98H101V0Z" fill="white"></path>
					</g>
					</mask>
					<g mask="url(#mask0_122_1145)">
					<g id="Group">
						<path id="Vector_2" fill-rule="evenodd" clip-rule="evenodd" d="M98.112 81.3089L75.7342 59.1577C78.9851 53.4333 80.8315 46.8378 80.8315 39.8223C80.8315 17.8733 62.6989 0 40.4158 0C18.1326 0 0 17.8733 0 39.8223C0 61.7711 18.1326 79.66 40.4158 79.66C48.3696 79.66 55.771 77.3734 62.0361 73.4534L84.051 95.1377C85.9762 97.0514 88.5328 98 91.0736 98C93.6143 98 96.1549 97.0514 98.0958 95.1377C101.962 91.3267 101.962 85.12 98.112 81.3089ZM40.4158 76.5333C19.8843 76.5333 3.17203 60.06 3.17203 39.8223C3.17203 19.5845 19.8843 3.12667 40.4158 3.12667C60.9472 3.12667 77.6753 19.5845 77.6753 39.8223C77.6753 60.06 60.9629 76.5333 40.4158 76.5333ZM95.8557 92.9289C93.2199 95.5262 88.9274 95.5262 86.2918 92.9289L64.6874 71.6488C68.3328 68.9577 71.5049 65.6444 74.0456 61.9111L95.8709 83.5178C98.4912 86.1155 98.4912 90.3311 95.8557 92.9289Z" fill="white"></path>
						<path id="Vector_3" fill-rule="evenodd" clip-rule="evenodd" d="M40.4131 9.3645C23.3693 9.3645 9.51342 23.0378 9.51342 39.8223C9.51342 56.6067 23.3693 70.2801 40.4131 70.2801C57.4568 70.2801 71.3286 56.6223 71.3286 39.8223C71.3286 23.0223 57.4568 9.3645 40.4131 9.3645ZM40.4131 67.1689C25.1211 67.1689 12.6854 54.8956 12.6854 39.8223C12.6854 24.749 25.1211 12.4912 40.4131 12.4912C55.7051 12.4912 68.1565 24.7645 68.1565 39.8223C68.1565 54.8801 55.7051 67.1689 40.4131 67.1689Z" fill="#2E68DD"></path>
						<path id="Vector_4" fill-rule="evenodd" clip-rule="evenodd" d="M61.0883 27.7667V30.8778C59.7154 30.8778 58.4055 31.3756 57.3955 32.2778C57.0168 32.62 56.4802 32.76 55.9753 32.6511C55.4544 32.5267 55.0442 32.1689 54.8547 31.6867C52.9136 26.7867 47.911 23.5045 42.3718 23.5045C38.5685 23.5045 34.923 25.0444 32.398 27.7511C30.236 30.0689 29.0524 33.04 29.0524 36.1044C29.0524 36.7889 28.5947 37.4112 27.9319 37.6133C24.6336 38.6245 22.1875 41.2533 21.5089 44.4578C21.5089 44.4733 21.5089 44.5045 21.4932 44.5201C21.3827 45.1111 21.3354 45.6711 21.3354 46.2312C21.3354 51.24 25.6436 55.3 30.9461 55.3H56.0383V58.4266H30.9461C23.8919 58.4266 18.1633 52.9511 18.1633 46.2312C18.1633 45.5 18.2265 44.7845 18.3685 44.0378C18.3685 43.9911 18.3843 43.96 18.3843 43.9133C19.1891 39.9156 22.0297 36.5867 25.9119 35.0156C26.1802 31.5467 27.6321 28.2489 30.0782 25.6356C33.1871 22.2911 37.6847 20.3778 42.3718 20.3778C48.5107 20.3778 54.1446 23.6756 56.9694 28.7778C58.2161 28.1089 59.6207 27.7667 61.0883 27.7667Z" fill="#2E68DD"></path>
					</g>
					</g>
				</g>
				</g>
 	 		</symbol>
			<symbol fill="none" xmlns="http://www.w3.org/2000/svg" viewBox="0 0 101 101" id="conversion-tracking">
				<g id="Isolation_Mode (2) 1" clip-path="url(#clip0_122_1174)">
				<g id="Clip path group">
					<mask id="mask0_122_1174" maskUnits="userSpaceOnUse" x="0" y="0" width="101" height="101">
					<g id="clip0_1_597">
						<path id="Vector" d="M101 0H0V101H101V0Z" fill="white"></path>
					</g>
					</mask>
					<g mask="url(#mask0_122_1174)">
					<g id="Group">
						<path id="Vector_2" fill-rule="evenodd" clip-rule="evenodd" d="M73.4234 70.8624L70.8624 73.4234L97.6995 100.26L100.26 97.6995L73.4234 70.8624ZM3.30054 0.739464L0.739464 3.30054L27.5045 30.0655L30.0655 27.5045L3.30054 0.739464ZM20.9395 77.5716L6.79946 91.7113L9.36053 94.2547L23.5005 80.1146L20.9395 77.5716ZM91.6396 6.87161L77.4995 21.0116L80.0605 23.5546L94.2004 9.41462L91.6396 6.87161ZM96.6712 48.6964C96.3106 39.5704 93.3532 30.8951 87.996 23.4825L85.0745 25.6107C89.9801 32.3921 92.7038 40.3459 93.0644 48.6964H88.375V52.3036H93.0644C92.7397 60.7082 89.9985 68.7161 85.0745 75.5336L87.996 77.6438C93.3707 70.213 96.3465 61.4657 96.6712 52.3036H101V48.6964H96.6712ZM52.3036 4.40071V0H48.6964V4.40071C39.5523 4.74339 30.8411 7.70125 23.4284 13.0759L25.5386 15.9976C32.338 11.0739 40.3098 8.35053 48.6964 8.00786V12.625H52.3036V8.00786C60.6901 8.35053 68.662 11.0739 75.4614 15.9976L77.5716 13.0759C70.1589 7.70125 61.4476 4.74339 52.3036 4.40071ZM75.4614 85.1463C68.662 90.0703 60.6901 92.794 52.3036 93.1362V88.375H48.6964V93.1362C40.3098 92.794 32.338 90.0703 25.5386 85.1463L23.4284 88.0687C30.8411 93.4434 39.5523 96.3832 48.6964 96.7438V101H52.3036V96.7438C61.4476 96.3832 70.1589 93.4434 77.5716 88.0687L75.4614 85.1463ZM12.625 52.3036V48.6964H7.93571C8.29643 40.3459 11.0199 32.3921 15.9255 25.6107L13.0038 23.4825C7.64714 30.8951 4.68929 39.5704 4.32857 48.6964H0V52.3036H4.32857C4.65321 61.4657 7.61107 70.213 13.0038 77.6438L15.9255 75.5336C10.9838 68.7161 8.26036 60.7082 7.93571 52.3036H12.625Z" fill="white"></path>
						<path id="Vector_3" fill-rule="evenodd" clip-rule="evenodd" d="M66.8044 39.1735C66.2814 38.885 65.6321 38.885 65.109 39.1735C64.568 39.4621 64.2073 39.9851 64.1531 40.5984C64.0089 41.8067 63.8105 42.8889 63.576 43.8448C62.3315 30.0114 51.3659 24.3842 49.1475 23.3923C46.875 21.6429 44.1155 20.4525 40.9051 19.8934C40.1115 19.7491 39.3 20.1639 38.9573 20.9034C38.6146 21.6429 38.813 22.5266 39.4442 23.0496C39.7148 23.2841 45.3239 28.1537 43.7187 37.4241C41.6265 34.6826 38.29 31.3641 34.3762 31.3641C33.781 31.3641 33.2219 31.6526 32.8973 32.1576C32.5546 32.6446 32.4825 33.2579 32.6989 33.817C32.735 33.9251 36.4142 43.6104 32.8612 49.1834C32.6628 49.4719 32.4825 49.7785 32.3201 50.0671C28.1719 57.3896 30.3723 66.9305 37.3521 71.7821C40.5084 73.9825 44.3319 75.8942 48.7146 77.4634C48.913 77.5355 49.1114 77.5716 49.3278 77.5716C49.3639 77.5716 49.4 77.5535 49.436 77.5535C50.1935 77.4995 68.2292 75.9484 71.7642 62.2412C76.3092 44.6384 67.2012 39.408 66.8044 39.1916V39.1735ZM46.6044 72.738C43.899 71.5837 41.5003 70.2671 39.4081 68.8062C33.9614 65.0007 32.2119 57.5519 35.4584 51.8346C35.6026 51.5821 35.7469 51.3476 35.8912 51.0951C38.9392 46.3337 38.0555 39.8409 37.0996 35.9091C39.6967 37.6225 42.0414 41.1575 42.835 42.6364C43.1776 43.2676 43.845 43.6464 44.5664 43.5742C45.2878 43.5201 45.901 43.0512 46.1355 42.3839C48.8228 34.7548 47.4521 29.0195 45.5584 25.3041C47.8489 26.6387 49.6344 28.5505 50.8067 31.0034C53.3678 36.3059 52.7906 43.5742 49.3278 49.9589C44.5844 58.6882 45.5403 67.8323 46.6044 72.738ZM68.2653 61.3214C65.8846 70.5376 54.6123 73.1167 50.5903 73.766C49.6164 70.2671 47.6505 60.6 52.5021 51.6723C55.9289 45.3598 56.8487 38.1996 55.1173 32.2839C58.3817 36.1255 61.1412 42.1494 59.6803 51.2214C59.5721 51.9609 59.9148 52.6823 60.564 53.061C61.2134 53.4398 62.025 53.3857 62.6021 52.9167C62.7464 52.7905 65.7042 50.3557 67.129 44.44C68.8605 46.947 70.664 52.015 68.2653 61.3214Z" fill="#2E68DD"></path>
					</g>
					</g>
				</g>
				</g>
  			</symbol>
			<symbol fill="none" xmlns="http://www.w3.org/2000/svg" viewBox="0 0 100 101" id="consultation">
				<g id="AWS-Support_64 1 1">
				<path id="Vector" fill-rule="evenodd" clip-rule="evenodd" d="M76.5391 81.1993C73.4933 81.1993 71.0156 78.7216 71.0156 75.6758C71.0156 72.63 73.4933 70.1524 76.5391 70.1524C79.5848 70.1524 82.0625 72.63 82.0625 75.6758C82.0625 78.7216 79.5848 81.1993 76.5391 81.1993ZM76.5391 66.9961C71.7542 66.9961 67.8594 70.8894 67.8594 75.6758C67.8594 80.4623 71.7542 84.3555 76.5391 84.3555C81.3239 84.3555 85.2188 80.4623 85.2188 75.6758C85.2188 70.8894 81.3239 66.9961 76.5391 66.9961ZM92.6927 77.3155L91.3782 77.2398C90.6333 77.1956 89.92 77.7148 89.7495 78.4675C89.4039 79.9936 88.8043 81.4407 87.9678 82.7679C87.556 83.4197 87.6775 84.2735 88.2519 84.7863L89.2335 85.6638L86.5444 88.3529L85.6732 87.376C85.1572 86.7969 84.3034 86.6817 83.6533 87.092C82.326 87.93 80.8789 88.5297 79.3497 88.8753C78.5969 89.0457 78.0777 89.7353 78.1219 90.5055L78.1961 91.8106H74.3944L74.4686 90.5039C74.5127 89.7322 73.9935 89.0441 73.2408 88.8737C71.7147 88.5281 70.2676 87.9284 68.9404 87.0888C68.287 86.6785 67.4317 86.7937 66.9188 87.3729L66.0461 88.3529L63.3554 85.6638L64.3354 84.7895C64.9099 84.2766 65.0298 83.4228 64.6179 82.7695C63.7815 81.4439 63.1834 79.9967 62.8378 78.4691C62.6689 77.7148 61.9098 77.1956 61.2092 77.2398L59.8977 77.3155V73.5106L61.2155 73.5864C61.9493 73.6101 62.6737 73.113 62.8441 72.3602C63.1913 70.8341 63.791 69.3902 64.6274 68.0661C65.0393 67.4143 64.9193 66.559 64.3433 66.0445L63.3554 65.1624L66.0461 62.4732L66.9267 63.4611C67.4412 64.0372 68.2949 64.1555 68.9451 63.7436C70.2707 62.9088 71.7147 62.3107 73.2408 61.9667C73.9935 61.7962 74.5127 61.1082 74.4686 60.338L74.3944 59.0156H78.1977L78.1219 60.3396C78.0777 61.1097 78.5969 61.7994 79.3481 61.9682C80.871 62.3123 82.315 62.9104 83.6422 63.7468C84.2892 64.1571 85.1477 64.0403 85.6606 63.4627L86.5444 62.4732L89.2351 65.1624L88.2487 66.043C87.6743 66.5558 87.5528 67.4112 87.9663 68.063C88.8027 69.3854 89.4008 70.831 89.7464 72.357C89.9168 73.1114 90.6333 73.6101 91.375 73.5864L92.6927 73.5106V77.3155ZM95.355 70.6921C95.041 70.3954 94.6054 70.2376 94.1825 70.2644L92.4781 70.3623C92.1735 69.387 91.7822 68.4449 91.3072 67.5422L92.5823 66.4059C92.9058 66.1171 93.0967 65.7068 93.1094 65.2728C93.122 64.8388 92.9531 64.4191 92.647 64.1129L87.5954 59.0597C87.2877 58.752 86.8789 58.5721 86.4355 58.5989C85.9999 58.6116 85.5896 58.8009 85.3024 59.126L84.1598 60.4059C83.2571 59.9309 82.3166 59.5411 81.346 59.2381L81.4423 57.5274C81.4675 57.0934 81.3129 56.6689 81.0146 56.3533C80.7164 56.0376 80.3029 55.8593 79.8673 55.8593H72.7232C72.2892 55.8593 71.8741 56.0376 71.5759 56.3533C71.2776 56.6689 71.1229 57.0934 71.1482 57.5274L71.246 59.2365C70.2707 59.5395 69.3318 59.9277 68.4275 60.4027L67.2881 59.1245C66.9977 58.8009 66.5874 58.6116 66.155 58.5989C65.7494 58.5768 65.3012 58.752 64.9951 59.0597L59.9419 64.1129C59.6358 64.4191 59.4685 64.8388 59.4795 65.2728C59.4922 65.7068 59.6831 66.1171 60.0066 66.4059L61.2849 67.5453C60.8099 68.448 60.4201 69.3886 60.1155 70.3623L58.4096 70.2644C57.9693 70.236 57.5495 70.3954 57.237 70.6921C56.9198 70.9904 56.7415 71.4054 56.7415 71.8394V78.9852C56.7415 79.4191 56.9198 79.8342 57.237 80.1325C57.5495 80.4307 57.9708 80.5822 58.4096 80.5617L60.1076 80.4639C60.4106 81.4391 60.8004 82.3829 61.277 83.2887L60.0066 84.4202C59.6831 84.709 59.4922 85.1193 59.4795 85.5533C59.4685 85.9873 59.6358 86.4071 59.9419 86.7132L64.9951 91.7648C65.3012 92.0725 65.7447 92.243 66.155 92.2272C66.589 92.2146 66.9977 92.0236 67.2881 91.7001L68.4196 90.4313C69.3255 90.9079 70.2692 91.2993 71.2445 91.6023L71.1482 93.2988C71.1229 93.7312 71.2776 94.1557 71.5759 94.4713C71.8741 94.7869 72.2892 94.9668 72.7232 94.9668H79.8673C80.3029 94.9668 80.7164 94.7869 81.0162 94.4713C81.3129 94.1557 81.4675 93.7312 81.4423 93.2972L81.346 91.6054C82.3229 91.3008 83.2682 90.9095 84.1725 90.4345L85.3024 91.7001C85.5896 92.0236 85.9999 92.2146 86.4355 92.2272C86.8837 92.2461 87.2893 92.0725 87.5954 91.7648L92.647 86.7132C92.9531 86.4071 93.122 85.9873 93.1094 85.5533C93.0967 85.1193 92.9058 84.709 92.5823 84.4202L91.3103 83.2856C91.7853 82.3813 92.1767 81.4376 92.4797 80.4639L94.1825 80.5617C94.6039 80.5806 95.041 80.4307 95.355 80.1325C95.6707 79.8342 95.849 79.4191 95.849 78.9852V71.8394C95.849 71.4054 95.6707 70.9904 95.355 70.6921ZM34.8923 39.379C34.8923 32.8518 40.2027 27.543 46.7283 27.543C53.2554 27.543 58.5642 32.8518 58.5642 39.379C58.5642 45.9061 53.2554 51.2149 46.7283 51.2149C40.2027 51.2149 34.8923 45.9061 34.8923 39.379ZM45.8019 90.5244L27.1706 80.467L27.6551 80.4733C27.846 65.8536 36.4705 54.4011 47.2933 54.4011C51.3538 54.4011 55.2565 56.115 58.58 59.3564L60.7846 57.0966C58.6763 55.0403 56.3501 53.5237 53.893 52.5437C58.5548 49.9982 61.7205 45.0523 61.7205 39.379C61.7205 31.1127 54.9961 24.3868 46.7283 24.3868C38.4621 24.3868 31.7361 31.1127 31.7361 39.379C31.7361 45.2369 35.1227 50.3075 40.0307 52.7725C31.3936 56.4764 25.1537 66.6379 24.5683 79.0625L9.46875 70.9099V29.0801L46.7125 9.8838L82.0625 29.0564V52.6273H85.2188V27.1785L46.7488 6.3125L6.3125 27.1564V72.7942L45.7293 94.0705L54.3459 89.8805L52.965 87.0431L45.8019 90.5244Z" fill="white"></path>
				</g>
  			</symbol>
			<symbol id="rocket" xmlns="http://www.w3.org/2000/svg" viewBox="0 0 128 128">
				<path d="m54.794 94.032h18.32v6.941h-18.32z" fill="#9297ab"></path>
				<path d="m98.178 72.374-15.552-15.474-6.148 34.967 14.853 7.1a1.663 1.663 0 0 0 2.32-1.1l5.5-22.007a3.657 3.657 0 0 0 -.973-3.486z" fill="#b0b3c1"></path>
				<path d="m29.822 72.374a3.657 3.657 0 0 0 -.974 3.485l5.5 22.007a1.663 1.663 0 0 0 2.32 1.1l15.04-7.01-6.465-34.927z" fill="#b0b3c1"></path>
				<path d="m82.062 33.623c-5.676-22.972-18.108-31.623-18.108-31.623s-12.432 8.648-18.107 31.62c-5.073 20.534 3.674 54.239 5.588 61.163a1.729 1.729 0 0 0 1.665 1.269h21.7a1.729 1.729 0 0 0 1.668-1.266c1.92-6.924 10.666-40.629 5.594-61.163z" fill="#c1cdd3"></path>
				<path d="m82.062 33.623c-5.674-22.968-18.106-31.623-18.106-31.623a27.79 27.79 0 0 0 -3.977 3.674c4.139 4.471 10.506 13.3 14.129 27.949 5.674 22.977-5.947 62.427-5.947 62.427h6.644a1.728 1.728 0 0 0 1.668-1.267c1.914-6.923 10.66-40.623 5.589-61.16z" fill="#b0b3c1"></path>
				<path d="m80.933 29.517c-6.04-19.904-16.979-27.517-16.979-27.517s-10.938 7.613-16.978 27.517z" fill="#17346E"></path>
				<path d="m80.933 29.513h-7.74c-3.748-12.336-9.378-19.95-13.111-23.957a27.624 27.624 0 0 1 3.874-3.556s10.934 7.614 16.977 27.513z" fill="#5C7099"></path>
				<circle cx="63.954" cy="48.934" fill="var(--primaryAccent)" r="8.65" transform="matrix(.526 -.851 .851 .526 -11.294 77.611)"></circle>
				<path d="m73.115 100.973h-18.321c-3.114 1.946-4.529 7.66-2.953 10.977.4.834.941 1.587 1.405 2.385a14.055 14.055 0 0 1 1.413 10.565 12.277 12.277 0 0 0 5.778-8.968 6.61 6.61 0 0 1 4.391 4.019 18.609 18.609 0 0 1 1.144 6.049 10.187 10.187 0 0 0 3.909-6.66c.354-2.761-.944-7.188 1.4-8.7a22.306 22.306 0 0 1 3.444 5.565s4.867-10.105-1.61-15.232z" fill="#ef5361"></path>
				<path d="m57.689 100.973h9.855c1.675 1.047 2.437 4.121 1.589 5.905-.213.448-.506.853-.756 1.283a7.554 7.554 0 0 0 -.76 5.684 6.608 6.608 0 0 1 -3.109-4.825 3.552 3.552 0 0 0 -2.361 2.163 9.973 9.973 0 0 0 -.616 3.253 5.482 5.482 0 0 1 -2.1-3.583c-.19-1.485.508-3.867-.75-4.677a12.014 12.014 0 0 0 -1.854 2.993s-2.622-5.441.862-8.196z" fill="#f2a846"></path>
  			</symbol>
			<symbol clip-rule="evenodd" fill-rule="evenodd" stroke-linejoin="round" stroke-miterlimit="2" xmlns="http://www.w3.org/2000/svg" viewBox="0 0 24 24" id="plus">
    			<path d="m11 11h-7.25c-.414 0-.75.336-.75.75s.336.75.75.75h7.25v7.25c0 .414.336.75.75.75s.75-.336.75-.75v-7.25h7.25c.414 0 .75-.336.75-.75s-.336-.75-.75-.75h-7.25v-7.25c0-.414-.336-.75-.75-.75s-.75.336-.75.75z" fill-rule="nonzero"></path>
  			</symbol>
			<symbol fill="none" xmlns="http://www.w3.org/2000/svg" viewBox="0 0 1024 1024" id="upwork">
				<circle fill="#14a800" cx="512" cy="512" r="512"></circle>
				<path fill="#fff"  d="M362.26 544.5c-18.49 0-30.73-14-34.15-19.43 4.38-34.33 17.2-45.18 34.15-45.18C379 479.88 392 493 392 512.19s-13 32.31-29.74 32.31zm0-85.69c-30.15 0-47 19.25-51.87 39.06-5.48-10.1-9.54-23.6-12.69-36.16H256v50.79c0 18.42-8.57 32.05-25.32 32.05s-26.35-13.63-26.35-32.05l.19-50.79h-24v50.79c0 14.83 4.9 28.27 13.85 37.86 9.21 9.91 21.78 15.08 36.34 15.08 29 0 49.23-21.77 49.23-52.94v-34.13c3 11.23 10.24 32.81 24 51.74L291.06 602h24.42l8.5-50.92a66.79 66.79 0 0 0 8.89 6.12 55.15 55.15 0 0 0 27.19 8.2s1.48.06 2.26.06c29.9 0 53.67-22.65 53.67-53.26s-23.83-53.39-53.73-53.39zm345.29 13.75v-10.85H684v100.52h23.9v-39.38c0-24.23 2.26-41.64 35.44-39.37v-23c-15.49-1.1-27.54 2.05-35.79 12.08zm-166-10.85L524.26 532l-18.49-70.29h-30.42L456.8 532l-17.27-70.29H415.3l26.55 100.58h28.74l20-71.43 19.78 71.43h28.74l28.09-100.58zm78.22 82.85c-17 0-29.77-13.12-29.77-32.37s12.82-32.31 29.77-32.31c16.75 0 29.77 13.12 29.77 32.31s-12.98 32.37-29.73 32.37zm0-85.75c-30.09 0-53.67 22.84-53.67 53.38s23.58 53.19 53.67 53.19c29.9 0 53.67-22.65 53.67-53.19s-23.67-53.38-53.63-53.38zm157.78 54h5.54l33.38 49.47h27l-38.4-54.83c18.62-7.13 31.12-25.74 31.12-45.75h-23.81c0 21.71-17.46 29.91-34.79 29.91V422h-24v140.29h23.9z"></path>
			</symbol>		
			<symbol  version="1.1" id="facebook" xmlns="http://www.w3.org/2000/svg" xmlns:xlink="http://www.w3.org/1999/xlink" xmlSpace="preserve" viewBox="0 0 291.319 291.319">
				<g>
				<path fill="#1877F2" d="M145.659,0c80.45,0,145.66,65.219,145.66,145.66c0,80.45-65.21,145.659-145.66,145.659
					S0,226.109,0,145.66C0,65.219,65.21,0,145.659,0z"></path>
				<path fill="white" d="M163.394,100.277h18.772v-27.73h-22.067v0.1c-26.738,0.947-32.218,15.977-32.701,31.763h-0.055
					v13.847h-18.207v27.156h18.207v72.793h27.439v-72.793h22.477l4.342-27.156h-26.81v-8.366
					C154.791,104.556,158.341,100.277,163.394,100.277z"></path>
				</g>
			</symbol>
			<symbol fill="none" xmlns="http://www.w3.org/2000/svg" viewBox="0 0 52 53" id="instagram">
				<g id="instagram" clip-path="url(#clip0_125_835)">
				<path id="Vector" d="M26.0304 52.7968C20.0228 52.7927 14.2014 50.7144 9.55207 46.9139C4.90278 43.1135 1.71145 37.8246 0.518644 31.9429C-0.67416 26.0613 0.204901 19.9486 3.00693 14.6402C5.80896 9.33193 10.3617 5.15425 15.8939 2.81487C22.2529 0.155901 29.4078 0.123378 35.7907 2.72444C42.1737 5.3255 47.2642 10.348 49.9468 16.6914C52.6294 23.0349 52.6854 30.182 50.1024 36.5665C47.5195 42.9511 42.5083 48.0525 36.1668 50.753C32.9601 52.1086 29.5124 52.8036 26.0304 52.7968ZM20.2168 12.6312C18.1814 12.6372 16.2309 13.4475 14.7917 14.8853C13.3523 16.323 12.5411 18.2714 12.5351 20.3046V32.7655C12.5411 34.7988 13.3523 36.7471 14.7917 38.1849C16.2309 39.6226 18.1814 40.433 20.2168 40.439H32.691C34.7265 40.433 36.6769 39.6226 38.1163 38.1849C39.5555 36.7471 40.3667 34.7988 40.3727 32.7655V20.3046C40.3667 18.2714 39.5555 16.323 38.1163 14.8853C36.6769 13.4475 34.7265 12.6372 32.691 12.6312H20.2168ZM32.691 37.9741H20.2168C18.837 37.9692 17.5151 37.4195 16.5395 36.4448C15.5638 35.4702 15.0135 34.1497 15.0085 32.7714V20.3046C15.0135 18.9263 15.5638 17.6058 16.5395 16.6313C17.5151 15.6566 18.837 15.1069 20.2168 15.102H32.691C34.0719 15.1053 35.3953 15.6543 36.3722 16.6292C37.3492 17.604 37.9003 18.9253 37.9052 20.3046V32.7655C37.9018 34.1459 37.3513 35.4688 36.3743 36.4448C35.3972 37.4208 34.0729 37.9707 32.691 37.9741ZM26.4529 19.3721C24.5504 19.3721 22.7257 20.1271 21.3804 21.4709C20.0351 22.8148 19.2793 24.6375 19.2793 26.538C19.2793 28.4386 20.0351 30.2613 21.3804 31.6051C22.7257 32.949 24.5504 33.704 26.4529 33.704H26.4588C28.3614 33.704 30.1861 32.949 31.5314 31.6051C32.8767 30.2613 33.6325 28.4386 33.6325 26.538C33.6325 24.6375 32.8767 22.8148 31.5314 21.4709C30.1861 20.1271 28.3614 19.3721 26.4588 19.3721H26.4529ZM33.9292 17.2792C33.5103 17.2797 33.1046 17.4252 32.7812 17.6911C32.4576 17.957 32.2365 18.3266 32.1554 18.7372C32.0742 19.1477 32.1381 19.5735 32.3361 19.9423C32.5342 20.311 32.8541 20.5997 33.2413 20.7591C33.4593 20.8498 33.6931 20.8966 33.9292 20.8966C34.4095 20.8966 34.87 20.706 35.2095 20.3668C35.5491 20.0276 35.7398 19.5676 35.7398 19.0879C35.7398 18.6082 35.5491 18.1482 35.2095 17.809C34.87 17.4698 34.4095 17.2792 33.9292 17.2792ZM26.4539 31.2342C25.2066 31.2342 24.0103 30.7392 23.1283 29.8581C22.2462 28.9771 21.7508 27.7821 21.7508 26.5361C21.7508 25.2901 22.2462 24.095 23.1283 23.214C24.0103 22.3329 25.2066 21.838 26.4539 21.838H26.4588C27.7062 21.838 28.9025 22.3329 29.7844 23.214C30.6665 24.095 31.162 25.2901 31.162 26.5361C31.162 27.7821 30.6665 28.9771 29.7844 29.8581C28.9025 30.7392 27.7062 31.2342 26.4588 31.2342H26.4539Z" fill="#c22f86"></path>
				</g>
				<defs>
				<clipPath id="clip0_125_835">
					<rect width="52" height="53" fill="white"></rect>
				</clipPath>
				</defs>
  			</symbol>
			<symbol fill="white" xmlns="http://www.w3.org/2000/svg" viewBox="0 0 54 53" id="linkedin">
				<g fill="white" id="linkedin" clip-path="url(#clip0_125_837)">
				<path id="Subtraction 1" d="M26.7421 53H26.6821C20.6029 52.9642 14.7202 50.8431 10.017 46.9912C5.31382 43.1393 2.0751 37.7899 0.842085 31.837C-0.0662285 27.161 0.280298 22.3278 1.84641 17.8292C3.41252 13.3305 6.14232 9.32705 9.75809 6.226C13.6523 2.93948 18.4174 0.855014 23.4741 0.226C24.6268 0.0767102 25.7878 0.00122309 26.9501 0H27.0041C31.1732 0.00407516 35.2792 1.01908 38.9701 2.958C42.5463 4.84812 45.6553 7.51296 48.0701 10.758C50.5609 14.0781 52.2318 17.9399 52.9464 22.0286C53.661 26.1172 53.3991 30.3168 52.1821 34.285C50.5163 39.8788 47.0174 44.7496 42.2481 48.114C39.9895 49.7033 37.4978 50.9323 34.8621 51.757C32.2345 52.5823 29.4962 53.0015 26.7421 53ZM32.2611 24.887C32.8662 24.8601 33.4599 25.058 33.9279 25.4426C34.3959 25.8271 34.7051 26.3712 34.7961 26.97L34.9191 27.383L34.9351 32.313L34.9511 37.243H40.4161V32.17C40.4161 28.941 40.3961 26.905 40.3611 26.583C40.0181 23.445 38.4751 21.427 35.8981 20.748C35.3214 20.6299 34.7336 20.5749 34.1451 20.584C33.8061 20.5761 33.4671 20.6016 33.1331 20.66C31.7283 21.0415 30.474 21.8442 29.5391 22.96L29.3201 23.218V20.94H23.8551V37.24H29.3241V32.5C29.3241 27.227 29.3241 27.227 29.6471 26.571C29.8729 26.0667 30.2406 25.639 30.7052 25.34C31.1699 25.0409 31.7115 24.8836 32.2641 24.887H32.2611ZM15.4341 20.942V37.242H20.9041V20.94H15.4421L15.4341 20.942ZM18.2571 13.076C17.9113 13.0774 17.5672 13.1231 17.2331 13.212C16.6225 13.374 16.0844 13.7371 15.7056 14.2426C15.3268 14.7481 15.1295 15.3665 15.1454 15.998C15.1614 16.6295 15.3897 17.2371 15.7935 17.7229C16.1974 18.2086 16.7531 18.544 17.3711 18.675C17.6461 18.7325 17.9262 18.7619 18.2071 18.763C18.6219 18.7736 19.0347 18.7018 19.4216 18.5518C19.8085 18.4017 20.1618 18.1765 20.4611 17.889C20.7174 17.6298 20.9189 17.3216 21.0534 16.9828C21.188 16.6439 21.2528 16.2815 21.2441 15.917C21.2454 15.5317 21.1682 15.1501 21.0171 14.7957C20.866 14.4412 20.6442 14.1212 20.3653 13.8554C20.0864 13.5895 19.7563 13.3832 19.395 13.2492C19.0337 13.1152 18.6489 13.0563 18.2641 13.076H18.2571Z" fill="#0077B5" ></path>
				</g>
				<defs fill="white">
				<clipPath fill="white" id="clip0_125_837">
					<rect width="54" height="53" fill="white"></rect>
				</clipPath>
				</defs>
  			</symbol>
			<symbol xmlns="http://www.w3.org/2000/svg" viewBox="0 0 500 500" id="circle-circles">
				<ellipse cx="206.057" cy="190.023" rx="129.454" ry="129.454" transform="matrix(0.9999999999999999, 0, 0, 0.9999999999999999, 0, 0)"></ellipse>
				<ellipse cx="240.498" cy="161.52" rx="6.532" ry="6.532" transform="matrix(0.9999999999999999, 0, 0, 0.9999999999999999, 0, 0)"></ellipse>
				<ellipse cx="267.814" cy="129.454" rx="6.532" ry="6.532" transform="matrix(0.9999999999999999, 0, 0, 0.9999999999999999, 0, 0)"></ellipse>
				<ellipse cx="169.239" cy="211.995" rx="6.532" ry="6.532" transform="matrix(0.9999999999999999, 0, 0, 0.9999999999999999, 0, 0)"></ellipse>
				<ellipse cx="131.234" cy="232.779" rx="6.532" ry="6.532" transform="matrix(0.9999999999999999, 0, 0, 0.9999999999999999, 0, 0)"></ellipse>
				<ellipse cx="205.463" cy="190.024" rx="86.105" ry="86.105" transform="matrix(0.9999999999999999, 0, 0, 0.9999999999999999, 0, 0)"></ellipse>
				<ellipse cx="206.947" cy="189.926" rx="44.24" ry="44.24" transform="matrix(0.9999999999999999, 0, 0, 0.9999999999999999, 0, 0)"></ellipse>
			</symbol>
		</svg>