<svg width="69" height="63" viewBox="0 0 69 63" fill="none" xmlns="http://www.w3.org/2000/svg">
<path d="M0.58059 9.71587L16.6114 18.5344L16.233 0.242094L0.58059 9.71587ZM43.404 48.7484L44.792 49.5127L43.404 48.7484ZM24.1835 39.7126L25.5264 40.5535L24.1835 39.7126ZM14.6087 10.9887C24.9126 12.5008 34.1143 17.7166 39.5338 24.5866C44.9137 31.4063 46.5384 39.7724 42.0161 47.984L44.792 49.5127C50.0393 39.9846 48.0384 30.2508 42.0218 22.6238C36.0447 15.047 26.079 9.46903 15.0688 7.85329L14.6087 10.9887ZM42.0161 47.984C38.6923 54.0194 32.5411 55.1214 28.2461 53.258C26.101 52.3273 24.4945 50.6921 23.8572 48.6236C23.2265 46.5764 23.4663 43.8433 25.5264 40.5535L22.8405 38.8716C20.4084 42.7556 19.8683 46.4391 20.8287 49.5566C21.7825 52.6527 24.1382 54.9301 26.9848 56.1652C32.6735 58.6333 40.6249 57.0794 44.792 49.5127L42.0161 47.984ZM25.5264 40.5535C30.4666 32.6644 40.6421 29.532 49.4645 32.6584C58.129 35.7288 65.7962 45.0206 65.1097 62.6563L68.2763 62.7796C69.0039 44.0889 60.7832 33.3073 50.523 29.6714C40.4205 26.0913 28.6343 29.6194 22.8405 38.8716L25.5264 40.5535Z" fill="#FAFAFA"/>
</svg>
