<svg xmlns="http://www.w3.org/2000/svg" xmlns:xlink="http://www.w3.org/1999/xlink" version="1.1" id="Layer_1" x="0px" y="0px" viewBox="0 0 144 48" style="enable-background:new 0 0 144 48;">
<style type="text/css">
	.st0{clip-path:url(#SVGID_2_);}
	.st1{fill-rule:evenodd;clip-rule:evenodd;fill:#fff;}
	.st2{fill:#fff;}
</style>
<g>
	<defs>
		<rect id="SVGID_1_" width="144" height="48"/>
	</defs>
	<clipPath id="SVGID_2_">
		<use xlink:href="#SVGID_1_" style="overflow:visible;"/>
	</clipPath>
	<g class="st0">
		<path class="st1" d="M51.1,13.3v15.8h1.7c0.8,0,1.6,0,2.5-0.2c0.5-0.1,1-0.3,1.5-0.6c1-0.6,1.8-1.5,2.2-2.6c0.5-1.5,0.8-3,0.7-4.5&#xD;&#xA;   c0-2.8-0.5-4.8-1.6-6c-1.1-1.2-2.9-1.8-5.5-1.8H51.1z M45.9,12.3c0.4,0,0.7,0,1.2,0.1c0.4,0,1,0,1.9,0c0.5,0,1.2,0,2.2,0&#xD;&#xA;   c1,0,1.8,0,2.4,0c3,0,5.3,0.8,7,2.4s2.5,3.8,2.5,6.5c0,2.8-0.8,5-2.4,6.5c-1.6,1.5-3.9,2.3-6.9,2.3c-0.5,0-1.3,0-2.3,0&#xD;&#xA;   c-1,0-1.8,0-2.4,0c-0.6,0-1.1,0-1.7,0c-0.5,0-1.1,0-1.6,0.1v-1c0.9,0,1.5-0.1,1.7-0.4c0.2-0.2,0.4-0.8,0.4-1.7V15.4&#xD;&#xA;   c0-0.9-0.1-1.5-0.4-1.7c-0.2-0.2-0.8-0.3-1.7-0.4V12.3z M66.1,20.6c0-0.6-0.1-1-0.3-1.2c-0.2-0.2-0.8-0.2-1.7-0.3v-0.9&#xD;&#xA;   c0.8,0,1.6-0.1,2.3-0.1c0.8-0.1,1.5-0.1,2.3-0.2v3.2c0.3-0.9,0.8-1.7,1.4-2.3c0.2-0.3,0.5-0.5,0.8-0.6c0.3-0.1,0.7-0.2,1-0.2&#xD;&#xA;   c0.6,0,1.1,0.2,1.6,0.6c0.2,0.2,0.3,0.4,0.4,0.7c0.1,0.3,0.1,0.5,0.1,0.8c0,0.4-0.1,0.8-0.3,1.1c-0.1,0.1-0.3,0.2-0.4,0.3&#xD;&#xA;   c-0.2,0.1-0.3,0.1-0.5,0.1c-0.2,0-0.4,0-0.5-0.1c-0.2-0.1-0.3-0.2-0.5-0.3c-0.2-0.3-0.4-0.7-0.3-1.1c0-0.2,0-0.4,0.1-0.6&#xD;&#xA;   c0.1-0.2,0.1-0.4,0.2-0.6h0c-0.8,0-1.5,0.5-2.1,1.6c-0.6,1.2-0.9,2.5-0.9,3.9v3.2c0,0.7,0.1,1.2,0.4,1.4c0.3,0.2,1,0.3,2.3,0.3&#xD;&#xA;   v0.8c-1,0-1.8-0.1-2.5-0.1c-0.6,0-1.2,0-1.7,0c-0.2,0-0.5,0-1,0c-0.4,0-1.2,0-2.3,0.1v-0.8c0.9-0.1,1.5-0.2,1.7-0.4&#xD;&#xA;   s0.3-0.6,0.3-1.3V20.6z M75.4,27c-0.2-0.1-0.4-0.1-0.6-0.1l0,0c-0.2,0-0.4,0-0.6,0.1c-0.2,0.1-0.4,0.2-0.5,0.4&#xD;&#xA;   c-0.3,0.3-0.5,0.8-0.4,1.2c0,0.4,0.1,0.9,0.4,1.2c0.1,0.2,0.3,0.3,0.5,0.4c0.2,0.1,0.4,0.1,0.6,0.1c0.2,0,0.4,0,0.6-0.1&#xD;&#xA;   c0.2-0.1,0.4-0.2,0.5-0.4c0.3-0.3,0.4-0.8,0.4-1.2c0-0.4-0.1-0.9-0.4-1.2C75.8,27.2,75.6,27.1,75.4,27z M88,21.5V29h1.6&#xD;&#xA;   c1.6,0,2.7-0.3,3.4-0.8c0.6-0.6,1-1.5,1-2.9c0-1.4-0.3-2.4-1-3c-0.7-0.6-1.8-0.9-3.4-0.9L88,21.5z M88,13.3v7.2h1.8&#xD;&#xA;   c1.3,0,2.2-0.3,2.8-0.8c0.6-0.6,0.8-1.5,0.8-2.7c0-1.3-0.3-2.2-0.8-2.8c-0.6-0.5-1.6-0.8-3.1-0.8H88z M82.8,12.3&#xD;&#xA;   c0.5,0,1,0,1.5,0.1c0.5,0,1,0,1.5,0c1,0,1.9,0,2.9,0c1,0,1.5,0,1.6,0c2.1,0,3.6,0.4,4.6,1.1c1,0.7,1.5,1.8,1.5,3.3&#xD;&#xA;   c0,0.6-0.1,1.1-0.3,1.6s-0.5,1-0.9,1.4c-0.8,0.7-1.9,1.2-3.4,1.3V21c1.7,0.1,3,0.5,3.9,1.3c0.9,0.8,1.3,1.8,1.3,3.2&#xD;&#xA;   c0,1.6-0.5,2.7-1.6,3.4c-1.1,0.7-2.9,1.1-5.3,1.1c-0.6,0-1.4,0-2.3,0c-0.9,0-1.6,0-1.9,0c-0.5,0-1,0-1.6,0c-0.6,0-1.1,0-1.7,0.1&#xD;&#xA;   l0-1c0.9,0,1.5-0.1,1.7-0.4c0.2-0.2,0.4-0.8,0.4-1.7V15.1c0-0.8-0.1-1.3-0.4-1.5c-0.2-0.2-0.8-0.3-1.7-0.3L82.8,12.3z M107.4,22.8&#xD;&#xA;   l-5.7,0.1c0-1.3,0.3-2.3,0.9-3c0.2-0.3,0.6-0.6,0.9-0.8c0.4-0.2,0.8-0.3,1.2-0.3c0.4,0,0.8,0.1,1.2,0.2c0.4,0.2,0.7,0.4,0.9,0.8&#xD;&#xA;   C107.2,20.5,107.4,21.5,107.4,22.8z M102.7,27.6c-0.7-0.9-1-2.2-1-3.9l8.2-0.1v-0.2c0-1.7-0.5-3.1-1.4-4c-0.9-1-2.2-1.5-3.9-1.5&#xD;&#xA;   c-1.8,0-3.2,0.6-4.3,1.7c-1.1,1.1-1.6,2.6-1.6,4.5c0,1.9,0.5,3.4,1.6,4.5s2.5,1.6,4.3,1.6c1.2,0.1,2.4-0.3,3.5-0.9&#xD;&#xA;   c0.9-0.7,1.6-1.6,1.9-2.7l-0.7-0.2c-0.3,0.8-0.8,1.4-1.5,1.9c-0.7,0.4-1.5,0.7-2.3,0.7c-0.5,0-1.1-0.1-1.6-0.3&#xD;&#xA;   C103.5,28.4,103,28.1,102.7,27.6z M112.5,20.6c0-0.6-0.1-1-0.3-1.2c-0.2-0.2-0.8-0.2-1.7-0.3v-0.9c0.8,0,1.6-0.1,2.3-0.1&#xD;&#xA;   c0.8-0.1,1.5-0.1,2.3-0.2v3.2c0.3-0.9,0.8-1.7,1.4-2.3c0.2-0.3,0.5-0.5,0.8-0.6c0.3-0.1,0.7-0.2,1-0.2c0.6,0,1.1,0.2,1.6,0.6&#xD;&#xA;   c0.2,0.2,0.3,0.4,0.4,0.7c0.1,0.3,0.1,0.5,0.1,0.8c0,0.4-0.1,0.8-0.3,1.1c-0.1,0.1-0.3,0.2-0.4,0.3s-0.3,0.1-0.5,0.1&#xD;&#xA;   c-0.2,0-0.4,0-0.5-0.1c-0.2-0.1-0.3-0.2-0.5-0.3c-0.2-0.3-0.4-0.7-0.3-1.1c0-0.2,0-0.4,0.1-0.6c0.1-0.2,0.1-0.4,0.2-0.6h0&#xD;&#xA;   c-0.8,0-1.5,0.5-2.1,1.6c-0.6,1.2-0.9,2.5-0.9,3.9v3.2c0,0.7,0.1,1.2,0.4,1.4c0.3,0.2,1,0.3,2.3,0.3v0.8c-1,0-1.8-0.1-2.5-0.1&#xD;&#xA;   c-0.6,0-1.2,0-1.7,0c-0.2,0-0.5,0-1,0c-0.4,0-1.2,0-2.3,0.1v-0.8c0.9-0.1,1.5-0.2,1.7-0.4c0.2-0.2,0.3-0.6,0.3-1.3L112.5,20.6z&#xD;&#xA;    M125.1,19c0.3-0.1,0.6-0.2,1-0.2v0c0.3,0,0.7,0,1,0.2c0.3,0.1,0.6,0.4,0.8,0.6c0.4,0.5,0.6,1.3,0.6,2.4c0,1.1-0.2,1.9-0.6,2.4&#xD;&#xA;   c-0.2,0.3-0.5,0.5-0.8,0.6c-0.3,0.1-0.6,0.2-1,0.2c-0.3,0-0.7,0-1-0.2c-0.3-0.1-0.6-0.4-0.8-0.6c-0.4-0.5-0.6-1.3-0.6-2.4&#xD;&#xA;   c0-1.1,0.2-1.9,0.6-2.4C124.5,19.3,124.8,19.1,125.1,19z M122.8,31.4c0.3-0.3,0.6-0.6,1-0.7c0.9,0.1,2,0.2,3.3,0.3&#xD;&#xA;   c2.4,0.1,3.6,0.6,3.6,1.5c0,0.7-0.4,1.3-1.2,1.7c-1,0.5-2.1,0.7-3.2,0.7c-1.2,0-2.2-0.2-2.8-0.6c-0.3-0.2-0.6-0.4-0.7-0.7&#xD;&#xA;   c-0.2-0.3-0.3-0.6-0.3-1C122.4,32.1,122.5,31.7,122.8,31.4z M130.6,18c-0.4,0.3-0.8,0.6-1.2,1.1l0,0c-0.4-0.4-0.9-0.7-1.5-0.8&#xD;&#xA;   c-0.6-0.2-1.3-0.3-2-0.3c-1.3-0.1-2.5,0.4-3.4,1.2c-0.4,0.4-0.8,0.9-1,1.4c-0.2,0.5-0.3,1.1-0.3,1.7c0,0.8,0.2,1.5,0.7,2.2&#xD;&#xA;   c0.5,0.6,1.1,1.1,1.9,1.2c-0.6,0.2-1.1,0.5-1.6,1c-0.3,0.4-0.5,0.8-0.5,1.3c0,0.5,0.1,1,0.4,1.4c0.3,0.4,0.7,0.7,1.1,0.8&#xD;&#xA;   c-0.6,0.2-1.2,0.5-1.6,1c-0.4,0.4-0.6,1-0.6,1.5c0,0.9,0.5,1.6,1.4,2.1c1,0.5,2.2,0.8,3.8,0.8c2,0,3.5-0.4,4.8-1.2s1.8-1.8,1.8-3&#xD;&#xA;   c0-0.4-0.1-0.9-0.3-1.3c-0.2-0.4-0.5-0.7-0.9-0.9c-0.8-0.5-2-0.7-3.7-0.8c-0.1,0-0.1,0-0.2,0c-0.1,0-0.3,0-0.4,0&#xD;&#xA;   c-2.5-0.1-3.8-0.5-3.8-1.3c0-0.1,0-0.3,0.1-0.4c0.1-0.1,0.2-0.2,0.3-0.3c0.3-0.2,0.7-0.3,1.1-0.2c0.2,0,0.4,0,0.7,0&#xD;&#xA;   c0.3,0,0.4,0,0.5,0c1.5,0,2.7-0.4,3.5-1.1c0.8-0.7,1.2-1.7,1.2-3c0-0.4-0.1-0.9-0.2-1.3c-0.1-0.4-0.4-0.8-0.6-1.1&#xD;&#xA;   c0.1-0.2,0.2-0.3,0.4-0.4c0.1-0.1,0.3-0.2,0.5-0.2c0.2,0,0.4,0.1,0.5,0.2c0.2,0.1,0.5,0.2,0.8,0.2c0.1,0,0.2,0,0.3,0&#xD;&#xA;   c0.1,0,0.2-0.1,0.3-0.2c0.1-0.1,0.1-0.2,0.2-0.3c0-0.1,0.1-0.2,0-0.3c0-0.1,0-0.2,0-0.3c0-0.1-0.1-0.2-0.2-0.3&#xD;&#xA;   c-0.3-0.1-0.6-0.2-0.9-0.2C131.4,17.7,131,17.8,130.6,18z"/>
		<path class="st2" d="M136.3,15.9c0-0.6,0.2-1.3,0.5-1.8c0.3-0.6,0.8-1,1.3-1.3c0.6-0.3,1.2-0.5,1.8-0.5c0.6,0,1.3,0.2,1.8,0.5&#xD;&#xA;   c0.6,0.3,1,0.8,1.3,1.3c0.3,0.6,0.5,1.2,0.5,1.8c0,0.6-0.2,1.3-0.5,1.8c-0.3,0.6-0.8,1-1.3,1.4c-0.6,0.3-1.2,0.5-1.9,0.5&#xD;&#xA;   c-0.7,0-1.3-0.2-1.9-0.5c-0.6-0.3-1-0.8-1.3-1.4C136.4,17.2,136.3,16.6,136.3,15.9 M136.9,15.9c0,0.5,0.1,1.1,0.4,1.6&#xD;&#xA;   c0.3,0.5,0.7,0.9,1.1,1.1c0.5,0.3,1,0.4,1.5,0.4c0.5,0,1.1-0.1,1.5-0.4c0.5-0.3,0.9-0.7,1.1-1.1c0.3-0.5,0.4-1,0.4-1.5&#xD;&#xA;   c0-0.5-0.1-1.1-0.4-1.5c-0.3-0.5-0.7-0.9-1.1-1.1c-0.5-0.3-1-0.4-1.5-0.4c-0.5,0-1.1,0.1-1.5,0.4c-0.5,0.3-0.9,0.7-1.1,1.1&#xD;&#xA;   C137,14.9,136.9,15.4,136.9,15.9 M139.2,16.3V18h-0.7v-4.2h1.4c0.4,0,0.9,0.1,1.2,0.3c0.1,0.1,0.3,0.2,0.3,0.4&#xD;&#xA;   c0.1,0.2,0.1,0.3,0.1,0.5c0,0.2-0.1,0.4-0.2,0.6c-0.1,0.2-0.3,0.3-0.5,0.4c0.2,0.1,0.4,0.2,0.5,0.4c0.1,0.2,0.2,0.4,0.1,0.6v0.3&#xD;&#xA;   c0,0.2,0,0.4,0.1,0.6V18h-0.7c-0.1-0.2-0.1-0.4-0.1-0.6c0-0.2,0-0.4,0-0.5c-0.1-0.3-0.3-0.5-0.7-0.5L139.2,16.3z M139.2,15.7h0.8&#xD;&#xA;   c0.2,0,0.4-0.1,0.6-0.2c0.1,0,0.1-0.1,0.2-0.2c0-0.1,0.1-0.2,0.1-0.2c0-0.1,0-0.2,0-0.3c0-0.1-0.1-0.2-0.2-0.2&#xD;&#xA;   c-0.2-0.1-0.5-0.2-0.7-0.1h-0.7L139.2,15.7z"/>
		<path class="st1" d="M37.2,37.3c1.1,0.3,2.2,0.6,2.7,1.6l0,0c0.2,0.9-0.7,0.4-1.3,0c-0.2-0.1-0.4-0.2-0.5-0.3&#xD;&#xA;   c-0.8-0.3-1.6-0.6-2.4-0.9c-0.5-0.2-1.1-0.4-1.6-0.6c-0.3-0.1-0.7-0.3-1-0.4c-0.9-0.2-0.6,1.3-0.4,2.7c0.1,0.7,0.3,1.4,0.2,1.7&#xD;&#xA;   c0.1,1.4,0.2,5.6-1.7,5c-0.4-0.1-0.9-0.7-1.3-1.2c-0.2-0.3-0.5-0.5-0.6-0.7c-0.5-0.5-1.1-0.9-1.7-1.2c-0.8-0.4-1.6-0.5-2.3,0&#xD;&#xA;   c-0.7,0.5-1.2,1.2-1.7,1.9c-0.1,0.2-0.2,0.3-0.3,0.4c-0.1,0.2-0.3,0.4-0.4,0.6v0c-0.7,1.1-1.7,2.6-2.7,1.7&#xD;&#xA;   c-0.2-0.1-0.3-0.8-0.4-1.4c-0.1-0.5-0.2-1.1-0.3-1.2c-0.5-0.6-1-0.5-1.7-0.5c-0.5,0-1.1,0-1.6-0.3c-0.4-0.2-0.8-0.4-1.2-0.5&#xD;&#xA;   c-0.8-0.2-1.5,0.2-2.2,0.6c-0.2,0.1-0.4,0.3-0.7,0.5c-1.1,0.8-2.7,2-3.6,1C8.1,45.6,8,45.3,7.9,45c-0.6-1.9-0.8-4-0.5-6&#xD;&#xA;   c0.1-0.3,0.1-0.5,0-0.8c-0.2-0.5-0.9-0.3-1.3-0.1c-0.1,0-0.2,0.1-0.2,0.1c-0.5,0.2-1,0.4-1.7,0.7h0c-1.8,0.8-4,1.7-4.3,0.8&#xD;&#xA;   c0.8-0.5,1.6-1.1,2.4-1.7c1.4-1,2.8-2.1,4.6-2.7C7,35.3,7.5,35.1,8,35c0-0.3,0.1-0.7,0.4-0.8c0.5-0.1,1.5-0.4,1.7-1&#xD;&#xA;   c0-0.1,0.7-0.8,0.9-0.4c0,0,0,0.1,0,0.1c0,0,0,0.1,0,0.1l0,0l0,0c0,0,0,0,0,0c0,0.1,0,0.2-0.1,0.4c-0.1,0.8-0.1,1.7-0.1,2.5&#xD;&#xA;   c0.1,0.8-0.9-0.4-0.9-0.6c-0.1,0.3-0.2,0.6-0.3,0.9l0,0l0,0c-0.4,1.1-0.8,2.3-0.8,2.9c0,0.7,0,1.5-0.1,2.2c-0.1,1.2-0.1,2.4,0,3.5&#xD;&#xA;   c0,0,0,0,0,0.1v0c0,0,0,0,0,0.1c0,0,0,0,0,0c0,0,0,0,0,0c0.6-0.4,1.1-1.1,1.6-1.8c1-1.3,2-2.7,3.3-2.2c1,0.5,1.8,0.7,2.5,0.9&#xD;&#xA;   c1.3,0.3,2.3,0.5,3.9,2.9c-0.8-2.7-1.9-3.4-3.4-4.3c-1-0.6-2.2-1.3-3.7-2.9c-0.5-1.5-1.3-4.2-1.3-6c0-0.1,0-0.2,0-0.3&#xD;&#xA;   c0.2-0.4,0.4-0.6,0.7-0.7c0.2-0.2,0.4-0.3,0.5-0.6v-3.2l-0.4-0.4c-0.4-0.7-0.5-1.2-0.7-1.8c-0.1-0.4-0.2-0.7-0.4-1.2l0,0l0,0&#xD;&#xA;   c-0.3,0-0.5,0-0.7-0.3c-0.2-0.3-0.4-0.7-0.5-1.1c-0.1-0.3-0.2-0.6-0.4-0.8c-0.4-0.7-0.6-1.6-0.7-2.4c0-0.4-0.1-0.8-0.2-1.2&#xD;&#xA;   c-0.1-0.3-0.2-0.6-0.2-0.9c0-0.5,0.1-0.5,0.5-0.6c0-0.6-0.1-1.2-0.2-1.8c0.1,0,0.1-0.1,0.2-0.1l0,0c0,0,0,0,0.1,0L9.3,14&#xD;&#xA;   c-0.1,0.1-0.2,0.1-0.3,0.2c-0.1-0.9-0.3-1.8-0.5-2.6l0,0C8,9.8,7.6,8,8.2,6.1c0.6-1.3,1.5-2.5,2.7-3.4c0,0,0,0,0,0l0.1,0&#xD;&#xA;   c0,0,0,0,0,0l0,0c0,0,0,0,0,0c0,0,0,0,0,0c0,0,0,0,0,0l0,0l0,0v0c0,0,0,0,0,0.1c0,0,0,0,0,0v0c0,0,0,0,0,0v0&#xD;&#xA;   c0.1,0.6-0.6,1.3-1,1.7c0,0-0.1,0.1-0.1,0.1c-0.4,0.8-0.9,2-0.8,3c0.5-0.9,1.2-1.7,2.1-2.3c0.1-0.2,0.2-0.4,0.4-0.5&#xD;&#xA;   c0.2-0.1,0.4-0.2,0.6-0.3c0.2,0,0.3-0.1,0.5-0.1C10.9,3.7,14.2,3,15,3c0.8-0.3,1.8,0,2.8,0.2c0.9,0.2,1.7,0.4,2.4,0.2&#xD;&#xA;   c0,0-0.1-0.1-0.1-0.1C19.8,3,19.4,2.4,20,2.3c1.1,0.5,1.7,0.4,2.3,0.2c0.4-0.1,0.9-0.2,1.5-0.1c0.8,0.1-0.5-0.6-1.9-1.3&#xD;&#xA;   C21.4,1,21,0.9,20.6,0.9c-0.1,0-0.2-0.2-0.1-0.3c-0.4,0-0.7-0.1-1.1-0.2c-0.1,0-0.1-0.1-0.1-0.2c0-0.1,0.1-0.2,0.1-0.1&#xD;&#xA;   c0.3,0.1,0.7,0.1,1,0.2c0.1,0,0.2,0,0.3,0c2,0.2,4.3,0.5,5.8,2c0.4,0.7,1,0.9,1.7,1.2c0.5,0.2,1.1,0.5,1.5,0.9&#xD;&#xA;   c0.5,0.5,0.9,1.2,1,1.9l0,0c0,0,0,0,0,0v2.9c0,0.2,0,0.4-0.1,0.6l0,0c-0.1,0.7-0.2,1.4-0.2,2.1l0,0.2l0,0.2c0,0.1,0,0.3,0,0.4&#xD;&#xA;   c0,0.1-0.1,0-0.2,0c0.1,0.2,0.1,0.5,0.2,0.7c0,0.1,0,0.2-0.1,0.2c0,0.1-0.1,0.1-0.2,0.2c0.1,0.1,0.2,0.1,0.3,0.2&#xD;&#xA;   c0,0.5-0.1,0.9-0.1,1.3l0,0.2L30.3,16c0,0,0,0,0,0c0,0,0,0,0,0c0,0,0,0,0,0c0.6-0.1,0.7,0.3,0.7,0.8c0,0.5,0,0.8,0,1.2v0.2&#xD;&#xA;   c0,0.1,0,0.1,0,0.2v0l0,0l0,0c-0.1,0.8-0.3,1.6-0.7,2.3c-0.2,0.5-0.4,1-0.5,1.4l0,0c-0.1,0.2-0.2,0.3-0.5,0.1c0,0-0.1,0-0.1-0.1&#xD;&#xA;   L29,22.8c-0.3,1.4-0.9,2.7-1.5,4l0,0.1l0.1,0.5l0,0.1l0.1,0.5l0.4,2.3c0,0.9,0,1.7,0.1,2.6c0.2,2.6,0.3,4.9-2.8,5.8&#xD;&#xA;   c-2.5,0.3-3.1,2.8-4.2,7.4l-0.1,0.5c0.5-1.2,0.8-1.9,1-2.5c0.3-0.6,0.5-1.1,0.7-1.8c2.1-4.7,6.2-2.5,7.8,1.2&#xD;&#xA;   c2.4,5.8,1.7-4.9,1.4-6.7c-0.1-0.6-0.3-1.1-0.7-1.5c-0.2-0.2-0.3,0.1-0.3,0.4c-0.1,0.4-0.2,0.9-0.6,0.8c-0.2-0.8-0.4-1.6-0.5-2.3&#xD;&#xA;   v0c-0.2-1-0.4-2-0.7-3c0.8,0.2,1,0.9,1.2,1.7c0.1,0.3,0.2,0.5,0.3,0.7c0.1,0.4,0.4,0.7,0.7,0.9c0.2,0.1,0.3,0.2,0.5,0.3l0,0l0,0&#xD;&#xA;   l0,0c1.4,0.8,2.8,1.6,4.3,2.1C36.2,37,36.7,37.2,37.2,37.3z M15.2,25.4c0.3,0.3,0.6,0.6,0.8,1.4v0c0.3,1.3,1.5,2.8,3,2.8&#xD;&#xA;   c0.5,0,0.9-0.1,1.1-0.2c0.3-0.1,0.6-0.2,1.1,0c1.8,0.6,3.2-0.8,3.7-1.3c0.1-0.1,0.2-0.2,0.2-0.2c0.4,0,0.9-0.1,1.2-0.4&#xD;&#xA;   c0.3-0.3,0.6-0.6,0.8-1c0.6-1.4,1.2-2.9,1.3-4.3c0.9-0.8,1.2-2.5,1.2-3.2c0-0.5,0-0.9,0-1.4c0.2-0.2,0.7,0.7,0.9,1&#xD;&#xA;   c0-0.1,0-0.2,0-0.3c0-0.2-0.1-0.3-0.1-0.4c-0.1-0.2-0.1-0.3-0.1-0.5c0-0.4-0.5-0.5-0.8-0.5c-0.2,0.1-0.3-0.1-0.3-0.3&#xD;&#xA;   c0.1-0.3,0.1-0.5,0.1-0.7c0-0.2-0.1-0.5,0.1-0.8c0-0.1-0.2-0.6-0.4-1.2c-0.2-0.6-0.5-1.2-0.7-1.7c0.3,0.5,0.8,0.9,1.2,1.3&#xD;&#xA;   c-0.2-0.4-0.4-0.9-0.5-1.3c0-0.5,0.4-0.2,0.7,0.1c-0.9-1.1-2.1-3.2,0.1-1.7c-0.4-0.6-0.8-1.2-1.1-1.9c-0.9-1.6-1.8-3.2-3.7-3.9&#xD;&#xA;   c-0.6-0.6,0.6-0.5,0.9-0.2c6.5,2.9,2.5-2.5-1.4-0.2c-0.6,0.2-1.2,0.3-1.8,0.3c-1.1,0.1-2.1,0.2-2.9,1.1c-1.1-0.2-2.2-0.1-3.3,0.1&#xD;&#xA;   c-1,0.1-2,0.3-3,0.1c-0.7,0.1-1.5,1.1-2,2.1c-0.1,0.2,0,0.5,0,0.7c0,0.4,0.1,0.8-0.2,1.1c-0.1,0.3-0.1,0.5-0.2,0.6&#xD;&#xA;   c-0.1,0.3-0.2,0.4,0.2,0.1c0.1,0.4-0.3,1.1-0.5,1.5c-0.2,0.3-0.2,0.3,0.5-0.5c0.4-0.2,0.4,0.3,0.4,1.1c-0.2,0-0.4,0-0.6,0.1&#xD;&#xA;   c-0.2,0.1-0.3,0.2-0.5,0.4c0,0,0,0-0.1,0.1l0,0l-0.2,0.5c0.1-0.1,0.3-0.1,0.4-0.2l0,0l0,0c0.3-0.1,0.5-0.3,0.8-0.4&#xD;&#xA;   c0,1.1-0.2,2.2-0.6,3.3c-0.1,0.3,0,0.7,0.2,1.1c0.1,0.2,0.2,0.4,0.2,0.7c0.1,1,0.2,1.1,0.5,1.6c0.1,0.1,0.2,0.3,0.3,0.5&#xD;&#xA;   c0.9,0.4,3.1,0,4-1c0.6-0.6,1.9-0.8,1.9-0.8c-0.3,0.3-0.6,1.3-0.2,1.9c0.1,0.1,0.2,0,0.3,0c0.1-0.1,0.3-0.2,0.5-0.2&#xD;&#xA;   c0.2,0,0.4,0,0.6,0.1c0.2,0.1,0.4,0.2,0.5,0.3c0.6,0.4,0.9,0.2,1.1,0c0.1,0,0.1-0.1,0.2-0.2c0.1-0.1,0.3-0.3,0.6-0.4&#xD;&#xA;   c0.7-0.1,1,0.2,0.9,0.3c-0.2,0.2-0.4,0.3-0.6,0.3c-0.2,0-0.4,0.1-0.6,0.1c-0.1,0.3-0.1,0.6-0.1,0.9c0,0.2,0.1,0.4,0.1,0.5l0,0&#xD;&#xA;   c0,0.1,0.1,0.2,0.1,0.2c0,0.2,0.1,0.3,0.3,0.3c0.1,0,0.1,0,0.2,0c0.3,0,0.6,0,0.7,0.1c0,0,0,0.1,0,0.1c0,0.1,0,0.1,0.5,0.1&#xD;&#xA;   c0.7,0,0.9-0.1,0.8-0.6v0l0-0.1c0-0.8,0-1.7-0.6-2.3c-0.2-0.2-0.4-0.1-0.6-0.1c0,0-0.1,0-0.1,0c0-0.1-0.1-0.3,0-0.4v0&#xD;&#xA;   c0-0.2,0-0.4-0.1-0.6c0-0.2-0.1-0.3-0.2-0.4c0,0-0.1-0.1,0.1-0.1c0.1,0,0.2,0.1,0.4,0.2c0.3,0.2,0.6,0.3,0.8,0.4&#xD;&#xA;   c0.8,0.2,1.9,0.6,2.4,1.1c0.9,0.9,0.5,1.8,0.2,2.1c-0.2,0.2-0.6,0.1-0.8,0h0c0,0-0.1,0-0.1,0c-0.2-0.1-0.5,0-0.4,0.3&#xD;&#xA;   c0.1,0.3,0.2,0.5,0.3,0.6l0,0c0.2,0.2,0.3,0.4,0.4,1c0.1,0.8,0,2.3-0.1,2.4c-0.1,0.1-0.1-0.1-0.2-0.4c-0.1-0.2-0.1-0.6-0.3-1&#xD;&#xA;   c-0.1-0.4-0.4-0.8-0.7-1.1c0,0-0.1-0.1-0.1-0.1c-0.1-0.1-0.1-0.1-0.2-0.2c-0.1,0-0.2-0.1-0.3-0.1c-0.1,0-0.1,0.1-0.1,0.1&#xD;&#xA;   c0,0.1-0.1,0.1-0.2,0.1c-0.1,0-0.1,0-0.2,0h0c-0.2,0-0.4,0-0.5,0c0-0.1,0-0.1-0.1-0.2c0-0.1-0.1-0.2-0.2-0.2&#xD;&#xA;   c-0.2-0.1-2.6,0-3.3,0.2c-0.1,0-0.2,0.1-0.3,0.1c-0.2,0.1-0.3,0.2-0.3,0.3c0,0,0,0.1-0.1,0.1c-0.5,0-1,0-1.6,0&#xD;&#xA;   c-0.2-0.1-0.4-0.1-0.7-0.1c0,0,0,0-0.1,0c-0.3,0-0.7,0.1-0.9-0.4c-0.1-0.3-0.1-0.6-0.1-1c0,0-1,1.2-0.5,2&#xD;&#xA;   C14.9,25,15.1,25.2,15.2,25.4z M17.2,20.5c0,0-0.3,0.1-0.3,0.3l0,0c0,0.1,0,0.1,0.1,0.2c0.1,0.1,0.1,0.2,0.1,0.4&#xD;&#xA;   c0,0.1-0.1,0.2-0.1,0.2c-0.1,0.2-0.2,0.4-0.1,0.7c0.2,0.5,0.9,0.5,1.2,0.4c0.3-0.1,0.6-0.1,0.8-0.2c0,0-0.5-0.5-0.7-0.8&#xD;&#xA;   C17.9,21.5,17.2,20.5,17.2,20.5z M18.6,36.4c1,0.7,1.7,1.7,2,2.9l0,0c0,0.1,0,0.1,0,0.2c0,0.2,0.1,0.4,0.3,0.5&#xD;&#xA;   c0.2,0,0.4-0.2,0.5-0.3c0,0,0.1-0.1,0.1-0.1c0.5-0.6,1.1-1.1,1.7-1.5c0.6-0.4,1.2-0.6,1.9-0.7c0.1,0,0.3-0.1,0.4-0.2&#xD;&#xA;   c0.1-0.1,0.2-0.2,0.3-0.3c0.2-0.3,0.3-0.7,0.4-1.1c0.1-0.4,0.2-0.8,0.5-1.2c1.1-1.5,0.8-7,0.4-6.3c-0.7,0.7-1.9,1.1-3.1,1.5h0&#xD;&#xA;   c-0.6,0.2-1.2,0.4-1.8,0.7c-0.2,0.1-0.3,0.4-0.4,0.6c-0.1,0.2-0.2,0.5-0.4,0.5c-0.5,0.3-1,0.6-1.5,1c-0.2,1.3,0.1,1.7,0.4,1.9&#xD;&#xA;   c0.2,0.2,0.3,0.3,0.2,0.6c-0.2,0.6-1,0.8-1.5,1C18.6,36.2,18.4,36.3,18.6,36.4z M21.5,25.1c0.7,0,1.2,0,0.6,0.5h0&#xD;&#xA;   c-0.7,0.7-1.2,0.8-2.4,0.8c-0.3,0-0.7,0-1-0.1c-0.3-0.1-0.6-0.3-0.9-0.5c-0.3-0.2-1-1.1-0.7-1c0.4,0.2,0.8,0.3,1.2,0.3&#xD;&#xA;   c0.3,0,0.8,0,1.4,0c0.4,0,0.8,0,1.3,0C21.2,25.1,21.4,25.1,21.5,25.1z M18.1,12.9c-0.3,0.1-0.5,0.1-0.8,0c-0.4-0.1-1-0.1-2-0.1&#xD;&#xA;   c-2,0-3,1.2-3,1.2c-0.1,0.1-0.2,0.3-0.2,0.4c0,0.2,0,0.3,0.1,0.5c0,0.1,0,0.3,0,0.4l0,0c0,0.2-0.1,0.3,0,0.3&#xD;&#xA;   c0.1,0,0.2-0.1,0.4-0.3c0.5-0.4,1.3-1.1,2.4-1.3c1.5-0.2,2.1,0.2,2.1,0.2c-0.8,0-1.6,0.1-2.3,0.3c-0.9,0.4-1.7,1-2.1,1.9&#xD;&#xA;   c0,0.2,0.2,0.3,0.5,0.2c0.2,0,0.3-0.3,0.5-0.4c0.1-0.1,0.1-0.2,0.2-0.2c0.4,0,0.8,0,1.2-0.1c0.7-0.2,2.4-0.1,2.4-0.1&#xD;&#xA;   s-0.5,0.1-1,0.3c-0.7,0.2-1.3,0.4-2,0.4c-0.7,0-0.6,0.2-0.6,0.2s2.1,0.3,3.6-0.3c1.3-0.5,1.4-1.6,1.4-2.3v0c0-0.2,0-0.3,0-0.4&#xD;&#xA;   C18.8,13.4,18.6,12.8,18.1,12.9L18.1,12.9z M24,13.9c0.8,0.1,1.7,0.8,2.2,1.3l0,0c0.5,0.5,0.7,0.9,0.6,0.9&#xD;&#xA;   c-0.4-0.1-0.8-0.3-1.1-0.5c-0.2-0.2-0.5-0.3-0.8-0.5c-0.1,0.2-0.3,0.4-0.5,0.5c-0.4,0.2-1.4,0.1-1.8,0.1c-0.2,0-0.4,0-0.6,0&#xD;&#xA;   c0.4,0.1,0.7,0.2,1.1,0.3c0.2,0,0.4,0,0.6,0c0.4,0,0.8,0,0.9,0.1c0.2,0.1,0.4,0.3,0.6,0.5c0,0-2.9,0.2-3.4-0.2&#xD;&#xA;   c-0.2-0.2-0.2-0.4-0.2-0.6c0-0.2,0-0.3-0.2-0.4c-0.2-0.1-0.3-0.2-0.4-0.4C21,15,20.9,14.8,21,14.6c0,0-0.4-1.9,0.8-2.1&#xD;&#xA;   c0.6-0.1,1.3-0.1,1.9,0c0.2,0,0.4,0,0.7,0c0.1,0,0.2,0,0.3,0c0.1,0,0.2,0,0.3,0c0.4,0,1.1,0,1.3,0.3c0.3,0.3,0.6,0.7,0.7,1.2&#xD;&#xA;   c0,0,0.1,0.3-0.1,0.4c-0.1,0-0.3-0.1-0.5-0.3c-0.3-0.2-0.8-0.5-1.2-0.5h0c-0.2,0-0.4,0-0.5-0.1c-0.1,0-0.1,0-0.2,0&#xD;&#xA;   c-0.5-0.1-1.7-0.1-2.2,0.2c-0.1,0.1-0.3,0.1-0.3,0.3c-0.1,0.1-0.1,0.3-0.2,0.4C21.6,14.4,23.2,13.8,24,13.9z"/>
	</g>
</g>
</svg>