<svg xmlns="http://www.w3.org/2000/svg" xmlns:xlink="http://www.w3.org/1999/xlink" version="1.1" id="Layer_1" x="0px" y="0px" viewBox="0 0 268 73" style="enable-background:new 0 0 268 73;" xml:space="preserve">
<style type="text/css">
	.st0{fill:#AEBDED;}
	.st1{fill:#6F86C6;}
	.st2{fill:#fff;}
</style>
<g>
	<g>
		<path class="st0" d="M3.5,24c0-4.8,6.8-8.3,15.3-8.3c5.8,0,10.5,1.8,13.3,4.3c-0.8-4-7.5-7.3-16.1-7.3c-8.8,0-16.1,3.5-16.1,8    c0,2,1.5,3.8,4,5.3C3.8,25,3.5,24.5,3.5,24z"/>
		<path class="st1" d="M37.6,15.9c0,4.8-6.8,8.5-15.3,8.5c-5.8,0-10.5-1.8-13.3-4.3c0.8,4,7.5,7.3,16.1,7.3c8.8,0,16.1-3.5,16.1-8    c0-2-1.5-3.8-4-5.3C37.6,14.9,37.6,15.4,37.6,15.9z"/>
		<path class="st1" d="M26.1,17.9c0,1.8-2.8,3.3-6,3.3c-2.3,0-4.3-0.8-5.3-1.8c0.3,1.8,3,3,6.3,3c3.5,0,6.5-1.3,6.5-3    c0-0.8-0.5-1.5-1.5-2C26.1,17.7,26.1,17.7,26.1,17.9z"/>
	</g>
	<g>
		<path class="st1" d="M190.7,52.8c0-0.8,0-1.5,0-2.3c0.3,0,0.5,0,0.8,0c0.3,0,0.5,0,0.8,0c0.3,0,0.5,0,0.8,0c0.3,0,0.5,0,0.8,0    c0,0.8,0,1.5,0,2.3s0,1.8,0,2.8v2.5c0,1,0,1.8,0,2.8c0,0.8,0,1.5,0,2.3c-0.3,0-0.5,0-0.8,0c-0.3,0-0.5,0-0.8,0c-0.3,0-0.5,0-0.8,0    c-0.3,0-0.5,0-0.8,0c0-0.8,0-1.5,0-2.3c0-0.8,0-1.8,0-2.8v-2.5C190.7,54.6,190.7,53.6,190.7,52.8z"/>
		<path class="st1" d="M198.5,55.6c0.3-0.5,0.8-1,1.3-1.3c0.5-0.3,1-0.5,1.5-0.5c1,0,1.5,0.3,2,0.8c0.5,0.5,0.8,1.3,0.8,2.5    c0,0.5,0,1.3,0,1.5c0,0.5,0,1,0,1.5c0,0.5,0,0.8,0,1.3c0,0.5,0,1,0,1.3c-0.3,0-0.3,0-0.5,0s-0.5,0-0.8,0c-0.3,0-0.5,0-0.8,0    c-0.3,0-0.5,0-0.5,0c0-0.5,0.3-1.3,0.3-2.3c0-0.8,0-1.8,0-3c0-0.8-0.3-1.3-0.5-1.8c-0.3-0.3-0.5-0.5-1-0.5c-0.5,0-1,0.3-1.3,0.8    s-0.5,1-0.5,2v0.8c0,0.8,0,1.5,0,2c0,0.8,0,1.3,0,1.8c-0.3,0-0.3,0-0.5,0s-0.5,0-0.8,0c-0.3,0-0.5,0-0.8,0s-0.5,0-0.5,0    c0-0.5,0-1.3,0-1.8c0-0.8,0-1.3,0-2v-0.8c0-0.8,0-1.5,0-2c0-0.8,0-1.3,0-2c0.3,0,0.5,0,0.8,0c0.3,0,0.5,0,0.8,0s0.5,0,0.8,0    c0.3,0,0.5,0,0.8,0L198.5,55.6L198.5,55.6z"/>
		<path class="st1" d="M206.5,61.1c0,0.3,0.3,0.3,0.5,0.5c0.3,0.3,0.3,0.3,0.5,0.3s0.5,0,0.8,0c0.5,0,0.8,0,1-0.3    c0.3-0.3,0.3-0.5,0.3-0.8c0-0.3,0-0.5-0.3-0.8c-0.3-0.3-0.5-0.3-0.8-0.5c-0.3-0.3-0.8-0.3-1-0.5c-0.3-0.3-0.8-0.3-1-0.5    c-0.3-0.3-0.5-0.5-0.8-0.8c-0.3-0.3-0.3-0.8-0.3-1.3c0-0.5,0-1,0.3-1.3c0.3-0.3,0.5-0.8,0.8-1c0.3-0.3,0.8-0.5,1-0.5    s0.8-0.3,1-0.3c0.5,0,1,0,1.3,0.3c0.5,0.3,0.8,0.3,1.3,0.8c0,0.3-0.3,0.5-0.3,0.8c0,0.3,0,0.5-0.3,0.8H210c0-0.3,0-0.3-0.3-0.5    c0-0.3-0.3-0.3-0.3-0.5s-0.3-0.3-0.5-0.5c-0.3,0-0.5-0.3-0.8-0.3c-0.3,0-0.8,0-1,0.3c-0.3,0.3-0.3,0.5-0.3,0.8    c0,0.3,0,0.5,0.3,0.8c0.3,0.3,0.5,0.3,0.8,0.5c0.3,0.3,0.8,0.3,1,0.5s0.8,0.3,1,0.5c0.3,0.3,0.5,0.5,0.8,0.8    c0.3,0.3,0.3,0.8,0.3,1.3s0,1-0.3,1.3c-0.3,0.5-0.5,0.8-0.8,1c-0.3,0.3-0.8,0.5-1,0.5c-0.5,0-0.8,0.3-1.3,0.3s-1,0-1.5-0.3    c-0.5-0.3-0.8-0.3-1-0.5c0.3-0.5,0.3-1.3,0.3-1.8h0.5C206.3,60.8,206.3,61.1,206.5,61.1z"/>
		<path class="st1" d="M218.3,61.6c-0.3,0.5-0.8,1-1.3,1.3c-0.5,0.3-1,0.5-1.5,0.5c-1,0-1.5-0.3-2-0.8c-0.5-0.5-0.8-1.3-0.8-2.5    c0-0.5,0-1.3,0-1.5c0-0.5,0-1,0-1.5c0-0.5,0-0.8,0-1.3c0-0.5,0-1,0-1.3c0.3,0,0.3,0,0.5,0s0.5,0,0.8,0c0.3,0,0.5,0,0.8,0    c0.3,0,0.5,0,0.5,0c0,0.8-0.3,1.5-0.3,2.3c0,0.8,0,1.8,0,3c0,0.8,0.3,1.3,0.5,1.8c0.3,0.5,0.5,0.5,1,0.5s1-0.3,1.3-0.8    c0.3-0.5,0.3-1,0.3-2v-0.8c0-0.8,0-1.5,0-2c0-0.8,0-1.3,0-2c0.3,0,0.8,0,1.3,0c0.3,0,0.5,0,0.8,0c0.3,0,0.5,0,0.5,0    c0,0.8,0,1.3,0,2s0,1.3,0,2v0.8c0,0.8,0,1.5,0,2c0,0.8,0,1.3,0,1.8c-0.3,0-0.5,0-0.8,0c-0.3,0-0.5,0-0.8,0c-0.3,0-0.5,0-0.8,0    c-0.3,0-0.5,0-0.8,0L218.3,61.6L218.3,61.6z"/>
		<path class="st1" d="M225.3,56.3c0.3-0.8,0.8-1.5,1.3-1.8c0.5-0.5,1-0.5,1.5-0.5c0,0,0,0,0.3,0c0,0,0,0,0.3,0c0,0.3,0,0.3,0,0.5    s0,0.5,0,0.8v0.5v0.3v0.3l-0.3,0.3c0,0-0.3-0.3-0.5-0.3s-0.3,0-0.5,0c-0.5,0-1,0.3-1.3,0.5c-0.3,0.3-0.5,0.8-0.5,1.3v0.8    c0,0.8,0,1.5,0,2c0,0.8,0,1.3,0,1.8c-0.3,0-0.3,0-0.5,0s-0.5,0-0.8,0c-0.3,0-0.5,0-0.8,0c-0.3,0-0.5,0-0.5,0c0-0.5,0-1.3,0-1.8    c0-0.8,0-1.3,0-2v-0.8c0-0.8,0-1.5,0-2c0-0.8,0-1.3,0-2c0.3,0,0.5,0,0.5,0c0.3,0,0.5,0,0.5,0c0.3,0,0.5,0,0.5,0c0.3,0,0.5,0,0.5,0    L225.3,56.3L225.3,56.3z"/>
		<path class="st1" d="M229.6,55.3c0.5-0.5,1-0.8,1.5-1c0.5-0.3,1.3-0.3,1.8-0.3s1,0,1.3,0.3c0.5,0,0.8,0.3,1,0.5    c0.3,0.3,0.5,0.5,0.8,1c0.3,0.3,0.3,0.8,0.3,1.3c0,0.8,0,1.5,0,2s0,1.3,0,2c0,0.3,0,0.5,0,0.8c0,0.3,0,0.3,0.3,0.3l0.3,0.3    c0.3,0,0.3,0,0.5,0v0.5c-0.3,0.3-0.8,0.3-1,0.3s-0.5,0-0.8,0c-0.5,0-0.8,0-1-0.3c-0.3-0.3-0.5-0.5-0.8-1c-0.3,0.5-0.5,0.8-1,1    c-0.3,0.3-0.8,0.3-1.3,0.3c-0.5,0-0.8,0-1.3-0.3c-0.3,0-0.5-0.3-0.8-0.5c-0.3-0.3-0.3-0.5-0.5-0.8c0-0.3-0.3-0.5-0.3-0.8    c0-0.5,0-0.8,0.3-1c0-0.3,0.3-0.5,0.5-0.8c0.3-0.3,0.5-0.3,0.8-0.5c0.3-0.3,0.8-0.3,1-0.3c0.5,0,1-0.3,1.3-0.3s0.5-0.3,0.8-0.3    c0.3,0,0.3-0.3,0.3-0.3s0-0.3,0-0.5c0-0.5-0.3-0.8-0.5-1c-0.3-0.3-0.8-0.5-1.3-0.5c-0.3,0-0.5,0-0.8,0c-0.3,0-0.5,0.3-0.5,0.3    c-0.3,0-0.5,0.3-0.5,0.3c-0.3,0-0.3,0.3-0.3,0.3l0,0L229.6,55.3z M233.9,60.1c0-0.5,0-1,0-1.3c0-0.3,0-0.5,0-0.8    c-0.3,0.3-0.5,0.3-0.8,0.3c-0.3,0-0.5,0.3-0.8,0.3c-0.3,0.3-0.5,0.3-0.5,0.5c0,0.3-0.3,0.5-0.3,1c0,0.5,0,0.8,0.3,1    c0.3,0.3,0.5,0.3,0.8,0.3c0.5,0,0.8-0.3,1-0.5C233.9,61.1,233.9,60.6,233.9,60.1z"/>
		<path class="st1" d="M241.1,55.6c0.3-0.5,0.8-1,1.3-1.3c0.5-0.3,1-0.5,1.5-0.5c1,0,1.5,0.3,2,0.8c0.5,0.5,0.8,1.3,0.8,2.5    c0,0.5,0,1.3,0,1.5c0,0.5,0,1,0,1.5c0,0.5,0,0.8,0,1.3c0,0.5,0,1,0,1.3c-0.3,0-0.3,0-0.5,0s-0.5,0-0.8,0c-0.3,0-0.5,0-0.8,0    c-0.3,0-0.5,0-0.5,0c0-0.5,0.3-1.3,0.3-2.3c0-0.8,0-1.8,0-3c0-0.8-0.3-1.3-0.5-1.8c-0.3-0.3-0.5-0.5-1-0.5c-0.5,0-1,0.3-1.3,0.8    s-0.5,1-0.5,2v0.8c0,0.8,0,1.5,0,2c0,0.8,0,1.3,0,1.8c-0.3,0-0.3,0-0.5,0c-0.3,0-0.5,0-0.8,0c-0.3,0-0.5,0-0.8,0    c-0.3,0-0.5,0-0.5,0c0-0.5,0-1.3,0-1.8c0-0.8,0-1.3,0-2v-0.8c0-0.8,0-1.5,0-2c0-0.8,0-1.3,0-2c0.3,0,0.5,0,0.8,0    c0.3,0,0.5,0,0.8,0c0.3,0,0.5,0,0.8,0c0.3,0,0.5,0,0.8,0L241.1,55.6L241.1,55.6z"/>
		<path class="st1" d="M254.4,55.3c-0.3-0.3-0.8-0.5-1.3-0.5c-0.8,0-1.3,0.3-1.5,1c-0.3,0.8-0.5,1.5-0.5,2.8c0,1,0.3,2,0.8,2.5    c0.5,0.5,1,0.8,2,0.8c0.3,0,0.8,0,1-0.3c0.3-0.3,0.5-0.3,0.8-0.5l0.3,0.3c0,0.3-0.3,0.3-0.3,0.5c0,0.3,0,0.3-0.3,0.5    c-0.3,0.3-0.5,0.3-1,0.5c-0.5,0.3-0.8,0.3-1.5,0.3c-0.8,0-1.5,0-2.3-0.5c-0.5-0.3-1-0.5-1.5-1c-0.3-0.5-0.5-1-0.8-1.5    c-0.3-0.5-0.3-1-0.3-1.8s0-1.3,0.3-1.8s0.5-1,1-1.5c0.5-0.5,1-0.8,1.5-1c0.5-0.3,1.3-0.3,2-0.3s1.3,0,1.8,0.3    c0.5,0.3,1,0.3,1.3,0.5c-0.3,0.3-0.3,0.5-0.5,1c-0.3,0.5-0.3,0.8-0.3,1h-0.5C255,56.1,254.7,55.6,254.4,55.3z"/>
		<path class="st1" d="M259.7,58.6c0,0.5,0,1,0.3,1.3c0,0.5,0.3,0.8,0.5,1c0.3,0.3,0.5,0.5,0.8,0.8c0.3,0.3,0.8,0.3,1,0.3    c0.8,0,1.5-0.3,2.3-0.8l0.3,0.3l-0.5,1c-0.3,0.3-0.8,0.5-1,0.5c-0.5,0.3-1,0.3-1.8,0.3c-0.5,0-1.3,0-1.8-0.3    c-0.5-0.3-1-0.5-1.5-0.8s-0.8-0.8-1-1.5c-0.3-0.5-0.3-1.3-0.3-2s0-1.5,0.3-2c0.3-0.5,0.5-1,0.8-1.5c0.3-0.5,0.8-0.8,1.3-0.8    c0.5-0.3,1-0.3,1.8-0.3c1.3,0,2,0.3,2.8,1s1,1.8,1,3v0.5v0.3h-5V58.6z M262.5,57.8c0-1-0.3-1.5-0.3-2.3c-0.3-0.5-0.5-0.8-1-0.8    c-0.3,0-0.5,0-0.8,0.3c-0.3,0.3-0.3,0.5-0.5,0.8c0,0.3-0.3,0.5-0.3,1c0,0.3,0,0.8,0,1H262.5z"/>
	</g>
	<path class="st2" d="M76,48.5l2.5-16.1c0.8-4.3,1.5-9.5,2.8-15.3h-0.3c-2.3,5-4.8,10.5-7,14.8L65.7,48H59l-1.5-15.8   c-0.3-4.3-0.8-9.8-1-14.8l0,0c-1.3,5.3-2.3,11-3.3,15.3l-4,16.1h-7.8l10-38.9H63l1.3,14.8c0.3,3.8,0.8,8,0.8,12.3h0.3   c1.5-4.3,3.8-9,5.5-12.5l7.5-14.8h11.5l-5.5,38.9H76z"/>
	<path class="st2" d="M110.4,48.5c0-1.5,0.3-3.5,0.3-5.5l0,0c-2.8,4.8-6.5,6.3-10,6.3c-5.3,0-8.8-4-8.8-9.8   c0-9.5,6.5-19.8,20.8-19.8c3.5,0,7.3,0.8,9.5,1.5l-3,14.8c-0.8,3.8-1.3,9.3-1.3,12.8h-7.5V48.5z M112.9,26c-0.8,0-1.3-0.3-2.3-0.3   c-5.5,0-9.5,6.5-9.5,11.8c0,2.8,1.3,4.8,3.5,4.8c2.5,0,5.8-2.8,7.3-9.8L112.9,26z"/>
	<g>
		<path class="st2" d="M140,49.3c-4.3,0-7.8-1-10.3-3.3c-2.5-2-4-5.5-4-9.3c0-5.5,2.3-10.3,6.3-13.8c3.5-2.8,8.3-4.3,13.6-4.3    c3.8,0,6.8,0.8,8,1.3l0.5,0.3l-2.3,6.3l-0.5-0.3c-1.3-0.5-3.5-1.3-6-1.3c-2.8,0-5.3,0.8-7.3,2.3c-2.5,2-4,5.3-4,9    c0,4.3,2.5,6.8,7,6.8c1,0,2,0,2.8-0.5l1-5.3H140l1.3-6h12l-3.3,16.1h-0.3C148.1,48.3,144.3,49.3,140,49.3z"/>
	</g>
	<path class="st2" d="M156.1,48.5l3.8-19.1c0.8-3.5,1.3-6.8,1.5-9.3h7.5l-0.5,4.8l0,0c2.8-3.8,6.3-5.3,10.3-5.3   c4.8,0,7.5,2.8,7.5,7.8c0,1.3-0.3,3.3-0.5,4.8l-3.3,16.6h-8.5l3-15.8c0.3-1,0.3-2,0.3-3c0-2-0.8-3.5-3-3.5c-2.8,0-6,3.5-7.3,9.8   l-2.5,12.5h-8.3V48.5z"/>
	<path class="st2" d="M220.6,20.2l-3.8,19.1c-0.8,3.5-1.3,6.8-1.5,9.3h-7.5l0.5-4.5l0,0c-3,3.8-6.5,5.3-10,5.3c-4.8,0-7.5-2.5-7.5-8   c0-1.5,0.3-3.3,0.5-5.3l3-15.8h8.5l-3,15.1c-0.3,1.3-0.5,2.8-0.5,3.8c0,1.8,0.8,3.3,3,3.3c3,0,6-3.5,7-9l2.5-13H220.6z"/>
	<path class="st2" d="M221.6,48.5l3.8-19.1c0.8-3.5,1.3-6.8,1.5-9.3h7.5l-0.5,4.5l0,0c2.8-3.8,6.3-5.3,10-5.3c4.8,0,6.8,3,7,5.3   c2.5-3.8,6.3-5.3,10-5.3c4.5,0,7,2.8,7,7.5c0,1.3-0.3,3.5-0.5,4.8l-3.3,16.6H256l3-15.6c0.3-1,0.5-2.3,0.5-3.5c0-2-1-3.3-2.8-3.3   c-2.8,0-5.8,3.8-6.8,9.5l-2.5,12.8h-8.8l3-15.6c0.3-1,0.3-2.3,0.3-3.3c0-2-0.8-3.5-2.8-3.5c-3,0-6,4-7,9.5l-2.5,12.8h-8V48.5z"/>
</g>
</svg>