<svg version="1.1" id="Laag_1" xmlns="http://www.w3.org/2000/svg" xmlns:xlink="http://www.w3.org/1999/xlink" x="0px" y="0px" viewBox="0 0 938.6 206.3" style="enable-background:new 0 0 938.6 206.3;" xml:space="preserve">
<style type="text/css">
	.st0{fill:#008ACB;}
	.st1{fill:#004A99;}
	.st2{fill:#063E4D;}
</style>
<path class="st0" d="M380.9,57.1c0.6,6.2-4.6,11.4-10.8,10.7c-1.5-0.2-2.8-0.3-3.6-0.3c-16.3,0-25.5,8-25.5,23.6v46.7  c0,6.5-5.3,11.8-11.8,11.8h0c-6.5,0-11.8-5.3-11.8-11.8V65.1V54.2c0-2.7,2.2-4.9,5-4.9h11.3c2,0,3.9,1.2,4.6,3.1l2.7,5.3  c4.3-4.7,11.8-10,25.5-10c2,0,4.1,0.1,6.2,0.5C377,49.1,380.5,52.6,380.9,57.1L380.9,57.1z"/>
<path class="st1" d="M651.8,136.8c0.5,5.1-3,9.8-8.1,10.6c-5.7,1-13.3,2-20.5,2c-43.2,0-51-23-51-51s7.8-51,51-51  c8.8,0,16.9,2.1,22,3.8c3.4,1.1,5.7,4.1,6.1,7.6v0c0.7,6.6-5.3,11.9-11.8,10.3c-4.9-1.2-10.7-2.1-16.3-2.1  c-24.5,0-27.5,13.5-27.5,31.4s4.9,31.4,27.5,31.4c6.6,0,12.6-0.8,17.3-1.6c5.5-1,10.7,2.9,11.3,8.5L651.8,136.8z"/>
<path class="st1" d="M527.7,129.8c8.6,0,11.8-2.7,11.8-7.8c0-6.3-5.9-8.8-15.7-11.8c-17.9-5.3-37.3-12.6-37.3-35.3  c0-16.7,10.8-27.5,35.3-27.5c9.9,0,18.6,1.2,24.3,2.3c4.2,0.8,7.3,4.3,7.8,8.5l0,0c0.6,6.2-4.8,11.4-11,10.5  c-5.9-0.9-13.4-1.7-21.1-1.7c-7.9,0-11.8,2.7-11.8,7.9c0,6.3,5.9,8.8,15.7,11.8C543.6,91.9,563,99,563,121.9  c0,15.7-12.8,27.5-35.3,27.5c-13.2,0-24.2-2.2-30.8-3.9c-3.9-1-6.8-4.4-7.2-8.4v0c-0.6-6.4,5.1-11.7,11.5-10.4  C508.8,128.2,518.6,129.8,527.7,129.8"/>
<g>
	<path class="st1" d="M886.4,55.4c-0.3-0.7-1.4-2.2-2.8-2.2h-1.9v8.3c0,0.2-0.1,0.3-0.3,0.3h-2.8c-0.2,0-0.3-0.1-0.3-0.3V42.9   c0-0.2,0.1-0.2,0.3-0.3l2.5-0.3h3.3c6.4,0,7.2,2.5,7.2,5.4c0,2.4-0.5,4.2-3.5,5c0.7,0.7,1.3,1.6,1.7,2.4c1.6,3.6,2.6,6.4,2.6,6.4   c0,0.2-0.1,0.3-0.3,0.3h-3c-0.1,0-0.2-0.1-0.3-0.3L886.4,55.4 M884.5,50.4c3.6,0,3.9-1.2,3.9-2.6c0-1.4-0.3-2.6-3.9-2.6h-2.8v5.3   H884.5z"/>
	<path class="st1" d="M903,52h-0.8c0,4.6-1.9,8.8-4.9,11.8c-3,3-7.2,4.9-11.8,4.9c-4.6,0-8.8-1.9-11.8-4.9c-3-3-4.9-7.2-4.9-11.8   c0-4.6,1.9-8.8,4.9-11.8c3-3,7.2-4.9,11.8-4.9c4.6,0,8.8,1.9,11.8,4.9c3,3,4.9,7.2,4.9,11.8h1.7c0-10.2-8.2-18.4-18.4-18.4   c-10.2,0-18.4,8.2-18.4,18.4c0,10.2,8.2,18.4,18.4,18.4c10.2,0,18.4-8.3,18.4-18.4H903"/>
</g>
<path class="st2" d="M764.3,65.8"/>
<path class="st0" d="M459.2,134.1c-0.5-3.4-3.6-5.9-7.1-5.5c-4.8,0.5-9.9,0.9-14.8,0.9c-19.6,0-28.4-9.2-30-21.7l58.8-0.6  c5.1-0.1,9.1-4.3,9.1-9.3c0-35.2-15.5-50.7-43.4-50.7c-40,0-49.1,22.9-49.1,51c0,28.1,9.2,51,54.5,51c6.3,0,12.3-0.5,17.4-1.2  c3.6-0.5,6-3.8,5.5-7.3L459.2,134.1z M431.8,66.6c13.7,0,18.6,10.6,19.4,21.6h-44C408.6,75.9,413.2,66.6,431.8,66.6z"/>
<path class="st1" d="M817.5,47.5c-17.7,0-25.6,10.3-25.6,10.3l0,0l0,0l-2.7-5.3c-0.8-1.9-2.6-3.1-4.6-3.1l0,0l0,0h-11.3  c-0.3,0-0.6,0-0.8,0.1c-1,0.2-2,0.6-2.7,1.3c-0.9,0.9-1.5,2.1-1.5,3.5v10.4v0.5v72.6c0,6.5,5.3,11.8,11.8,11.8  c6.5,0,11.8-5.3,11.8-11.8V91.3c0-15.7,7.8-23.5,25.5-23.5c9.8,0,15.7,3.9,15.7,23.5v32.9v12.7v0.8c0,6.5,5.3,11.8,11.8,11.8h0  c6.5,0,11.8-5.3,11.8-11.8v-0.8V125V91.3C856.7,61.8,848.9,47.5,817.5,47.5z"/>
<path class="st0" d="M254.6,47.4c-14.7,0-25.5,10.4-25.5,10.4l-2.7-5.3c-0.8-1.9-2.6-3.1-4.6-3.1h-11.3c-2.7,0-5,2.2-5,4.9v3.5h0  l0,3.6v3.7v7.6v94.6c0,6.1,4.7,11.2,10.8,11.7c6.9,0.6,12.8-4.8,12.8-11.7v-27.7V98.4c0.4-19,6.3-29.8,24.9-30.4  c18-0.6,22.2,12.7,22.2,30.4c0,17.7-3.5,31.4-21.6,31.4c-1.5,0-2.8,0-4-0.1c-4.6-0.2-8.7,3.1-9.6,7.7l0,0.2  c-1.1,5.7,3,11.1,8.8,11.6c1.4,0.1,3,0.2,4.9,0.2c39.4,0,45.1-23,45.1-51S294,47.4,254.6,47.4z"/>
<path class="st1" d="M724.8,139.8c-3.9,4.3-12.4,9.8-28.5,9.8c-12,0-35.3-5.9-35.3-31.4c0-18.6,16.2-33,36.1-33.3  c0.8,0,3.4,0,5.7,0.1c5.3,0.3,8.9,4.2,9.2,9.8c0,5.4-4.5,9.1-9.8,9.2l-9.4,0.3c-6.8,0.1-12,6.7-12,13.8c0,10.6,7.9,12,12.4,12.2  c3.1,0.1,6.9,0.3,10.3,0c3.8-0.4,6.1-0.7,9.4-2.3c5.7-2.9,11-7.6,11-17.7v-3.9V88.8v-8.6c0-7.7-6.7-13-19.6-13  c-6.8,0-15.1,1.9-22,3.9c-6.4,1.8-12.6-3.4-11.9-10c0.4-3.6,2.7-6.7,6.1-7.9c6.4-2.3,17.3-5.6,27.8-5.6c25.7,0,43.2,11.8,43.2,31.4  l0,51c0,4.8,0,10.5,0,13.8c0,4-1.9,5.8-4.7,5.9h-7.9C729.4,149.7,725.3,144.6,724.8,139.8L724.8,139.8"/>
<g>
	<rect x="137.1" y="133.2" class="st1" width="17" height="45"/>
	
		<rect x="123.1" y="147.1" transform="matrix(6.123234e-17 -1 1 6.123234e-17 -38.1556 301.301)" class="st1" width="17" height="45.4"/>
	<rect x="137" y="47.8" class="st1" width="17.1" height="45.4"/>
	
		<rect x="123.1" y="33.8" transform="matrix(6.123234e-17 -1 1 6.123234e-17 75.2421 187.9034)" class="st1" width="17" height="45"/>
	<rect x="26.9" y="47.8" class="st1" width="17.1" height="45.4"/>
	
		<rect x="41.1" y="33.7" transform="matrix(6.123234e-17 -1 1 6.123234e-17 -6.7776 105.8994)" class="st1" width="17" height="45.4"/>
	<rect x="26.9" y="133.2" class="st1" width="17" height="45"/>
	
		<rect x="41.1" y="147.1" transform="matrix(6.123234e-17 -1 1 6.123234e-17 -120.1674 219.2892)" class="st1" width="17" height="45.4"/>
</g>
</svg>